%TF.GenerationSoftware,KiCad,Pcbnew,10.0.4*%
%TF.CreationDate,2026-09-26T11:42:44-04:00*%
%TF.ProjectId,receiver,72656365-6976-4657-922e-6b696361645f,rev?*%
%TF.SameCoordinates,Original*%
%TF.FileFunction,Copper,L1,Top*%
%TF.FilePolarity,Positive*%
%FSLAX46Y46*%
G04 Gerber Fmt 4.6, Leading zero omitted, Abs format (unit mm)*
G04 Created by KiCad (PCBNEW 10.0.4) date 2026-09-26 11:42:44*
%MOMM*%
%LPD*%
G01*
G04 APERTURE LIST*
G04 Aperture macros list*
%AMRoundRect*
0 Rectangle with rounded corners*
0 $1 Rounding radius*
0 $2 $3 $4 $5 $6 $7 $8 $9 X,Y pos of 4 corners*
0 Add a 4 corners polygon primitive as box body*
4,1,4,$2,$3,$4,$5,$6,$7,$8,$9,$2,$3,0*
0 Add four circle primitives for the rounded corners*
1,1,$1+$1,$2,$3*
1,1,$1+$1,$4,$5*
1,1,$1+$1,$6,$7*
1,1,$1+$1,$8,$9*
0 Add four rect primitives between the rounded corners*
20,1,$1+$1,$2,$3,$4,$5,0*
20,1,$1+$1,$4,$5,$6,$7,0*
20,1,$1+$1,$6,$7,$8,$9,0*
20,1,$1+$1,$8,$9,$2,$3,0*%
G04 Aperture macros list end*
%TA.AperFunction,SMDPad,CuDef*%
%ADD10RoundRect,0.200000X-0.200000X-0.275000X0.200000X-0.275000X0.200000X0.275000X-0.200000X0.275000X0*%
%TD*%
%TA.AperFunction,SMDPad,CuDef*%
%ADD11RoundRect,0.225000X0.225000X0.250000X-0.225000X0.250000X-0.225000X-0.250000X0.225000X-0.250000X0*%
%TD*%
%TA.AperFunction,SMDPad,CuDef*%
%ADD12R,0.900000X1.700000*%
%TD*%
%TA.AperFunction,ComponentPad*%
%ADD13R,1.700000X1.700000*%
%TD*%
%TA.AperFunction,ComponentPad*%
%ADD14C,1.700000*%
%TD*%
%TA.AperFunction,SMDPad,CuDef*%
%ADD15RoundRect,0.218750X-0.218750X-0.256250X0.218750X-0.256250X0.218750X0.256250X-0.218750X0.256250X0*%
%TD*%
%TA.AperFunction,SMDPad,CuDef*%
%ADD16R,1.500000X0.900000*%
%TD*%
%TA.AperFunction,SMDPad,CuDef*%
%ADD17R,0.900000X1.500000*%
%TD*%
%TA.AperFunction,HeatsinkPad*%
%ADD18C,0.600000*%
%TD*%
%TA.AperFunction,HeatsinkPad*%
%ADD19R,3.900000X3.900000*%
%TD*%
%TA.AperFunction,SMDPad,CuDef*%
%ADD20RoundRect,0.225000X-0.225000X-0.250000X0.225000X-0.250000X0.225000X0.250000X-0.225000X0.250000X0*%
%TD*%
%TA.AperFunction,SMDPad,CuDef*%
%ADD21RoundRect,0.150000X-0.150000X-0.575000X0.150000X-0.575000X0.150000X0.575000X-0.150000X0.575000X0*%
%TD*%
%TA.AperFunction,SMDPad,CuDef*%
%ADD22RoundRect,0.075000X-0.075000X-0.650000X0.075000X-0.650000X0.075000X0.650000X-0.075000X0.650000X0*%
%TD*%
%TA.AperFunction,ComponentPad*%
%ADD23O,1.000000X2.100000*%
%TD*%
%TA.AperFunction,ComponentPad*%
%ADD24O,1.000000X1.600000*%
%TD*%
%TA.AperFunction,SMDPad,CuDef*%
%ADD25RoundRect,0.200000X0.200000X0.275000X-0.200000X0.275000X-0.200000X-0.275000X0.200000X-0.275000X0*%
%TD*%
%TA.AperFunction,SMDPad,CuDef*%
%ADD26RoundRect,0.150000X-0.512500X-0.150000X0.512500X-0.150000X0.512500X0.150000X-0.512500X0.150000X0*%
%TD*%
%TA.AperFunction,ViaPad*%
%ADD27C,0.600000*%
%TD*%
%TA.AperFunction,Conductor*%
%ADD28C,0.200000*%
%TD*%
%TA.AperFunction,Conductor*%
%ADD29C,1.000000*%
%TD*%
%TA.AperFunction,Conductor*%
%ADD30C,0.500000*%
%TD*%
G04 APERTURE END LIST*
D10*
%TO.P,R_EN,1*%
%TO.N,EN_NET*%
X144975000Y-109650000D03*
%TO.P,R_EN,2*%
%TO.N,3v3*%
X146625000Y-109650000D03*
%TD*%
D11*
%TO.P,C3,1*%
%TO.N,VBUS*%
X143575000Y-111150000D03*
%TO.P,C3,2*%
%TO.N,GND*%
X142025000Y-111150000D03*
%TD*%
D12*
%TO.P,SW_RST,1*%
%TO.N,EN_NET*%
X138900000Y-120150000D03*
%TO.P,SW_RST,2*%
%TO.N,GND*%
X142300000Y-120150000D03*
%TD*%
D13*
%TO.P,HDR1,1*%
%TO.N,GND*%
X156250000Y-114960000D03*
D14*
%TO.P,HDR1,2*%
%TO.N,UART_RX*%
X156250000Y-117500000D03*
%TO.P,HDR1,3*%
%TO.N,UART_TX*%
X156250000Y-120040000D03*
%TD*%
D15*
%TO.P,D1,1*%
%TO.N,GND*%
X139012500Y-109650000D03*
%TO.P,D1,2*%
%TO.N,ACT_A*%
X140587500Y-109650000D03*
%TD*%
D16*
%TO.P,U1,1*%
%TO.N,GND*%
X139300000Y-90200000D03*
%TO.P,U1,2*%
%TO.N,3v3*%
X139300000Y-91470000D03*
%TO.P,U1,3*%
%TO.N,EN_NET*%
X139300000Y-92740000D03*
%TO.P,U1,4*%
%TO.N,LED_ACT*%
X139300000Y-94010000D03*
%TO.P,U1,5*%
%TO.N,N/C*%
X139300000Y-95280000D03*
%TO.P,U1,6*%
X139300000Y-96550000D03*
%TO.P,U1,7*%
X139300000Y-97820000D03*
%TO.P,U1,8*%
X139300000Y-99090000D03*
%TO.P,U1,9*%
X139300000Y-100360000D03*
%TO.P,U1,10*%
X139300000Y-101630000D03*
%TO.P,U1,11*%
X139300000Y-102900000D03*
%TO.P,U1,12*%
X139300000Y-104170000D03*
%TO.P,U1,13*%
%TO.N,USB_DN*%
X139300000Y-105440000D03*
%TO.P,U1,14*%
%TO.N,USB_DP*%
X139300000Y-106710000D03*
D17*
%TO.P,U1,15*%
%TO.N,N/C*%
X141065000Y-107960000D03*
%TO.P,U1,16*%
X142335000Y-107960000D03*
%TO.P,U1,17*%
X143605000Y-107960000D03*
%TO.P,U1,18*%
X144875000Y-107960000D03*
%TO.P,U1,19*%
X146145000Y-107960000D03*
%TO.P,U1,20*%
X147415000Y-107960000D03*
%TO.P,U1,21*%
X148685000Y-107960000D03*
%TO.P,U1,22*%
X149955000Y-107960000D03*
%TO.P,U1,23*%
X151225000Y-107960000D03*
%TO.P,U1,24*%
X152495000Y-107960000D03*
%TO.P,U1,25*%
X153765000Y-107960000D03*
%TO.P,U1,26*%
X155035000Y-107960000D03*
D16*
%TO.P,U1,27*%
%TO.N,BOOT_NET*%
X156800000Y-106710000D03*
%TO.P,U1,28*%
%TO.N,N/C*%
X156800000Y-105440000D03*
%TO.P,U1,29*%
X156800000Y-104170000D03*
%TO.P,U1,30*%
X156800000Y-102900000D03*
%TO.P,U1,31*%
X156800000Y-101630000D03*
%TO.P,U1,32*%
X156800000Y-100360000D03*
%TO.P,U1,33*%
X156800000Y-99090000D03*
%TO.P,U1,34*%
X156800000Y-97820000D03*
%TO.P,U1,35*%
X156800000Y-96550000D03*
%TO.P,U1,36*%
%TO.N,UART_RX*%
X156800000Y-95280000D03*
%TO.P,U1,37*%
%TO.N,UART_TX*%
X156800000Y-94010000D03*
%TO.P,U1,38*%
%TO.N,N/C*%
X156800000Y-92740000D03*
%TO.P,U1,39*%
X156800000Y-91470000D03*
%TO.P,U1,40*%
%TO.N,GND*%
X156800000Y-90200000D03*
D18*
%TO.P,U1,41*%
X145150000Y-97220000D03*
X145150000Y-98620000D03*
X145850000Y-96520000D03*
X145850000Y-97920000D03*
X145850000Y-99320000D03*
X146550000Y-97220000D03*
D19*
X146550000Y-97920000D03*
D18*
X146550000Y-98620000D03*
X147250000Y-96520000D03*
X147250000Y-97920000D03*
X147250000Y-99320000D03*
X147950000Y-97220000D03*
X147950000Y-98620000D03*
%TD*%
D20*
%TO.P,C2,1*%
%TO.N,3v3*%
X155375000Y-109650000D03*
%TO.P,C2,2*%
%TO.N,GND*%
X156925000Y-109650000D03*
%TD*%
D21*
%TO.P,J1,A1*%
%TO.N,GND*%
X145100000Y-113615000D03*
%TO.P,J1,A4*%
%TO.N,VBUS*%
X145900000Y-113615000D03*
D22*
%TO.P,J1,A5*%
%TO.N,CC1*%
X147100000Y-113615000D03*
%TO.P,J1,A6*%
%TO.N,USB_DP*%
X148100000Y-113615000D03*
%TO.P,J1,A7*%
%TO.N,USB_DN*%
X148600000Y-113615000D03*
%TO.P,J1,A8*%
%TO.N,N/C*%
X149600000Y-113615000D03*
D21*
%TO.P,J1,A9*%
%TO.N,VBUS*%
X150800000Y-113615000D03*
%TO.P,J1,A12*%
%TO.N,GND*%
X151600000Y-113615000D03*
%TO.P,J1,B1*%
X151600000Y-113615000D03*
%TO.P,J1,B4*%
%TO.N,VBUS*%
X150800000Y-113615000D03*
D22*
%TO.P,J1,B5*%
%TO.N,CC2*%
X150100000Y-113615000D03*
%TO.P,J1,B6*%
%TO.N,USB_DP*%
X149100000Y-113615000D03*
%TO.P,J1,B7*%
%TO.N,USB_DN*%
X147600000Y-113615000D03*
%TO.P,J1,B8*%
%TO.N,N/C*%
X146600000Y-113615000D03*
D21*
%TO.P,J1,B9*%
%TO.N,VBUS*%
X145900000Y-113615000D03*
%TO.P,J1,B12*%
%TO.N,GND*%
X145100000Y-113615000D03*
D23*
%TO.P,J1,SH*%
X144030000Y-114530000D03*
D24*
X144030000Y-118710000D03*
D23*
X152670000Y-114530000D03*
D24*
X152670000Y-118710000D03*
%TD*%
D20*
%TO.P,C1,1*%
%TO.N,3v3*%
X145000000Y-111150000D03*
%TO.P,C1,2*%
%TO.N,GND*%
X146550000Y-111150000D03*
%TD*%
D25*
%TO.P,R_CC1,1*%
%TO.N,CC1*%
X142375000Y-112650000D03*
%TO.P,R_CC1,2*%
%TO.N,GND*%
X140725000Y-112650000D03*
%TD*%
D26*
%TO.P,U2,1*%
%TO.N,VBUS*%
X148500000Y-109700000D03*
%TO.P,U2,2*%
%TO.N,GND*%
X148500000Y-110650000D03*
%TO.P,U2,3*%
%TO.N,VBUS*%
X148500000Y-111600000D03*
%TO.P,U2,4*%
%TO.N,N/C*%
X150775000Y-111600000D03*
%TO.P,U2,5*%
%TO.N,3v3*%
X150775000Y-109700000D03*
%TD*%
D25*
%TO.P,R_ACT,1*%
%TO.N,LED_ACT*%
X143625000Y-109650000D03*
%TO.P,R_ACT,2*%
%TO.N,ACT_A*%
X141975000Y-109650000D03*
%TD*%
D10*
%TO.P,R_CC2,1*%
%TO.N,CC2*%
X152350000Y-109800000D03*
%TO.P,R_CC2,2*%
%TO.N,GND*%
X154000000Y-109800000D03*
%TD*%
D12*
%TO.P,SW_BOOT,1*%
%TO.N,BOOT_NET*%
X138900000Y-116850000D03*
%TO.P,SW_BOOT,2*%
%TO.N,GND*%
X142300000Y-116850000D03*
%TD*%
D27*
%TO.N,EN_NET*%
X141150000Y-93000000D03*
X139550000Y-120150000D03*
X145600000Y-109350000D03*
%TO.N,3v3*%
X146075000Y-110075000D03*
X151212500Y-110137500D03*
X146775000Y-105225000D03*
X145625000Y-110525000D03*
X146250000Y-104700000D03*
X147250000Y-105700000D03*
X146625000Y-109650000D03*
%TO.N,GND*%
X139600000Y-109650000D03*
X153425000Y-109275000D03*
X141437500Y-111937500D03*
X155800000Y-112150000D03*
X147350000Y-110650000D03*
X157025000Y-110175000D03*
%TO.N,UART_RX*%
X155450000Y-95300000D03*
%TO.N,UART_TX*%
X155400000Y-94000000D03*
%TO.N,LED_ACT*%
X144000000Y-109300000D03*
X141100000Y-94150000D03*
%TO.N,USB_DN*%
X147800000Y-112400000D03*
X140950000Y-104950000D03*
%TO.N,USB_DP*%
X141000000Y-106400000D03*
X149100000Y-114700000D03*
%TO.N,CC1*%
X143050000Y-112650000D03*
X147100000Y-114800000D03*
%TO.N,CC2*%
X150100000Y-114750000D03*
X152950000Y-109950000D03*
%TD*%
%TO.N,EN_NET*%
D28*
X139300000Y-92740000D02*
X140890000Y-92740000D01*
X138900000Y-120150000D02*
X139550000Y-120150000D01*
X140890000Y-92740000D02*
X141150000Y-93000000D01*
X144975000Y-109650000D02*
X145300000Y-109650000D01*
X145300000Y-109650000D02*
X145600000Y-109350000D01*
%TO.N,3v3*%
X151212500Y-110137500D02*
X150775000Y-109700000D01*
X145000000Y-111150000D02*
X145625000Y-110525000D01*
D29*
X146775000Y-105225000D02*
X147250000Y-105700000D01*
X143900000Y-92900000D02*
X143900000Y-102350000D01*
D28*
X151825000Y-110750000D02*
X151212500Y-110137500D01*
X154950000Y-110075000D02*
X154950000Y-110350000D01*
X154550000Y-110750000D02*
X151825000Y-110750000D01*
X145625000Y-110525000D02*
X146075000Y-110075000D01*
X146075000Y-110075000D02*
X146500000Y-109650000D01*
D29*
X143900000Y-102350000D02*
X146250000Y-104700000D01*
D28*
X146500000Y-109650000D02*
X146625000Y-109650000D01*
D29*
X139300000Y-91470000D02*
X142470000Y-91470000D01*
X142470000Y-91470000D02*
X143900000Y-92900000D01*
D28*
X154950000Y-110350000D02*
X154550000Y-110750000D01*
X155375000Y-109650000D02*
X154950000Y-110075000D01*
X150637500Y-109562500D02*
X150775000Y-109700000D01*
D29*
X146250000Y-104700000D02*
X146775000Y-105225000D01*
%TO.N,VBUS*%
D30*
X146699339Y-112440000D02*
X146305458Y-112440000D01*
X149612500Y-110247316D02*
X149065184Y-109700000D01*
X150800000Y-112845458D02*
X150800000Y-113615000D01*
X150394542Y-112440000D02*
X150800000Y-112845458D01*
X149162499Y-111600000D02*
X149612500Y-111149999D01*
X145900000Y-112845458D02*
X145900000Y-113615000D01*
X143575000Y-111160828D02*
X144854172Y-112440000D01*
X149065184Y-109700000D02*
X148500000Y-109700000D01*
X144854172Y-112440000D02*
X145502684Y-112440000D01*
X148500000Y-111600000D02*
X147539339Y-111600000D01*
X149340000Y-112440000D02*
X150394542Y-112440000D01*
D28*
X145900000Y-113615000D02*
X145900000Y-113023696D01*
D30*
X146305458Y-112440000D02*
X145900000Y-112845458D01*
X149612500Y-111149999D02*
X149612500Y-110247316D01*
X148500000Y-111600000D02*
X149340000Y-112440000D01*
X145502684Y-112440000D02*
X145900000Y-112837316D01*
X143575000Y-111150000D02*
X143575000Y-111160828D01*
X148500000Y-111600000D02*
X149162499Y-111600000D01*
X147539339Y-111600000D02*
X146699339Y-112440000D01*
X145900000Y-112837316D02*
X145900000Y-113615000D01*
%TO.N,GND*%
D29*
X146550000Y-93850000D02*
X146550000Y-97920000D01*
D28*
X156925000Y-110075000D02*
X157025000Y-110175000D01*
D29*
X145550000Y-92850000D02*
X146550000Y-92850000D01*
D28*
X157025000Y-110175000D02*
X157050000Y-110200000D01*
X151600000Y-113615000D02*
X151755000Y-113615000D01*
X147350000Y-109546948D02*
X147886948Y-109010000D01*
X146550000Y-111150000D02*
X147050000Y-110650000D01*
X144030000Y-115120000D02*
X144030000Y-114530000D01*
D29*
X139300000Y-90200000D02*
X142900000Y-90200000D01*
D28*
X156925000Y-109650000D02*
X156925000Y-110075000D01*
X154000000Y-109650000D02*
X153800000Y-109650000D01*
D29*
X142900000Y-90200000D02*
X145550000Y-92850000D01*
X145550000Y-92850000D02*
X146550000Y-93850000D01*
D28*
X147350000Y-110650000D02*
X148500000Y-110650000D01*
D29*
X156800000Y-90200000D02*
X149200000Y-90200000D01*
D28*
X151755000Y-113615000D02*
X152670000Y-114530000D01*
X142025000Y-111150000D02*
X142025000Y-111350000D01*
X147050000Y-110650000D02*
X147350000Y-110650000D01*
X145100000Y-113615000D02*
X144945000Y-113615000D01*
X141437500Y-111937500D02*
X140725000Y-112650000D01*
X142300000Y-120150000D02*
X142590000Y-120150000D01*
X139012500Y-109650000D02*
X139600000Y-109650000D01*
X147886948Y-109010000D02*
X153160000Y-109010000D01*
D29*
X149200000Y-90200000D02*
X146550000Y-92850000D01*
D28*
X153800000Y-109650000D02*
X153425000Y-109275000D01*
D29*
X146550000Y-92850000D02*
X146550000Y-93850000D01*
D28*
X142590000Y-120150000D02*
X144030000Y-118710000D01*
X142025000Y-111350000D02*
X141437500Y-111937500D01*
X153160000Y-109010000D02*
X153425000Y-109275000D01*
X144945000Y-113615000D02*
X144030000Y-114530000D01*
X142300000Y-116850000D02*
X144030000Y-115120000D01*
X147350000Y-110650000D02*
X147350000Y-109546948D01*
%TO.N,UART_RX*%
X155470000Y-95280000D02*
X155450000Y-95300000D01*
X156800000Y-95280000D02*
X155470000Y-95280000D01*
%TO.N,UART_TX*%
X156800000Y-94010000D02*
X155410000Y-94010000D01*
X155410000Y-94010000D02*
X155400000Y-94000000D01*
%TO.N,ACT_A*%
X141975000Y-109650000D02*
X140587500Y-109650000D01*
%TO.N,LED_ACT*%
X140960000Y-94010000D02*
X141100000Y-94150000D01*
X143625000Y-109650000D02*
X143650000Y-109650000D01*
X143650000Y-109650000D02*
X144000000Y-109300000D01*
X139300000Y-94010000D02*
X140960000Y-94010000D01*
%TO.N,USB_DN*%
X147600000Y-113615000D02*
X147600000Y-112857590D01*
X147867590Y-112590000D02*
X148332410Y-112590000D01*
X147600000Y-112857590D02*
X147867590Y-112590000D01*
X147867590Y-112590000D02*
X147867590Y-112467590D01*
X148332410Y-112590000D02*
X148600000Y-112857590D01*
X147867590Y-112467590D02*
X147800000Y-112400000D01*
X139300000Y-105440000D02*
X140460000Y-105440000D01*
X148600000Y-112857590D02*
X148600000Y-113615000D01*
X140460000Y-105440000D02*
X140950000Y-104950000D01*
%TO.N,USB_DP*%
X139300000Y-106710000D02*
X140690000Y-106710000D01*
X148832410Y-114640000D02*
X149100000Y-114372410D01*
X148892410Y-114700000D02*
X149100000Y-114700000D01*
X148100000Y-113615000D02*
X148100000Y-114372410D01*
X140690000Y-106710000D02*
X141000000Y-106400000D01*
X148832410Y-114640000D02*
X148892410Y-114700000D01*
X149100000Y-114372410D02*
X149100000Y-113615000D01*
X148100000Y-114372410D02*
X148367590Y-114640000D01*
X148367590Y-114640000D02*
X148832410Y-114640000D01*
%TO.N,BOOT_NET*%
X156800000Y-106710000D02*
X156810000Y-106710000D01*
X152060000Y-116850000D02*
X144200000Y-116850000D01*
X156175000Y-110123696D02*
X156425000Y-110373696D01*
X156425000Y-110373696D02*
X156425000Y-110423529D01*
X140050000Y-118000000D02*
X138900000Y-116850000D01*
X156450000Y-110448529D02*
X156450000Y-112460000D01*
X156425000Y-110423529D02*
X156450000Y-110448529D01*
X156450000Y-112460000D02*
X152060000Y-116850000D01*
X156450000Y-108901304D02*
X156175000Y-109176304D01*
X156175000Y-109176304D02*
X156175000Y-110123696D01*
X144200000Y-116850000D02*
X143050000Y-118000000D01*
X156800000Y-106710000D02*
X156450000Y-107060000D01*
X156450000Y-107060000D02*
X156450000Y-108901304D01*
X143050000Y-118000000D02*
X140050000Y-118000000D01*
%TO.N,CC1*%
X142375000Y-112650000D02*
X143050000Y-112650000D01*
X147100000Y-113615000D02*
X147100000Y-114800000D01*
%TO.N,CC2*%
X152650000Y-109650000D02*
X152950000Y-109950000D01*
X150100000Y-113615000D02*
X150100000Y-114750000D01*
X150100000Y-114750000D02*
X150100000Y-114900000D01*
X152350000Y-109650000D02*
X152650000Y-109650000D01*
%TD*%
%TA.AperFunction,Conductor*%
%TO.N,GND*%
G36*
X154819334Y-115042414D02*
G01*
X154875267Y-115084286D01*
X154899684Y-115149750D01*
X154900000Y-115158596D01*
X154900000Y-115857844D01*
X154906401Y-115917372D01*
X154906403Y-115917379D01*
X154956645Y-116052086D01*
X154956649Y-116052093D01*
X155042809Y-116167187D01*
X155042812Y-116167190D01*
X155157906Y-116253350D01*
X155157913Y-116253354D01*
X155289470Y-116302422D01*
X155345404Y-116344293D01*
X155369821Y-116409758D01*
X155354969Y-116478031D01*
X155333819Y-116506285D01*
X155219889Y-116620215D01*
X155094951Y-116792179D01*
X154998444Y-116981585D01*
X154932753Y-117183760D01*
X154899500Y-117393713D01*
X154899500Y-117606286D01*
X154932753Y-117816239D01*
X154998444Y-118018414D01*
X155094951Y-118207820D01*
X155219890Y-118379786D01*
X155370213Y-118530109D01*
X155542182Y-118655050D01*
X155550946Y-118659516D01*
X155601742Y-118707491D01*
X155618536Y-118775312D01*
X155595998Y-118841447D01*
X155550946Y-118880484D01*
X155542182Y-118884949D01*
X155370213Y-119009890D01*
X155219890Y-119160213D01*
X155094951Y-119332179D01*
X154998444Y-119521585D01*
X154932753Y-119723760D01*
X154899500Y-119933713D01*
X154899500Y-120146286D01*
X154912575Y-120228842D01*
X154932754Y-120356243D01*
X154988942Y-120529172D01*
X154998444Y-120558414D01*
X155094951Y-120747820D01*
X155219890Y-120919786D01*
X155370207Y-121070103D01*
X155377196Y-121075181D01*
X155419862Y-121130511D01*
X155425841Y-121200124D01*
X155393236Y-121261920D01*
X155332397Y-121296277D01*
X155304311Y-121299500D01*
X143350534Y-121299500D01*
X143283495Y-121279815D01*
X143237740Y-121227011D01*
X143227796Y-121157853D01*
X143234352Y-121132168D01*
X143243596Y-121107382D01*
X143243598Y-121107372D01*
X143249999Y-121047844D01*
X143250000Y-121047827D01*
X143250000Y-120400000D01*
X141350000Y-120400000D01*
X141350000Y-121047844D01*
X141356401Y-121107372D01*
X141356403Y-121107382D01*
X141365648Y-121132168D01*
X141370632Y-121201859D01*
X141337146Y-121263182D01*
X141275823Y-121296666D01*
X141249466Y-121299500D01*
X139951067Y-121299500D01*
X139884028Y-121279815D01*
X139838273Y-121227011D01*
X139827904Y-121161118D01*
X139829643Y-121146217D01*
X139844091Y-121107483D01*
X139850500Y-121047873D01*
X139850499Y-120967618D01*
X139851336Y-120960455D01*
X139862292Y-120934673D01*
X139870183Y-120907799D01*
X139875770Y-120902957D01*
X139878663Y-120896151D01*
X139901817Y-120880386D01*
X139922986Y-120862043D01*
X139926994Y-120860298D01*
X139929179Y-120859394D01*
X140060289Y-120771789D01*
X140171789Y-120660289D01*
X140259394Y-120529179D01*
X140319737Y-120383497D01*
X140350500Y-120228842D01*
X140350500Y-120071158D01*
X140350500Y-120071155D01*
X140350499Y-120071153D01*
X140319738Y-119916510D01*
X140319737Y-119916503D01*
X140279929Y-119820397D01*
X140259397Y-119770827D01*
X140259390Y-119770814D01*
X140171789Y-119639711D01*
X140171786Y-119639707D01*
X140060292Y-119528213D01*
X140060284Y-119528207D01*
X139929181Y-119440607D01*
X139929178Y-119440605D01*
X139927043Y-119439721D01*
X139926096Y-119438957D01*
X139923801Y-119437731D01*
X139924033Y-119437295D01*
X139872641Y-119395878D01*
X139850578Y-119329583D01*
X139850499Y-119325161D01*
X139850499Y-119252129D01*
X139850498Y-119252123D01*
X139850276Y-119250060D01*
X139845294Y-119203708D01*
X139844091Y-119192516D01*
X139793797Y-119057671D01*
X139793793Y-119057664D01*
X139707547Y-118942455D01*
X139707544Y-118942452D01*
X139592335Y-118856206D01*
X139592328Y-118856202D01*
X139457482Y-118805908D01*
X139457483Y-118805908D01*
X139397883Y-118799501D01*
X139397881Y-118799500D01*
X139397873Y-118799500D01*
X139397865Y-118799500D01*
X138833942Y-118799500D01*
X138766903Y-118779815D01*
X138721148Y-118727011D01*
X138709943Y-118675126D01*
X138710843Y-118377164D01*
X138711003Y-118324123D01*
X138730889Y-118257145D01*
X138783831Y-118211550D01*
X138835002Y-118200499D01*
X139349902Y-118200499D01*
X139416941Y-118220184D01*
X139437582Y-118236817D01*
X139681284Y-118480520D01*
X139681286Y-118480521D01*
X139681290Y-118480524D01*
X139767175Y-118530109D01*
X139818216Y-118559577D01*
X139970943Y-118600501D01*
X139970945Y-118600501D01*
X140136654Y-118600501D01*
X140136670Y-118600500D01*
X141607381Y-118600500D01*
X141674420Y-118620185D01*
X141720175Y-118672989D01*
X141730119Y-118742147D01*
X141701094Y-118805703D01*
X141650714Y-118840682D01*
X141607913Y-118856645D01*
X141607906Y-118856649D01*
X141492812Y-118942809D01*
X141492809Y-118942812D01*
X141406649Y-119057906D01*
X141406645Y-119057913D01*
X141356403Y-119192620D01*
X141356401Y-119192627D01*
X141350000Y-119252155D01*
X141350000Y-119900000D01*
X143250000Y-119900000D01*
X143259768Y-119890231D01*
X143269685Y-119856460D01*
X143322489Y-119810705D01*
X143391647Y-119800761D01*
X143442891Y-119820397D01*
X143556315Y-119896185D01*
X143556328Y-119896192D01*
X143738308Y-119971569D01*
X143780000Y-119979862D01*
X143780000Y-119176988D01*
X143789940Y-119194205D01*
X143845795Y-119250060D01*
X143914204Y-119289556D01*
X143990504Y-119310000D01*
X144069496Y-119310000D01*
X144145796Y-119289556D01*
X144214205Y-119250060D01*
X144270060Y-119194205D01*
X144280000Y-119176988D01*
X144280000Y-119979862D01*
X144321690Y-119971569D01*
X144321692Y-119971569D01*
X144503671Y-119896192D01*
X144503684Y-119896185D01*
X144667462Y-119786751D01*
X144667466Y-119786748D01*
X144806748Y-119647466D01*
X144806751Y-119647462D01*
X144916185Y-119483684D01*
X144916192Y-119483671D01*
X144991569Y-119301693D01*
X144991572Y-119301681D01*
X145029999Y-119108495D01*
X145030000Y-119108492D01*
X145030000Y-118960000D01*
X144330000Y-118960000D01*
X144330000Y-118460000D01*
X145030000Y-118460000D01*
X145030000Y-118311508D01*
X145029999Y-118311504D01*
X144991572Y-118118318D01*
X144991569Y-118118306D01*
X144916192Y-117936328D01*
X144916185Y-117936315D01*
X144806751Y-117772537D01*
X144806748Y-117772533D01*
X144696396Y-117662181D01*
X144662911Y-117600858D01*
X144667895Y-117531166D01*
X144709767Y-117475233D01*
X144775231Y-117450816D01*
X144784077Y-117450500D01*
X151915923Y-117450500D01*
X151982962Y-117470185D01*
X152028717Y-117522989D01*
X152038661Y-117592147D01*
X152009636Y-117655703D01*
X152003604Y-117662181D01*
X151893251Y-117772533D01*
X151893248Y-117772537D01*
X151783814Y-117936315D01*
X151783807Y-117936328D01*
X151708430Y-118118306D01*
X151708427Y-118118318D01*
X151670000Y-118311504D01*
X151670000Y-118460000D01*
X152370000Y-118460000D01*
X152370000Y-118960000D01*
X151670000Y-118960000D01*
X151670000Y-119108495D01*
X151708427Y-119301681D01*
X151708430Y-119301693D01*
X151783807Y-119483671D01*
X151783814Y-119483684D01*
X151893248Y-119647462D01*
X151893251Y-119647466D01*
X152032533Y-119786748D01*
X152032537Y-119786751D01*
X152196315Y-119896185D01*
X152196328Y-119896192D01*
X152378308Y-119971569D01*
X152420000Y-119979862D01*
X152420000Y-119176988D01*
X152429940Y-119194205D01*
X152485795Y-119250060D01*
X152554204Y-119289556D01*
X152630504Y-119310000D01*
X152709496Y-119310000D01*
X152785796Y-119289556D01*
X152854205Y-119250060D01*
X152910060Y-119194205D01*
X152920000Y-119176988D01*
X152920000Y-119979862D01*
X152961690Y-119971569D01*
X152961692Y-119971569D01*
X153143671Y-119896192D01*
X153143684Y-119896185D01*
X153307462Y-119786751D01*
X153307466Y-119786748D01*
X153446748Y-119647466D01*
X153446751Y-119647462D01*
X153556185Y-119483684D01*
X153556192Y-119483671D01*
X153631569Y-119301693D01*
X153631572Y-119301681D01*
X153669999Y-119108495D01*
X153670000Y-119108492D01*
X153670000Y-118960000D01*
X152970000Y-118960000D01*
X152970000Y-118460000D01*
X153670000Y-118460000D01*
X153670000Y-118311508D01*
X153669999Y-118311504D01*
X153631572Y-118118318D01*
X153631569Y-118118306D01*
X153556192Y-117936328D01*
X153556185Y-117936315D01*
X153446751Y-117772537D01*
X153446748Y-117772533D01*
X153307466Y-117633251D01*
X153307462Y-117633248D01*
X153143684Y-117523814D01*
X153143671Y-117523807D01*
X152961691Y-117448429D01*
X152961683Y-117448427D01*
X152920000Y-117440135D01*
X152920000Y-118243011D01*
X152910060Y-118225795D01*
X152854205Y-118169940D01*
X152785796Y-118130444D01*
X152709496Y-118110000D01*
X152630504Y-118110000D01*
X152554204Y-118130444D01*
X152485795Y-118169940D01*
X152429940Y-118225795D01*
X152420000Y-118243011D01*
X152420000Y-117390598D01*
X152428644Y-117361157D01*
X152435168Y-117331171D01*
X152438922Y-117326155D01*
X152439685Y-117323559D01*
X152456319Y-117302917D01*
X152465429Y-117293807D01*
X152483736Y-117275500D01*
X152540520Y-117218716D01*
X152540520Y-117218714D01*
X152550724Y-117208511D01*
X152550727Y-117208506D01*
X154688321Y-115070913D01*
X154749642Y-115037430D01*
X154819334Y-115042414D01*
G37*
%TD.AperFunction*%
%TA.AperFunction,Conductor*%
G36*
X140057539Y-107680184D02*
G01*
X140103294Y-107732988D01*
X140114500Y-107784499D01*
X140114500Y-108636301D01*
X140112672Y-108642524D01*
X140113858Y-108648902D01*
X140102948Y-108675639D01*
X140094815Y-108703340D01*
X140089529Y-108708528D01*
X140087463Y-108713594D01*
X140061759Y-108737781D01*
X140058732Y-108739906D01*
X139919609Y-108825719D01*
X139879717Y-108865610D01*
X139870906Y-108871798D01*
X139804730Y-108894214D01*
X139736940Y-108877294D01*
X139711967Y-108858000D01*
X139680080Y-108826114D01*
X139537077Y-108737908D01*
X139537072Y-108737906D01*
X139377583Y-108685057D01*
X139279150Y-108675000D01*
X139262500Y-108675000D01*
X139262500Y-110624999D01*
X139279136Y-110624999D01*
X139279152Y-110624998D01*
X139377583Y-110614943D01*
X139537072Y-110562093D01*
X139537077Y-110562091D01*
X139680080Y-110473885D01*
X139711966Y-110442000D01*
X139773289Y-110408515D01*
X139842981Y-110413499D01*
X139887328Y-110442000D01*
X139919608Y-110474280D01*
X139919612Y-110474283D01*
X140062704Y-110562544D01*
X140062707Y-110562545D01*
X140062713Y-110562549D01*
X140222315Y-110615436D01*
X140320826Y-110625500D01*
X140320831Y-110625500D01*
X140854169Y-110625500D01*
X140854174Y-110625500D01*
X140949248Y-110615787D01*
X141017941Y-110628556D01*
X141068826Y-110676436D01*
X141085747Y-110744226D01*
X141085209Y-110751747D01*
X141075000Y-110851675D01*
X141075000Y-110900000D01*
X141901000Y-110900000D01*
X141968039Y-110919685D01*
X142013794Y-110972489D01*
X142025000Y-111024000D01*
X142025000Y-111276000D01*
X142005315Y-111343039D01*
X141952511Y-111388794D01*
X141901000Y-111400000D01*
X141075001Y-111400000D01*
X141075001Y-111448325D01*
X141084203Y-111538399D01*
X141071433Y-111607092D01*
X141023552Y-111657976D01*
X140980274Y-111669725D01*
X140975000Y-111675000D01*
X140975000Y-113624999D01*
X140981581Y-113624999D01*
X141052102Y-113618591D01*
X141052107Y-113618590D01*
X141214396Y-113568018D01*
X141359877Y-113480072D01*
X141359878Y-113480071D01*
X141461963Y-113377985D01*
X141523286Y-113344499D01*
X141592977Y-113349483D01*
X141637326Y-113377984D01*
X141739811Y-113480469D01*
X141739813Y-113480470D01*
X141739815Y-113480472D01*
X141885394Y-113568478D01*
X142047804Y-113619086D01*
X142118384Y-113625500D01*
X142118387Y-113625500D01*
X142631613Y-113625500D01*
X142631616Y-113625500D01*
X142702196Y-113619086D01*
X142864606Y-113568478D01*
X142882761Y-113557502D01*
X142950314Y-113539666D01*
X143016788Y-113561183D01*
X143061077Y-113615222D01*
X143069118Y-113684628D01*
X143068528Y-113687810D01*
X143030000Y-113881504D01*
X143030000Y-114280000D01*
X143730000Y-114280000D01*
X143730000Y-114780000D01*
X143030000Y-114780000D01*
X143030000Y-115178495D01*
X143068428Y-115371690D01*
X143068715Y-115372634D01*
X143068719Y-115373152D01*
X143069617Y-115377664D01*
X143068761Y-115377834D01*
X143069336Y-115442501D01*
X143032084Y-115501612D01*
X142968789Y-115531200D01*
X142906720Y-115524806D01*
X142857379Y-115506403D01*
X142857372Y-115506401D01*
X142797844Y-115500000D01*
X142550000Y-115500000D01*
X142550000Y-116726000D01*
X142530315Y-116793039D01*
X142477511Y-116838794D01*
X142426000Y-116850000D01*
X142300000Y-116850000D01*
X142300000Y-116976000D01*
X142280315Y-117043039D01*
X142227511Y-117088794D01*
X142176000Y-117100000D01*
X141350000Y-117100000D01*
X141350000Y-117275500D01*
X141330315Y-117342539D01*
X141277511Y-117388294D01*
X141226000Y-117399500D01*
X140350098Y-117399500D01*
X140283059Y-117379815D01*
X140262417Y-117363181D01*
X139886818Y-116987582D01*
X139853333Y-116926259D01*
X139850499Y-116899901D01*
X139850499Y-115952155D01*
X141350000Y-115952155D01*
X141350000Y-116600000D01*
X142050000Y-116600000D01*
X142050000Y-115500000D01*
X141802155Y-115500000D01*
X141742627Y-115506401D01*
X141742620Y-115506403D01*
X141607913Y-115556645D01*
X141607906Y-115556649D01*
X141492812Y-115642809D01*
X141492809Y-115642812D01*
X141406649Y-115757906D01*
X141406645Y-115757913D01*
X141356403Y-115892620D01*
X141356401Y-115892627D01*
X141350000Y-115952155D01*
X139850499Y-115952155D01*
X139850499Y-115952129D01*
X139850498Y-115952123D01*
X139846763Y-115917379D01*
X139844091Y-115892517D01*
X139843300Y-115890397D01*
X139793797Y-115757671D01*
X139793793Y-115757664D01*
X139707547Y-115642455D01*
X139707544Y-115642452D01*
X139592335Y-115556206D01*
X139592328Y-115556202D01*
X139457482Y-115505908D01*
X139457483Y-115505908D01*
X139397883Y-115499501D01*
X139397881Y-115499500D01*
X139397873Y-115499500D01*
X139397865Y-115499500D01*
X138843912Y-115499500D01*
X138776873Y-115479815D01*
X138731118Y-115427011D01*
X138719913Y-115375125D01*
X138727144Y-112981581D01*
X139825000Y-112981581D01*
X139831408Y-113052102D01*
X139831409Y-113052107D01*
X139881981Y-113214396D01*
X139969927Y-113359877D01*
X140090122Y-113480072D01*
X140235604Y-113568019D01*
X140235603Y-113568019D01*
X140397894Y-113618590D01*
X140397893Y-113618590D01*
X140468408Y-113624998D01*
X140468426Y-113624999D01*
X140474999Y-113624998D01*
X140475000Y-113624998D01*
X140475000Y-112900000D01*
X139825001Y-112900000D01*
X139825001Y-112981581D01*
X139825000Y-112981581D01*
X138727144Y-112981581D01*
X138727547Y-112848263D01*
X138728918Y-112394362D01*
X138729147Y-112318427D01*
X139825000Y-112318427D01*
X139825000Y-112400000D01*
X140475000Y-112400000D01*
X140475000Y-111675000D01*
X140474999Y-111674999D01*
X140468436Y-111675000D01*
X140468417Y-111675001D01*
X140397897Y-111681408D01*
X140397892Y-111681409D01*
X140235603Y-111731981D01*
X140090122Y-111819927D01*
X139969927Y-111940122D01*
X139881980Y-112085604D01*
X139831409Y-112247893D01*
X139825000Y-112318427D01*
X138729147Y-112318427D01*
X138734023Y-110704460D01*
X138753910Y-110637484D01*
X138762500Y-110626856D01*
X138762500Y-108663197D01*
X138743211Y-108627877D01*
X138740378Y-108601148D01*
X138742846Y-107784122D01*
X138762733Y-107717145D01*
X138815675Y-107671549D01*
X138866845Y-107660499D01*
X139990500Y-107660499D01*
X140057539Y-107680184D01*
G37*
%TD.AperFunction*%
%TA.AperFunction,Conductor*%
G36*
X143442891Y-115890397D02*
G01*
X143556315Y-115966185D01*
X143556328Y-115966192D01*
X143738306Y-116041569D01*
X143738318Y-116041572D01*
X143906751Y-116075076D01*
X143968662Y-116107461D01*
X144003236Y-116168176D01*
X143999497Y-116237946D01*
X143958631Y-116294618D01*
X143944560Y-116304080D01*
X143831287Y-116369477D01*
X143831282Y-116369481D01*
X143461681Y-116739083D01*
X143400358Y-116772568D01*
X143330666Y-116767584D01*
X143274733Y-116725712D01*
X143250316Y-116660248D01*
X143250000Y-116651402D01*
X143250000Y-115993499D01*
X143269685Y-115926460D01*
X143322489Y-115880705D01*
X143391647Y-115870761D01*
X143442891Y-115890397D01*
G37*
%TD.AperFunction*%
%TA.AperFunction,Conductor*%
G36*
X155808362Y-110761189D02*
G01*
X155845082Y-110820632D01*
X155849500Y-110853438D01*
X155849500Y-112159902D01*
X155829815Y-112226941D01*
X155813181Y-112247583D01*
X153881681Y-114179083D01*
X153820358Y-114212568D01*
X153750666Y-114207584D01*
X153694733Y-114165712D01*
X153670316Y-114100248D01*
X153670000Y-114091402D01*
X153670000Y-113881508D01*
X153669999Y-113881504D01*
X153631572Y-113688318D01*
X153631569Y-113688306D01*
X153556192Y-113506328D01*
X153556185Y-113506315D01*
X153446751Y-113342537D01*
X153446748Y-113342533D01*
X153307466Y-113203251D01*
X153307462Y-113203248D01*
X153143684Y-113093814D01*
X153143671Y-113093807D01*
X152961691Y-113018429D01*
X152961683Y-113018427D01*
X152920000Y-113010135D01*
X152920000Y-113813011D01*
X152910060Y-113795795D01*
X152854205Y-113739940D01*
X152785796Y-113700444D01*
X152709496Y-113680000D01*
X152630504Y-113680000D01*
X152554204Y-113700444D01*
X152485795Y-113739940D01*
X152429940Y-113795795D01*
X152420000Y-113813011D01*
X152420000Y-112995606D01*
X152403106Y-112970806D01*
X152397487Y-112942425D01*
X152397100Y-112937510D01*
X152397099Y-112937504D01*
X152351283Y-112779806D01*
X152351282Y-112779803D01*
X152267685Y-112638447D01*
X152267678Y-112638438D01*
X152151561Y-112522321D01*
X152151552Y-112522314D01*
X152010196Y-112438717D01*
X152010193Y-112438716D01*
X151852495Y-112392900D01*
X151846255Y-112391761D01*
X151846528Y-112390261D01*
X151788409Y-112368108D01*
X151746941Y-112311875D01*
X151742457Y-112242149D01*
X151775751Y-112181695D01*
X151805576Y-112151870D01*
X151805581Y-112151865D01*
X151889244Y-112010398D01*
X151935098Y-111852569D01*
X151938000Y-111815694D01*
X151938000Y-111474500D01*
X151957685Y-111407461D01*
X152010489Y-111361706D01*
X152062000Y-111350500D01*
X154463331Y-111350500D01*
X154463347Y-111350501D01*
X154470943Y-111350501D01*
X154629054Y-111350501D01*
X154629057Y-111350501D01*
X154781785Y-111309577D01*
X154831904Y-111280639D01*
X154918716Y-111230520D01*
X154971450Y-111177785D01*
X154979185Y-111172134D01*
X155003397Y-111163420D01*
X155025983Y-111151088D01*
X155028152Y-111150637D01*
X155028841Y-111150500D01*
X155028842Y-111150500D01*
X155183497Y-111119737D01*
X155329179Y-111059394D01*
X155460289Y-110971789D01*
X155571789Y-110860289D01*
X155622398Y-110784546D01*
X155676010Y-110739742D01*
X155745334Y-110731035D01*
X155808362Y-110761189D01*
G37*
%TD.AperFunction*%
%TA.AperFunction,Conductor*%
G36*
X143976295Y-112669212D02*
G01*
X144006461Y-112670829D01*
X144011330Y-112673897D01*
X144015604Y-112674469D01*
X144025279Y-112682687D01*
X144052889Y-112700085D01*
X144243681Y-112890876D01*
X144277166Y-112952199D01*
X144280000Y-112978557D01*
X144280000Y-113813011D01*
X144270060Y-113795795D01*
X144214205Y-113739940D01*
X144145796Y-113700444D01*
X144069496Y-113680000D01*
X143990504Y-113680000D01*
X143914204Y-113700444D01*
X143845795Y-113739940D01*
X143789940Y-113795795D01*
X143780000Y-113813011D01*
X143780000Y-113004095D01*
X143784684Y-112970336D01*
X143786659Y-112963353D01*
X143819737Y-112883497D01*
X143844552Y-112758739D01*
X143845892Y-112754007D01*
X143861970Y-112728436D01*
X143875975Y-112701664D01*
X143880385Y-112699152D01*
X143883085Y-112694859D01*
X143910438Y-112682039D01*
X143936691Y-112667090D01*
X143941756Y-112667361D01*
X143946351Y-112665208D01*
X143976295Y-112669212D01*
G37*
%TD.AperFunction*%
%TA.AperFunction,Conductor*%
G36*
X155656092Y-89220185D02*
G01*
X155701847Y-89272989D01*
X155711791Y-89342147D01*
X155688319Y-89398811D01*
X155606649Y-89507906D01*
X155606645Y-89507913D01*
X155556403Y-89642620D01*
X155556401Y-89642627D01*
X155550000Y-89702155D01*
X155550000Y-89950000D01*
X156676000Y-89950000D01*
X156743039Y-89969685D01*
X156788794Y-90022489D01*
X156800000Y-90074000D01*
X156800000Y-90326000D01*
X156780315Y-90393039D01*
X156727511Y-90438794D01*
X156676000Y-90450000D01*
X155550000Y-90450000D01*
X155550000Y-90697844D01*
X155556401Y-90757372D01*
X155556403Y-90757379D01*
X155568925Y-90790952D01*
X155573909Y-90860643D01*
X155568925Y-90877617D01*
X155555909Y-90912514D01*
X155555908Y-90912516D01*
X155549501Y-90972116D01*
X155549500Y-90972135D01*
X155549500Y-91967870D01*
X155549501Y-91967876D01*
X155555908Y-92027481D01*
X155568659Y-92061669D01*
X155573642Y-92131361D01*
X155568659Y-92148331D01*
X155555908Y-92182518D01*
X155549501Y-92242116D01*
X155549500Y-92242135D01*
X155549500Y-93075500D01*
X155529815Y-93142539D01*
X155477011Y-93188294D01*
X155425500Y-93199500D01*
X155321155Y-93199500D01*
X155166510Y-93230261D01*
X155166498Y-93230264D01*
X155020827Y-93290602D01*
X155020814Y-93290609D01*
X154889711Y-93378210D01*
X154889707Y-93378213D01*
X154778213Y-93489707D01*
X154778210Y-93489711D01*
X154690609Y-93620814D01*
X154690602Y-93620827D01*
X154630264Y-93766498D01*
X154630261Y-93766510D01*
X154599500Y-93921153D01*
X154599500Y-94078846D01*
X154630261Y-94233489D01*
X154630264Y-94233501D01*
X154690602Y-94379172D01*
X154690609Y-94379185D01*
X154778210Y-94510288D01*
X154778213Y-94510292D01*
X154855240Y-94587319D01*
X154888725Y-94648642D01*
X154883741Y-94718334D01*
X154855240Y-94762681D01*
X154828213Y-94789707D01*
X154828210Y-94789711D01*
X154740609Y-94920814D01*
X154740602Y-94920827D01*
X154680264Y-95066498D01*
X154680261Y-95066510D01*
X154649500Y-95221153D01*
X154649500Y-95378846D01*
X154680261Y-95533489D01*
X154680264Y-95533501D01*
X154740602Y-95679172D01*
X154740609Y-95679185D01*
X154828210Y-95810288D01*
X154828213Y-95810292D01*
X154939707Y-95921786D01*
X154939711Y-95921789D01*
X155070814Y-96009390D01*
X155070827Y-96009397D01*
X155173993Y-96052129D01*
X155216503Y-96069737D01*
X155350496Y-96096390D01*
X155371153Y-96100499D01*
X155371156Y-96100500D01*
X155425500Y-96100500D01*
X155492539Y-96120185D01*
X155538294Y-96172989D01*
X155549500Y-96224500D01*
X155549500Y-97047870D01*
X155549501Y-97047876D01*
X155555908Y-97107481D01*
X155568659Y-97141669D01*
X155573642Y-97211361D01*
X155568659Y-97228331D01*
X155555908Y-97262518D01*
X155549501Y-97322116D01*
X155549501Y-97322123D01*
X155549500Y-97322135D01*
X155549500Y-98317870D01*
X155549501Y-98317876D01*
X155555908Y-98377481D01*
X155568659Y-98411669D01*
X155573642Y-98481361D01*
X155568659Y-98498331D01*
X155555908Y-98532518D01*
X155549501Y-98592116D01*
X155549501Y-98592123D01*
X155549500Y-98592135D01*
X155549500Y-99587870D01*
X155549501Y-99587876D01*
X155555908Y-99647481D01*
X155568659Y-99681669D01*
X155573642Y-99751361D01*
X155568659Y-99768331D01*
X155555908Y-99802518D01*
X155549501Y-99862116D01*
X155549501Y-99862123D01*
X155549500Y-99862135D01*
X155549500Y-100857870D01*
X155549501Y-100857876D01*
X155555908Y-100917481D01*
X155568659Y-100951669D01*
X155573642Y-101021361D01*
X155568659Y-101038331D01*
X155555908Y-101072518D01*
X155549501Y-101132116D01*
X155549501Y-101132123D01*
X155549500Y-101132135D01*
X155549500Y-102127870D01*
X155549501Y-102127876D01*
X155555908Y-102187481D01*
X155568659Y-102221669D01*
X155573642Y-102291361D01*
X155568659Y-102308331D01*
X155555908Y-102342518D01*
X155549501Y-102402116D01*
X155549501Y-102402123D01*
X155549500Y-102402135D01*
X155549500Y-103397870D01*
X155549501Y-103397876D01*
X155555908Y-103457481D01*
X155568659Y-103491669D01*
X155573642Y-103561361D01*
X155568659Y-103578331D01*
X155555908Y-103612518D01*
X155549501Y-103672116D01*
X155549501Y-103672123D01*
X155549500Y-103672135D01*
X155549500Y-104667870D01*
X155549501Y-104667876D01*
X155555908Y-104727481D01*
X155568659Y-104761669D01*
X155573642Y-104831361D01*
X155568659Y-104848331D01*
X155555908Y-104882518D01*
X155549501Y-104942116D01*
X155549500Y-104942135D01*
X155549500Y-105937870D01*
X155549501Y-105937876D01*
X155555908Y-105997481D01*
X155568659Y-106031669D01*
X155573642Y-106101361D01*
X155568659Y-106118331D01*
X155555908Y-106152518D01*
X155549501Y-106212116D01*
X155549500Y-106212135D01*
X155549500Y-106585500D01*
X155529815Y-106652539D01*
X155477011Y-106698294D01*
X155425500Y-106709500D01*
X154537129Y-106709500D01*
X154537123Y-106709501D01*
X154477518Y-106715908D01*
X154443331Y-106728659D01*
X154373639Y-106733642D01*
X154356669Y-106728659D01*
X154322480Y-106715908D01*
X154322482Y-106715908D01*
X154262883Y-106709501D01*
X154262881Y-106709500D01*
X154262873Y-106709500D01*
X154262864Y-106709500D01*
X153267129Y-106709500D01*
X153267123Y-106709501D01*
X153207518Y-106715908D01*
X153173331Y-106728659D01*
X153103639Y-106733642D01*
X153086669Y-106728659D01*
X153052480Y-106715908D01*
X153052482Y-106715908D01*
X152992883Y-106709501D01*
X152992881Y-106709500D01*
X152992873Y-106709500D01*
X152992864Y-106709500D01*
X151997129Y-106709500D01*
X151997123Y-106709501D01*
X151937518Y-106715908D01*
X151903331Y-106728659D01*
X151833639Y-106733642D01*
X151816669Y-106728659D01*
X151782480Y-106715908D01*
X151782482Y-106715908D01*
X151722883Y-106709501D01*
X151722881Y-106709500D01*
X151722873Y-106709500D01*
X151722864Y-106709500D01*
X150727129Y-106709500D01*
X150727123Y-106709501D01*
X150667518Y-106715908D01*
X150633331Y-106728659D01*
X150563639Y-106733642D01*
X150546669Y-106728659D01*
X150512480Y-106715908D01*
X150512482Y-106715908D01*
X150452883Y-106709501D01*
X150452881Y-106709500D01*
X150452873Y-106709500D01*
X150452864Y-106709500D01*
X149457129Y-106709500D01*
X149457123Y-106709501D01*
X149397518Y-106715908D01*
X149363331Y-106728659D01*
X149293639Y-106733642D01*
X149276669Y-106728659D01*
X149242480Y-106715908D01*
X149242482Y-106715908D01*
X149182883Y-106709501D01*
X149182881Y-106709500D01*
X149182873Y-106709500D01*
X149182864Y-106709500D01*
X148187129Y-106709500D01*
X148187123Y-106709501D01*
X148127518Y-106715908D01*
X148093331Y-106728659D01*
X148074799Y-106729983D01*
X148057316Y-106736260D01*
X148034633Y-106732855D01*
X148023639Y-106733642D01*
X148022146Y-106733307D01*
X148014251Y-106731487D01*
X147972483Y-106715909D01*
X147924112Y-106710708D01*
X147916888Y-106709043D01*
X147892636Y-106695409D01*
X147866935Y-106684763D01*
X147862603Y-106678524D01*
X147855984Y-106674803D01*
X147842954Y-106650223D01*
X147827087Y-106627370D01*
X147826816Y-106619780D01*
X147823259Y-106613070D01*
X147825586Y-106585348D01*
X147824594Y-106557545D01*
X147828469Y-106551013D01*
X147829105Y-106543446D01*
X147846049Y-106521384D01*
X147860247Y-106497456D01*
X147870902Y-106489025D01*
X147871664Y-106488034D01*
X147872564Y-106487710D01*
X147875851Y-106485110D01*
X147887781Y-106477139D01*
X148027139Y-106337781D01*
X148136631Y-106173914D01*
X148212051Y-105991835D01*
X148250500Y-105798540D01*
X148250500Y-105601459D01*
X148250500Y-105601456D01*
X148250499Y-105601454D01*
X148212052Y-105408171D01*
X148212051Y-105408164D01*
X148136631Y-105226085D01*
X148136630Y-105226084D01*
X148136627Y-105226078D01*
X148027139Y-105062218D01*
X148027136Y-105062214D01*
X147412781Y-104447861D01*
X144936819Y-101971899D01*
X144903334Y-101910576D01*
X144900500Y-101884218D01*
X144900500Y-92801456D01*
X144900499Y-92801454D01*
X144868772Y-92641952D01*
X144862051Y-92608164D01*
X144820651Y-92508215D01*
X144806929Y-92475087D01*
X144786633Y-92426088D01*
X144786628Y-92426079D01*
X144677140Y-92262219D01*
X144657037Y-92242116D01*
X144537782Y-92122861D01*
X144537781Y-92122860D01*
X143254208Y-90839288D01*
X143254206Y-90839285D01*
X143254206Y-90839286D01*
X143247139Y-90832219D01*
X143247139Y-90832218D01*
X143107782Y-90692861D01*
X143107781Y-90692860D01*
X143107780Y-90692859D01*
X142943920Y-90583371D01*
X142943907Y-90583364D01*
X142812545Y-90528953D01*
X142812541Y-90528952D01*
X142805195Y-90525909D01*
X142761836Y-90507949D01*
X142665188Y-90488724D01*
X142661031Y-90487897D01*
X142661027Y-90487896D01*
X142568544Y-90469500D01*
X142568541Y-90469500D01*
X140620862Y-90469500D01*
X140554453Y-90450000D01*
X139424000Y-90450000D01*
X139356961Y-90430315D01*
X139311206Y-90377511D01*
X139300000Y-90326000D01*
X139300000Y-90074000D01*
X139319685Y-90006961D01*
X139372489Y-89961206D01*
X139424000Y-89950000D01*
X140550000Y-89950000D01*
X140550000Y-89702172D01*
X140549999Y-89702155D01*
X140543598Y-89642627D01*
X140543596Y-89642620D01*
X140493354Y-89507913D01*
X140493350Y-89507906D01*
X140411681Y-89398811D01*
X140387263Y-89333347D01*
X140402114Y-89265074D01*
X140451519Y-89215668D01*
X140510947Y-89200500D01*
X155589053Y-89200500D01*
X155656092Y-89220185D01*
G37*
%TD.AperFunction*%
%TD*%
M02*
