%TF.GenerationSoftware,KiCad,Pcbnew,10.0.4*%
%TF.CreationDate,2026-09-26T11:42:44-04:00*%
%TF.ProjectId,receiver,72656365-6976-4657-922e-6b696361645f,rev?*%
%TF.SameCoordinates,Original*%
%TF.FileFunction,Other,User*%
%FSLAX46Y46*%
G04 Gerber Fmt 4.6, Leading zero omitted, Abs format (unit mm)*
G04 Created by KiCad (PCBNEW 10.0.4) date 2026-09-26 11:42:44*
%MOMM*%
%LPD*%
G01*
G04 APERTURE LIST*
%ADD10C,0.050000*%
G04 APERTURE END LIST*
%TO.C,R_EN*%
D10*
X144320000Y-108920000D02*
X147280000Y-108920000D01*
X147280000Y-110380000D01*
X144320000Y-110380000D01*
X144320000Y-108920000D01*
%TO.C,C3*%
X141320000Y-110420000D02*
X144280000Y-110420000D01*
X144280000Y-111880000D01*
X141320000Y-111880000D01*
X141320000Y-110420000D01*
%TO.C,SW_RST*%
X138200000Y-118500000D02*
X138200000Y-121800000D01*
X138200000Y-121800000D02*
X143000000Y-121800000D01*
X143000000Y-118500000D02*
X138200000Y-118500000D01*
X143000000Y-121800000D02*
X143000000Y-118500000D01*
%TO.C,HDR1*%
X154480000Y-113190000D02*
X158020000Y-113190000D01*
X158020000Y-121810000D01*
X154480000Y-121810000D01*
X154480000Y-113190000D01*
%TO.C,D1*%
X138320000Y-108920000D02*
X141280000Y-108920000D01*
X141280000Y-110380000D01*
X138320000Y-110380000D01*
X138320000Y-108920000D01*
%TO.C,U1*%
X124050000Y-67710000D02*
X124050000Y-88710000D01*
X124050000Y-88710000D02*
X138300000Y-88710000D01*
X138300000Y-108910000D02*
X138300000Y-88710000D01*
X138300000Y-108910000D02*
X157800000Y-108910000D01*
X157800000Y-88710000D02*
X157800000Y-108910000D01*
X157800000Y-88710000D02*
X172050000Y-88710000D01*
X172050000Y-67710000D02*
X124050000Y-67710000D01*
X172050000Y-88710000D02*
X172050000Y-67710000D01*
%TO.C,C2*%
X154670000Y-108920000D02*
X157630000Y-108920000D01*
X157630000Y-110380000D01*
X154670000Y-110380000D01*
X154670000Y-108920000D01*
%TO.C,J1*%
X143030000Y-112390000D02*
X143030000Y-121810000D01*
X143030000Y-112390000D02*
X153670000Y-112390000D01*
X143030000Y-121810000D02*
X153670000Y-121810000D01*
X153670000Y-112390000D02*
X153670000Y-121810000D01*
%TO.C,C1*%
X144295000Y-110420000D02*
X147255000Y-110420000D01*
X147255000Y-111880000D01*
X144295000Y-111880000D01*
X144295000Y-110420000D01*
%TO.C,R_CC1*%
X140070000Y-111920000D02*
X143030000Y-111920000D01*
X143030000Y-113380000D01*
X140070000Y-113380000D01*
X140070000Y-111920000D01*
%TO.C,U2*%
X147587500Y-109150000D02*
X148587500Y-109150000D01*
X147587500Y-112150000D02*
X147587500Y-109150000D01*
X148587500Y-108950000D02*
X150687500Y-108950000D01*
X148587500Y-109150000D02*
X148587500Y-108950000D01*
X148587500Y-112150000D02*
X147587500Y-112150000D01*
X148587500Y-112350000D02*
X148587500Y-112150000D01*
X150687500Y-108950000D02*
X150687500Y-109150000D01*
X150687500Y-109150000D02*
X151687500Y-109150000D01*
X150687500Y-110260000D02*
X150687500Y-111040000D01*
X150687500Y-111040000D02*
X151687500Y-111040000D01*
X150687500Y-112150000D02*
X150687500Y-112350000D01*
X150687500Y-112350000D02*
X148587500Y-112350000D01*
X151687500Y-109150000D02*
X151687500Y-110260000D01*
X151687500Y-110260000D02*
X150687500Y-110260000D01*
X151687500Y-111040000D02*
X151687500Y-112150000D01*
X151687500Y-112150000D02*
X150687500Y-112150000D01*
%TO.C,R_ACT*%
X141320000Y-108920000D02*
X144280000Y-108920000D01*
X144280000Y-110380000D01*
X141320000Y-110380000D01*
X141320000Y-108920000D01*
%TO.C,R_CC2*%
X151695000Y-109070000D02*
X154655000Y-109070000D01*
X154655000Y-110530000D01*
X151695000Y-110530000D01*
X151695000Y-109070000D01*
%TO.C,SW_BOOT*%
X138200000Y-115200000D02*
X138200000Y-118500000D01*
X138200000Y-118500000D02*
X143000000Y-118500000D01*
X143000000Y-115200000D02*
X138200000Y-115200000D01*
X143000000Y-118500000D02*
X143000000Y-115200000D01*
%TD*%
M02*
