M48
; DRILL file KiCad 10.0.4 date 2026-09-26T11:42:48
; FORMAT={-:-/ absolute / metric / decimal}
; #@! TF.CreationDate,2026-09-26T11:42:48-04:00
; #@! TF.GenerationSoftware,Kicad,Pcbnew,10.0.4
; #@! TF.FileFunction,Plated,1,2,PTH
FMAT,2
METRIC
; #@! TA.AperFunction,Plated,PTH,ComponentDrill
T1C0.200
; #@! TA.AperFunction,Plated,PTH,ViaDrill
T2C0.300
; #@! TA.AperFunction,Plated,PTH,ComponentDrill
T3C0.600
; #@! TA.AperFunction,Plated,PTH,ComponentDrill
T4C1.000
%
G90
G05
T1
X145.15Y-97.22
X145.15Y-98.62
X145.85Y-96.52
X145.85Y-97.92
X145.85Y-99.32
X146.55Y-97.22
X146.55Y-98.62
X147.25Y-96.52
X147.25Y-97.92
X147.25Y-99.32
X147.95Y-97.22
X147.95Y-98.62
T2
X139.55Y-120.15
X139.6Y-109.65
X140.95Y-104.95
X141.0Y-106.4
X141.1Y-94.15
X141.15Y-93.0
X141.438Y-111.938
X143.05Y-112.65
X144.0Y-109.3
X145.6Y-109.35
X145.625Y-110.525
X146.075Y-110.075
X146.25Y-104.7
X146.625Y-109.65
X146.775Y-105.225
X147.1Y-114.8
X147.25Y-105.7
X147.35Y-110.65
X147.8Y-112.4
X149.1Y-114.7
X150.1Y-114.75
X151.213Y-110.137
X152.95Y-109.95
X153.425Y-109.275
X155.4Y-94.0
X155.45Y-95.3
X155.8Y-112.15
X157.025Y-110.175
T4
X156.25Y-114.96
X156.25Y-117.5
X156.25Y-120.04
T3
X144.03Y-113.98G85X144.03Y-115.08
G05
X144.03Y-118.41G85X144.03Y-119.01
G05
X152.67Y-113.98G85X152.67Y-115.08
G05
X152.67Y-118.41G85X152.67Y-119.01
G05
M30
