%TF.GenerationSoftware,KiCad,Pcbnew,10.0.4*%
%TF.CreationDate,2026-09-26T11:42:44-04:00*%
%TF.ProjectId,receiver,72656365-6976-4657-922e-6b696361645f,rev?*%
%TF.SameCoordinates,Original*%
%TF.FileFunction,Legend,Top*%
%TF.FilePolarity,Positive*%
%FSLAX46Y46*%
G04 Gerber Fmt 4.6, Leading zero omitted, Abs format (unit mm)*
G04 Created by KiCad (PCBNEW 10.0.4) date 2026-09-26 11:42:44*
%MOMM*%
%LPD*%
G01*
G04 APERTURE LIST*
%ADD10C,0.150000*%
%ADD11C,0.120000*%
G04 APERTURE END LIST*
D10*
X144852380Y-110854819D02*
X144519047Y-110378628D01*
X144280952Y-110854819D02*
X144280952Y-109854819D01*
X144280952Y-109854819D02*
X144661904Y-109854819D01*
X144661904Y-109854819D02*
X144757142Y-109902438D01*
X144757142Y-109902438D02*
X144804761Y-109950057D01*
X144804761Y-109950057D02*
X144852380Y-110045295D01*
X144852380Y-110045295D02*
X144852380Y-110188152D01*
X144852380Y-110188152D02*
X144804761Y-110283390D01*
X144804761Y-110283390D02*
X144757142Y-110331009D01*
X144757142Y-110331009D02*
X144661904Y-110378628D01*
X144661904Y-110378628D02*
X144280952Y-110378628D01*
X145042857Y-110950057D02*
X145804761Y-110950057D01*
X146042857Y-110331009D02*
X146376190Y-110331009D01*
X146519047Y-110854819D02*
X146042857Y-110854819D01*
X146042857Y-110854819D02*
X146042857Y-109854819D01*
X146042857Y-109854819D02*
X146519047Y-109854819D01*
X146947619Y-110854819D02*
X146947619Y-109854819D01*
X146947619Y-109854819D02*
X147519047Y-110854819D01*
X147519047Y-110854819D02*
X147519047Y-109854819D01*
X138883333Y-112609580D02*
X138835714Y-112657200D01*
X138835714Y-112657200D02*
X138692857Y-112704819D01*
X138692857Y-112704819D02*
X138597619Y-112704819D01*
X138597619Y-112704819D02*
X138454762Y-112657200D01*
X138454762Y-112657200D02*
X138359524Y-112561961D01*
X138359524Y-112561961D02*
X138311905Y-112466723D01*
X138311905Y-112466723D02*
X138264286Y-112276247D01*
X138264286Y-112276247D02*
X138264286Y-112133390D01*
X138264286Y-112133390D02*
X138311905Y-111942914D01*
X138311905Y-111942914D02*
X138359524Y-111847676D01*
X138359524Y-111847676D02*
X138454762Y-111752438D01*
X138454762Y-111752438D02*
X138597619Y-111704819D01*
X138597619Y-111704819D02*
X138692857Y-111704819D01*
X138692857Y-111704819D02*
X138835714Y-111752438D01*
X138835714Y-111752438D02*
X138883333Y-111800057D01*
X139216667Y-111704819D02*
X139835714Y-111704819D01*
X139835714Y-111704819D02*
X139502381Y-112085771D01*
X139502381Y-112085771D02*
X139645238Y-112085771D01*
X139645238Y-112085771D02*
X139740476Y-112133390D01*
X139740476Y-112133390D02*
X139788095Y-112181009D01*
X139788095Y-112181009D02*
X139835714Y-112276247D01*
X139835714Y-112276247D02*
X139835714Y-112514342D01*
X139835714Y-112514342D02*
X139788095Y-112609580D01*
X139788095Y-112609580D02*
X139740476Y-112657200D01*
X139740476Y-112657200D02*
X139645238Y-112704819D01*
X139645238Y-112704819D02*
X139359524Y-112704819D01*
X139359524Y-112704819D02*
X139264286Y-112657200D01*
X139264286Y-112657200D02*
X139216667Y-112609580D01*
X138104762Y-122107200D02*
X138247619Y-122154819D01*
X138247619Y-122154819D02*
X138485714Y-122154819D01*
X138485714Y-122154819D02*
X138580952Y-122107200D01*
X138580952Y-122107200D02*
X138628571Y-122059580D01*
X138628571Y-122059580D02*
X138676190Y-121964342D01*
X138676190Y-121964342D02*
X138676190Y-121869104D01*
X138676190Y-121869104D02*
X138628571Y-121773866D01*
X138628571Y-121773866D02*
X138580952Y-121726247D01*
X138580952Y-121726247D02*
X138485714Y-121678628D01*
X138485714Y-121678628D02*
X138295238Y-121631009D01*
X138295238Y-121631009D02*
X138200000Y-121583390D01*
X138200000Y-121583390D02*
X138152381Y-121535771D01*
X138152381Y-121535771D02*
X138104762Y-121440533D01*
X138104762Y-121440533D02*
X138104762Y-121345295D01*
X138104762Y-121345295D02*
X138152381Y-121250057D01*
X138152381Y-121250057D02*
X138200000Y-121202438D01*
X138200000Y-121202438D02*
X138295238Y-121154819D01*
X138295238Y-121154819D02*
X138533333Y-121154819D01*
X138533333Y-121154819D02*
X138676190Y-121202438D01*
X139009524Y-121154819D02*
X139247619Y-122154819D01*
X139247619Y-122154819D02*
X139438095Y-121440533D01*
X139438095Y-121440533D02*
X139628571Y-122154819D01*
X139628571Y-122154819D02*
X139866667Y-121154819D01*
X140009524Y-122250057D02*
X140771428Y-122250057D01*
X141580952Y-122154819D02*
X141247619Y-121678628D01*
X141009524Y-122154819D02*
X141009524Y-121154819D01*
X141009524Y-121154819D02*
X141390476Y-121154819D01*
X141390476Y-121154819D02*
X141485714Y-121202438D01*
X141485714Y-121202438D02*
X141533333Y-121250057D01*
X141533333Y-121250057D02*
X141580952Y-121345295D01*
X141580952Y-121345295D02*
X141580952Y-121488152D01*
X141580952Y-121488152D02*
X141533333Y-121583390D01*
X141533333Y-121583390D02*
X141485714Y-121631009D01*
X141485714Y-121631009D02*
X141390476Y-121678628D01*
X141390476Y-121678628D02*
X141009524Y-121678628D01*
X141961905Y-122107200D02*
X142104762Y-122154819D01*
X142104762Y-122154819D02*
X142342857Y-122154819D01*
X142342857Y-122154819D02*
X142438095Y-122107200D01*
X142438095Y-122107200D02*
X142485714Y-122059580D01*
X142485714Y-122059580D02*
X142533333Y-121964342D01*
X142533333Y-121964342D02*
X142533333Y-121869104D01*
X142533333Y-121869104D02*
X142485714Y-121773866D01*
X142485714Y-121773866D02*
X142438095Y-121726247D01*
X142438095Y-121726247D02*
X142342857Y-121678628D01*
X142342857Y-121678628D02*
X142152381Y-121631009D01*
X142152381Y-121631009D02*
X142057143Y-121583390D01*
X142057143Y-121583390D02*
X142009524Y-121535771D01*
X142009524Y-121535771D02*
X141961905Y-121440533D01*
X141961905Y-121440533D02*
X141961905Y-121345295D01*
X141961905Y-121345295D02*
X142009524Y-121250057D01*
X142009524Y-121250057D02*
X142057143Y-121202438D01*
X142057143Y-121202438D02*
X142152381Y-121154819D01*
X142152381Y-121154819D02*
X142390476Y-121154819D01*
X142390476Y-121154819D02*
X142533333Y-121202438D01*
X142819048Y-121154819D02*
X143390476Y-121154819D01*
X143104762Y-122154819D02*
X143104762Y-121154819D01*
X154488095Y-113034819D02*
X154488095Y-112034819D01*
X154488095Y-112511009D02*
X155059523Y-112511009D01*
X155059523Y-113034819D02*
X155059523Y-112034819D01*
X155535714Y-113034819D02*
X155535714Y-112034819D01*
X155535714Y-112034819D02*
X155773809Y-112034819D01*
X155773809Y-112034819D02*
X155916666Y-112082438D01*
X155916666Y-112082438D02*
X156011904Y-112177676D01*
X156011904Y-112177676D02*
X156059523Y-112272914D01*
X156059523Y-112272914D02*
X156107142Y-112463390D01*
X156107142Y-112463390D02*
X156107142Y-112606247D01*
X156107142Y-112606247D02*
X156059523Y-112796723D01*
X156059523Y-112796723D02*
X156011904Y-112891961D01*
X156011904Y-112891961D02*
X155916666Y-112987200D01*
X155916666Y-112987200D02*
X155773809Y-113034819D01*
X155773809Y-113034819D02*
X155535714Y-113034819D01*
X157107142Y-113034819D02*
X156773809Y-112558628D01*
X156535714Y-113034819D02*
X156535714Y-112034819D01*
X156535714Y-112034819D02*
X156916666Y-112034819D01*
X156916666Y-112034819D02*
X157011904Y-112082438D01*
X157011904Y-112082438D02*
X157059523Y-112130057D01*
X157059523Y-112130057D02*
X157107142Y-112225295D01*
X157107142Y-112225295D02*
X157107142Y-112368152D01*
X157107142Y-112368152D02*
X157059523Y-112463390D01*
X157059523Y-112463390D02*
X157011904Y-112511009D01*
X157011904Y-112511009D02*
X156916666Y-112558628D01*
X156916666Y-112558628D02*
X156535714Y-112558628D01*
X158059523Y-113034819D02*
X157488095Y-113034819D01*
X157773809Y-113034819D02*
X157773809Y-112034819D01*
X157773809Y-112034819D02*
X157678571Y-112177676D01*
X157678571Y-112177676D02*
X157583333Y-112272914D01*
X157583333Y-112272914D02*
X157488095Y-112320533D01*
X138161905Y-111354819D02*
X138161905Y-110354819D01*
X138161905Y-110354819D02*
X138400000Y-110354819D01*
X138400000Y-110354819D02*
X138542857Y-110402438D01*
X138542857Y-110402438D02*
X138638095Y-110497676D01*
X138638095Y-110497676D02*
X138685714Y-110592914D01*
X138685714Y-110592914D02*
X138733333Y-110783390D01*
X138733333Y-110783390D02*
X138733333Y-110926247D01*
X138733333Y-110926247D02*
X138685714Y-111116723D01*
X138685714Y-111116723D02*
X138638095Y-111211961D01*
X138638095Y-111211961D02*
X138542857Y-111307200D01*
X138542857Y-111307200D02*
X138400000Y-111354819D01*
X138400000Y-111354819D02*
X138161905Y-111354819D01*
X139685714Y-111354819D02*
X139114286Y-111354819D01*
X139400000Y-111354819D02*
X139400000Y-110354819D01*
X139400000Y-110354819D02*
X139304762Y-110497676D01*
X139304762Y-110497676D02*
X139209524Y-110592914D01*
X139209524Y-110592914D02*
X139114286Y-110640533D01*
X140588095Y-105404819D02*
X140588095Y-106214342D01*
X140588095Y-106214342D02*
X140635714Y-106309580D01*
X140635714Y-106309580D02*
X140683333Y-106357200D01*
X140683333Y-106357200D02*
X140778571Y-106404819D01*
X140778571Y-106404819D02*
X140969047Y-106404819D01*
X140969047Y-106404819D02*
X141064285Y-106357200D01*
X141064285Y-106357200D02*
X141111904Y-106309580D01*
X141111904Y-106309580D02*
X141159523Y-106214342D01*
X141159523Y-106214342D02*
X141159523Y-105404819D01*
X142159523Y-106404819D02*
X141588095Y-106404819D01*
X141873809Y-106404819D02*
X141873809Y-105404819D01*
X141873809Y-105404819D02*
X141778571Y-105547676D01*
X141778571Y-105547676D02*
X141683333Y-105642914D01*
X141683333Y-105642914D02*
X141588095Y-105690533D01*
X157083333Y-111409580D02*
X157035714Y-111457200D01*
X157035714Y-111457200D02*
X156892857Y-111504819D01*
X156892857Y-111504819D02*
X156797619Y-111504819D01*
X156797619Y-111504819D02*
X156654762Y-111457200D01*
X156654762Y-111457200D02*
X156559524Y-111361961D01*
X156559524Y-111361961D02*
X156511905Y-111266723D01*
X156511905Y-111266723D02*
X156464286Y-111076247D01*
X156464286Y-111076247D02*
X156464286Y-110933390D01*
X156464286Y-110933390D02*
X156511905Y-110742914D01*
X156511905Y-110742914D02*
X156559524Y-110647676D01*
X156559524Y-110647676D02*
X156654762Y-110552438D01*
X156654762Y-110552438D02*
X156797619Y-110504819D01*
X156797619Y-110504819D02*
X156892857Y-110504819D01*
X156892857Y-110504819D02*
X157035714Y-110552438D01*
X157035714Y-110552438D02*
X157083333Y-110600057D01*
X157464286Y-110600057D02*
X157511905Y-110552438D01*
X157511905Y-110552438D02*
X157607143Y-110504819D01*
X157607143Y-110504819D02*
X157845238Y-110504819D01*
X157845238Y-110504819D02*
X157940476Y-110552438D01*
X157940476Y-110552438D02*
X157988095Y-110600057D01*
X157988095Y-110600057D02*
X158035714Y-110695295D01*
X158035714Y-110695295D02*
X158035714Y-110790533D01*
X158035714Y-110790533D02*
X157988095Y-110933390D01*
X157988095Y-110933390D02*
X157416667Y-111504819D01*
X157416667Y-111504819D02*
X158035714Y-111504819D01*
X146566666Y-111754819D02*
X146566666Y-112469104D01*
X146566666Y-112469104D02*
X146519047Y-112611961D01*
X146519047Y-112611961D02*
X146423809Y-112707200D01*
X146423809Y-112707200D02*
X146280952Y-112754819D01*
X146280952Y-112754819D02*
X146185714Y-112754819D01*
X147566666Y-112754819D02*
X146995238Y-112754819D01*
X147280952Y-112754819D02*
X147280952Y-111754819D01*
X147280952Y-111754819D02*
X147185714Y-111897676D01*
X147185714Y-111897676D02*
X147090476Y-111992914D01*
X147090476Y-111992914D02*
X146995238Y-112040533D01*
X144983333Y-112659580D02*
X144935714Y-112707200D01*
X144935714Y-112707200D02*
X144792857Y-112754819D01*
X144792857Y-112754819D02*
X144697619Y-112754819D01*
X144697619Y-112754819D02*
X144554762Y-112707200D01*
X144554762Y-112707200D02*
X144459524Y-112611961D01*
X144459524Y-112611961D02*
X144411905Y-112516723D01*
X144411905Y-112516723D02*
X144364286Y-112326247D01*
X144364286Y-112326247D02*
X144364286Y-112183390D01*
X144364286Y-112183390D02*
X144411905Y-111992914D01*
X144411905Y-111992914D02*
X144459524Y-111897676D01*
X144459524Y-111897676D02*
X144554762Y-111802438D01*
X144554762Y-111802438D02*
X144697619Y-111754819D01*
X144697619Y-111754819D02*
X144792857Y-111754819D01*
X144792857Y-111754819D02*
X144935714Y-111802438D01*
X144935714Y-111802438D02*
X144983333Y-111850057D01*
X145935714Y-112754819D02*
X145364286Y-112754819D01*
X145650000Y-112754819D02*
X145650000Y-111754819D01*
X145650000Y-111754819D02*
X145554762Y-111897676D01*
X145554762Y-111897676D02*
X145459524Y-111992914D01*
X145459524Y-111992914D02*
X145364286Y-112040533D01*
X138752380Y-114054819D02*
X138419047Y-113578628D01*
X138180952Y-114054819D02*
X138180952Y-113054819D01*
X138180952Y-113054819D02*
X138561904Y-113054819D01*
X138561904Y-113054819D02*
X138657142Y-113102438D01*
X138657142Y-113102438D02*
X138704761Y-113150057D01*
X138704761Y-113150057D02*
X138752380Y-113245295D01*
X138752380Y-113245295D02*
X138752380Y-113388152D01*
X138752380Y-113388152D02*
X138704761Y-113483390D01*
X138704761Y-113483390D02*
X138657142Y-113531009D01*
X138657142Y-113531009D02*
X138561904Y-113578628D01*
X138561904Y-113578628D02*
X138180952Y-113578628D01*
X138942857Y-114150057D02*
X139704761Y-114150057D01*
X140514285Y-113959580D02*
X140466666Y-114007200D01*
X140466666Y-114007200D02*
X140323809Y-114054819D01*
X140323809Y-114054819D02*
X140228571Y-114054819D01*
X140228571Y-114054819D02*
X140085714Y-114007200D01*
X140085714Y-114007200D02*
X139990476Y-113911961D01*
X139990476Y-113911961D02*
X139942857Y-113816723D01*
X139942857Y-113816723D02*
X139895238Y-113626247D01*
X139895238Y-113626247D02*
X139895238Y-113483390D01*
X139895238Y-113483390D02*
X139942857Y-113292914D01*
X139942857Y-113292914D02*
X139990476Y-113197676D01*
X139990476Y-113197676D02*
X140085714Y-113102438D01*
X140085714Y-113102438D02*
X140228571Y-113054819D01*
X140228571Y-113054819D02*
X140323809Y-113054819D01*
X140323809Y-113054819D02*
X140466666Y-113102438D01*
X140466666Y-113102438D02*
X140514285Y-113150057D01*
X141514285Y-113959580D02*
X141466666Y-114007200D01*
X141466666Y-114007200D02*
X141323809Y-114054819D01*
X141323809Y-114054819D02*
X141228571Y-114054819D01*
X141228571Y-114054819D02*
X141085714Y-114007200D01*
X141085714Y-114007200D02*
X140990476Y-113911961D01*
X140990476Y-113911961D02*
X140942857Y-113816723D01*
X140942857Y-113816723D02*
X140895238Y-113626247D01*
X140895238Y-113626247D02*
X140895238Y-113483390D01*
X140895238Y-113483390D02*
X140942857Y-113292914D01*
X140942857Y-113292914D02*
X140990476Y-113197676D01*
X140990476Y-113197676D02*
X141085714Y-113102438D01*
X141085714Y-113102438D02*
X141228571Y-113054819D01*
X141228571Y-113054819D02*
X141323809Y-113054819D01*
X141323809Y-113054819D02*
X141466666Y-113102438D01*
X141466666Y-113102438D02*
X141514285Y-113150057D01*
X142466666Y-114054819D02*
X141895238Y-114054819D01*
X142180952Y-114054819D02*
X142180952Y-113054819D01*
X142180952Y-113054819D02*
X142085714Y-113197676D01*
X142085714Y-113197676D02*
X141990476Y-113292914D01*
X141990476Y-113292914D02*
X141895238Y-113340533D01*
X149538095Y-110104819D02*
X149538095Y-110914342D01*
X149538095Y-110914342D02*
X149585714Y-111009580D01*
X149585714Y-111009580D02*
X149633333Y-111057200D01*
X149633333Y-111057200D02*
X149728571Y-111104819D01*
X149728571Y-111104819D02*
X149919047Y-111104819D01*
X149919047Y-111104819D02*
X150014285Y-111057200D01*
X150014285Y-111057200D02*
X150061904Y-111009580D01*
X150061904Y-111009580D02*
X150109523Y-110914342D01*
X150109523Y-110914342D02*
X150109523Y-110104819D01*
X150538095Y-110200057D02*
X150585714Y-110152438D01*
X150585714Y-110152438D02*
X150680952Y-110104819D01*
X150680952Y-110104819D02*
X150919047Y-110104819D01*
X150919047Y-110104819D02*
X151014285Y-110152438D01*
X151014285Y-110152438D02*
X151061904Y-110200057D01*
X151061904Y-110200057D02*
X151109523Y-110295295D01*
X151109523Y-110295295D02*
X151109523Y-110390533D01*
X151109523Y-110390533D02*
X151061904Y-110533390D01*
X151061904Y-110533390D02*
X150490476Y-111104819D01*
X150490476Y-111104819D02*
X151109523Y-111104819D01*
X140519047Y-110854819D02*
X140185714Y-110378628D01*
X139947619Y-110854819D02*
X139947619Y-109854819D01*
X139947619Y-109854819D02*
X140328571Y-109854819D01*
X140328571Y-109854819D02*
X140423809Y-109902438D01*
X140423809Y-109902438D02*
X140471428Y-109950057D01*
X140471428Y-109950057D02*
X140519047Y-110045295D01*
X140519047Y-110045295D02*
X140519047Y-110188152D01*
X140519047Y-110188152D02*
X140471428Y-110283390D01*
X140471428Y-110283390D02*
X140423809Y-110331009D01*
X140423809Y-110331009D02*
X140328571Y-110378628D01*
X140328571Y-110378628D02*
X139947619Y-110378628D01*
X140709524Y-110950057D02*
X141471428Y-110950057D01*
X141661905Y-110569104D02*
X142138095Y-110569104D01*
X141566667Y-110854819D02*
X141900000Y-109854819D01*
X141900000Y-109854819D02*
X142233333Y-110854819D01*
X143138095Y-110759580D02*
X143090476Y-110807200D01*
X143090476Y-110807200D02*
X142947619Y-110854819D01*
X142947619Y-110854819D02*
X142852381Y-110854819D01*
X142852381Y-110854819D02*
X142709524Y-110807200D01*
X142709524Y-110807200D02*
X142614286Y-110711961D01*
X142614286Y-110711961D02*
X142566667Y-110616723D01*
X142566667Y-110616723D02*
X142519048Y-110426247D01*
X142519048Y-110426247D02*
X142519048Y-110283390D01*
X142519048Y-110283390D02*
X142566667Y-110092914D01*
X142566667Y-110092914D02*
X142614286Y-109997676D01*
X142614286Y-109997676D02*
X142709524Y-109902438D01*
X142709524Y-109902438D02*
X142852381Y-109854819D01*
X142852381Y-109854819D02*
X142947619Y-109854819D01*
X142947619Y-109854819D02*
X143090476Y-109902438D01*
X143090476Y-109902438D02*
X143138095Y-109950057D01*
X143423810Y-109854819D02*
X143995238Y-109854819D01*
X143709524Y-110854819D02*
X143709524Y-109854819D01*
X152352380Y-111504819D02*
X152019047Y-111028628D01*
X151780952Y-111504819D02*
X151780952Y-110504819D01*
X151780952Y-110504819D02*
X152161904Y-110504819D01*
X152161904Y-110504819D02*
X152257142Y-110552438D01*
X152257142Y-110552438D02*
X152304761Y-110600057D01*
X152304761Y-110600057D02*
X152352380Y-110695295D01*
X152352380Y-110695295D02*
X152352380Y-110838152D01*
X152352380Y-110838152D02*
X152304761Y-110933390D01*
X152304761Y-110933390D02*
X152257142Y-110981009D01*
X152257142Y-110981009D02*
X152161904Y-111028628D01*
X152161904Y-111028628D02*
X151780952Y-111028628D01*
X152542857Y-111600057D02*
X153304761Y-111600057D01*
X154114285Y-111409580D02*
X154066666Y-111457200D01*
X154066666Y-111457200D02*
X153923809Y-111504819D01*
X153923809Y-111504819D02*
X153828571Y-111504819D01*
X153828571Y-111504819D02*
X153685714Y-111457200D01*
X153685714Y-111457200D02*
X153590476Y-111361961D01*
X153590476Y-111361961D02*
X153542857Y-111266723D01*
X153542857Y-111266723D02*
X153495238Y-111076247D01*
X153495238Y-111076247D02*
X153495238Y-110933390D01*
X153495238Y-110933390D02*
X153542857Y-110742914D01*
X153542857Y-110742914D02*
X153590476Y-110647676D01*
X153590476Y-110647676D02*
X153685714Y-110552438D01*
X153685714Y-110552438D02*
X153828571Y-110504819D01*
X153828571Y-110504819D02*
X153923809Y-110504819D01*
X153923809Y-110504819D02*
X154066666Y-110552438D01*
X154066666Y-110552438D02*
X154114285Y-110600057D01*
X155114285Y-111409580D02*
X155066666Y-111457200D01*
X155066666Y-111457200D02*
X154923809Y-111504819D01*
X154923809Y-111504819D02*
X154828571Y-111504819D01*
X154828571Y-111504819D02*
X154685714Y-111457200D01*
X154685714Y-111457200D02*
X154590476Y-111361961D01*
X154590476Y-111361961D02*
X154542857Y-111266723D01*
X154542857Y-111266723D02*
X154495238Y-111076247D01*
X154495238Y-111076247D02*
X154495238Y-110933390D01*
X154495238Y-110933390D02*
X154542857Y-110742914D01*
X154542857Y-110742914D02*
X154590476Y-110647676D01*
X154590476Y-110647676D02*
X154685714Y-110552438D01*
X154685714Y-110552438D02*
X154828571Y-110504819D01*
X154828571Y-110504819D02*
X154923809Y-110504819D01*
X154923809Y-110504819D02*
X155066666Y-110552438D01*
X155066666Y-110552438D02*
X155114285Y-110600057D01*
X155495238Y-110600057D02*
X155542857Y-110552438D01*
X155542857Y-110552438D02*
X155638095Y-110504819D01*
X155638095Y-110504819D02*
X155876190Y-110504819D01*
X155876190Y-110504819D02*
X155971428Y-110552438D01*
X155971428Y-110552438D02*
X156019047Y-110600057D01*
X156019047Y-110600057D02*
X156066666Y-110695295D01*
X156066666Y-110695295D02*
X156066666Y-110790533D01*
X156066666Y-110790533D02*
X156019047Y-110933390D01*
X156019047Y-110933390D02*
X155447619Y-111504819D01*
X155447619Y-111504819D02*
X156066666Y-111504819D01*
X137866666Y-115024200D02*
X137980952Y-115062295D01*
X137980952Y-115062295D02*
X138171428Y-115062295D01*
X138171428Y-115062295D02*
X138247619Y-115024200D01*
X138247619Y-115024200D02*
X138285714Y-114986104D01*
X138285714Y-114986104D02*
X138323809Y-114909914D01*
X138323809Y-114909914D02*
X138323809Y-114833723D01*
X138323809Y-114833723D02*
X138285714Y-114757533D01*
X138285714Y-114757533D02*
X138247619Y-114719438D01*
X138247619Y-114719438D02*
X138171428Y-114681342D01*
X138171428Y-114681342D02*
X138019047Y-114643247D01*
X138019047Y-114643247D02*
X137942857Y-114605152D01*
X137942857Y-114605152D02*
X137904762Y-114567057D01*
X137904762Y-114567057D02*
X137866666Y-114490866D01*
X137866666Y-114490866D02*
X137866666Y-114414676D01*
X137866666Y-114414676D02*
X137904762Y-114338485D01*
X137904762Y-114338485D02*
X137942857Y-114300390D01*
X137942857Y-114300390D02*
X138019047Y-114262295D01*
X138019047Y-114262295D02*
X138209524Y-114262295D01*
X138209524Y-114262295D02*
X138323809Y-114300390D01*
X138590476Y-114262295D02*
X138780952Y-115062295D01*
X138780952Y-115062295D02*
X138933333Y-114490866D01*
X138933333Y-114490866D02*
X139085714Y-115062295D01*
X139085714Y-115062295D02*
X139276191Y-114262295D01*
X139390477Y-115138485D02*
X140000000Y-115138485D01*
X140457143Y-114643247D02*
X140571429Y-114681342D01*
X140571429Y-114681342D02*
X140609524Y-114719438D01*
X140609524Y-114719438D02*
X140647620Y-114795628D01*
X140647620Y-114795628D02*
X140647620Y-114909914D01*
X140647620Y-114909914D02*
X140609524Y-114986104D01*
X140609524Y-114986104D02*
X140571429Y-115024200D01*
X140571429Y-115024200D02*
X140495239Y-115062295D01*
X140495239Y-115062295D02*
X140190477Y-115062295D01*
X140190477Y-115062295D02*
X140190477Y-114262295D01*
X140190477Y-114262295D02*
X140457143Y-114262295D01*
X140457143Y-114262295D02*
X140533334Y-114300390D01*
X140533334Y-114300390D02*
X140571429Y-114338485D01*
X140571429Y-114338485D02*
X140609524Y-114414676D01*
X140609524Y-114414676D02*
X140609524Y-114490866D01*
X140609524Y-114490866D02*
X140571429Y-114567057D01*
X140571429Y-114567057D02*
X140533334Y-114605152D01*
X140533334Y-114605152D02*
X140457143Y-114643247D01*
X140457143Y-114643247D02*
X140190477Y-114643247D01*
X141142858Y-114262295D02*
X141295239Y-114262295D01*
X141295239Y-114262295D02*
X141371429Y-114300390D01*
X141371429Y-114300390D02*
X141447620Y-114376580D01*
X141447620Y-114376580D02*
X141485715Y-114528961D01*
X141485715Y-114528961D02*
X141485715Y-114795628D01*
X141485715Y-114795628D02*
X141447620Y-114948009D01*
X141447620Y-114948009D02*
X141371429Y-115024200D01*
X141371429Y-115024200D02*
X141295239Y-115062295D01*
X141295239Y-115062295D02*
X141142858Y-115062295D01*
X141142858Y-115062295D02*
X141066667Y-115024200D01*
X141066667Y-115024200D02*
X140990477Y-114948009D01*
X140990477Y-114948009D02*
X140952381Y-114795628D01*
X140952381Y-114795628D02*
X140952381Y-114528961D01*
X140952381Y-114528961D02*
X140990477Y-114376580D01*
X140990477Y-114376580D02*
X141066667Y-114300390D01*
X141066667Y-114300390D02*
X141142858Y-114262295D01*
X141980953Y-114262295D02*
X142133334Y-114262295D01*
X142133334Y-114262295D02*
X142209524Y-114300390D01*
X142209524Y-114300390D02*
X142285715Y-114376580D01*
X142285715Y-114376580D02*
X142323810Y-114528961D01*
X142323810Y-114528961D02*
X142323810Y-114795628D01*
X142323810Y-114795628D02*
X142285715Y-114948009D01*
X142285715Y-114948009D02*
X142209524Y-115024200D01*
X142209524Y-115024200D02*
X142133334Y-115062295D01*
X142133334Y-115062295D02*
X141980953Y-115062295D01*
X141980953Y-115062295D02*
X141904762Y-115024200D01*
X141904762Y-115024200D02*
X141828572Y-114948009D01*
X141828572Y-114948009D02*
X141790476Y-114795628D01*
X141790476Y-114795628D02*
X141790476Y-114528961D01*
X141790476Y-114528961D02*
X141828572Y-114376580D01*
X141828572Y-114376580D02*
X141904762Y-114300390D01*
X141904762Y-114300390D02*
X141980953Y-114262295D01*
X142552381Y-114262295D02*
X143009524Y-114262295D01*
X142780952Y-115062295D02*
X142780952Y-114262295D01*
%TO.C,R_EN*%
D11*
X145562742Y-109127500D02*
X146037258Y-109127500D01*
X145562742Y-110172500D02*
X146037258Y-110172500D01*
%TO.C,C3*%
X142940580Y-110640000D02*
X142659420Y-110640000D01*
X142940580Y-111660000D02*
X142659420Y-111660000D01*
%TO.C,SW_RST*%
X138950000Y-118750000D02*
X142250000Y-118750000D01*
X138950000Y-119050000D02*
X138950000Y-118750000D01*
X138950000Y-121250000D02*
X138950000Y-121550000D01*
X138950000Y-121550000D02*
X142250000Y-121550000D01*
X142250000Y-118750000D02*
X142250000Y-119050000D01*
X142250000Y-121550000D02*
X142250000Y-121250000D01*
%TO.C,HDR1*%
X154870000Y-113580000D02*
X156250000Y-113580000D01*
X154870000Y-114960000D02*
X154870000Y-113580000D01*
X154870000Y-116230000D02*
X154870000Y-121420000D01*
X154870000Y-116230000D02*
X157630000Y-116230000D01*
X154870000Y-121420000D02*
X157630000Y-121420000D01*
X157630000Y-116230000D02*
X157630000Y-121420000D01*
%TO.C,D1*%
X138315000Y-108915000D02*
X138315000Y-110385000D01*
X138315000Y-110385000D02*
X140600000Y-110385000D01*
X140600000Y-108915000D02*
X138315000Y-108915000D01*
%TO.C,U1*%
X138850000Y-82560000D02*
X138850000Y-88760000D01*
X138850000Y-82560000D02*
X157250000Y-82560000D01*
X138850000Y-107410000D02*
X138850000Y-108410000D01*
X138850000Y-108410000D02*
X140350000Y-108410000D01*
X157250000Y-82560000D02*
X157250000Y-88760000D01*
X157250000Y-108410000D02*
X155750000Y-108410000D01*
X157250000Y-108410000D02*
X157250000Y-107410000D01*
X138850000Y-89435000D02*
X138350000Y-89435000D01*
X138850000Y-88935000D01*
X138850000Y-89435000D01*
G36*
X138850000Y-89435000D02*
G01*
X138350000Y-89435000D01*
X138850000Y-88935000D01*
X138850000Y-89435000D01*
G37*
%TO.C,C2*%
X156009420Y-109140000D02*
X156290580Y-109140000D01*
X156009420Y-110160000D02*
X156290580Y-110160000D01*
%TO.C,J1*%
X143650000Y-115760000D02*
X143650000Y-117760000D01*
X143650000Y-119660000D02*
X143650000Y-121560000D01*
X143650000Y-121560000D02*
X153050000Y-121560000D01*
X153050000Y-115760000D02*
X153050000Y-117760000D01*
X153050000Y-119660000D02*
X153050000Y-121560000D01*
%TO.C,C1*%
X145634420Y-110640000D02*
X145915580Y-110640000D01*
X145634420Y-111660000D02*
X145915580Y-111660000D01*
%TO.C,R_CC1*%
X141787258Y-112127500D02*
X141312742Y-112127500D01*
X141787258Y-113172500D02*
X141312742Y-113172500D01*
%TO.C,U2*%
X148727500Y-109090000D02*
X150547500Y-109090000D01*
X148727500Y-109140000D02*
X148727500Y-109090000D01*
X148727500Y-112210000D02*
X148727500Y-112160000D01*
X150547500Y-109090000D02*
X150547500Y-109140000D01*
X150547500Y-110260000D02*
X150547500Y-111040000D01*
X150547500Y-112160000D02*
X150547500Y-112210000D01*
X150547500Y-112210000D02*
X148727500Y-112210000D01*
X148187500Y-109140000D02*
X147947500Y-108810000D01*
X148427500Y-108810000D01*
X148187500Y-109140000D01*
G36*
X148187500Y-109140000D02*
G01*
X147947500Y-108810000D01*
X148427500Y-108810000D01*
X148187500Y-109140000D01*
G37*
%TO.C,R_ACT*%
X143037258Y-109127500D02*
X142562742Y-109127500D01*
X143037258Y-110172500D02*
X142562742Y-110172500D01*
%TO.C,R_CC2*%
X152937742Y-109277500D02*
X153412258Y-109277500D01*
X152937742Y-110322500D02*
X153412258Y-110322500D01*
%TO.C,SW_BOOT*%
X138950000Y-115450000D02*
X142250000Y-115450000D01*
X138950000Y-115750000D02*
X138950000Y-115450000D01*
X138950000Y-117950000D02*
X138950000Y-118250000D01*
X138950000Y-118250000D02*
X142250000Y-118250000D01*
X142250000Y-115450000D02*
X142250000Y-115750000D01*
X142250000Y-118250000D02*
X142250000Y-117950000D01*
%TD*%
M02*
