%TF.GenerationSoftware,KiCad,Pcbnew,10.0.4*%
%TF.CreationDate,2026-09-26T11:42:44-04:00*%
%TF.ProjectId,receiver,72656365-6976-4657-922e-6b696361645f,rev?*%
%TF.SameCoordinates,Original*%
%TF.FileFunction,Other,Comment*%
%FSLAX46Y46*%
G04 Gerber Fmt 4.6, Leading zero omitted, Abs format (unit mm)*
G04 Created by KiCad (PCBNEW 10.0.4) date 2026-09-26 11:42:44*
%MOMM*%
%LPD*%
G01*
G04 APERTURE LIST*
%ADD10C,0.150000*%
G04 APERTURE END LIST*
D10*
X145238095Y-86189104D02*
X145714285Y-86189104D01*
X145142857Y-86474819D02*
X145476190Y-85474819D01*
X145476190Y-85474819D02*
X145809523Y-86474819D01*
X146142857Y-85808152D02*
X146142857Y-86474819D01*
X146142857Y-85903390D02*
X146190476Y-85855771D01*
X146190476Y-85855771D02*
X146285714Y-85808152D01*
X146285714Y-85808152D02*
X146428571Y-85808152D01*
X146428571Y-85808152D02*
X146523809Y-85855771D01*
X146523809Y-85855771D02*
X146571428Y-85951009D01*
X146571428Y-85951009D02*
X146571428Y-86474819D01*
X146904762Y-85808152D02*
X147285714Y-85808152D01*
X147047619Y-85474819D02*
X147047619Y-86331961D01*
X147047619Y-86331961D02*
X147095238Y-86427200D01*
X147095238Y-86427200D02*
X147190476Y-86474819D01*
X147190476Y-86474819D02*
X147285714Y-86474819D01*
X148000000Y-86427200D02*
X147904762Y-86474819D01*
X147904762Y-86474819D02*
X147714286Y-86474819D01*
X147714286Y-86474819D02*
X147619048Y-86427200D01*
X147619048Y-86427200D02*
X147571429Y-86331961D01*
X147571429Y-86331961D02*
X147571429Y-85951009D01*
X147571429Y-85951009D02*
X147619048Y-85855771D01*
X147619048Y-85855771D02*
X147714286Y-85808152D01*
X147714286Y-85808152D02*
X147904762Y-85808152D01*
X147904762Y-85808152D02*
X148000000Y-85855771D01*
X148000000Y-85855771D02*
X148047619Y-85951009D01*
X148047619Y-85951009D02*
X148047619Y-86046247D01*
X148047619Y-86046247D02*
X147571429Y-86141485D01*
X148476191Y-85808152D02*
X148476191Y-86474819D01*
X148476191Y-85903390D02*
X148523810Y-85855771D01*
X148523810Y-85855771D02*
X148619048Y-85808152D01*
X148619048Y-85808152D02*
X148761905Y-85808152D01*
X148761905Y-85808152D02*
X148857143Y-85855771D01*
X148857143Y-85855771D02*
X148904762Y-85951009D01*
X148904762Y-85951009D02*
X148904762Y-86474819D01*
X149380953Y-85808152D02*
X149380953Y-86474819D01*
X149380953Y-85903390D02*
X149428572Y-85855771D01*
X149428572Y-85855771D02*
X149523810Y-85808152D01*
X149523810Y-85808152D02*
X149666667Y-85808152D01*
X149666667Y-85808152D02*
X149761905Y-85855771D01*
X149761905Y-85855771D02*
X149809524Y-85951009D01*
X149809524Y-85951009D02*
X149809524Y-86474819D01*
X150714286Y-86474819D02*
X150714286Y-85951009D01*
X150714286Y-85951009D02*
X150666667Y-85855771D01*
X150666667Y-85855771D02*
X150571429Y-85808152D01*
X150571429Y-85808152D02*
X150380953Y-85808152D01*
X150380953Y-85808152D02*
X150285715Y-85855771D01*
X150714286Y-86427200D02*
X150619048Y-86474819D01*
X150619048Y-86474819D02*
X150380953Y-86474819D01*
X150380953Y-86474819D02*
X150285715Y-86427200D01*
X150285715Y-86427200D02*
X150238096Y-86331961D01*
X150238096Y-86331961D02*
X150238096Y-86236723D01*
X150238096Y-86236723D02*
X150285715Y-86141485D01*
X150285715Y-86141485D02*
X150380953Y-86093866D01*
X150380953Y-86093866D02*
X150619048Y-86093866D01*
X150619048Y-86093866D02*
X150714286Y-86046247D01*
X135907142Y-77457438D02*
X135907142Y-75457438D01*
X137049999Y-77457438D02*
X136192856Y-76314580D01*
X137049999Y-75457438D02*
X135907142Y-76600295D01*
X137907142Y-76409819D02*
X138573809Y-76409819D01*
X138859523Y-77457438D02*
X137907142Y-77457438D01*
X137907142Y-77457438D02*
X137907142Y-75457438D01*
X137907142Y-75457438D02*
X138859523Y-75457438D01*
X139716666Y-76409819D02*
X140383333Y-76409819D01*
X140669047Y-77457438D02*
X139716666Y-77457438D01*
X139716666Y-77457438D02*
X139716666Y-75457438D01*
X139716666Y-75457438D02*
X140669047Y-75457438D01*
X141526190Y-77457438D02*
X141526190Y-75457438D01*
X141526190Y-75457438D02*
X142288095Y-75457438D01*
X142288095Y-75457438D02*
X142478571Y-75552676D01*
X142478571Y-75552676D02*
X142573809Y-75647914D01*
X142573809Y-75647914D02*
X142669047Y-75838390D01*
X142669047Y-75838390D02*
X142669047Y-76124104D01*
X142669047Y-76124104D02*
X142573809Y-76314580D01*
X142573809Y-76314580D02*
X142478571Y-76409819D01*
X142478571Y-76409819D02*
X142288095Y-76505057D01*
X142288095Y-76505057D02*
X141526190Y-76505057D01*
X143526190Y-76695533D02*
X145050000Y-76695533D01*
X146383332Y-75457438D02*
X146764285Y-75457438D01*
X146764285Y-75457438D02*
X146954761Y-75552676D01*
X146954761Y-75552676D02*
X147145237Y-75743152D01*
X147145237Y-75743152D02*
X147240475Y-76124104D01*
X147240475Y-76124104D02*
X147240475Y-76790771D01*
X147240475Y-76790771D02*
X147145237Y-77171723D01*
X147145237Y-77171723D02*
X146954761Y-77362200D01*
X146954761Y-77362200D02*
X146764285Y-77457438D01*
X146764285Y-77457438D02*
X146383332Y-77457438D01*
X146383332Y-77457438D02*
X146192856Y-77362200D01*
X146192856Y-77362200D02*
X146002380Y-77171723D01*
X146002380Y-77171723D02*
X145907142Y-76790771D01*
X145907142Y-76790771D02*
X145907142Y-76124104D01*
X145907142Y-76124104D02*
X146002380Y-75743152D01*
X146002380Y-75743152D02*
X146192856Y-75552676D01*
X146192856Y-75552676D02*
X146383332Y-75457438D01*
X148097618Y-75457438D02*
X148097618Y-77076485D01*
X148097618Y-77076485D02*
X148192856Y-77266961D01*
X148192856Y-77266961D02*
X148288094Y-77362200D01*
X148288094Y-77362200D02*
X148478570Y-77457438D01*
X148478570Y-77457438D02*
X148859523Y-77457438D01*
X148859523Y-77457438D02*
X149049999Y-77362200D01*
X149049999Y-77362200D02*
X149145237Y-77266961D01*
X149145237Y-77266961D02*
X149240475Y-77076485D01*
X149240475Y-77076485D02*
X149240475Y-75457438D01*
X149907142Y-75457438D02*
X151049999Y-75457438D01*
X150478570Y-77457438D02*
X150478570Y-75457438D01*
X153050000Y-75457438D02*
X154383333Y-75457438D01*
X154383333Y-75457438D02*
X153050000Y-77457438D01*
X153050000Y-77457438D02*
X154383333Y-77457438D01*
X155526190Y-75457438D02*
X155907143Y-75457438D01*
X155907143Y-75457438D02*
X156097619Y-75552676D01*
X156097619Y-75552676D02*
X156288095Y-75743152D01*
X156288095Y-75743152D02*
X156383333Y-76124104D01*
X156383333Y-76124104D02*
X156383333Y-76790771D01*
X156383333Y-76790771D02*
X156288095Y-77171723D01*
X156288095Y-77171723D02*
X156097619Y-77362200D01*
X156097619Y-77362200D02*
X155907143Y-77457438D01*
X155907143Y-77457438D02*
X155526190Y-77457438D01*
X155526190Y-77457438D02*
X155335714Y-77362200D01*
X155335714Y-77362200D02*
X155145238Y-77171723D01*
X155145238Y-77171723D02*
X155050000Y-76790771D01*
X155050000Y-76790771D02*
X155050000Y-76124104D01*
X155050000Y-76124104D02*
X155145238Y-75743152D01*
X155145238Y-75743152D02*
X155335714Y-75552676D01*
X155335714Y-75552676D02*
X155526190Y-75457438D01*
X157240476Y-77457438D02*
X157240476Y-75457438D01*
X157240476Y-75457438D02*
X158383333Y-77457438D01*
X158383333Y-77457438D02*
X158383333Y-75457438D01*
X159335714Y-76409819D02*
X160002381Y-76409819D01*
X160288095Y-77457438D02*
X159335714Y-77457438D01*
X159335714Y-77457438D02*
X159335714Y-75457438D01*
X159335714Y-75457438D02*
X160288095Y-75457438D01*
M02*
