%TF.GenerationSoftware,KiCad,Pcbnew,10.0.4*%
%TF.CreationDate,2026-09-26T11:42:44-04:00*%
%TF.ProjectId,remote,72656d6f-7465-42e6-9b69-6361645f7063,rev?*%
%TF.SameCoordinates,Original*%
%TF.FileFunction,Copper,L1,Top*%
%TF.FilePolarity,Positive*%
%FSLAX46Y46*%
G04 Gerber Fmt 4.6, Leading zero omitted, Abs format (unit mm)*
G04 Created by KiCad (PCBNEW 10.0.4) date 2026-09-26 11:42:44*
%MOMM*%
%LPD*%
G01*
G04 APERTURE LIST*
G04 Aperture macros list*
%AMRoundRect*
0 Rectangle with rounded corners*
0 $1 Rounding radius*
0 $2 $3 $4 $5 $6 $7 $8 $9 X,Y pos of 4 corners*
0 Add a 4 corners polygon primitive as box body*
4,1,4,$2,$3,$4,$5,$6,$7,$8,$9,$2,$3,0*
0 Add four circle primitives for the rounded corners*
1,1,$1+$1,$2,$3*
1,1,$1+$1,$4,$5*
1,1,$1+$1,$6,$7*
1,1,$1+$1,$8,$9*
0 Add four rect primitives between the rounded corners*
20,1,$1+$1,$2,$3,$4,$5,0*
20,1,$1+$1,$4,$5,$6,$7,0*
20,1,$1+$1,$6,$7,$8,$9,0*
20,1,$1+$1,$8,$9,$2,$3,0*%
G04 Aperture macros list end*
%TA.AperFunction,SMDPad,CuDef*%
%ADD10RoundRect,0.200000X0.200000X0.275000X-0.200000X0.275000X-0.200000X-0.275000X0.200000X-0.275000X0*%
%TD*%
%TA.AperFunction,SMDPad,CuDef*%
%ADD11RoundRect,0.218750X0.218750X0.256250X-0.218750X0.256250X-0.218750X-0.256250X0.218750X-0.256250X0*%
%TD*%
%TA.AperFunction,SMDPad,CuDef*%
%ADD12R,0.900000X1.700000*%
%TD*%
%TA.AperFunction,ComponentPad*%
%ADD13C,2.200000*%
%TD*%
%TA.AperFunction,SMDPad,CuDef*%
%ADD14RoundRect,0.250000X0.650000X-1.000000X0.650000X1.000000X-0.650000X1.000000X-0.650000X-1.000000X0*%
%TD*%
%TA.AperFunction,SMDPad,CuDef*%
%ADD15RoundRect,0.225000X0.250000X-0.225000X0.250000X0.225000X-0.250000X0.225000X-0.250000X-0.225000X0*%
%TD*%
%TA.AperFunction,SMDPad,CuDef*%
%ADD16RoundRect,0.200000X0.275000X-0.200000X0.275000X0.200000X-0.275000X0.200000X-0.275000X-0.200000X0*%
%TD*%
%TA.AperFunction,SMDPad,CuDef*%
%ADD17RoundRect,0.150000X-0.512500X-0.150000X0.512500X-0.150000X0.512500X0.150000X-0.512500X0.150000X0*%
%TD*%
%TA.AperFunction,SMDPad,CuDef*%
%ADD18RoundRect,0.200000X-0.200000X-0.275000X0.200000X-0.275000X0.200000X0.275000X-0.200000X0.275000X0*%
%TD*%
%TA.AperFunction,SMDPad,CuDef*%
%ADD19RoundRect,0.218750X0.256250X-0.218750X0.256250X0.218750X-0.256250X0.218750X-0.256250X-0.218750X0*%
%TD*%
%TA.AperFunction,SMDPad,CuDef*%
%ADD20R,1.500000X0.900000*%
%TD*%
%TA.AperFunction,HeatsinkPad*%
%ADD21C,0.600000*%
%TD*%
%TA.AperFunction,HeatsinkPad*%
%ADD22R,2.900000X2.900000*%
%TD*%
%TA.AperFunction,SMDPad,CuDef*%
%ADD23RoundRect,0.250000X-0.650000X1.000000X-0.650000X-1.000000X0.650000X-1.000000X0.650000X1.000000X0*%
%TD*%
%TA.AperFunction,SMDPad,CuDef*%
%ADD24RoundRect,0.150000X-0.150000X-0.575000X0.150000X-0.575000X0.150000X0.575000X-0.150000X0.575000X0*%
%TD*%
%TA.AperFunction,SMDPad,CuDef*%
%ADD25RoundRect,0.075000X-0.075000X-0.650000X0.075000X-0.650000X0.075000X0.650000X-0.075000X0.650000X0*%
%TD*%
%TA.AperFunction,ComponentPad*%
%ADD26O,1.000000X2.100000*%
%TD*%
%TA.AperFunction,ComponentPad*%
%ADD27O,1.000000X1.600000*%
%TD*%
%TA.AperFunction,SMDPad,CuDef*%
%ADD28RoundRect,0.200000X-0.275000X0.200000X-0.275000X-0.200000X0.275000X-0.200000X0.275000X0.200000X0*%
%TD*%
%TA.AperFunction,ComponentPad*%
%ADD29R,1.700000X1.700000*%
%TD*%
%TA.AperFunction,ComponentPad*%
%ADD30C,1.700000*%
%TD*%
%TA.AperFunction,ComponentPad*%
%ADD31RoundRect,0.250000X0.350000X0.625000X-0.350000X0.625000X-0.350000X-0.625000X0.350000X-0.625000X0*%
%TD*%
%TA.AperFunction,ComponentPad*%
%ADD32O,1.200000X1.750000*%
%TD*%
%TA.AperFunction,ComponentPad*%
%ADD33O,3.500000X2.200000*%
%TD*%
%TA.AperFunction,ComponentPad*%
%ADD34R,2.500000X1.500000*%
%TD*%
%TA.AperFunction,ComponentPad*%
%ADD35O,2.500000X1.500000*%
%TD*%
%TA.AperFunction,ViaPad*%
%ADD36C,0.600000*%
%TD*%
%TA.AperFunction,Conductor*%
%ADD37C,0.250000*%
%TD*%
%TA.AperFunction,Conductor*%
%ADD38C,0.500000*%
%TD*%
%TA.AperFunction,Conductor*%
%ADD39C,0.400000*%
%TD*%
%TA.AperFunction,Conductor*%
%ADD40C,0.300000*%
%TD*%
G04 APERTURE END LIST*
D10*
%TO.P,R_EN,1*%
%TO.N,EN_NET*%
X183275000Y-151200000D03*
%TO.P,R_EN,2*%
%TO.N,3v3*%
X181625000Y-151200000D03*
%TD*%
D11*
%TO.P,D_CHG,1*%
%TO.N,CHG_STAT*%
X179237500Y-137900000D03*
%TO.P,D_CHG,2*%
%TO.N,CHG_A*%
X177662500Y-137900000D03*
%TD*%
D12*
%TO.P,SW_RST,1*%
%TO.N,GND*%
X179850000Y-153600000D03*
%TO.P,SW_RST,2*%
%TO.N,EN_NET*%
X183250000Y-153600000D03*
%TD*%
D13*
%TO.P,SW1,1*%
%TO.N,GND*%
X173320000Y-123000000D03*
%TO.P,SW1,2*%
%TO.N,SW1_NET*%
X178320000Y-125100000D03*
%TD*%
D14*
%TO.P,D_VBAT,1*%
%TO.N,VSYS*%
X163300000Y-120600000D03*
%TO.P,D_VBAT,2*%
%TO.N,VBAT_SYS*%
X163300000Y-116600000D03*
%TD*%
D10*
%TO.P,R_CHG,1*%
%TO.N,VBUS*%
X182325000Y-137900000D03*
%TO.P,R_CHG,2*%
%TO.N,CHG_A*%
X180675000Y-137900000D03*
%TD*%
D15*
%TO.P,C3,1*%
%TO.N,VBUS*%
X177750000Y-145125000D03*
%TO.P,C3,2*%
%TO.N,GND*%
X177750000Y-143575000D03*
%TD*%
D16*
%TO.P,R_CC1,1*%
%TO.N,CC1*%
X172100000Y-145150000D03*
%TO.P,R_CC1,2*%
%TO.N,GND*%
X172100000Y-143500000D03*
%TD*%
D17*
%TO.P,U3,1*%
%TO.N,VSYS*%
X166862500Y-137900000D03*
%TO.P,U3,2*%
%TO.N,GND*%
X166862500Y-138850000D03*
%TO.P,U3,3*%
%TO.N,VSYS*%
X166862500Y-139800000D03*
%TO.P,U3,4*%
%TO.N,N/C*%
X169137500Y-139800000D03*
%TO.P,U3,5*%
%TO.N,3v3*%
X169137500Y-137900000D03*
%TD*%
D16*
%TO.P,R_CC2,1*%
%TO.N,CC2*%
X176250000Y-144975000D03*
%TO.P,R_CC2,2*%
%TO.N,GND*%
X176250000Y-143325000D03*
%TD*%
D10*
%TO.P,R_DN,1*%
%TO.N,VSENSE*%
X180825000Y-144300000D03*
%TO.P,R_DN,2*%
%TO.N,GND*%
X179175000Y-144300000D03*
%TD*%
D18*
%TO.P,R_UP,1*%
%TO.N,BAT_P*%
X179175000Y-142800000D03*
%TO.P,R_UP,2*%
%TO.N,VSENSE*%
X180825000Y-142800000D03*
%TD*%
D19*
%TO.P,D_STAT,1*%
%TO.N,GND*%
X167750000Y-151187500D03*
%TO.P,D_STAT,2*%
%TO.N,STAT_A*%
X167750000Y-149612500D03*
%TD*%
D20*
%TO.P,U1,1*%
%TO.N,3v3*%
X164700000Y-91000000D03*
%TO.P,U1,2*%
%TO.N,EN_NET*%
X164700000Y-92500000D03*
%TO.P,U1,3*%
%TO.N,VSENSE*%
X164700000Y-94000000D03*
%TO.P,U1,4*%
%TO.N,SW1_NET*%
X164700000Y-95500000D03*
%TO.P,U1,5*%
%TO.N,SW2_NET*%
X164700000Y-97000000D03*
%TO.P,U1,6*%
%TO.N,LED_STAT*%
X164700000Y-98500000D03*
%TO.P,U1,7*%
%TO.N,N/C*%
X164700000Y-100000000D03*
%TO.P,U1,8*%
%TO.N,BOOT_NET*%
X164700000Y-101500000D03*
%TO.P,U1,9*%
%TO.N,GND*%
X164700000Y-103000000D03*
%TO.P,U1,10*%
%TO.N,N/C*%
X182200000Y-103000000D03*
%TO.P,U1,11*%
%TO.N,UART_RX*%
X182200000Y-101500000D03*
%TO.P,U1,12*%
%TO.N,UART_TX*%
X182200000Y-100000000D03*
%TO.P,U1,13*%
%TO.N,USB_DN*%
X182200000Y-98500000D03*
%TO.P,U1,14*%
%TO.N,USB_DP*%
X182200000Y-97000000D03*
%TO.P,U1,15*%
%TO.N,N/C*%
X182200000Y-95500000D03*
%TO.P,U1,16*%
X182200000Y-94000000D03*
%TO.P,U1,17*%
X182200000Y-92500000D03*
%TO.P,U1,18*%
X182200000Y-91000000D03*
D21*
%TO.P,U1,19*%
%TO.N,GND*%
X173310000Y-96650000D03*
X173310000Y-97750000D03*
X173860000Y-96100000D03*
X173860000Y-97200000D03*
X173860000Y-98300000D03*
X174410000Y-96650000D03*
D22*
X174410000Y-97200000D03*
D21*
X174410000Y-97750000D03*
X174960000Y-96100000D03*
X174960000Y-97200000D03*
X174960000Y-98300000D03*
X175510000Y-96650000D03*
X175510000Y-97750000D03*
%TD*%
D12*
%TO.P,SW_BOOT,1*%
%TO.N,GND*%
X164400000Y-153600000D03*
%TO.P,SW_BOOT,2*%
%TO.N,BOOT_NET*%
X167800000Y-153600000D03*
%TD*%
D23*
%TO.P,D_VBUS,1*%
%TO.N,VSYS*%
X163300000Y-123650000D03*
%TO.P,D_VBUS,2*%
%TO.N,VBUS*%
X163300000Y-127650000D03*
%TD*%
D24*
%TO.P,J1,A1*%
%TO.N,GND*%
X170580000Y-147055000D03*
%TO.P,J1,A4*%
%TO.N,VBUS*%
X171380000Y-147055000D03*
D25*
%TO.P,J1,A5*%
%TO.N,CC1*%
X172580000Y-147055000D03*
%TO.P,J1,A6*%
%TO.N,USB_DP*%
X173580000Y-147055000D03*
%TO.P,J1,A7*%
%TO.N,USB_DN*%
X174080000Y-147055000D03*
%TO.P,J1,A8*%
%TO.N,N/C*%
X175080000Y-147055000D03*
D24*
%TO.P,J1,A9*%
%TO.N,VBUS*%
X176280000Y-147055000D03*
%TO.P,J1,A12*%
%TO.N,GND*%
X177080000Y-147055000D03*
%TO.P,J1,B1*%
X177080000Y-147055000D03*
%TO.P,J1,B4*%
%TO.N,VBUS*%
X176280000Y-147055000D03*
D25*
%TO.P,J1,B5*%
%TO.N,CC2*%
X175580000Y-147055000D03*
%TO.P,J1,B6*%
%TO.N,USB_DP*%
X174580000Y-147055000D03*
%TO.P,J1,B7*%
%TO.N,USB_DN*%
X173080000Y-147055000D03*
%TO.P,J1,B8*%
%TO.N,N/C*%
X172080000Y-147055000D03*
D24*
%TO.P,J1,B9*%
%TO.N,VBUS*%
X171380000Y-147055000D03*
%TO.P,J1,B12*%
%TO.N,GND*%
X170580000Y-147055000D03*
D26*
%TO.P,J1,SH*%
X169510000Y-147970000D03*
D27*
X169510000Y-152150000D03*
D26*
X178150000Y-147970000D03*
D27*
X178150000Y-152150000D03*
%TD*%
D15*
%TO.P,C2,1*%
%TO.N,3v3*%
X167750000Y-148175000D03*
%TO.P,C2,2*%
%TO.N,GND*%
X167750000Y-146625000D03*
%TD*%
D13*
%TO.P,SW2,1*%
%TO.N,GND*%
X173350000Y-118300000D03*
%TO.P,SW2,2*%
%TO.N,SW2_NET*%
X168350000Y-116200000D03*
%TD*%
D15*
%TO.P,C1,1*%
%TO.N,3v3*%
X180200000Y-151250000D03*
%TO.P,C1,2*%
%TO.N,GND*%
X180200000Y-149700000D03*
%TD*%
D28*
%TO.P,R_PROG,1*%
%TO.N,PROG*%
X181850000Y-139325000D03*
%TO.P,R_PROG,2*%
%TO.N,GND*%
X181850000Y-140975000D03*
%TD*%
D17*
%TO.P,U2,1*%
%TO.N,CHG_STAT*%
X177900000Y-139400000D03*
%TO.P,U2,2*%
%TO.N,GND*%
X177900000Y-140350000D03*
%TO.P,U2,3*%
%TO.N,BAT_P*%
X177900000Y-141300000D03*
%TO.P,U2,4*%
%TO.N,VBUS*%
X180175000Y-141300000D03*
%TO.P,U2,5*%
%TO.N,PROG*%
X180175000Y-139400000D03*
%TD*%
D10*
%TO.P,R_STAT,1*%
%TO.N,LED_STAT*%
X163025000Y-98550000D03*
%TO.P,R_STAT,2*%
%TO.N,STAT_A*%
X161375000Y-98550000D03*
%TD*%
D29*
%TO.P,HDR1,1*%
%TO.N,GND*%
X183400000Y-111000000D03*
D30*
%TO.P,HDR1,2*%
%TO.N,UART_RX*%
X183400000Y-108460000D03*
%TO.P,HDR1,3*%
%TO.N,UART_TX*%
X183400000Y-105920000D03*
%TD*%
D31*
%TO.P,J_BAT,1*%
%TO.N,BAT_P*%
X174500000Y-139400000D03*
D32*
%TO.P,J_BAT,2*%
%TO.N,GND*%
X172500000Y-139400000D03*
%TD*%
D33*
%TO.P,SW_PWR,*%
%TO.N,*%
X162700000Y-113750000D03*
X162700000Y-105550000D03*
D34*
%TO.P,SW_PWR,1*%
%TO.N,VBAT_SYS*%
X162700000Y-111650000D03*
D35*
%TO.P,SW_PWR,2*%
%TO.N,BAT_P*%
X162700000Y-109650000D03*
%TO.P,SW_PWR,3*%
%TO.N,N/C*%
X162700000Y-107650000D03*
%TD*%
D36*
%TO.N,EN_NET*%
X166000000Y-92500000D03*
X182600000Y-150900000D03*
%TO.N,3v3*%
X180950000Y-151700000D03*
X165950000Y-90950000D03*
%TO.N,GND*%
X167950000Y-138800000D03*
X165350000Y-153500000D03*
X173025000Y-142575000D03*
%TO.N,SW1_NET*%
X166000000Y-95400000D03*
%TO.N,VSYS*%
X168000000Y-140300000D03*
X166800000Y-135900000D03*
%TO.N,VBUS*%
X174450000Y-144600000D03*
X179500000Y-140650000D03*
%TO.N,VSENSE*%
X166000000Y-94100000D03*
X180050000Y-143400000D03*
%TO.N,STAT_A*%
X168300000Y-149300000D03*
X161850000Y-99150000D03*
%TO.N,SW2_NET*%
X165900000Y-97000000D03*
%TO.N,BOOT_NET*%
X167100000Y-153600000D03*
X172200000Y-120600000D03*
%TO.N,USB_DN*%
X180750000Y-98500000D03*
X173600000Y-148350000D03*
%TO.N,USB_DP*%
X174100000Y-145750000D03*
X180800000Y-97000000D03*
%TD*%
%TO.N,EN_NET*%
D37*
X183275000Y-153575000D02*
X183250000Y-153600000D01*
X164700000Y-92500000D02*
X166000000Y-92500000D01*
X182900000Y-151200000D02*
X182600000Y-150900000D01*
X183275000Y-151200000D02*
X183275000Y-153575000D01*
X183275000Y-151200000D02*
X182900000Y-151200000D01*
%TO.N,3v3*%
X165900000Y-91000000D02*
X165950000Y-90950000D01*
X168575000Y-152475000D02*
X168050000Y-151950000D01*
X166950000Y-151637540D02*
X166950000Y-148975000D01*
X180625000Y-154775000D02*
X170625000Y-154775000D01*
X168575000Y-152725000D02*
X168575000Y-152475000D01*
D38*
X169137500Y-137900000D02*
X168387500Y-137150000D01*
D37*
X181450000Y-151200000D02*
X180950000Y-151700000D01*
X168050000Y-151950000D02*
X167262460Y-151950000D01*
X181625000Y-151200000D02*
X181625000Y-153775000D01*
X180250000Y-151200000D02*
X180200000Y-151250000D01*
X181625000Y-151200000D02*
X180250000Y-151200000D01*
X181625000Y-153775000D02*
X180625000Y-154775000D01*
D38*
X165050000Y-138157366D02*
X165050000Y-145475000D01*
D37*
X167262460Y-151950000D02*
X166950000Y-151637540D01*
X166950000Y-148975000D02*
X167750000Y-148175000D01*
D38*
X168387500Y-137150000D02*
X166057366Y-137150000D01*
X165050000Y-145475000D02*
X167750000Y-148175000D01*
X166057366Y-137150000D02*
X165050000Y-138157366D01*
D37*
X170625000Y-154775000D02*
X168575000Y-152725000D01*
X181625000Y-151200000D02*
X181450000Y-151200000D01*
X164700000Y-91000000D02*
X165900000Y-91000000D01*
%TO.N,CHG_STAT*%
D39*
X177900000Y-139400000D02*
X177900000Y-139237500D01*
X177900000Y-139237500D02*
X179237500Y-137900000D01*
%TO.N,CHG_A*%
X178537500Y-137025000D02*
X177662500Y-137900000D01*
X180675000Y-137900000D02*
X179800000Y-137025000D01*
X179800000Y-137025000D02*
X178537500Y-137025000D01*
%TO.N,GND*%
X177750000Y-143575000D02*
X176500000Y-143575000D01*
D38*
X173350000Y-118300000D02*
X173350000Y-122970000D01*
D39*
X181850000Y-140975000D02*
X181850000Y-144604070D01*
D38*
X178150000Y-147970000D02*
X178470000Y-147970000D01*
D40*
X165250000Y-153600000D02*
X165350000Y-153500000D01*
D38*
X177379999Y-147055000D02*
X179175000Y-145259999D01*
X183400000Y-111000000D02*
X175400000Y-103000000D01*
X169665000Y-147970000D02*
X170580000Y-147055000D01*
D39*
X178475000Y-144300000D02*
X177750000Y-143575000D01*
X179175000Y-144300000D02*
X178475000Y-144300000D01*
X176500000Y-143575000D02*
X176250000Y-143325000D01*
D38*
X175520000Y-138535184D02*
X177334816Y-140350000D01*
D39*
X181850000Y-144604070D02*
X181279070Y-145175000D01*
D37*
X167900000Y-138850000D02*
X167950000Y-138800000D01*
D38*
X177235000Y-147055000D02*
X178150000Y-147970000D01*
X174410000Y-97200000D02*
X174410000Y-102010000D01*
D40*
X164400000Y-153600000D02*
X165250000Y-153600000D01*
D38*
X174410000Y-102010000D02*
X175400000Y-103000000D01*
X179600000Y-153600000D02*
X178150000Y-152150000D01*
D39*
X180050000Y-145175000D02*
X179175000Y-144300000D01*
D38*
X175520000Y-125200000D02*
X175520000Y-138535184D01*
X177080000Y-147055000D02*
X177235000Y-147055000D01*
D39*
X181279070Y-145175000D02*
X180050000Y-145175000D01*
D38*
X177080000Y-147055000D02*
X177379999Y-147055000D01*
D40*
X172500000Y-139400000D02*
X173725000Y-138175000D01*
D38*
X169510000Y-147970000D02*
X169510000Y-149427500D01*
X173320000Y-123000000D02*
X175520000Y-125200000D01*
D39*
X176250000Y-143325000D02*
X172275000Y-143325000D01*
D40*
X173725000Y-138175000D02*
X175159816Y-138175000D01*
D38*
X175400000Y-103000000D02*
X164700000Y-103000000D01*
X169510000Y-147970000D02*
X169665000Y-147970000D01*
X179175000Y-145259999D02*
X179175000Y-144300000D01*
X178150000Y-147970000D02*
X178150000Y-152150000D01*
D40*
X175159816Y-138175000D02*
X175520000Y-138535184D01*
D37*
X166862500Y-138850000D02*
X167900000Y-138850000D01*
D38*
X177334816Y-140350000D02*
X177900000Y-140350000D01*
X176100000Y-118300000D02*
X173350000Y-118300000D01*
X168165000Y-146625000D02*
X169510000Y-147970000D01*
X183400000Y-111000000D02*
X176100000Y-118300000D01*
X178470000Y-147970000D02*
X180200000Y-149700000D01*
X179850000Y-153600000D02*
X179600000Y-153600000D01*
X167750000Y-151187500D02*
X168547500Y-151187500D01*
X173350000Y-122970000D02*
X173320000Y-123000000D01*
X169510000Y-149427500D02*
X167750000Y-151187500D01*
D39*
X172100000Y-143500000D02*
X173025000Y-142575000D01*
D38*
X168547500Y-151187500D02*
X169510000Y-152150000D01*
X167750000Y-146625000D02*
X168165000Y-146625000D01*
D39*
X172275000Y-143325000D02*
X172100000Y-143500000D01*
%TO.N,SW1_NET*%
D37*
X165900000Y-95500000D02*
X166000000Y-95400000D01*
X164700000Y-95500000D02*
X165900000Y-95500000D01*
%TO.N,VSYS*%
D38*
X165750000Y-139349999D02*
X165750000Y-138447316D01*
X165750000Y-138447316D02*
X166297316Y-137900000D01*
X167500000Y-139800000D02*
X168000000Y-140300000D01*
X166800000Y-135037266D02*
X166800000Y-135900000D01*
X166200001Y-139800000D02*
X165750000Y-139349999D01*
X166862500Y-139800000D02*
X166200001Y-139800000D01*
X163300000Y-120600000D02*
X163300000Y-123650000D01*
X161950000Y-130187266D02*
X166800000Y-135037266D01*
X163300000Y-123650000D02*
X161950000Y-125000000D01*
X166297316Y-137900000D02*
X166862500Y-137900000D01*
X166862500Y-139800000D02*
X167500000Y-139800000D01*
X161950000Y-125000000D02*
X161950000Y-130187266D01*
%TO.N,VBAT_SYS*%
X163300000Y-116600000D02*
X164900000Y-115000000D01*
X164900000Y-115000000D02*
X164900000Y-113107969D01*
X163442031Y-111650000D02*
X162700000Y-111650000D01*
X164900000Y-113107969D02*
X163442031Y-111650000D01*
%TO.N,VBUS*%
D39*
X174983830Y-149050000D02*
X172676170Y-149050000D01*
X182725000Y-139779070D02*
X182725000Y-138300000D01*
D38*
X170400000Y-145297316D02*
X171380000Y-146277316D01*
D39*
X174450000Y-144600000D02*
X174875000Y-144175000D01*
X179600000Y-140850000D02*
X179600000Y-140750000D01*
X176280000Y-147055000D02*
X176280000Y-147753830D01*
D38*
X171380000Y-146277316D02*
X171380000Y-147055000D01*
D39*
X182379070Y-140125000D02*
X182725000Y-139779070D01*
X179725000Y-140850000D02*
X179600000Y-140850000D01*
X180175000Y-141300000D02*
X181350000Y-140125000D01*
X182725000Y-138300000D02*
X182325000Y-137900000D01*
D38*
X177025000Y-145850000D02*
X177750000Y-145125000D01*
D39*
X181350000Y-140125000D02*
X182379070Y-140125000D01*
D38*
X176280000Y-146277316D02*
X176707316Y-145850000D01*
D39*
X176800000Y-144175000D02*
X177750000Y-145125000D01*
X180175000Y-141300000D02*
X179725000Y-140850000D01*
X179600000Y-140750000D02*
X179500000Y-140650000D01*
X174875000Y-144175000D02*
X176800000Y-144175000D01*
D38*
X176280000Y-146277316D02*
X176280000Y-147055000D01*
D39*
X172676170Y-149050000D02*
X171380000Y-147753830D01*
D38*
X163300000Y-130547316D02*
X170400000Y-137647316D01*
X170400000Y-137647316D02*
X170400000Y-145297316D01*
D39*
X176280000Y-147753830D02*
X174983830Y-149050000D01*
D38*
X176707316Y-145850000D02*
X177025000Y-145850000D01*
D39*
X171380000Y-147753830D02*
X171380000Y-147055000D01*
D38*
X163300000Y-127650000D02*
X163300000Y-130547316D01*
%TO.N,CC1*%
D37*
X172580000Y-145630000D02*
X172580000Y-147055000D01*
X172100000Y-145150000D02*
X172580000Y-145630000D01*
%TO.N,CC2*%
X176250000Y-144975000D02*
X175580000Y-145645000D01*
X175580000Y-145645000D02*
X175580000Y-147055000D01*
%TO.N,VSENSE*%
X165900000Y-94000000D02*
X166000000Y-94100000D01*
X180825000Y-142800000D02*
X180825000Y-144300000D01*
X180650000Y-142800000D02*
X180050000Y-143400000D01*
X164700000Y-94000000D02*
X165900000Y-94000000D01*
X180825000Y-142800000D02*
X180650000Y-142800000D01*
%TO.N,BAT_P*%
D38*
X170500000Y-113300000D02*
X170500000Y-136757366D01*
X171100000Y-137357366D02*
X171100000Y-139759924D01*
X169200000Y-112000000D02*
X170500000Y-113300000D01*
D40*
X176400000Y-141300000D02*
X177900000Y-141300000D01*
D38*
X169200000Y-111840812D02*
X169200000Y-112000000D01*
X162700000Y-109650000D02*
X166850000Y-109650000D01*
X166850000Y-109650000D02*
X168250000Y-111050000D01*
D39*
X179175000Y-142575000D02*
X177900000Y-141300000D01*
D38*
X172065076Y-140725000D02*
X173175000Y-140725000D01*
X170500000Y-136757366D02*
X171100000Y-137357366D01*
D40*
X174500000Y-139400000D02*
X176400000Y-141300000D01*
D38*
X171100000Y-139759924D02*
X172065076Y-140725000D01*
D39*
X179175000Y-142800000D02*
X179175000Y-142575000D01*
D38*
X168409188Y-111050000D02*
X169200000Y-111840812D01*
X173175000Y-140725000D02*
X174500000Y-139400000D01*
X168250000Y-111050000D02*
X168409188Y-111050000D01*
%TO.N,STAT_A*%
D37*
X167987500Y-149612500D02*
X168300000Y-149300000D01*
X161375000Y-98550000D02*
X161375000Y-98675000D01*
X167750000Y-149612500D02*
X167987500Y-149612500D01*
X161375000Y-98675000D02*
X161850000Y-99150000D01*
%TO.N,SW2_NET*%
X164700000Y-97000000D02*
X165900000Y-97000000D01*
%TO.N,LED_STAT*%
D38*
X163075000Y-98500000D02*
X163025000Y-98550000D01*
X164700000Y-98500000D02*
X163075000Y-98500000D01*
%TO.N,BOOT_NET*%
D40*
X164300000Y-101500000D02*
X164700000Y-101500000D01*
X163600000Y-103800000D02*
X163600000Y-102200000D01*
X171250000Y-116000000D02*
X171250000Y-109250000D01*
X167800000Y-153600000D02*
X167100000Y-153600000D01*
X163600000Y-102200000D02*
X164300000Y-101500000D01*
X172200000Y-120600000D02*
X171700000Y-120100000D01*
X165800000Y-103800000D02*
X163600000Y-103800000D01*
X171700000Y-116450000D02*
X171250000Y-116000000D01*
X171700000Y-120100000D02*
X171700000Y-116450000D01*
X171250000Y-109250000D02*
X165800000Y-103800000D01*
%TO.N,UART_RX*%
D37*
X181125000Y-102275000D02*
X181900000Y-101500000D01*
X181900000Y-101500000D02*
X182200000Y-101500000D01*
X181125000Y-106185000D02*
X181125000Y-102275000D01*
X183400000Y-108460000D02*
X181125000Y-106185000D01*
%TO.N,UART_TX*%
X183400000Y-105920000D02*
X183400000Y-100850000D01*
X182550000Y-100000000D02*
X182200000Y-100000000D01*
X183400000Y-100850000D02*
X182550000Y-100000000D01*
%TO.N,USB_DN*%
X173080000Y-147847764D02*
X173337236Y-148105000D01*
X173822764Y-148105000D02*
X174080000Y-147847764D01*
X174080000Y-147847764D02*
X174080000Y-147055000D01*
X173600000Y-148105000D02*
X173600000Y-148350000D01*
X182200000Y-98500000D02*
X180750000Y-98500000D01*
X173600000Y-148105000D02*
X173822764Y-148105000D01*
X173080000Y-147055000D02*
X173080000Y-147847764D01*
X173337236Y-148105000D02*
X173600000Y-148105000D01*
%TO.N,USB_DP*%
X174100000Y-146005000D02*
X174322764Y-146005000D01*
X174580000Y-146262236D02*
X174580000Y-147055000D01*
X174100000Y-146005000D02*
X174100000Y-145750000D01*
X173837236Y-146005000D02*
X174100000Y-146005000D01*
X182200000Y-97000000D02*
X180800000Y-97000000D01*
X173580000Y-147055000D02*
X173580000Y-146262236D01*
X174322764Y-146005000D02*
X174580000Y-146262236D01*
X173580000Y-146262236D02*
X173837236Y-146005000D01*
%TO.N,PROG*%
D39*
X180175000Y-139400000D02*
X181775000Y-139400000D01*
X181775000Y-139400000D02*
X181850000Y-139325000D01*
%TD*%
%TA.AperFunction,Conductor*%
%TO.N,GND*%
G36*
X163453269Y-90170186D02*
G01*
X163499024Y-90222990D01*
X163508968Y-90292148D01*
X163502412Y-90317834D01*
X163455908Y-90442517D01*
X163449501Y-90502116D01*
X163449501Y-90502123D01*
X163449500Y-90502135D01*
X163449500Y-91497870D01*
X163449501Y-91497876D01*
X163455908Y-91557483D01*
X163509303Y-91700641D01*
X163507575Y-91701285D01*
X163520095Y-91758853D01*
X163508310Y-91798988D01*
X163509303Y-91799359D01*
X163455908Y-91942517D01*
X163450835Y-91989707D01*
X163449501Y-92002123D01*
X163449500Y-92002135D01*
X163449500Y-92997870D01*
X163449501Y-92997876D01*
X163455908Y-93057483D01*
X163509303Y-93200641D01*
X163507575Y-93201285D01*
X163520095Y-93258853D01*
X163508310Y-93298988D01*
X163509303Y-93299359D01*
X163455908Y-93442517D01*
X163452071Y-93478210D01*
X163449501Y-93502123D01*
X163449500Y-93502135D01*
X163449500Y-94497870D01*
X163449501Y-94497876D01*
X163455908Y-94557483D01*
X163509303Y-94700641D01*
X163507575Y-94701285D01*
X163520095Y-94758853D01*
X163508310Y-94798988D01*
X163509303Y-94799359D01*
X163455908Y-94942517D01*
X163449501Y-95002116D01*
X163449501Y-95002123D01*
X163449500Y-95002135D01*
X163449500Y-95997870D01*
X163449501Y-95997876D01*
X163455908Y-96057483D01*
X163509303Y-96200641D01*
X163507575Y-96201285D01*
X163520095Y-96258853D01*
X163508310Y-96298988D01*
X163509303Y-96299359D01*
X163455908Y-96442517D01*
X163450835Y-96489707D01*
X163449501Y-96502123D01*
X163449500Y-96502135D01*
X163449500Y-97453977D01*
X163429815Y-97521016D01*
X163377011Y-97566771D01*
X163314279Y-97577468D01*
X163294761Y-97575694D01*
X163281616Y-97574500D01*
X162768384Y-97574500D01*
X162749145Y-97576248D01*
X162697807Y-97580913D01*
X162535393Y-97631522D01*
X162389811Y-97719530D01*
X162389810Y-97719531D01*
X162287681Y-97821661D01*
X162226358Y-97855146D01*
X162156666Y-97850162D01*
X162112319Y-97821661D01*
X162010188Y-97719530D01*
X161978940Y-97700640D01*
X161864606Y-97631522D01*
X161702196Y-97580914D01*
X161702194Y-97580913D01*
X161702192Y-97580913D01*
X161652778Y-97576423D01*
X161631616Y-97574500D01*
X161118384Y-97574500D01*
X161099145Y-97576248D01*
X161047807Y-97580913D01*
X160885393Y-97631522D01*
X160739811Y-97719530D01*
X160619530Y-97839811D01*
X160531522Y-97985393D01*
X160480913Y-98147807D01*
X160474500Y-98218386D01*
X160474500Y-98881613D01*
X160480913Y-98952192D01*
X160480913Y-98952194D01*
X160480914Y-98952196D01*
X160531522Y-99114606D01*
X160609886Y-99244236D01*
X160619530Y-99260188D01*
X160739811Y-99380469D01*
X160739813Y-99380470D01*
X160739815Y-99380472D01*
X160885394Y-99468478D01*
X161047804Y-99519086D01*
X161080447Y-99522052D01*
X161145429Y-99547723D01*
X161172326Y-99576652D01*
X161228210Y-99660288D01*
X161228213Y-99660292D01*
X161339707Y-99771786D01*
X161339711Y-99771789D01*
X161470814Y-99859390D01*
X161470827Y-99859397D01*
X161616498Y-99919735D01*
X161616503Y-99919737D01*
X161771153Y-99950499D01*
X161771156Y-99950500D01*
X161771158Y-99950500D01*
X161928844Y-99950500D01*
X161928845Y-99950499D01*
X162083497Y-99919737D01*
X162229179Y-99859394D01*
X162360289Y-99771789D01*
X162471789Y-99660289D01*
X162537331Y-99562197D01*
X162590943Y-99517393D01*
X162660267Y-99508686D01*
X162677324Y-99512704D01*
X162697804Y-99519086D01*
X162768384Y-99525500D01*
X162768387Y-99525500D01*
X163281611Y-99525500D01*
X163281616Y-99525500D01*
X163314279Y-99522531D01*
X163382822Y-99536067D01*
X163433169Y-99584512D01*
X163449500Y-99646022D01*
X163449500Y-100497870D01*
X163449501Y-100497876D01*
X163455908Y-100557483D01*
X163509303Y-100700641D01*
X163507575Y-100701285D01*
X163520095Y-100758853D01*
X163508310Y-100798988D01*
X163509303Y-100799359D01*
X163455908Y-100942517D01*
X163449501Y-101002116D01*
X163449501Y-101002123D01*
X163449500Y-101002135D01*
X163449500Y-101379191D01*
X163429815Y-101446230D01*
X163413181Y-101466872D01*
X163094724Y-101785329D01*
X163023534Y-101891874D01*
X162974499Y-102010255D01*
X162974497Y-102010261D01*
X162949500Y-102135928D01*
X162949500Y-103825500D01*
X162929815Y-103892539D01*
X162877011Y-103938294D01*
X162825500Y-103949500D01*
X161924038Y-103949500D01*
X161799626Y-103969205D01*
X161675214Y-103988910D01*
X161435616Y-104066760D01*
X161211151Y-104181132D01*
X161007350Y-104329201D01*
X161007345Y-104329205D01*
X160829205Y-104507345D01*
X160829201Y-104507350D01*
X160681132Y-104711151D01*
X160566760Y-104935616D01*
X160488910Y-105175214D01*
X160449500Y-105424038D01*
X160449500Y-105675961D01*
X160488910Y-105924785D01*
X160566760Y-106164383D01*
X160619920Y-106268714D01*
X160670229Y-106367451D01*
X160681132Y-106388848D01*
X160829201Y-106592649D01*
X160829205Y-106592654D01*
X161007349Y-106770798D01*
X161094752Y-106834299D01*
X161137418Y-106889628D01*
X161143397Y-106959242D01*
X161132352Y-106990911D01*
X161041118Y-107169967D01*
X160980290Y-107357173D01*
X160949500Y-107551577D01*
X160949500Y-107748422D01*
X160980290Y-107942826D01*
X161041117Y-108130029D01*
X161119451Y-108283767D01*
X161130476Y-108305405D01*
X161246172Y-108464646D01*
X161246174Y-108464648D01*
X161343845Y-108562319D01*
X161377330Y-108623642D01*
X161372346Y-108693334D01*
X161343845Y-108737681D01*
X161246174Y-108835351D01*
X161246174Y-108835352D01*
X161246172Y-108835354D01*
X161227811Y-108860626D01*
X161130476Y-108994594D01*
X161041117Y-109169970D01*
X160980290Y-109357173D01*
X160949500Y-109551577D01*
X160949500Y-109748422D01*
X160980290Y-109942826D01*
X161041117Y-110130029D01*
X161130476Y-110305405D01*
X161156783Y-110341613D01*
X161180263Y-110407419D01*
X161164438Y-110475473D01*
X161130777Y-110513765D01*
X161092452Y-110542455D01*
X161006206Y-110657664D01*
X161006202Y-110657671D01*
X160955908Y-110792517D01*
X160949501Y-110852116D01*
X160949501Y-110852123D01*
X160949500Y-110852135D01*
X160949500Y-112447870D01*
X160949501Y-112447876D01*
X160956669Y-112514555D01*
X160944262Y-112583314D01*
X160921061Y-112615488D01*
X160829205Y-112707345D01*
X160829201Y-112707350D01*
X160681132Y-112911151D01*
X160566760Y-113135616D01*
X160488910Y-113375214D01*
X160451586Y-113610867D01*
X160449500Y-113624038D01*
X160449500Y-113875962D01*
X160488910Y-114124785D01*
X160566760Y-114364383D01*
X160681132Y-114588848D01*
X160829201Y-114792649D01*
X160829205Y-114792654D01*
X161007345Y-114970794D01*
X161007350Y-114970798D01*
X161098042Y-115036689D01*
X161211155Y-115118870D01*
X161354184Y-115191747D01*
X161435616Y-115233239D01*
X161435618Y-115233239D01*
X161435621Y-115233241D01*
X161564049Y-115274970D01*
X161675214Y-115311090D01*
X161714483Y-115317309D01*
X161804062Y-115331497D01*
X161867196Y-115361426D01*
X161904128Y-115420737D01*
X161908022Y-115466572D01*
X161899500Y-115549981D01*
X161899500Y-117650001D01*
X161899501Y-117650018D01*
X161910000Y-117752796D01*
X161910001Y-117752799D01*
X161925808Y-117800500D01*
X161965186Y-117919334D01*
X162057288Y-118068656D01*
X162181344Y-118192712D01*
X162330666Y-118284814D01*
X162497203Y-118339999D01*
X162599991Y-118350500D01*
X164000008Y-118350499D01*
X164102797Y-118339999D01*
X164269334Y-118284814D01*
X164418656Y-118192712D01*
X164542712Y-118068656D01*
X164634814Y-117919334D01*
X164689999Y-117752797D01*
X164700500Y-117650009D01*
X164700499Y-116312229D01*
X164720184Y-116245191D01*
X164736818Y-116224549D01*
X165482947Y-115478421D01*
X165482947Y-115478420D01*
X165482952Y-115478416D01*
X165561302Y-115361155D01*
X165565084Y-115355495D01*
X165596079Y-115280666D01*
X165621659Y-115218912D01*
X165650500Y-115073917D01*
X165650500Y-114926082D01*
X165650500Y-113034051D01*
X165644763Y-113005210D01*
X165621659Y-112889057D01*
X165583184Y-112796172D01*
X165565084Y-112752474D01*
X165491489Y-112642331D01*
X165482952Y-112629554D01*
X164985881Y-112132483D01*
X164486818Y-111633419D01*
X164453333Y-111572096D01*
X164450499Y-111545738D01*
X164450499Y-110852129D01*
X164450498Y-110852123D01*
X164450497Y-110852116D01*
X164444091Y-110792517D01*
X164437462Y-110774745D01*
X164393797Y-110657671D01*
X164393795Y-110657668D01*
X164393792Y-110657664D01*
X164349734Y-110598810D01*
X164325317Y-110533348D01*
X164340168Y-110465075D01*
X164389573Y-110415669D01*
X164449001Y-110400500D01*
X166487770Y-110400500D01*
X166554809Y-110420185D01*
X166575451Y-110436819D01*
X167367290Y-111228658D01*
X167400775Y-111289981D01*
X167395791Y-111359673D01*
X167353919Y-111415606D01*
X167335905Y-111426823D01*
X167273214Y-111458766D01*
X167216461Y-111500000D01*
X167133072Y-111560586D01*
X167133070Y-111560588D01*
X167133069Y-111560588D01*
X167010588Y-111683069D01*
X167010588Y-111683070D01*
X167010586Y-111683072D01*
X166966859Y-111743256D01*
X166908768Y-111823211D01*
X166830128Y-111977552D01*
X166776597Y-112142302D01*
X166749500Y-112313389D01*
X166749500Y-112486610D01*
X166774163Y-112642331D01*
X166776598Y-112657701D01*
X166830127Y-112822445D01*
X166908768Y-112976788D01*
X167010586Y-113116928D01*
X167133072Y-113239414D01*
X167273212Y-113341232D01*
X167427555Y-113419873D01*
X167592299Y-113473402D01*
X167763389Y-113500500D01*
X167763390Y-113500500D01*
X167936610Y-113500500D01*
X167936611Y-113500500D01*
X168107701Y-113473402D01*
X168272445Y-113419873D01*
X168426788Y-113341232D01*
X168566928Y-113239414D01*
X168689414Y-113116928D01*
X168791232Y-112976788D01*
X168823175Y-112914096D01*
X168871149Y-112863300D01*
X168938970Y-112846504D01*
X169005105Y-112869041D01*
X169021341Y-112882709D01*
X169713181Y-113574548D01*
X169746666Y-113635871D01*
X169749500Y-113662229D01*
X169749500Y-115036689D01*
X169729815Y-115103728D01*
X169677011Y-115149483D01*
X169607853Y-115159427D01*
X169544297Y-115130402D01*
X169537819Y-115124370D01*
X169392654Y-114979205D01*
X169392649Y-114979201D01*
X169188848Y-114831132D01*
X169188847Y-114831131D01*
X169188845Y-114831130D01*
X169118747Y-114795413D01*
X168964383Y-114716760D01*
X168724785Y-114638910D01*
X168475962Y-114599500D01*
X168224038Y-114599500D01*
X168099626Y-114619205D01*
X167975214Y-114638910D01*
X167735616Y-114716760D01*
X167511151Y-114831132D01*
X167307350Y-114979201D01*
X167307345Y-114979205D01*
X167129205Y-115157345D01*
X167129201Y-115157350D01*
X166981132Y-115361151D01*
X166866760Y-115585616D01*
X166788910Y-115825214D01*
X166749500Y-116074038D01*
X166749500Y-116325961D01*
X166788910Y-116574785D01*
X166866760Y-116814383D01*
X166921433Y-116921683D01*
X166964266Y-117005748D01*
X166981132Y-117038848D01*
X167129201Y-117242649D01*
X167129205Y-117242654D01*
X167307345Y-117420794D01*
X167307350Y-117420798D01*
X167485117Y-117549952D01*
X167511155Y-117568870D01*
X167654184Y-117641747D01*
X167735616Y-117683239D01*
X167735618Y-117683239D01*
X167735621Y-117683241D01*
X167975215Y-117761090D01*
X168224038Y-117800500D01*
X168224039Y-117800500D01*
X168475961Y-117800500D01*
X168475962Y-117800500D01*
X168724785Y-117761090D01*
X168964379Y-117683241D01*
X169188845Y-117568870D01*
X169392656Y-117420793D01*
X169537819Y-117275630D01*
X169599142Y-117242145D01*
X169668834Y-117247129D01*
X169724767Y-117289001D01*
X169749184Y-117354465D01*
X169749500Y-117363311D01*
X169749500Y-135636086D01*
X169729815Y-135703125D01*
X169677011Y-135748880D01*
X169607853Y-135758824D01*
X169544297Y-135729799D01*
X169537819Y-135723767D01*
X167976233Y-134162181D01*
X167942748Y-134100858D01*
X167947732Y-134031166D01*
X167989604Y-133975233D01*
X168055068Y-133950816D01*
X168063914Y-133950500D01*
X168183768Y-133950500D01*
X168183769Y-133950499D01*
X168348082Y-133917816D01*
X168502863Y-133853703D01*
X168642162Y-133760626D01*
X168760626Y-133642162D01*
X168853703Y-133502863D01*
X168917816Y-133348082D01*
X168950500Y-133183767D01*
X168950500Y-133016233D01*
X168917816Y-132851918D01*
X168853703Y-132697137D01*
X168822537Y-132650494D01*
X168760626Y-132557837D01*
X168642162Y-132439373D01*
X168502860Y-132346295D01*
X168348082Y-132282184D01*
X168348074Y-132282182D01*
X168183771Y-132249500D01*
X168183767Y-132249500D01*
X168016233Y-132249500D01*
X168016228Y-132249500D01*
X167851925Y-132282182D01*
X167851917Y-132282184D01*
X167697139Y-132346295D01*
X167557837Y-132439373D01*
X167439373Y-132557837D01*
X167346295Y-132697139D01*
X167282184Y-132851917D01*
X167282182Y-132851925D01*
X167249500Y-133016228D01*
X167249500Y-133136086D01*
X167229815Y-133203125D01*
X167177011Y-133248880D01*
X167107853Y-133258824D01*
X167044297Y-133229799D01*
X167037819Y-133223767D01*
X164086819Y-130272767D01*
X164053334Y-130211444D01*
X164050500Y-130185086D01*
X164050500Y-129496869D01*
X164070185Y-129429830D01*
X164122989Y-129384075D01*
X164135486Y-129379166D01*
X164269334Y-129334814D01*
X164418656Y-129242712D01*
X164542712Y-129118656D01*
X164634814Y-128969334D01*
X164686489Y-128813389D01*
X166719500Y-128813389D01*
X166719500Y-128986611D01*
X166746598Y-129157701D01*
X166800127Y-129322445D01*
X166878768Y-129476788D01*
X166980586Y-129616928D01*
X167103072Y-129739414D01*
X167243212Y-129841232D01*
X167397555Y-129919873D01*
X167562299Y-129973402D01*
X167733389Y-130000500D01*
X167733390Y-130000500D01*
X167906610Y-130000500D01*
X167906611Y-130000500D01*
X168077701Y-129973402D01*
X168242445Y-129919873D01*
X168396788Y-129841232D01*
X168536928Y-129739414D01*
X168659414Y-129616928D01*
X168761232Y-129476788D01*
X168839873Y-129322445D01*
X168893402Y-129157701D01*
X168920500Y-128986611D01*
X168920500Y-128813389D01*
X168893402Y-128642299D01*
X168839873Y-128477555D01*
X168761232Y-128323212D01*
X168659414Y-128183072D01*
X168536928Y-128060586D01*
X168396788Y-127958768D01*
X168242445Y-127880127D01*
X168077701Y-127826598D01*
X168077699Y-127826597D01*
X168077698Y-127826597D01*
X167946271Y-127805781D01*
X167906611Y-127799500D01*
X167733389Y-127799500D01*
X167693728Y-127805781D01*
X167562302Y-127826597D01*
X167397552Y-127880128D01*
X167243211Y-127958768D01*
X167163256Y-128016859D01*
X167103072Y-128060586D01*
X167103070Y-128060588D01*
X167103069Y-128060588D01*
X166980588Y-128183069D01*
X166980588Y-128183070D01*
X166980586Y-128183072D01*
X166951304Y-128223375D01*
X166878768Y-128323211D01*
X166800128Y-128477552D01*
X166746597Y-128642302D01*
X166722268Y-128795914D01*
X166719500Y-128813389D01*
X164686489Y-128813389D01*
X164689999Y-128802797D01*
X164700500Y-128700009D01*
X164700499Y-126599992D01*
X164689999Y-126497203D01*
X164634814Y-126330666D01*
X164542712Y-126181344D01*
X164418656Y-126057288D01*
X164269334Y-125965186D01*
X164102797Y-125910001D01*
X164102795Y-125910000D01*
X164000016Y-125899500D01*
X164000009Y-125899500D01*
X162824500Y-125899500D01*
X162757461Y-125879815D01*
X162711706Y-125827011D01*
X162700500Y-125775500D01*
X162700500Y-125524499D01*
X162720185Y-125457460D01*
X162772989Y-125411705D01*
X162824500Y-125400499D01*
X164000002Y-125400499D01*
X164000008Y-125400499D01*
X164102797Y-125389999D01*
X164269334Y-125334814D01*
X164418656Y-125242712D01*
X164542712Y-125118656D01*
X164634814Y-124969334D01*
X164689999Y-124802797D01*
X164700500Y-124700009D01*
X164700499Y-122599992D01*
X164689999Y-122497203D01*
X164634814Y-122330666D01*
X164548109Y-122190094D01*
X164529670Y-122122704D01*
X164548110Y-122059904D01*
X164634814Y-121919334D01*
X164689999Y-121752797D01*
X164700500Y-121650009D01*
X164700499Y-119549992D01*
X164689999Y-119447203D01*
X164634814Y-119280666D01*
X164542712Y-119131344D01*
X164418656Y-119007288D01*
X164269334Y-118915186D01*
X164102797Y-118860001D01*
X164102795Y-118860000D01*
X164000010Y-118849500D01*
X162599998Y-118849500D01*
X162599981Y-118849501D01*
X162497203Y-118860000D01*
X162497200Y-118860001D01*
X162330668Y-118915185D01*
X162330663Y-118915187D01*
X162181342Y-119007289D01*
X162057289Y-119131342D01*
X161965187Y-119280663D01*
X161965186Y-119280666D01*
X161910001Y-119447203D01*
X161910001Y-119447204D01*
X161910000Y-119447204D01*
X161899500Y-119549983D01*
X161899500Y-121650001D01*
X161899501Y-121650018D01*
X161910000Y-121752796D01*
X161910001Y-121752799D01*
X161965185Y-121919331D01*
X161965189Y-121919340D01*
X162051889Y-122059904D01*
X162070329Y-122127296D01*
X162051889Y-122190096D01*
X161965189Y-122330659D01*
X161965186Y-122330666D01*
X161910001Y-122497203D01*
X161910001Y-122497204D01*
X161910000Y-122497204D01*
X161899500Y-122599983D01*
X161899500Y-123937769D01*
X161879815Y-124004808D01*
X161863181Y-124025450D01*
X161367052Y-124521578D01*
X161367049Y-124521581D01*
X161317812Y-124595271D01*
X161284921Y-124644496D01*
X161284914Y-124644508D01*
X161228342Y-124781086D01*
X161228340Y-124781092D01*
X161199500Y-124926079D01*
X161199500Y-124926082D01*
X161199500Y-130261184D01*
X161199500Y-130261186D01*
X161199499Y-130261186D01*
X161228340Y-130406173D01*
X161228343Y-130406183D01*
X161284914Y-130542758D01*
X161317812Y-130591993D01*
X161317813Y-130591996D01*
X161367046Y-130665680D01*
X161367052Y-130665687D01*
X166013181Y-135311815D01*
X166027884Y-135338742D01*
X166044477Y-135364561D01*
X166045368Y-135370761D01*
X166046666Y-135373138D01*
X166049500Y-135399496D01*
X166049500Y-135595396D01*
X166040062Y-135642844D01*
X166030263Y-135666503D01*
X166030262Y-135666506D01*
X166030260Y-135666511D01*
X165999500Y-135821153D01*
X165999500Y-135978846D01*
X166030261Y-136133489D01*
X166030264Y-136133501D01*
X166070672Y-136231056D01*
X166078141Y-136300526D01*
X166046865Y-136363005D01*
X165986776Y-136398656D01*
X165980298Y-136400126D01*
X165954604Y-136405236D01*
X165838459Y-136428339D01*
X165838449Y-136428342D01*
X165758447Y-136461479D01*
X165758448Y-136461480D01*
X165711598Y-136480887D01*
X165701871Y-136484916D01*
X165646687Y-136521789D01*
X165578948Y-136567049D01*
X164467045Y-137678952D01*
X164430969Y-137732948D01*
X164430967Y-137732951D01*
X164384919Y-137801865D01*
X164384912Y-137801877D01*
X164328343Y-137938448D01*
X164328340Y-137938458D01*
X164299500Y-138083445D01*
X164299500Y-138083448D01*
X164299500Y-145548918D01*
X164299500Y-145548920D01*
X164299499Y-145548920D01*
X164328340Y-145693907D01*
X164328343Y-145693917D01*
X164384913Y-145830490D01*
X164384914Y-145830491D01*
X164384916Y-145830495D01*
X164394148Y-145844311D01*
X164394149Y-145844314D01*
X164467046Y-145953414D01*
X164467052Y-145953421D01*
X166689339Y-148175707D01*
X166693676Y-148183651D01*
X166700925Y-148189077D01*
X166710161Y-148213839D01*
X166722824Y-148237030D01*
X166722178Y-148246058D01*
X166725342Y-148254541D01*
X166719725Y-148280360D01*
X166717840Y-148306722D01*
X166712020Y-148315776D01*
X166710490Y-148322814D01*
X166689340Y-148351069D01*
X166551270Y-148489139D01*
X166551269Y-148489139D01*
X166551268Y-148489140D01*
X166464144Y-148576264D01*
X166464141Y-148576268D01*
X166445973Y-148603459D01*
X166445972Y-148603460D01*
X166395690Y-148678709D01*
X166395685Y-148678718D01*
X166374237Y-148730499D01*
X166374238Y-148730500D01*
X166349713Y-148789711D01*
X166349707Y-148789725D01*
X166348537Y-148792547D01*
X166348536Y-148792550D01*
X166326307Y-148904303D01*
X166326308Y-148904304D01*
X166326307Y-148904311D01*
X166324500Y-148913394D01*
X166324500Y-151699146D01*
X166344851Y-151801463D01*
X166346650Y-151810504D01*
X166348538Y-151819995D01*
X166395685Y-151933820D01*
X166395687Y-151933823D01*
X166395688Y-151933826D01*
X166429915Y-151985049D01*
X166464142Y-152036273D01*
X166551267Y-152123398D01*
X166551270Y-152123400D01*
X166558554Y-152130684D01*
X166773476Y-152345606D01*
X166773505Y-152345637D01*
X166857823Y-152429955D01*
X166891308Y-152491278D01*
X166886324Y-152560969D01*
X166855908Y-152642517D01*
X166850797Y-152690060D01*
X166849501Y-152702123D01*
X166849500Y-152702135D01*
X166849500Y-152754450D01*
X166829815Y-152821489D01*
X166777011Y-152867244D01*
X166772954Y-152869010D01*
X166720829Y-152890601D01*
X166720814Y-152890609D01*
X166589711Y-152978210D01*
X166589707Y-152978213D01*
X166478213Y-153089707D01*
X166478210Y-153089711D01*
X166390609Y-153220814D01*
X166390602Y-153220827D01*
X166330264Y-153366498D01*
X166330261Y-153366510D01*
X166299500Y-153521153D01*
X166299500Y-153678846D01*
X166330261Y-153833489D01*
X166330264Y-153833501D01*
X166390602Y-153979172D01*
X166390609Y-153979185D01*
X166478210Y-154110288D01*
X166478213Y-154110292D01*
X166589707Y-154221786D01*
X166589711Y-154221789D01*
X166720817Y-154309392D01*
X166720819Y-154309392D01*
X166720821Y-154309394D01*
X166772952Y-154330987D01*
X166827356Y-154374827D01*
X166849421Y-154441121D01*
X166849500Y-154445546D01*
X166849500Y-154497869D01*
X166849501Y-154497876D01*
X166855908Y-154557483D01*
X166906202Y-154692328D01*
X166906206Y-154692335D01*
X166992452Y-154807544D01*
X166992455Y-154807547D01*
X167107664Y-154893793D01*
X167107671Y-154893797D01*
X167242517Y-154944091D01*
X167242516Y-154944091D01*
X167249444Y-154944835D01*
X167302127Y-154950500D01*
X168297872Y-154950499D01*
X168357483Y-154944091D01*
X168492331Y-154893796D01*
X168607546Y-154807546D01*
X168693796Y-154692331D01*
X168744091Y-154557483D01*
X168750500Y-154497873D01*
X168750499Y-154084449D01*
X168770183Y-154017412D01*
X168822987Y-153971657D01*
X168892146Y-153961713D01*
X168955702Y-153990738D01*
X168962180Y-153996770D01*
X170003228Y-155037818D01*
X170036713Y-155099141D01*
X170031729Y-155168833D01*
X169989857Y-155224766D01*
X169924393Y-155249183D01*
X169915547Y-155249499D01*
X163053480Y-155249499D01*
X163046527Y-155249304D01*
X162737907Y-155231972D01*
X162724089Y-155230415D01*
X162422790Y-155179222D01*
X162409233Y-155176128D01*
X162115559Y-155091522D01*
X162102434Y-155086929D01*
X161820081Y-154969975D01*
X161807553Y-154963942D01*
X161540062Y-154816105D01*
X161528297Y-154808712D01*
X161279035Y-154631851D01*
X161268178Y-154623193D01*
X161194648Y-154557483D01*
X161127912Y-154497844D01*
X163450000Y-154497844D01*
X163456401Y-154557372D01*
X163456403Y-154557379D01*
X163506645Y-154692086D01*
X163506649Y-154692093D01*
X163592809Y-154807187D01*
X163592812Y-154807190D01*
X163707906Y-154893350D01*
X163707913Y-154893354D01*
X163842620Y-154943596D01*
X163842627Y-154943598D01*
X163902155Y-154949999D01*
X163902172Y-154950000D01*
X164150000Y-154950000D01*
X164650000Y-154950000D01*
X164897828Y-154950000D01*
X164897844Y-154949999D01*
X164957372Y-154943598D01*
X164957379Y-154943596D01*
X165092086Y-154893354D01*
X165092093Y-154893350D01*
X165207187Y-154807190D01*
X165207190Y-154807187D01*
X165293350Y-154692093D01*
X165293354Y-154692086D01*
X165343596Y-154557379D01*
X165343598Y-154557372D01*
X165349999Y-154497844D01*
X165350000Y-154497827D01*
X165350000Y-153850000D01*
X164650000Y-153850000D01*
X164650000Y-154950000D01*
X164150000Y-154950000D01*
X164150000Y-153850000D01*
X163450000Y-153850000D01*
X163450000Y-154497844D01*
X161127912Y-154497844D01*
X161040288Y-154419538D01*
X161030457Y-154409707D01*
X161005642Y-154381939D01*
X160826799Y-154181813D01*
X160818148Y-154170964D01*
X160641282Y-153921696D01*
X160633892Y-153909935D01*
X160605531Y-153858619D01*
X160532235Y-153726000D01*
X160486051Y-153642437D01*
X160480025Y-153629923D01*
X160363067Y-153347562D01*
X160358475Y-153334438D01*
X160273866Y-153040753D01*
X160270775Y-153027207D01*
X160262451Y-152978213D01*
X160219580Y-152725897D01*
X160218026Y-152712098D01*
X160217468Y-152702155D01*
X163450000Y-152702155D01*
X163450000Y-153350000D01*
X164150000Y-153350000D01*
X164650000Y-153350000D01*
X165350000Y-153350000D01*
X165350000Y-152702172D01*
X165349999Y-152702155D01*
X165343598Y-152642627D01*
X165343596Y-152642620D01*
X165293354Y-152507913D01*
X165293350Y-152507906D01*
X165207190Y-152392812D01*
X165207187Y-152392809D01*
X165092093Y-152306649D01*
X165092086Y-152306645D01*
X164957379Y-152256403D01*
X164957372Y-152256401D01*
X164897844Y-152250000D01*
X164650000Y-152250000D01*
X164650000Y-153350000D01*
X164150000Y-153350000D01*
X164150000Y-152250000D01*
X163902155Y-152250000D01*
X163842627Y-152256401D01*
X163842620Y-152256403D01*
X163707913Y-152306645D01*
X163707906Y-152306649D01*
X163592812Y-152392809D01*
X163592809Y-152392812D01*
X163506649Y-152507906D01*
X163506645Y-152507913D01*
X163456403Y-152642620D01*
X163456401Y-152642627D01*
X163450000Y-152702155D01*
X160217468Y-152702155D01*
X160200694Y-152403470D01*
X160200499Y-152396518D01*
X160200499Y-93003481D01*
X160200694Y-92996529D01*
X160207284Y-92879179D01*
X160218026Y-92687899D01*
X160219580Y-92674104D01*
X160270777Y-92372781D01*
X160273865Y-92359250D01*
X160358478Y-92065550D01*
X160363068Y-92052436D01*
X160480028Y-91770068D01*
X160486048Y-91757569D01*
X160633898Y-91490054D01*
X160641276Y-91478311D01*
X160818154Y-91229026D01*
X160826792Y-91218194D01*
X161030467Y-90990281D01*
X161040279Y-90980469D01*
X161268192Y-90776794D01*
X161279024Y-90768156D01*
X161528309Y-90591278D01*
X161540052Y-90583900D01*
X161807567Y-90436050D01*
X161820066Y-90430030D01*
X162102441Y-90313067D01*
X162115548Y-90308480D01*
X162409248Y-90223867D01*
X162422779Y-90220779D01*
X162724102Y-90169582D01*
X162737897Y-90168028D01*
X163012074Y-90152630D01*
X163046528Y-90150696D01*
X163053480Y-90150501D01*
X163115891Y-90150501D01*
X163386230Y-90150501D01*
X163453269Y-90170186D01*
G37*
%TD.AperFunction*%
%TA.AperFunction,Conductor*%
G36*
X180915666Y-90159144D02*
G01*
X180945656Y-90165668D01*
X180948887Y-90168899D01*
X180953269Y-90170186D01*
X180973354Y-90193366D01*
X180995062Y-90215073D01*
X180996033Y-90219538D01*
X180999024Y-90222990D01*
X181003390Y-90253358D01*
X181009914Y-90283346D01*
X181008582Y-90289467D01*
X181008968Y-90292148D01*
X181002412Y-90317834D01*
X180955908Y-90442517D01*
X180949501Y-90502116D01*
X180949501Y-90502123D01*
X180949500Y-90502135D01*
X180949500Y-91497870D01*
X180949501Y-91497876D01*
X180955908Y-91557483D01*
X181009303Y-91700641D01*
X181007575Y-91701285D01*
X181020095Y-91758853D01*
X181008310Y-91798988D01*
X181009303Y-91799359D01*
X180955908Y-91942517D01*
X180950835Y-91989707D01*
X180949501Y-92002123D01*
X180949500Y-92002135D01*
X180949500Y-92997870D01*
X180949501Y-92997876D01*
X180955908Y-93057483D01*
X181009303Y-93200641D01*
X181007575Y-93201285D01*
X181020095Y-93258853D01*
X181008310Y-93298988D01*
X181009303Y-93299359D01*
X180955908Y-93442517D01*
X180952071Y-93478210D01*
X180949501Y-93502123D01*
X180949500Y-93502135D01*
X180949500Y-94497870D01*
X180949501Y-94497876D01*
X180955908Y-94557483D01*
X181009303Y-94700641D01*
X181007575Y-94701285D01*
X181020095Y-94758853D01*
X181008310Y-94798988D01*
X181009303Y-94799359D01*
X180955908Y-94942517D01*
X180949501Y-95002116D01*
X180949501Y-95002123D01*
X180949500Y-95002135D01*
X180949500Y-95997870D01*
X180949501Y-95997876D01*
X180956421Y-96062247D01*
X180944014Y-96131006D01*
X180896403Y-96182143D01*
X180833131Y-96199500D01*
X180721155Y-96199500D01*
X180566510Y-96230261D01*
X180566498Y-96230264D01*
X180420827Y-96290602D01*
X180420814Y-96290609D01*
X180289711Y-96378210D01*
X180289707Y-96378213D01*
X180178213Y-96489707D01*
X180178210Y-96489711D01*
X180090609Y-96620814D01*
X180090602Y-96620827D01*
X180030264Y-96766498D01*
X180030261Y-96766510D01*
X179999500Y-96921153D01*
X179999500Y-97078846D01*
X180030261Y-97233489D01*
X180030264Y-97233501D01*
X180090602Y-97379172D01*
X180090609Y-97379185D01*
X180178210Y-97510288D01*
X180178213Y-97510292D01*
X180289707Y-97621786D01*
X180289711Y-97621789D01*
X180302288Y-97630193D01*
X180347093Y-97683805D01*
X180355800Y-97753130D01*
X180325646Y-97816157D01*
X180302289Y-97836396D01*
X180239713Y-97878208D01*
X180239707Y-97878213D01*
X180128213Y-97989707D01*
X180128210Y-97989711D01*
X180040609Y-98120814D01*
X180040602Y-98120827D01*
X179980264Y-98266498D01*
X179980261Y-98266510D01*
X179949500Y-98421153D01*
X179949500Y-98578846D01*
X179980261Y-98733489D01*
X179980264Y-98733501D01*
X180040602Y-98879172D01*
X180040609Y-98879185D01*
X180128210Y-99010288D01*
X180128213Y-99010292D01*
X180239707Y-99121786D01*
X180239711Y-99121789D01*
X180370814Y-99209390D01*
X180370827Y-99209397D01*
X180468853Y-99250000D01*
X180516503Y-99269737D01*
X180662179Y-99298714D01*
X180671153Y-99300499D01*
X180671156Y-99300500D01*
X180833132Y-99300500D01*
X180900171Y-99320185D01*
X180945926Y-99372989D01*
X180956421Y-99437756D01*
X180949500Y-99502118D01*
X180949500Y-100497870D01*
X180949501Y-100497876D01*
X180955908Y-100557483D01*
X181009303Y-100700641D01*
X181007575Y-100701285D01*
X181020095Y-100758853D01*
X181008310Y-100798988D01*
X181009303Y-100799359D01*
X180955908Y-100942517D01*
X180949501Y-101002116D01*
X180949501Y-101002123D01*
X180949500Y-101002135D01*
X180949500Y-101514547D01*
X180929815Y-101581586D01*
X180913181Y-101602228D01*
X180726269Y-101789140D01*
X180726267Y-101789142D01*
X180682705Y-101832703D01*
X180639144Y-101876264D01*
X180639142Y-101876267D01*
X180624131Y-101898733D01*
X180624130Y-101898735D01*
X180624129Y-101898734D01*
X180570689Y-101978712D01*
X180570685Y-101978719D01*
X180541305Y-102049651D01*
X180541303Y-102049657D01*
X180538062Y-102057483D01*
X180523537Y-102092548D01*
X180514908Y-102135931D01*
X180503690Y-102192331D01*
X180499500Y-102213394D01*
X180499500Y-106246606D01*
X180513846Y-106318733D01*
X180513846Y-106318734D01*
X180523534Y-106367443D01*
X180523536Y-106367447D01*
X180523537Y-106367451D01*
X180532400Y-106388848D01*
X180570686Y-106481283D01*
X180570687Y-106481285D01*
X180570688Y-106481286D01*
X180585751Y-106503828D01*
X180639142Y-106583733D01*
X180726267Y-106670858D01*
X180726270Y-106670860D01*
X180734345Y-106678935D01*
X182057571Y-108002161D01*
X182091056Y-108063484D01*
X182087822Y-108128158D01*
X182082753Y-108143757D01*
X182057151Y-108305405D01*
X182049500Y-108353713D01*
X182049500Y-108566287D01*
X182058584Y-108623642D01*
X182076318Y-108735612D01*
X182082754Y-108776243D01*
X182132174Y-108928342D01*
X182148444Y-108978414D01*
X182244951Y-109167820D01*
X182369890Y-109339786D01*
X182483818Y-109453714D01*
X182517303Y-109515037D01*
X182512319Y-109584729D01*
X182470447Y-109640662D01*
X182439471Y-109657577D01*
X182307912Y-109706646D01*
X182307906Y-109706649D01*
X182192812Y-109792809D01*
X182192809Y-109792812D01*
X182106649Y-109907906D01*
X182106645Y-109907913D01*
X182056403Y-110042620D01*
X182056401Y-110042627D01*
X182050000Y-110102155D01*
X182050000Y-110750000D01*
X182966988Y-110750000D01*
X182934075Y-110807007D01*
X182900000Y-110934174D01*
X182900000Y-111065826D01*
X182934075Y-111192993D01*
X182966988Y-111250000D01*
X182050000Y-111250000D01*
X182050000Y-111897844D01*
X182056401Y-111957372D01*
X182056403Y-111957379D01*
X182106645Y-112092086D01*
X182106649Y-112092093D01*
X182192809Y-112207187D01*
X182192812Y-112207190D01*
X182307906Y-112293350D01*
X182307913Y-112293354D01*
X182442620Y-112343596D01*
X182442627Y-112343598D01*
X182502155Y-112349999D01*
X182502172Y-112350000D01*
X183150000Y-112350000D01*
X183150000Y-111433012D01*
X183207007Y-111465925D01*
X183334174Y-111500000D01*
X183465826Y-111500000D01*
X183592993Y-111465925D01*
X183650000Y-111433012D01*
X183650000Y-112350000D01*
X184297828Y-112350000D01*
X184297844Y-112349999D01*
X184357372Y-112343598D01*
X184357379Y-112343596D01*
X184492086Y-112293354D01*
X184492093Y-112293350D01*
X184607187Y-112207190D01*
X184607190Y-112207187D01*
X184693350Y-112092093D01*
X184693354Y-112092086D01*
X184743596Y-111957379D01*
X184743598Y-111957372D01*
X184749999Y-111897844D01*
X184750000Y-111897827D01*
X184750000Y-111250000D01*
X183833012Y-111250000D01*
X183865925Y-111192993D01*
X183900000Y-111065826D01*
X183900000Y-110934174D01*
X183865925Y-110807007D01*
X183833012Y-110750000D01*
X184750000Y-110750000D01*
X184750000Y-110102172D01*
X184749999Y-110102155D01*
X184743598Y-110042627D01*
X184743596Y-110042620D01*
X184693354Y-109907913D01*
X184693350Y-109907906D01*
X184607190Y-109792812D01*
X184607187Y-109792809D01*
X184492093Y-109706649D01*
X184492088Y-109706646D01*
X184360528Y-109657577D01*
X184304595Y-109615705D01*
X184280178Y-109550241D01*
X184295030Y-109481968D01*
X184316175Y-109453720D01*
X184430104Y-109339792D01*
X184555051Y-109167816D01*
X184651557Y-108978412D01*
X184717246Y-108776243D01*
X184750500Y-108566287D01*
X184750500Y-108353713D01*
X184717246Y-108143757D01*
X184651557Y-107941588D01*
X184555051Y-107752184D01*
X184555049Y-107752181D01*
X184555048Y-107752179D01*
X184430109Y-107580213D01*
X184279786Y-107429890D01*
X184107820Y-107304951D01*
X184107115Y-107304591D01*
X184099054Y-107300485D01*
X184048259Y-107252512D01*
X184031463Y-107184692D01*
X184053999Y-107118556D01*
X184099054Y-107079515D01*
X184107816Y-107075051D01*
X184218555Y-106994595D01*
X184279786Y-106950109D01*
X184279788Y-106950106D01*
X184279792Y-106950104D01*
X184430104Y-106799792D01*
X184430106Y-106799788D01*
X184430109Y-106799786D01*
X184555048Y-106627820D01*
X184555047Y-106627820D01*
X184555051Y-106627816D01*
X184651557Y-106438412D01*
X184717246Y-106236243D01*
X184750500Y-106026287D01*
X184750500Y-105813713D01*
X184717246Y-105603757D01*
X184651557Y-105401588D01*
X184555051Y-105212184D01*
X184555049Y-105212181D01*
X184555048Y-105212179D01*
X184430109Y-105040213D01*
X184279786Y-104889890D01*
X184107819Y-104764950D01*
X184093203Y-104757503D01*
X184042408Y-104709527D01*
X184025500Y-104647019D01*
X184025500Y-100917741D01*
X184025501Y-100917720D01*
X184025501Y-100788391D01*
X184001464Y-100667555D01*
X184001463Y-100667549D01*
X183954312Y-100553715D01*
X183885858Y-100451267D01*
X183885855Y-100451263D01*
X183486818Y-100052226D01*
X183453333Y-99990903D01*
X183450499Y-99964545D01*
X183450499Y-99502129D01*
X183450498Y-99502123D01*
X183450497Y-99502118D01*
X183444091Y-99442517D01*
X183393796Y-99307669D01*
X183393794Y-99307666D01*
X183390696Y-99299360D01*
X183392426Y-99298714D01*
X183379902Y-99241163D01*
X183391691Y-99201011D01*
X183390696Y-99200640D01*
X183393794Y-99192333D01*
X183393796Y-99192331D01*
X183444091Y-99057483D01*
X183450500Y-98997873D01*
X183450499Y-98002128D01*
X183444091Y-97942517D01*
X183393796Y-97807669D01*
X183393794Y-97807666D01*
X183390696Y-97799360D01*
X183392426Y-97798714D01*
X183379902Y-97741163D01*
X183391691Y-97701011D01*
X183390696Y-97700640D01*
X183393794Y-97692333D01*
X183393796Y-97692331D01*
X183444091Y-97557483D01*
X183450500Y-97497873D01*
X183450499Y-96502128D01*
X183444091Y-96442517D01*
X183393796Y-96307669D01*
X183393794Y-96307666D01*
X183390696Y-96299360D01*
X183392426Y-96298714D01*
X183379902Y-96241163D01*
X183391691Y-96201011D01*
X183390696Y-96200640D01*
X183393794Y-96192333D01*
X183393796Y-96192331D01*
X183444091Y-96057483D01*
X183450500Y-95997873D01*
X183450499Y-95002128D01*
X183444091Y-94942517D01*
X183393796Y-94807669D01*
X183393794Y-94807666D01*
X183390696Y-94799360D01*
X183392426Y-94798714D01*
X183379902Y-94741163D01*
X183391691Y-94701011D01*
X183390696Y-94700640D01*
X183393794Y-94692333D01*
X183393796Y-94692331D01*
X183444091Y-94557483D01*
X183450500Y-94497873D01*
X183450499Y-93502128D01*
X183444091Y-93442517D01*
X183393796Y-93307669D01*
X183393794Y-93307666D01*
X183390696Y-93299360D01*
X183392426Y-93298714D01*
X183379902Y-93241163D01*
X183391691Y-93201011D01*
X183390696Y-93200640D01*
X183393794Y-93192333D01*
X183393796Y-93192331D01*
X183444091Y-93057483D01*
X183450500Y-92997873D01*
X183450499Y-92002128D01*
X183444091Y-91942517D01*
X183393796Y-91807669D01*
X183393794Y-91807666D01*
X183390696Y-91799360D01*
X183392426Y-91798714D01*
X183379902Y-91741163D01*
X183391691Y-91701011D01*
X183390696Y-91700640D01*
X183393794Y-91692333D01*
X183393796Y-91692331D01*
X183444091Y-91557483D01*
X183450500Y-91497873D01*
X183450499Y-90502128D01*
X183444091Y-90442517D01*
X183444091Y-90442516D01*
X183397588Y-90317834D01*
X183392604Y-90248142D01*
X183426089Y-90186819D01*
X183487413Y-90153335D01*
X183513770Y-90150501D01*
X184184107Y-90150501D01*
X184246518Y-90150501D01*
X184253470Y-90150696D01*
X184291131Y-90152810D01*
X184562098Y-90168028D01*
X184575897Y-90169582D01*
X184877214Y-90220778D01*
X184890753Y-90223868D01*
X185184443Y-90308479D01*
X185197562Y-90313069D01*
X185479923Y-90430027D01*
X185492437Y-90436053D01*
X185736281Y-90570821D01*
X185759935Y-90583894D01*
X185771696Y-90591284D01*
X186020964Y-90768150D01*
X186031813Y-90776801D01*
X186137399Y-90871158D01*
X186259707Y-90980459D01*
X186269540Y-90990292D01*
X186473193Y-91218180D01*
X186481851Y-91229037D01*
X186658712Y-91478299D01*
X186666105Y-91490064D01*
X186703365Y-91557481D01*
X186809766Y-91750000D01*
X186813942Y-91757555D01*
X186819975Y-91770083D01*
X186936929Y-92052436D01*
X186941522Y-92065561D01*
X187026128Y-92359235D01*
X187029222Y-92372792D01*
X187080415Y-92674091D01*
X187081972Y-92687909D01*
X187099304Y-92996528D01*
X187099499Y-93003481D01*
X187099499Y-152396518D01*
X187099304Y-152403471D01*
X187081972Y-152712090D01*
X187080415Y-152725908D01*
X187029222Y-153027207D01*
X187026128Y-153040764D01*
X186941522Y-153334438D01*
X186936929Y-153347563D01*
X186819975Y-153629916D01*
X186813942Y-153642444D01*
X186666105Y-153909935D01*
X186658707Y-153921708D01*
X186481858Y-154170953D01*
X186473193Y-154181819D01*
X186269540Y-154409707D01*
X186259707Y-154419540D01*
X186031819Y-154623193D01*
X186020953Y-154631858D01*
X185929841Y-154696506D01*
X185771709Y-154808707D01*
X185759935Y-154816105D01*
X185492444Y-154963942D01*
X185479916Y-154969975D01*
X185197563Y-155086929D01*
X185184438Y-155091522D01*
X184890764Y-155176128D01*
X184877207Y-155179222D01*
X184575908Y-155230415D01*
X184562090Y-155231972D01*
X184253471Y-155249304D01*
X184246518Y-155249499D01*
X181334452Y-155249499D01*
X181267413Y-155229814D01*
X181221658Y-155177010D01*
X181211714Y-155107852D01*
X181240739Y-155044296D01*
X181246771Y-155037818D01*
X181390793Y-154893797D01*
X182087819Y-154196772D01*
X182149142Y-154163287D01*
X182218834Y-154168271D01*
X182274767Y-154210143D01*
X182299184Y-154275607D01*
X182299500Y-154284452D01*
X182299500Y-154497869D01*
X182299501Y-154497876D01*
X182305908Y-154557483D01*
X182356202Y-154692328D01*
X182356206Y-154692335D01*
X182442452Y-154807544D01*
X182442455Y-154807547D01*
X182557664Y-154893793D01*
X182557671Y-154893797D01*
X182692517Y-154944091D01*
X182692516Y-154944091D01*
X182699444Y-154944835D01*
X182752127Y-154950500D01*
X183747872Y-154950499D01*
X183807483Y-154944091D01*
X183942331Y-154893796D01*
X184057546Y-154807546D01*
X184143796Y-154692331D01*
X184194091Y-154557483D01*
X184200500Y-154497873D01*
X184200499Y-152702128D01*
X184194091Y-152642517D01*
X184143884Y-152507906D01*
X184143797Y-152507671D01*
X184143793Y-152507664D01*
X184057547Y-152392455D01*
X183950188Y-152312085D01*
X183947451Y-152308429D01*
X183943297Y-152306532D01*
X183926705Y-152280714D01*
X183908318Y-152256151D01*
X183907302Y-152250523D01*
X183905523Y-152247754D01*
X183900500Y-152212819D01*
X183900500Y-152091519D01*
X183920185Y-152024480D01*
X183936814Y-152003842D01*
X184030472Y-151910185D01*
X184118478Y-151764606D01*
X184169086Y-151602196D01*
X184175500Y-151531616D01*
X184175500Y-150868384D01*
X184169086Y-150797804D01*
X184118478Y-150635394D01*
X184030472Y-150489815D01*
X184030470Y-150489813D01*
X184030469Y-150489811D01*
X183910188Y-150369530D01*
X183889492Y-150357019D01*
X183764606Y-150281522D01*
X183602196Y-150230914D01*
X183602194Y-150230913D01*
X183602192Y-150230913D01*
X183552778Y-150226423D01*
X183531616Y-150224500D01*
X183531613Y-150224500D01*
X183067520Y-150224500D01*
X183000481Y-150204815D01*
X182998628Y-150203601D01*
X182979186Y-150190610D01*
X182979172Y-150190602D01*
X182833501Y-150130264D01*
X182833489Y-150130261D01*
X182678845Y-150099500D01*
X182678842Y-150099500D01*
X182521158Y-150099500D01*
X182521155Y-150099500D01*
X182366510Y-150130261D01*
X182366498Y-150130264D01*
X182220828Y-150190602D01*
X182220817Y-150190608D01*
X182143489Y-150242277D01*
X182076811Y-150263154D01*
X182037710Y-150257560D01*
X181952198Y-150230914D01*
X181923964Y-150228348D01*
X181881616Y-150224500D01*
X181368384Y-150224500D01*
X181355062Y-150225710D01*
X181295088Y-150231160D01*
X181226542Y-150217623D01*
X181176197Y-150169176D01*
X181160036Y-150101201D01*
X181164148Y-150079378D01*
X181163439Y-150079227D01*
X181164855Y-150072608D01*
X181174999Y-149973322D01*
X181175000Y-149973309D01*
X181175000Y-149950000D01*
X179225001Y-149950000D01*
X179225001Y-149973322D01*
X179235144Y-150072607D01*
X179288452Y-150233481D01*
X179288457Y-150233492D01*
X179377424Y-150377728D01*
X179377427Y-150377732D01*
X179386660Y-150386965D01*
X179420145Y-150448288D01*
X179415161Y-150517980D01*
X179386663Y-150562324D01*
X179377033Y-150571953D01*
X179377029Y-150571959D01*
X179288001Y-150716294D01*
X179287996Y-150716305D01*
X179234651Y-150877290D01*
X179224500Y-150976647D01*
X179224500Y-151249376D01*
X179204815Y-151316415D01*
X179152011Y-151362170D01*
X179082853Y-151372114D01*
X179019297Y-151343089D01*
X178997398Y-151318267D01*
X178926751Y-151212537D01*
X178926748Y-151212533D01*
X178787466Y-151073251D01*
X178787462Y-151073248D01*
X178623684Y-150963814D01*
X178623671Y-150963807D01*
X178441691Y-150888429D01*
X178441683Y-150888427D01*
X178400000Y-150880135D01*
X178400000Y-151683011D01*
X178390060Y-151665795D01*
X178334205Y-151609940D01*
X178265796Y-151570444D01*
X178189496Y-151550000D01*
X178110504Y-151550000D01*
X178034204Y-151570444D01*
X177965795Y-151609940D01*
X177909940Y-151665795D01*
X177900000Y-151683011D01*
X177900000Y-150880136D01*
X177899999Y-150880135D01*
X177858316Y-150888427D01*
X177858308Y-150888429D01*
X177676328Y-150963807D01*
X177676315Y-150963814D01*
X177512537Y-151073248D01*
X177512533Y-151073251D01*
X177373251Y-151212533D01*
X177373248Y-151212537D01*
X177263814Y-151376315D01*
X177263807Y-151376328D01*
X177188430Y-151558306D01*
X177188427Y-151558318D01*
X177150000Y-151751504D01*
X177150000Y-151900000D01*
X177850000Y-151900000D01*
X177850000Y-152400000D01*
X177150000Y-152400000D01*
X177150000Y-152548495D01*
X177188427Y-152741681D01*
X177188430Y-152741693D01*
X177263807Y-152923671D01*
X177263814Y-152923684D01*
X177373248Y-153087462D01*
X177373251Y-153087466D01*
X177512533Y-153226748D01*
X177512537Y-153226751D01*
X177676315Y-153336185D01*
X177676328Y-153336192D01*
X177858308Y-153411569D01*
X177900000Y-153419862D01*
X177900000Y-152616988D01*
X177909940Y-152634205D01*
X177965795Y-152690060D01*
X178034204Y-152729556D01*
X178110504Y-152750000D01*
X178189496Y-152750000D01*
X178265796Y-152729556D01*
X178334205Y-152690060D01*
X178390060Y-152634205D01*
X178400000Y-152616988D01*
X178400000Y-153419862D01*
X178441690Y-153411569D01*
X178441692Y-153411569D01*
X178623671Y-153336192D01*
X178623683Y-153336185D01*
X178707109Y-153280442D01*
X178773786Y-153259564D01*
X178841166Y-153278048D01*
X178887857Y-153330027D01*
X178890155Y-153340155D01*
X178900000Y-153350000D01*
X179726000Y-153350000D01*
X179793039Y-153369685D01*
X179838794Y-153422489D01*
X179850000Y-153474000D01*
X179850000Y-153726000D01*
X179830315Y-153793039D01*
X179777511Y-153838794D01*
X179726000Y-153850000D01*
X178900000Y-153850000D01*
X178900000Y-154025500D01*
X178880315Y-154092539D01*
X178827511Y-154138294D01*
X178776000Y-154149500D01*
X170935452Y-154149500D01*
X170868413Y-154129815D01*
X170847771Y-154113181D01*
X170141977Y-153407387D01*
X170108492Y-153346064D01*
X170113476Y-153276372D01*
X170144740Y-153232643D01*
X170143156Y-153231059D01*
X170286748Y-153087466D01*
X170286751Y-153087462D01*
X170396185Y-152923684D01*
X170396192Y-152923671D01*
X170471569Y-152741693D01*
X170471572Y-152741681D01*
X170509999Y-152548495D01*
X170510000Y-152548492D01*
X170510000Y-152400000D01*
X169810000Y-152400000D01*
X169810000Y-151900000D01*
X170510000Y-151900000D01*
X170510000Y-151751508D01*
X170509999Y-151751504D01*
X170471572Y-151558318D01*
X170471569Y-151558306D01*
X170396192Y-151376328D01*
X170396185Y-151376315D01*
X170286751Y-151212537D01*
X170286748Y-151212533D01*
X170147466Y-151073251D01*
X170147462Y-151073248D01*
X169983684Y-150963814D01*
X169983671Y-150963807D01*
X169801691Y-150888429D01*
X169801683Y-150888427D01*
X169760000Y-150880135D01*
X169760000Y-151683011D01*
X169750060Y-151665795D01*
X169694205Y-151609940D01*
X169625796Y-151570444D01*
X169549496Y-151550000D01*
X169470504Y-151550000D01*
X169394204Y-151570444D01*
X169325795Y-151609940D01*
X169269940Y-151665795D01*
X169260000Y-151683011D01*
X169260000Y-150880136D01*
X169259999Y-150880135D01*
X169218316Y-150888427D01*
X169218308Y-150888429D01*
X169036328Y-150963807D01*
X169036315Y-150963814D01*
X168917890Y-151042944D01*
X168851212Y-151063822D01*
X168783832Y-151045337D01*
X168737142Y-150993358D01*
X168724999Y-150939842D01*
X168724999Y-150920864D01*
X168724998Y-150920847D01*
X168714943Y-150822416D01*
X168662093Y-150662927D01*
X168662091Y-150662922D01*
X168573885Y-150519919D01*
X168542000Y-150488034D01*
X168508515Y-150426711D01*
X168513499Y-150357019D01*
X168542000Y-150312672D01*
X168555172Y-150299500D01*
X168574281Y-150280391D01*
X168662549Y-150137287D01*
X168698853Y-150027727D01*
X168738624Y-149970284D01*
X168747657Y-149963637D01*
X168810289Y-149921789D01*
X168921789Y-149810289D01*
X169009394Y-149679179D01*
X169062421Y-149551157D01*
X169106260Y-149496757D01*
X169172554Y-149474691D01*
X169212987Y-149479955D01*
X169218308Y-149481569D01*
X169260000Y-149489862D01*
X169260000Y-148686988D01*
X169269940Y-148704205D01*
X169325795Y-148760060D01*
X169394204Y-148799556D01*
X169470504Y-148820000D01*
X169549496Y-148820000D01*
X169625796Y-148799556D01*
X169694205Y-148760060D01*
X169750060Y-148704205D01*
X169760000Y-148686988D01*
X169760000Y-149489862D01*
X169801690Y-149481569D01*
X169801692Y-149481569D01*
X169983671Y-149406192D01*
X169983684Y-149406185D01*
X170147462Y-149296751D01*
X170147466Y-149296748D01*
X170286748Y-149157466D01*
X170286751Y-149157462D01*
X170399574Y-148988613D01*
X170401007Y-148989570D01*
X170444198Y-148945580D01*
X170512332Y-148930103D01*
X170578018Y-148953919D01*
X170580089Y-148955697D01*
X170580189Y-148955568D01*
X170586630Y-148960510D01*
X170586635Y-148960515D01*
X170717865Y-149036281D01*
X170864234Y-149075500D01*
X170864236Y-149075500D01*
X171015764Y-149075500D01*
X171015766Y-149075500D01*
X171162135Y-149036281D01*
X171293365Y-148960515D01*
X171357018Y-148896861D01*
X171418337Y-148863379D01*
X171488029Y-148868363D01*
X171532377Y-148896864D01*
X172229623Y-149594111D01*
X172229624Y-149594112D01*
X172344360Y-149670776D01*
X172442960Y-149711617D01*
X172471841Y-149723580D01*
X172471842Y-149723580D01*
X172471847Y-149723582D01*
X172498715Y-149728925D01*
X172498721Y-149728926D01*
X172498761Y-149728934D01*
X172589107Y-149746905D01*
X172607176Y-149750500D01*
X172607177Y-149750500D01*
X175052826Y-149750500D01*
X175161287Y-149728925D01*
X175188158Y-149723580D01*
X175251899Y-149697177D01*
X175315637Y-149670777D01*
X175315638Y-149670776D01*
X175315641Y-149670775D01*
X175430373Y-149594114D01*
X176127623Y-148896862D01*
X176188944Y-148863379D01*
X176258635Y-148868363D01*
X176302983Y-148896863D01*
X176366635Y-148960515D01*
X176497865Y-149036281D01*
X176644234Y-149075500D01*
X176644236Y-149075500D01*
X176795764Y-149075500D01*
X176795766Y-149075500D01*
X176942135Y-149036281D01*
X177073365Y-148960515D01*
X177073372Y-148960507D01*
X177079811Y-148955568D01*
X177082044Y-148958478D01*
X177128258Y-148932865D01*
X177197980Y-148937411D01*
X177254176Y-148978930D01*
X177260394Y-148988634D01*
X177260426Y-148988613D01*
X177373248Y-149157462D01*
X177373251Y-149157466D01*
X177512533Y-149296748D01*
X177512537Y-149296751D01*
X177676315Y-149406185D01*
X177676328Y-149406192D01*
X177858308Y-149481569D01*
X177900000Y-149489862D01*
X177900000Y-148686988D01*
X177909940Y-148704205D01*
X177965795Y-148760060D01*
X178034204Y-148799556D01*
X178110504Y-148820000D01*
X178189496Y-148820000D01*
X178265796Y-148799556D01*
X178334205Y-148760060D01*
X178390060Y-148704205D01*
X178400000Y-148686988D01*
X178400000Y-149489862D01*
X178441690Y-149481569D01*
X178441692Y-149481569D01*
X178574215Y-149426677D01*
X179225000Y-149426677D01*
X179225000Y-149450000D01*
X179950000Y-149450000D01*
X180450000Y-149450000D01*
X181174999Y-149450000D01*
X181174999Y-149426692D01*
X181174998Y-149426677D01*
X181164855Y-149327392D01*
X181111547Y-149166518D01*
X181111542Y-149166507D01*
X181022575Y-149022271D01*
X181022572Y-149022267D01*
X180902732Y-148902427D01*
X180902728Y-148902424D01*
X180758492Y-148813457D01*
X180758481Y-148813452D01*
X180597606Y-148760144D01*
X180498322Y-148750000D01*
X180450000Y-148750000D01*
X180450000Y-149450000D01*
X179950000Y-149450000D01*
X179950000Y-148750000D01*
X179949999Y-148749999D01*
X179901693Y-148750000D01*
X179901675Y-148750001D01*
X179802392Y-148760144D01*
X179641518Y-148813452D01*
X179641507Y-148813457D01*
X179497271Y-148902424D01*
X179497267Y-148902427D01*
X179377427Y-149022267D01*
X179377424Y-149022271D01*
X179288457Y-149166507D01*
X179288452Y-149166518D01*
X179235144Y-149327393D01*
X179225000Y-149426677D01*
X178574215Y-149426677D01*
X178623671Y-149406192D01*
X178623684Y-149406185D01*
X178752032Y-149320426D01*
X178787462Y-149296751D01*
X178787466Y-149296748D01*
X178926748Y-149157466D01*
X178926751Y-149157462D01*
X179036185Y-148993684D01*
X179036192Y-148993671D01*
X179111569Y-148811693D01*
X179111572Y-148811681D01*
X179149999Y-148618495D01*
X179150000Y-148618492D01*
X179150000Y-148220000D01*
X178450000Y-148220000D01*
X178450000Y-147720000D01*
X179150000Y-147720000D01*
X179150000Y-147321508D01*
X179149999Y-147321504D01*
X179111572Y-147128318D01*
X179111569Y-147128306D01*
X179036192Y-146946328D01*
X179036185Y-146946315D01*
X178926751Y-146782537D01*
X178926748Y-146782533D01*
X178787466Y-146643251D01*
X178787462Y-146643248D01*
X178623684Y-146533814D01*
X178623671Y-146533807D01*
X178441691Y-146458429D01*
X178441683Y-146458427D01*
X178400000Y-146450135D01*
X178400000Y-147253011D01*
X178390060Y-147235795D01*
X178334205Y-147179940D01*
X178265796Y-147140444D01*
X178189496Y-147120000D01*
X178110504Y-147120000D01*
X178034204Y-147140444D01*
X177965795Y-147179940D01*
X177909940Y-147235795D01*
X177900000Y-147253011D01*
X177900000Y-146435606D01*
X177883106Y-146410806D01*
X177883105Y-146410801D01*
X177883104Y-146410800D01*
X177883103Y-146410795D01*
X177877487Y-146382425D01*
X177877100Y-146377512D01*
X177835434Y-146234094D01*
X177835634Y-146164224D01*
X177873577Y-146105554D01*
X177937215Y-146076711D01*
X177954511Y-146075499D01*
X178048338Y-146075499D01*
X178048344Y-146075499D01*
X178048352Y-146075498D01*
X178048355Y-146075498D01*
X178102760Y-146069940D01*
X178147708Y-146065349D01*
X178308697Y-146012003D01*
X178453044Y-145922968D01*
X178572968Y-145803044D01*
X178662003Y-145658697D01*
X178715349Y-145497708D01*
X178725500Y-145398345D01*
X178725499Y-145393258D01*
X178745175Y-145326220D01*
X178797974Y-145280459D01*
X178860722Y-145269756D01*
X178918410Y-145274998D01*
X178918426Y-145274999D01*
X178924999Y-145274998D01*
X178925000Y-145274998D01*
X178925000Y-144424000D01*
X178944685Y-144356961D01*
X178997489Y-144311206D01*
X179049000Y-144300000D01*
X179301000Y-144300000D01*
X179368039Y-144319685D01*
X179413794Y-144372489D01*
X179425000Y-144424000D01*
X179425000Y-145274999D01*
X179431581Y-145274999D01*
X179502102Y-145268591D01*
X179502107Y-145268590D01*
X179664396Y-145218018D01*
X179809877Y-145130072D01*
X179809878Y-145130071D01*
X179911963Y-145027985D01*
X179973286Y-144994499D01*
X180042977Y-144999483D01*
X180087326Y-145027984D01*
X180189811Y-145130469D01*
X180189813Y-145130470D01*
X180189815Y-145130472D01*
X180335394Y-145218478D01*
X180497804Y-145269086D01*
X180568384Y-145275500D01*
X180568387Y-145275500D01*
X181081613Y-145275500D01*
X181081616Y-145275500D01*
X181152196Y-145269086D01*
X181314606Y-145218478D01*
X181460185Y-145130472D01*
X181580472Y-145010185D01*
X181668478Y-144864606D01*
X181719086Y-144702196D01*
X181725500Y-144631616D01*
X181725500Y-143968384D01*
X181719086Y-143897804D01*
X181668478Y-143735394D01*
X181595180Y-143614146D01*
X181577346Y-143546596D01*
X181595180Y-143485854D01*
X181668478Y-143364606D01*
X181719086Y-143202196D01*
X181725500Y-143131616D01*
X181725500Y-142468384D01*
X181719086Y-142397804D01*
X181668478Y-142235394D01*
X181580472Y-142089815D01*
X181580470Y-142089813D01*
X181580469Y-142089811D01*
X181570509Y-142079851D01*
X181537024Y-142018528D01*
X181542008Y-141948836D01*
X181570509Y-141904488D01*
X181599998Y-141874999D01*
X182100000Y-141874999D01*
X182181581Y-141874999D01*
X182252102Y-141868591D01*
X182252107Y-141868590D01*
X182414396Y-141818018D01*
X182559877Y-141730072D01*
X182680072Y-141609877D01*
X182768019Y-141464395D01*
X182818590Y-141302106D01*
X182825000Y-141231572D01*
X182825000Y-141225000D01*
X182100000Y-141225000D01*
X182100000Y-141874999D01*
X181599998Y-141874999D01*
X181600000Y-141874997D01*
X181600000Y-141099000D01*
X181619685Y-141031961D01*
X181672489Y-140986206D01*
X181724000Y-140975000D01*
X181850000Y-140975000D01*
X181850000Y-140949500D01*
X181869685Y-140882461D01*
X181922489Y-140836706D01*
X181974000Y-140825500D01*
X182448066Y-140825500D01*
X182539110Y-140807389D01*
X182583398Y-140798580D01*
X182710881Y-140745775D01*
X182825613Y-140669114D01*
X183269114Y-140225613D01*
X183345775Y-140110881D01*
X183398580Y-139983398D01*
X183425500Y-139848064D01*
X183425500Y-139710076D01*
X183425500Y-138231007D01*
X183425500Y-138231004D01*
X183425499Y-138231002D01*
X183398583Y-138095682D01*
X183398579Y-138095670D01*
X183396983Y-138091817D01*
X183396982Y-138091814D01*
X183369100Y-138024500D01*
X183345778Y-137968195D01*
X183345771Y-137968182D01*
X183269114Y-137853458D01*
X183269111Y-137853454D01*
X183261819Y-137846162D01*
X183228334Y-137784839D01*
X183225500Y-137758481D01*
X183225500Y-137568386D01*
X183219086Y-137497807D01*
X183219086Y-137497804D01*
X183168478Y-137335394D01*
X183080472Y-137189815D01*
X183080470Y-137189813D01*
X183080469Y-137189811D01*
X182960188Y-137069530D01*
X182814606Y-136981522D01*
X182663906Y-136934563D01*
X182652196Y-136930914D01*
X182652194Y-136930913D01*
X182652192Y-136930913D01*
X182602778Y-136926423D01*
X182581616Y-136924500D01*
X182068384Y-136924500D01*
X182049145Y-136926248D01*
X181997807Y-136930913D01*
X181835393Y-136981522D01*
X181689811Y-137069530D01*
X181689810Y-137069531D01*
X181587681Y-137171661D01*
X181526358Y-137205146D01*
X181456666Y-137200162D01*
X181412319Y-137171661D01*
X181310188Y-137069530D01*
X181164606Y-136981522D01*
X181013906Y-136934563D01*
X181002196Y-136930914D01*
X181002194Y-136930913D01*
X181002192Y-136930913D01*
X180952778Y-136926423D01*
X180931616Y-136924500D01*
X180931613Y-136924500D01*
X180741519Y-136924500D01*
X180674480Y-136904815D01*
X180653838Y-136888181D01*
X180246546Y-136480888D01*
X180246545Y-136480887D01*
X180131807Y-136404222D01*
X180004332Y-136351421D01*
X180004322Y-136351418D01*
X179868996Y-136324500D01*
X179868994Y-136324500D01*
X179868993Y-136324500D01*
X178606494Y-136324500D01*
X178468506Y-136324500D01*
X178468504Y-136324500D01*
X178333177Y-136351418D01*
X178333167Y-136351421D01*
X178205692Y-136404222D01*
X178090954Y-136480887D01*
X178090953Y-136480888D01*
X177683662Y-136888181D01*
X177622339Y-136921666D01*
X177595981Y-136924500D01*
X177395818Y-136924500D01*
X177297316Y-136934563D01*
X177297315Y-136934564D01*
X177218219Y-136960773D01*
X177137715Y-136987450D01*
X177137704Y-136987455D01*
X176994612Y-137075716D01*
X176994608Y-137075719D01*
X176875719Y-137194608D01*
X176875716Y-137194612D01*
X176787455Y-137337704D01*
X176787451Y-137337713D01*
X176734564Y-137497315D01*
X176734564Y-137497316D01*
X176734563Y-137497316D01*
X176724500Y-137595818D01*
X176724500Y-138204181D01*
X176734563Y-138302683D01*
X176787450Y-138462284D01*
X176787455Y-138462295D01*
X176875716Y-138605387D01*
X176875719Y-138605391D01*
X176906259Y-138635931D01*
X176939744Y-138697254D01*
X176934760Y-138766946D01*
X176906260Y-138811292D01*
X176869424Y-138848128D01*
X176869417Y-138848137D01*
X176785755Y-138989603D01*
X176785754Y-138989606D01*
X176739902Y-139147426D01*
X176739901Y-139147432D01*
X176737000Y-139184298D01*
X176737000Y-139615701D01*
X176739901Y-139652567D01*
X176739902Y-139652573D01*
X176785754Y-139810393D01*
X176785756Y-139810399D01*
X176786926Y-139812377D01*
X176787369Y-139814126D01*
X176788853Y-139817554D01*
X176788299Y-139817793D01*
X176804103Y-139880102D01*
X176788749Y-139932395D01*
X176789317Y-139932641D01*
X176787327Y-139937239D01*
X176786928Y-139938599D01*
X176786222Y-139939791D01*
X176786216Y-139939806D01*
X176740400Y-140097505D01*
X176740399Y-140097511D01*
X176740204Y-140099998D01*
X176740205Y-140100000D01*
X177005685Y-140100000D01*
X177068806Y-140117268D01*
X177127102Y-140151744D01*
X177168724Y-140163836D01*
X177284926Y-140197597D01*
X177284929Y-140197597D01*
X177284931Y-140197598D01*
X177321806Y-140200500D01*
X177321814Y-140200500D01*
X177776000Y-140200500D01*
X177784685Y-140203050D01*
X177793647Y-140201762D01*
X177817687Y-140212740D01*
X177843039Y-140220185D01*
X177848966Y-140227025D01*
X177857203Y-140230787D01*
X177871492Y-140253021D01*
X177888794Y-140272989D01*
X177891081Y-140283503D01*
X177894977Y-140289565D01*
X177900000Y-140324500D01*
X177900000Y-140375500D01*
X177880315Y-140442539D01*
X177827511Y-140488294D01*
X177776000Y-140499500D01*
X177321798Y-140499500D01*
X177284932Y-140502401D01*
X177284926Y-140502402D01*
X177127106Y-140548254D01*
X177127103Y-140548255D01*
X177068806Y-140582732D01*
X177005685Y-140600000D01*
X176716120Y-140600000D01*
X176710003Y-140603658D01*
X176640170Y-140601404D01*
X176591243Y-140571297D01*
X175636818Y-139616872D01*
X175603333Y-139555549D01*
X175600499Y-139529191D01*
X175600499Y-138724998D01*
X175600498Y-138724981D01*
X175589999Y-138622203D01*
X175589998Y-138622200D01*
X175572065Y-138568082D01*
X175534814Y-138455666D01*
X175442712Y-138306344D01*
X175318656Y-138182288D01*
X175194310Y-138105591D01*
X175169336Y-138090187D01*
X175169331Y-138090185D01*
X175148991Y-138083445D01*
X175002797Y-138035001D01*
X175002795Y-138035000D01*
X174900010Y-138024500D01*
X174099998Y-138024500D01*
X174099980Y-138024501D01*
X173997203Y-138035000D01*
X173997200Y-138035001D01*
X173830668Y-138090185D01*
X173830663Y-138090187D01*
X173681342Y-138182289D01*
X173557289Y-138306342D01*
X173517420Y-138370981D01*
X173465472Y-138417705D01*
X173396509Y-138428928D01*
X173332427Y-138401084D01*
X173324200Y-138393565D01*
X173216602Y-138285967D01*
X173076524Y-138184195D01*
X172922257Y-138105591D01*
X172757589Y-138052087D01*
X172757581Y-138052085D01*
X172750000Y-138050884D01*
X172750000Y-139119670D01*
X172730255Y-139099925D01*
X172644745Y-139050556D01*
X172549370Y-139025000D01*
X172450630Y-139025000D01*
X172355255Y-139050556D01*
X172269745Y-139099925D01*
X172250000Y-139119670D01*
X172250000Y-138050884D01*
X172249999Y-138050884D01*
X172242418Y-138052085D01*
X172242410Y-138052087D01*
X172077742Y-138105592D01*
X172030795Y-138129513D01*
X171962125Y-138142409D01*
X171897385Y-138116133D01*
X171857128Y-138059026D01*
X171850500Y-138019028D01*
X171850500Y-137283445D01*
X171821659Y-137138458D01*
X171821658Y-137138457D01*
X171821658Y-137138453D01*
X171793110Y-137069531D01*
X171765087Y-137001877D01*
X171765080Y-137001864D01*
X171682952Y-136878951D01*
X171682951Y-136878950D01*
X171578416Y-136774415D01*
X171286819Y-136482817D01*
X171253334Y-136421494D01*
X171250500Y-136395136D01*
X171250500Y-129624077D01*
X171270185Y-129557038D01*
X171322989Y-129511283D01*
X171392147Y-129501339D01*
X171455703Y-129530364D01*
X171489061Y-129576625D01*
X171566891Y-129764525D01*
X171566899Y-129764542D01*
X171694734Y-129985957D01*
X171694745Y-129985973D01*
X171850388Y-130188811D01*
X171850394Y-130188818D01*
X172031181Y-130369605D01*
X172031188Y-130369611D01*
X172078850Y-130406183D01*
X172234035Y-130525261D01*
X172234042Y-130525265D01*
X172455457Y-130653100D01*
X172455462Y-130653102D01*
X172455465Y-130653104D01*
X172691687Y-130750950D01*
X172938660Y-130817126D01*
X173192157Y-130850500D01*
X173192164Y-130850500D01*
X173447836Y-130850500D01*
X173447843Y-130850500D01*
X173701340Y-130817126D01*
X173948313Y-130750950D01*
X174184535Y-130653104D01*
X174405965Y-130525261D01*
X174608813Y-130369610D01*
X174789610Y-130188813D01*
X174945261Y-129985965D01*
X175073104Y-129764535D01*
X175170950Y-129528313D01*
X175237126Y-129281340D01*
X175270500Y-129027843D01*
X175270500Y-128813389D01*
X177719500Y-128813389D01*
X177719500Y-128986611D01*
X177746598Y-129157701D01*
X177800127Y-129322445D01*
X177878768Y-129476788D01*
X177980586Y-129616928D01*
X178103072Y-129739414D01*
X178243212Y-129841232D01*
X178397555Y-129919873D01*
X178562299Y-129973402D01*
X178733389Y-130000500D01*
X178733390Y-130000500D01*
X178906610Y-130000500D01*
X178906611Y-130000500D01*
X179077701Y-129973402D01*
X179242445Y-129919873D01*
X179396788Y-129841232D01*
X179536928Y-129739414D01*
X179659414Y-129616928D01*
X179761232Y-129476788D01*
X179839873Y-129322445D01*
X179893402Y-129157701D01*
X179920500Y-128986611D01*
X179920500Y-128813389D01*
X179893402Y-128642299D01*
X179839873Y-128477555D01*
X179761232Y-128323212D01*
X179659414Y-128183072D01*
X179536928Y-128060586D01*
X179396788Y-127958768D01*
X179242445Y-127880127D01*
X179077701Y-127826598D01*
X179077699Y-127826597D01*
X179077698Y-127826597D01*
X178946271Y-127805781D01*
X178906611Y-127799500D01*
X178733389Y-127799500D01*
X178693728Y-127805781D01*
X178562302Y-127826597D01*
X178397552Y-127880128D01*
X178243211Y-127958768D01*
X178163256Y-128016859D01*
X178103072Y-128060586D01*
X178103070Y-128060588D01*
X178103069Y-128060588D01*
X177980588Y-128183069D01*
X177980588Y-128183070D01*
X177980586Y-128183072D01*
X177951304Y-128223375D01*
X177878768Y-128323211D01*
X177800128Y-128477552D01*
X177746597Y-128642302D01*
X177722268Y-128795914D01*
X177719500Y-128813389D01*
X175270500Y-128813389D01*
X175270500Y-128772157D01*
X175237126Y-128518660D01*
X175170950Y-128271687D01*
X175073104Y-128035465D01*
X175073102Y-128035462D01*
X175073100Y-128035457D01*
X174945265Y-127814042D01*
X174945261Y-127814035D01*
X174789610Y-127611187D01*
X174789605Y-127611181D01*
X174608818Y-127430394D01*
X174608811Y-127430388D01*
X174405973Y-127274745D01*
X174405971Y-127274743D01*
X174405965Y-127274739D01*
X174405960Y-127274736D01*
X174405957Y-127274734D01*
X174184542Y-127146899D01*
X174184531Y-127146894D01*
X173948322Y-127049053D01*
X173948315Y-127049051D01*
X173948313Y-127049050D01*
X173701340Y-126982874D01*
X173645007Y-126975457D01*
X173447850Y-126949500D01*
X173447843Y-126949500D01*
X173192157Y-126949500D01*
X173192149Y-126949500D01*
X172966826Y-126979165D01*
X172938660Y-126982874D01*
X172691687Y-127049050D01*
X172691677Y-127049053D01*
X172455468Y-127146894D01*
X172455457Y-127146899D01*
X172234042Y-127274734D01*
X172234026Y-127274745D01*
X172031188Y-127430388D01*
X172031181Y-127430394D01*
X171850394Y-127611181D01*
X171850388Y-127611188D01*
X171694745Y-127814026D01*
X171694734Y-127814042D01*
X171566899Y-128035457D01*
X171566894Y-128035468D01*
X171489061Y-128223375D01*
X171445220Y-128277778D01*
X171378926Y-128299843D01*
X171311227Y-128282564D01*
X171263616Y-128231427D01*
X171250500Y-128175922D01*
X171250500Y-124974038D01*
X176719500Y-124974038D01*
X176719500Y-125225961D01*
X176758910Y-125474785D01*
X176836760Y-125714383D01*
X176894148Y-125827011D01*
X176936433Y-125910001D01*
X176951132Y-125938848D01*
X177099201Y-126142649D01*
X177099205Y-126142654D01*
X177277345Y-126320794D01*
X177277350Y-126320798D01*
X177455117Y-126449952D01*
X177481155Y-126468870D01*
X177624184Y-126541747D01*
X177705616Y-126583239D01*
X177705618Y-126583239D01*
X177705621Y-126583241D01*
X177945215Y-126661090D01*
X178194038Y-126700500D01*
X178194039Y-126700500D01*
X178445961Y-126700500D01*
X178445962Y-126700500D01*
X178694785Y-126661090D01*
X178934379Y-126583241D01*
X179158845Y-126468870D01*
X179362656Y-126320793D01*
X179540793Y-126142656D01*
X179688870Y-125938845D01*
X179803241Y-125714379D01*
X179881090Y-125474785D01*
X179920500Y-125225962D01*
X179920500Y-124974038D01*
X179881090Y-124725215D01*
X179803241Y-124485621D01*
X179803239Y-124485618D01*
X179803239Y-124485616D01*
X179743535Y-124368442D01*
X179688870Y-124261155D01*
X179669952Y-124235117D01*
X179540798Y-124057350D01*
X179540794Y-124057345D01*
X179362654Y-123879205D01*
X179362649Y-123879201D01*
X179158848Y-123731132D01*
X179158847Y-123731131D01*
X179158845Y-123731130D01*
X179044953Y-123673099D01*
X178934383Y-123616760D01*
X178694785Y-123538910D01*
X178445962Y-123499500D01*
X178194038Y-123499500D01*
X178069626Y-123519205D01*
X177945214Y-123538910D01*
X177705616Y-123616760D01*
X177481151Y-123731132D01*
X177277350Y-123879201D01*
X177277345Y-123879205D01*
X177099205Y-124057345D01*
X177099201Y-124057350D01*
X176951132Y-124261151D01*
X176836760Y-124485616D01*
X176758910Y-124725214D01*
X176719500Y-124974038D01*
X171250500Y-124974038D01*
X171250500Y-122874071D01*
X171720000Y-122874071D01*
X171720000Y-123125928D01*
X171759397Y-123374669D01*
X171837219Y-123614184D01*
X171951557Y-123838583D01*
X172025748Y-123940697D01*
X172025748Y-123940698D01*
X172680690Y-123285756D01*
X172699668Y-123331574D01*
X172776274Y-123446224D01*
X172873776Y-123543726D01*
X172988426Y-123620332D01*
X173034242Y-123639309D01*
X172379300Y-124294250D01*
X172481416Y-124368442D01*
X172705815Y-124482780D01*
X172945330Y-124560602D01*
X173194072Y-124600000D01*
X173445928Y-124600000D01*
X173694669Y-124560602D01*
X173934184Y-124482780D01*
X174158575Y-124368446D01*
X174158581Y-124368442D01*
X174260697Y-124294250D01*
X174260698Y-124294250D01*
X173605757Y-123639309D01*
X173651574Y-123620332D01*
X173766224Y-123543726D01*
X173863726Y-123446224D01*
X173940332Y-123331574D01*
X173959309Y-123285757D01*
X174614250Y-123940698D01*
X174614250Y-123940697D01*
X174688442Y-123838581D01*
X174688446Y-123838575D01*
X174802780Y-123614184D01*
X174880602Y-123374669D01*
X174920000Y-123125928D01*
X174920000Y-122874071D01*
X174880602Y-122625330D01*
X174802780Y-122385815D01*
X174688442Y-122161416D01*
X174614250Y-122059301D01*
X174614250Y-122059300D01*
X173959309Y-122714241D01*
X173940332Y-122668426D01*
X173863726Y-122553776D01*
X173766224Y-122456274D01*
X173651574Y-122379668D01*
X173605755Y-122360689D01*
X174260698Y-121705748D01*
X174158583Y-121631557D01*
X173934184Y-121517219D01*
X173694669Y-121439397D01*
X173445928Y-121400000D01*
X173194072Y-121400000D01*
X172945328Y-121439397D01*
X172714889Y-121514270D01*
X172623776Y-121559019D01*
X172481415Y-121631557D01*
X172379301Y-121705747D01*
X172379300Y-121705748D01*
X173034242Y-122360690D01*
X172988426Y-122379668D01*
X172873776Y-122456274D01*
X172776274Y-122553776D01*
X172699668Y-122668426D01*
X172680690Y-122714242D01*
X172025748Y-122059300D01*
X172025747Y-122059301D01*
X171951559Y-122161413D01*
X171837219Y-122385815D01*
X171759397Y-122625330D01*
X171720000Y-122874071D01*
X171250500Y-122874071D01*
X171250500Y-121022902D01*
X171270185Y-120955863D01*
X171322989Y-120910108D01*
X171392147Y-120900164D01*
X171455703Y-120929189D01*
X171489062Y-120975451D01*
X171490605Y-120979178D01*
X171490609Y-120979185D01*
X171578210Y-121110288D01*
X171578213Y-121110292D01*
X171689707Y-121221786D01*
X171689711Y-121221789D01*
X171820814Y-121309390D01*
X171820827Y-121309397D01*
X171966498Y-121369735D01*
X171966503Y-121369737D01*
X172118644Y-121400000D01*
X172121153Y-121400499D01*
X172121156Y-121400500D01*
X172121158Y-121400500D01*
X172278844Y-121400500D01*
X172278845Y-121400499D01*
X172433497Y-121369737D01*
X172579179Y-121309394D01*
X172710289Y-121221789D01*
X172821789Y-121110289D01*
X172909394Y-120979179D01*
X172969737Y-120833497D01*
X173000500Y-120678842D01*
X173000500Y-120521158D01*
X173000500Y-120521155D01*
X173000499Y-120521153D01*
X172969738Y-120366510D01*
X172969737Y-120366503D01*
X172969735Y-120366498D01*
X172909397Y-120220827D01*
X172909390Y-120220814D01*
X172821789Y-120089711D01*
X172821786Y-120089707D01*
X172773729Y-120041650D01*
X172740244Y-119980327D01*
X172745228Y-119910635D01*
X172787100Y-119854702D01*
X172852564Y-119830285D01*
X172899728Y-119836038D01*
X172975331Y-119860602D01*
X173224072Y-119900000D01*
X173475928Y-119900000D01*
X173724669Y-119860602D01*
X173964184Y-119782780D01*
X174188575Y-119668446D01*
X174188581Y-119668442D01*
X174290697Y-119594250D01*
X174290698Y-119594250D01*
X173635757Y-118939309D01*
X173681574Y-118920332D01*
X173796224Y-118843726D01*
X173893726Y-118746224D01*
X173970332Y-118631574D01*
X173989309Y-118585757D01*
X174644250Y-119240698D01*
X174644250Y-119240697D01*
X174718442Y-119138581D01*
X174718446Y-119138575D01*
X174832780Y-118914184D01*
X174910602Y-118674669D01*
X174950000Y-118425928D01*
X174950000Y-118174071D01*
X174910602Y-117925330D01*
X174832780Y-117685815D01*
X174718442Y-117461416D01*
X174644250Y-117359301D01*
X174644250Y-117359300D01*
X173989309Y-118014241D01*
X173970332Y-117968426D01*
X173893726Y-117853776D01*
X173796224Y-117756274D01*
X173681574Y-117679668D01*
X173635756Y-117660689D01*
X174290698Y-117005748D01*
X174188583Y-116931557D01*
X173964184Y-116817219D01*
X173724669Y-116739397D01*
X173475928Y-116700000D01*
X173224072Y-116700000D01*
X172975330Y-116739397D01*
X172735815Y-116817219D01*
X172530795Y-116921683D01*
X172462126Y-116934579D01*
X172397385Y-116908303D01*
X172357128Y-116851196D01*
X172350500Y-116811198D01*
X172350500Y-116385928D01*
X172325502Y-116260261D01*
X172325501Y-116260260D01*
X172325501Y-116260256D01*
X172276465Y-116141873D01*
X172205277Y-116035331D01*
X172205275Y-116035329D01*
X172205273Y-116035326D01*
X171936819Y-115766872D01*
X171903334Y-115705549D01*
X171900500Y-115679191D01*
X171900500Y-113997758D01*
X171920185Y-113930719D01*
X171972989Y-113884964D01*
X172042147Y-113875020D01*
X172099986Y-113899382D01*
X172228192Y-113997758D01*
X172264035Y-114025261D01*
X172264042Y-114025265D01*
X172485457Y-114153100D01*
X172485462Y-114153102D01*
X172485465Y-114153104D01*
X172721687Y-114250950D01*
X172968660Y-114317126D01*
X173222157Y-114350500D01*
X173222164Y-114350500D01*
X173477836Y-114350500D01*
X173477843Y-114350500D01*
X173731340Y-114317126D01*
X173978313Y-114250950D01*
X174214535Y-114153104D01*
X174435965Y-114025261D01*
X174638813Y-113869610D01*
X174819610Y-113688813D01*
X174975261Y-113485965D01*
X175103104Y-113264535D01*
X175200950Y-113028313D01*
X175267126Y-112781340D01*
X175300500Y-112527843D01*
X175300500Y-112313389D01*
X177749500Y-112313389D01*
X177749500Y-112486610D01*
X177774163Y-112642331D01*
X177776598Y-112657701D01*
X177830127Y-112822445D01*
X177908768Y-112976788D01*
X178010586Y-113116928D01*
X178133072Y-113239414D01*
X178273212Y-113341232D01*
X178427555Y-113419873D01*
X178592299Y-113473402D01*
X178763389Y-113500500D01*
X178763390Y-113500500D01*
X178936610Y-113500500D01*
X178936611Y-113500500D01*
X179107701Y-113473402D01*
X179272445Y-113419873D01*
X179426788Y-113341232D01*
X179566928Y-113239414D01*
X179689414Y-113116928D01*
X179791232Y-112976788D01*
X179869873Y-112822445D01*
X179923402Y-112657701D01*
X179950500Y-112486611D01*
X179950500Y-112313389D01*
X179923402Y-112142299D01*
X179869873Y-111977555D01*
X179791232Y-111823212D01*
X179689414Y-111683072D01*
X179566928Y-111560586D01*
X179426788Y-111458768D01*
X179272445Y-111380127D01*
X179107701Y-111326598D01*
X179107699Y-111326597D01*
X179107698Y-111326597D01*
X179073058Y-111321111D01*
X178984008Y-111307007D01*
X178936611Y-111299500D01*
X178763389Y-111299500D01*
X178723728Y-111305781D01*
X178592302Y-111326597D01*
X178427552Y-111380128D01*
X178273211Y-111458768D01*
X178216461Y-111500000D01*
X178133072Y-111560586D01*
X178133070Y-111560588D01*
X178133069Y-111560588D01*
X178010588Y-111683069D01*
X178010588Y-111683070D01*
X178010586Y-111683072D01*
X177966859Y-111743256D01*
X177908768Y-111823211D01*
X177830128Y-111977552D01*
X177776597Y-112142302D01*
X177749500Y-112313389D01*
X175300500Y-112313389D01*
X175300500Y-112272157D01*
X175267126Y-112018660D01*
X175200950Y-111771687D01*
X175103104Y-111535465D01*
X175103102Y-111535462D01*
X175103100Y-111535457D01*
X174975265Y-111314042D01*
X174975261Y-111314035D01*
X174819610Y-111111187D01*
X174819605Y-111111181D01*
X174638818Y-110930394D01*
X174638811Y-110930388D01*
X174435973Y-110774745D01*
X174435971Y-110774743D01*
X174435965Y-110774739D01*
X174435960Y-110774736D01*
X174435957Y-110774734D01*
X174214542Y-110646899D01*
X174214531Y-110646894D01*
X173978322Y-110549053D01*
X173978315Y-110549051D01*
X173978313Y-110549050D01*
X173731340Y-110482874D01*
X173675007Y-110475457D01*
X173477850Y-110449500D01*
X173477843Y-110449500D01*
X173222157Y-110449500D01*
X173222149Y-110449500D01*
X172996826Y-110479165D01*
X172968660Y-110482874D01*
X172904745Y-110500000D01*
X172721687Y-110549050D01*
X172721677Y-110549053D01*
X172485468Y-110646894D01*
X172485457Y-110646899D01*
X172264042Y-110774734D01*
X172264026Y-110774745D01*
X172099986Y-110900617D01*
X172034817Y-110925811D01*
X171966372Y-110911772D01*
X171916382Y-110862958D01*
X171900500Y-110802241D01*
X171900500Y-109185928D01*
X171875502Y-109060261D01*
X171875501Y-109060260D01*
X171875501Y-109060256D01*
X171826465Y-108941873D01*
X171817425Y-108928343D01*
X171817424Y-108928341D01*
X171817424Y-108928340D01*
X171755278Y-108835332D01*
X171755272Y-108835325D01*
X171036175Y-108116228D01*
X177719500Y-108116228D01*
X177719500Y-108283771D01*
X177752182Y-108448074D01*
X177752184Y-108448082D01*
X177816295Y-108602860D01*
X177909373Y-108742162D01*
X178027837Y-108860626D01*
X178120494Y-108922537D01*
X178167137Y-108953703D01*
X178321918Y-109017816D01*
X178486228Y-109050499D01*
X178486232Y-109050500D01*
X178486233Y-109050500D01*
X178653768Y-109050500D01*
X178653769Y-109050499D01*
X178818082Y-109017816D01*
X178972863Y-108953703D01*
X179112162Y-108860626D01*
X179230626Y-108742162D01*
X179323703Y-108602863D01*
X179387816Y-108448082D01*
X179420500Y-108283767D01*
X179420500Y-108116233D01*
X179387816Y-107951918D01*
X179323703Y-107797137D01*
X179291149Y-107748417D01*
X179230626Y-107657837D01*
X179112162Y-107539373D01*
X178972860Y-107446295D01*
X178818082Y-107382184D01*
X178818074Y-107382182D01*
X178653771Y-107349500D01*
X178653767Y-107349500D01*
X178486233Y-107349500D01*
X178486228Y-107349500D01*
X178321925Y-107382182D01*
X178321917Y-107382184D01*
X178167139Y-107446295D01*
X178027837Y-107539373D01*
X177909373Y-107657837D01*
X177816295Y-107797139D01*
X177752184Y-107951917D01*
X177752182Y-107951925D01*
X177719500Y-108116228D01*
X171036175Y-108116228D01*
X166214673Y-103294726D01*
X166214669Y-103294723D01*
X166108127Y-103223535D01*
X165989744Y-103174499D01*
X165989738Y-103174497D01*
X165864071Y-103149500D01*
X165864069Y-103149500D01*
X164824000Y-103149500D01*
X164815314Y-103146949D01*
X164806353Y-103148238D01*
X164782312Y-103137259D01*
X164756961Y-103129815D01*
X164751033Y-103122974D01*
X164742797Y-103119213D01*
X164728507Y-103096978D01*
X164711206Y-103077011D01*
X164708918Y-103066496D01*
X164705023Y-103060435D01*
X164700000Y-103025500D01*
X164700000Y-102874000D01*
X164719685Y-102806961D01*
X164772489Y-102761206D01*
X164824000Y-102750000D01*
X165950000Y-102750000D01*
X165950000Y-102502172D01*
X165949999Y-102502155D01*
X165943598Y-102442627D01*
X165943597Y-102442623D01*
X165890253Y-102299602D01*
X165892067Y-102298925D01*
X165879616Y-102241674D01*
X165891570Y-102200966D01*
X165890696Y-102200640D01*
X165893794Y-102192333D01*
X165893796Y-102192331D01*
X165944091Y-102057483D01*
X165950500Y-101997873D01*
X165950499Y-101002128D01*
X165944091Y-100942517D01*
X165893796Y-100807669D01*
X165893794Y-100807666D01*
X165890696Y-100799360D01*
X165892426Y-100798714D01*
X165879902Y-100741163D01*
X165891691Y-100701011D01*
X165890696Y-100700640D01*
X165893794Y-100692333D01*
X165893796Y-100692331D01*
X165944091Y-100557483D01*
X165950500Y-100497873D01*
X165950499Y-99502128D01*
X165944091Y-99442517D01*
X165893796Y-99307669D01*
X165893794Y-99307666D01*
X165890696Y-99299360D01*
X165892426Y-99298714D01*
X165879902Y-99241163D01*
X165891691Y-99201011D01*
X165890696Y-99200640D01*
X165893794Y-99192333D01*
X165893796Y-99192331D01*
X165944091Y-99057483D01*
X165950500Y-98997873D01*
X165950499Y-98002128D01*
X165944091Y-97942517D01*
X165944089Y-97942513D01*
X165943152Y-97938542D01*
X165943322Y-97935364D01*
X165943262Y-97934804D01*
X165943352Y-97934794D01*
X165946891Y-97868772D01*
X165987757Y-97812100D01*
X166039637Y-97788407D01*
X166133497Y-97769737D01*
X166279179Y-97709394D01*
X166410289Y-97621789D01*
X166521789Y-97510289D01*
X166609394Y-97379179D01*
X166669737Y-97233497D01*
X166700500Y-97078842D01*
X166700500Y-96921158D01*
X166700500Y-96921155D01*
X166700499Y-96921153D01*
X166669738Y-96766510D01*
X166669737Y-96766503D01*
X166669735Y-96766498D01*
X166609397Y-96620827D01*
X166609390Y-96620814D01*
X166521789Y-96489711D01*
X166521786Y-96489707D01*
X166410292Y-96378213D01*
X166410288Y-96378210D01*
X166342920Y-96333196D01*
X166298115Y-96279584D01*
X166289408Y-96210259D01*
X166319562Y-96147231D01*
X166364356Y-96115533D01*
X166379179Y-96109394D01*
X166510289Y-96021789D01*
X166621789Y-95910289D01*
X166709394Y-95779179D01*
X166769737Y-95633497D01*
X166800500Y-95478842D01*
X166800500Y-95321158D01*
X166800500Y-95321155D01*
X166800499Y-95321153D01*
X166769738Y-95166510D01*
X166769737Y-95166503D01*
X166769735Y-95166498D01*
X166709397Y-95020827D01*
X166709390Y-95020814D01*
X166621789Y-94889711D01*
X166621786Y-94889707D01*
X166569760Y-94837681D01*
X166536275Y-94776358D01*
X166541259Y-94706666D01*
X166569760Y-94662319D01*
X166621786Y-94610292D01*
X166621789Y-94610289D01*
X166709394Y-94479179D01*
X166769737Y-94333497D01*
X166800500Y-94178842D01*
X166800500Y-94021158D01*
X166800500Y-94021155D01*
X166800499Y-94021153D01*
X166769738Y-93866510D01*
X166769737Y-93866503D01*
X166769735Y-93866498D01*
X166709397Y-93720827D01*
X166709390Y-93720814D01*
X166621789Y-93589711D01*
X166621786Y-93589707D01*
X166510292Y-93478213D01*
X166510288Y-93478210D01*
X166397881Y-93403102D01*
X166353076Y-93349490D01*
X166344369Y-93280165D01*
X166374523Y-93217137D01*
X166397881Y-93196898D01*
X166431981Y-93174112D01*
X166510289Y-93121789D01*
X166621789Y-93010289D01*
X166709394Y-92879179D01*
X166769737Y-92733497D01*
X166800500Y-92578842D01*
X166800500Y-92421158D01*
X166800500Y-92421155D01*
X166800499Y-92421153D01*
X166769738Y-92266510D01*
X166769737Y-92266503D01*
X166769735Y-92266498D01*
X166709397Y-92120827D01*
X166709390Y-92120814D01*
X166621789Y-91989711D01*
X166621786Y-91989707D01*
X166510292Y-91878213D01*
X166510288Y-91878210D01*
X166410296Y-91811397D01*
X166365491Y-91757785D01*
X166356784Y-91688460D01*
X166386939Y-91625432D01*
X166410293Y-91605194D01*
X166460289Y-91571789D01*
X166571789Y-91460289D01*
X166659394Y-91329179D01*
X166719737Y-91183497D01*
X166750500Y-91028842D01*
X166750500Y-90871158D01*
X166750500Y-90871155D01*
X166750499Y-90871153D01*
X166730810Y-90772172D01*
X166719737Y-90716503D01*
X166714349Y-90703494D01*
X166659397Y-90570827D01*
X166659390Y-90570814D01*
X166571789Y-90439711D01*
X166571786Y-90439707D01*
X166494261Y-90362182D01*
X166460776Y-90300859D01*
X166465760Y-90231167D01*
X166507632Y-90175234D01*
X166573096Y-90150817D01*
X166581942Y-90150501D01*
X180886230Y-90150501D01*
X180915666Y-90159144D01*
G37*
%TD.AperFunction*%
%TA.AperFunction,Conductor*%
G36*
X179299844Y-151852668D02*
G01*
X179348191Y-151885358D01*
X179355974Y-151893904D01*
X179377032Y-151928044D01*
X179489368Y-152040380D01*
X179491306Y-152042508D01*
X179505388Y-152071432D01*
X179520792Y-152099642D01*
X179520578Y-152102631D01*
X179521891Y-152105328D01*
X179518101Y-152137263D01*
X179515808Y-152169334D01*
X179514011Y-152171734D01*
X179513658Y-152174711D01*
X179493209Y-152199521D01*
X179473936Y-152225267D01*
X179471126Y-152226314D01*
X179469220Y-152228628D01*
X179438606Y-152238444D01*
X179408472Y-152249684D01*
X179402937Y-152249881D01*
X179402687Y-152249962D01*
X179402451Y-152249899D01*
X179399626Y-152250000D01*
X179352157Y-152250000D01*
X179292627Y-152256401D01*
X179292622Y-152256402D01*
X179280000Y-152261110D01*
X179280000Y-152276000D01*
X179260315Y-152343039D01*
X179207511Y-152388794D01*
X179156000Y-152400000D01*
X178450000Y-152400000D01*
X178450000Y-151900000D01*
X179149999Y-151900000D01*
X179168829Y-151881170D01*
X179230152Y-151847684D01*
X179299844Y-151852668D01*
G37*
%TD.AperFunction*%
%TA.AperFunction,Conductor*%
G36*
X165953840Y-140511956D02*
G01*
X165963120Y-140514216D01*
X165981089Y-140521659D01*
X166049825Y-140535331D01*
X166052358Y-140535948D01*
X166056592Y-140538397D01*
X166086137Y-140549695D01*
X166089602Y-140551744D01*
X166089607Y-140551745D01*
X166089608Y-140551746D01*
X166247426Y-140597597D01*
X166247429Y-140597597D01*
X166247431Y-140597598D01*
X166284306Y-140600500D01*
X167175162Y-140600500D01*
X167242201Y-140620185D01*
X167287956Y-140672989D01*
X167289715Y-140677029D01*
X167290606Y-140679179D01*
X167290607Y-140679180D01*
X167290609Y-140679185D01*
X167378210Y-140810288D01*
X167378213Y-140810292D01*
X167489707Y-140921786D01*
X167489711Y-140921789D01*
X167620814Y-141009390D01*
X167620827Y-141009397D01*
X167748599Y-141062321D01*
X167766503Y-141069737D01*
X167866431Y-141089614D01*
X167921153Y-141100499D01*
X167921156Y-141100500D01*
X167921158Y-141100500D01*
X168078844Y-141100500D01*
X168078845Y-141100499D01*
X168233497Y-141069737D01*
X168379179Y-141009394D01*
X168510289Y-140921789D01*
X168621789Y-140810289D01*
X168709394Y-140679179D01*
X168710275Y-140677049D01*
X168711035Y-140676106D01*
X168712264Y-140673809D01*
X168712699Y-140674041D01*
X168754115Y-140622646D01*
X168820408Y-140600579D01*
X168824838Y-140600500D01*
X169525500Y-140600500D01*
X169592539Y-140620185D01*
X169638294Y-140672989D01*
X169649500Y-140724500D01*
X169649500Y-145371234D01*
X169649500Y-145371236D01*
X169649499Y-145371236D01*
X169678340Y-145516223D01*
X169678343Y-145516233D01*
X169734914Y-145652808D01*
X169734915Y-145652810D01*
X169734916Y-145652811D01*
X169762379Y-145693913D01*
X169767812Y-145702043D01*
X169767813Y-145702046D01*
X169817046Y-145775730D01*
X169817047Y-145775731D01*
X169817048Y-145775732D01*
X169928358Y-145887041D01*
X169961842Y-145948363D01*
X169956858Y-146018055D01*
X169928359Y-146062401D01*
X169912321Y-146078439D01*
X169912313Y-146078449D01*
X169828717Y-146219803D01*
X169828716Y-146219806D01*
X169782900Y-146377504D01*
X169782898Y-146377517D01*
X169782511Y-146382436D01*
X169760000Y-146441485D01*
X169760000Y-147253011D01*
X169750060Y-147235795D01*
X169694205Y-147179940D01*
X169625796Y-147140444D01*
X169549496Y-147120000D01*
X169470504Y-147120000D01*
X169394204Y-147140444D01*
X169325795Y-147179940D01*
X169269940Y-147235795D01*
X169260000Y-147253011D01*
X169260000Y-146450136D01*
X169259999Y-146450135D01*
X169218316Y-146458427D01*
X169218308Y-146458429D01*
X169036328Y-146533807D01*
X169036315Y-146533814D01*
X168872537Y-146643248D01*
X168872533Y-146643251D01*
X168855000Y-146660784D01*
X168855000Y-146751000D01*
X168835315Y-146818039D01*
X168782511Y-146863794D01*
X168731000Y-146875000D01*
X167874000Y-146875000D01*
X167806961Y-146855315D01*
X167761206Y-146802511D01*
X167750000Y-146751000D01*
X167750000Y-146625000D01*
X167624000Y-146625000D01*
X167556961Y-146605315D01*
X167511206Y-146552511D01*
X167500000Y-146501000D01*
X167500000Y-146375000D01*
X168000000Y-146375000D01*
X168724999Y-146375000D01*
X168724999Y-146351692D01*
X168724998Y-146351677D01*
X168714855Y-146252392D01*
X168661547Y-146091518D01*
X168661542Y-146091507D01*
X168572575Y-145947271D01*
X168572572Y-145947267D01*
X168452732Y-145827427D01*
X168452728Y-145827424D01*
X168308492Y-145738457D01*
X168308481Y-145738452D01*
X168147606Y-145685144D01*
X168048322Y-145675000D01*
X168000000Y-145675000D01*
X168000000Y-146375000D01*
X167500000Y-146375000D01*
X167500000Y-145675000D01*
X167499999Y-145674999D01*
X167451693Y-145675000D01*
X167451675Y-145675001D01*
X167352392Y-145685144D01*
X167191518Y-145738452D01*
X167191507Y-145738457D01*
X167047271Y-145827424D01*
X167047267Y-145827427D01*
X166927426Y-145947268D01*
X166878599Y-146026429D01*
X166826651Y-146073153D01*
X166757688Y-146084374D01*
X166693606Y-146056530D01*
X166685380Y-146049012D01*
X165836819Y-145200451D01*
X165803334Y-145139128D01*
X165800500Y-145112770D01*
X165800500Y-140632435D01*
X165820185Y-140565396D01*
X165872989Y-140519641D01*
X165942147Y-140509697D01*
X165953840Y-140511956D01*
G37*
%TD.AperFunction*%
%TA.AperFunction,Conductor*%
G36*
X174903165Y-140776892D02*
G01*
X174965756Y-140791840D01*
X174991822Y-140811768D01*
X175985325Y-141805272D01*
X175985332Y-141805278D01*
X176043451Y-141844111D01*
X176043453Y-141844112D01*
X176043456Y-141844114D01*
X176091873Y-141876465D01*
X176210256Y-141925501D01*
X176210260Y-141925501D01*
X176210261Y-141925502D01*
X176335928Y-141950500D01*
X176335931Y-141950500D01*
X176464069Y-141950500D01*
X176921984Y-141950500D01*
X176985105Y-141967768D01*
X177045667Y-142003583D01*
X177127102Y-142051744D01*
X177168724Y-142063836D01*
X177284926Y-142097597D01*
X177284929Y-142097597D01*
X177284931Y-142097598D01*
X177321806Y-142100500D01*
X177658481Y-142100500D01*
X177725520Y-142120185D01*
X177746162Y-142136819D01*
X178029490Y-142420147D01*
X178062975Y-142481470D01*
X178057991Y-142551162D01*
X178029491Y-142595509D01*
X178000000Y-142625000D01*
X178000000Y-143451000D01*
X177980315Y-143518039D01*
X177927511Y-143563794D01*
X177876000Y-143575000D01*
X177624000Y-143575000D01*
X177556961Y-143555315D01*
X177511206Y-143502511D01*
X177500000Y-143451000D01*
X177500000Y-142625000D01*
X177499999Y-142624999D01*
X177451693Y-142625000D01*
X177451675Y-142625001D01*
X177352392Y-142635144D01*
X177184661Y-142690725D01*
X177184120Y-142689093D01*
X177123964Y-142698219D01*
X177060186Y-142669687D01*
X177052979Y-142663029D01*
X176959877Y-142569927D01*
X176814395Y-142481980D01*
X176814396Y-142481980D01*
X176652105Y-142431409D01*
X176652106Y-142431409D01*
X176581572Y-142425000D01*
X176500000Y-142425000D01*
X176500000Y-143201000D01*
X176480315Y-143268039D01*
X176427511Y-143313794D01*
X176376000Y-143325000D01*
X176250000Y-143325000D01*
X176250000Y-143350500D01*
X176230315Y-143417539D01*
X176177511Y-143463294D01*
X176126000Y-143474500D01*
X174806004Y-143474500D01*
X174670677Y-143501418D01*
X174670667Y-143501421D01*
X174543192Y-143554222D01*
X174428458Y-143630885D01*
X174428455Y-143630887D01*
X174255413Y-143803929D01*
X174215184Y-143830809D01*
X174070827Y-143890602D01*
X174070814Y-143890609D01*
X173939711Y-143978210D01*
X173939707Y-143978213D01*
X173828213Y-144089707D01*
X173828210Y-144089711D01*
X173740609Y-144220814D01*
X173740602Y-144220827D01*
X173680264Y-144366498D01*
X173680261Y-144366510D01*
X173649500Y-144521153D01*
X173649500Y-144678846D01*
X173680261Y-144833489D01*
X173680264Y-144833501D01*
X173717302Y-144922919D01*
X173724771Y-144992388D01*
X173693495Y-145054867D01*
X173671632Y-145073473D01*
X173589710Y-145128210D01*
X173478213Y-145239707D01*
X173478210Y-145239711D01*
X173390609Y-145370814D01*
X173390601Y-145370828D01*
X173384702Y-145385071D01*
X173374859Y-145397283D01*
X173369371Y-145411976D01*
X173353385Y-145423929D01*
X173340859Y-145439473D01*
X173325976Y-145444425D01*
X173313416Y-145453818D01*
X173293505Y-145455231D01*
X173274564Y-145461535D01*
X173259366Y-145457655D01*
X173243722Y-145458766D01*
X173226207Y-145449190D01*
X173206865Y-145444253D01*
X173195367Y-145432330D01*
X173182416Y-145425250D01*
X173168629Y-145404605D01*
X173161280Y-145396984D01*
X173158114Y-145391179D01*
X173134312Y-145333715D01*
X173093307Y-145272347D01*
X173090637Y-145267451D01*
X173084362Y-145238534D01*
X173075520Y-145210295D01*
X173075500Y-145208081D01*
X173075500Y-144893386D01*
X173070058Y-144833501D01*
X173069086Y-144822804D01*
X173018478Y-144660394D01*
X172930472Y-144514815D01*
X172930470Y-144514813D01*
X172930469Y-144514811D01*
X172827984Y-144412326D01*
X172794499Y-144351003D01*
X172799483Y-144281311D01*
X172827985Y-144236963D01*
X172930071Y-144134878D01*
X172930072Y-144134877D01*
X173018019Y-143989395D01*
X173068590Y-143827106D01*
X173075000Y-143756572D01*
X173075000Y-143750000D01*
X172224000Y-143750000D01*
X172156961Y-143730315D01*
X172111206Y-143677511D01*
X172100000Y-143626000D01*
X172100000Y-143500000D01*
X171974000Y-143500000D01*
X171906961Y-143480315D01*
X171861206Y-143427511D01*
X171850000Y-143376000D01*
X171850000Y-143250000D01*
X172350000Y-143250000D01*
X173074999Y-143250000D01*
X173074999Y-143243417D01*
X173068591Y-143172897D01*
X173068590Y-143172892D01*
X173046657Y-143102506D01*
X173046656Y-143102504D01*
X173036037Y-143068427D01*
X175275000Y-143068427D01*
X175275000Y-143075000D01*
X176000000Y-143075000D01*
X176000000Y-142425000D01*
X175999999Y-142424999D01*
X175918417Y-142425000D01*
X175847897Y-142431408D01*
X175847892Y-142431409D01*
X175685603Y-142481981D01*
X175540122Y-142569927D01*
X175419927Y-142690122D01*
X175331980Y-142835604D01*
X175281409Y-142997893D01*
X175275000Y-143068427D01*
X173036037Y-143068427D01*
X173018019Y-143010604D01*
X172930072Y-142865122D01*
X172809877Y-142744927D01*
X172664395Y-142656980D01*
X172664396Y-142656980D01*
X172502105Y-142606409D01*
X172502106Y-142606409D01*
X172431572Y-142600000D01*
X172350000Y-142600000D01*
X172350000Y-143250000D01*
X171850000Y-143250000D01*
X171850000Y-142600000D01*
X171849999Y-142599999D01*
X171768417Y-142600000D01*
X171697897Y-142606408D01*
X171697892Y-142606409D01*
X171535603Y-142656981D01*
X171390122Y-142744927D01*
X171390121Y-142744928D01*
X171362181Y-142772869D01*
X171300858Y-142806354D01*
X171231166Y-142801370D01*
X171175233Y-142759498D01*
X171150816Y-142694034D01*
X171150500Y-142685188D01*
X171150500Y-141171153D01*
X171156738Y-141149907D01*
X171158318Y-141127819D01*
X171166390Y-141117035D01*
X171170185Y-141104114D01*
X171186918Y-141089614D01*
X171200190Y-141071886D01*
X171212810Y-141067178D01*
X171222989Y-141058359D01*
X171244906Y-141055207D01*
X171265654Y-141047469D01*
X171278814Y-141050331D01*
X171292147Y-141048415D01*
X171312290Y-141057614D01*
X171333927Y-141062321D01*
X171351652Y-141075589D01*
X171355703Y-141077440D01*
X171362181Y-141083472D01*
X171482125Y-141203416D01*
X171586660Y-141307951D01*
X171586663Y-141307953D01*
X171586664Y-141307954D01*
X171709579Y-141390083D01*
X171709582Y-141390085D01*
X171759741Y-141410861D01*
X171766156Y-141413518D01*
X171846164Y-141446659D01*
X171962317Y-141469763D01*
X171985456Y-141474365D01*
X171991157Y-141475500D01*
X171991158Y-141475500D01*
X173248920Y-141475500D01*
X173346462Y-141456096D01*
X173393913Y-141446658D01*
X173530495Y-141390084D01*
X173579729Y-141357186D01*
X173653416Y-141307952D01*
X174149549Y-140811817D01*
X174210872Y-140778333D01*
X174237230Y-140775499D01*
X174903165Y-140775499D01*
X174903165Y-140776892D01*
G37*
%TD.AperFunction*%
%TA.AperFunction,Conductor*%
G36*
X168176352Y-138540129D02*
G01*
X168216012Y-138564530D01*
X168216969Y-138563298D01*
X168223132Y-138568078D01*
X168223135Y-138568081D01*
X168364602Y-138651744D01*
X168406224Y-138663836D01*
X168522426Y-138697597D01*
X168522429Y-138697597D01*
X168522431Y-138697598D01*
X168559306Y-138700500D01*
X169525500Y-138700500D01*
X169534185Y-138703050D01*
X169543147Y-138701762D01*
X169567187Y-138712740D01*
X169592539Y-138720185D01*
X169598466Y-138727025D01*
X169606703Y-138730787D01*
X169620992Y-138753021D01*
X169638294Y-138772989D01*
X169640581Y-138783503D01*
X169644477Y-138789565D01*
X169649500Y-138824500D01*
X169649500Y-138875500D01*
X169629815Y-138942539D01*
X169577011Y-138988294D01*
X169525500Y-138999500D01*
X168559298Y-138999500D01*
X168522432Y-139002401D01*
X168522426Y-139002402D01*
X168364606Y-139048254D01*
X168364603Y-139048255D01*
X168223137Y-139131917D01*
X168216969Y-139136702D01*
X168215664Y-139135019D01*
X168163954Y-139163246D01*
X168094263Y-139158251D01*
X168046558Y-139126247D01*
X168022296Y-139100000D01*
X167795865Y-139100000D01*
X167794851Y-139099847D01*
X167794341Y-139099991D01*
X167790366Y-139099174D01*
X167759470Y-139094539D01*
X167753851Y-139092813D01*
X167718913Y-139078342D01*
X167684273Y-139071451D01*
X167678256Y-139069604D01*
X167672538Y-139065829D01*
X167651529Y-139057796D01*
X167635398Y-139048256D01*
X167635393Y-139048254D01*
X167477573Y-139002402D01*
X167477567Y-139002401D01*
X167440701Y-138999500D01*
X167440694Y-138999500D01*
X166986500Y-138999500D01*
X166977814Y-138996949D01*
X166968853Y-138998238D01*
X166944812Y-138987259D01*
X166919461Y-138979815D01*
X166913533Y-138972974D01*
X166905297Y-138969213D01*
X166891007Y-138946978D01*
X166873706Y-138927011D01*
X166871418Y-138916496D01*
X166867523Y-138910435D01*
X166862500Y-138875500D01*
X166862500Y-138824500D01*
X166882185Y-138757461D01*
X166934989Y-138711706D01*
X166986500Y-138700500D01*
X167440686Y-138700500D01*
X167440694Y-138700500D01*
X167477569Y-138697598D01*
X167477571Y-138697597D01*
X167477573Y-138697597D01*
X167519191Y-138685505D01*
X167635398Y-138651744D01*
X167693694Y-138617268D01*
X167756815Y-138600000D01*
X168022294Y-138600000D01*
X168046557Y-138573752D01*
X168106518Y-138537885D01*
X168176352Y-138540129D01*
G37*
%TD.AperFunction*%
%TD*%
M02*
