%TF.GenerationSoftware,KiCad,Pcbnew,10.0.4*%
%TF.CreationDate,2026-09-26T11:42:44-04:00*%
%TF.ProjectId,remote,72656d6f-7465-42e6-9b69-6361645f7063,rev?*%
%TF.SameCoordinates,Original*%
%TF.FileFunction,Copper,L2,Bot*%
%TF.FilePolarity,Positive*%
%FSLAX46Y46*%
G04 Gerber Fmt 4.6, Leading zero omitted, Abs format (unit mm)*
G04 Created by KiCad (PCBNEW 10.0.4) date 2026-09-26 11:42:44*
%MOMM*%
%LPD*%
G01*
G04 APERTURE LIST*
G04 Aperture macros list*
%AMRoundRect*
0 Rectangle with rounded corners*
0 $1 Rounding radius*
0 $2 $3 $4 $5 $6 $7 $8 $9 X,Y pos of 4 corners*
0 Add a 4 corners polygon primitive as box body*
4,1,4,$2,$3,$4,$5,$6,$7,$8,$9,$2,$3,0*
0 Add four circle primitives for the rounded corners*
1,1,$1+$1,$2,$3*
1,1,$1+$1,$4,$5*
1,1,$1+$1,$6,$7*
1,1,$1+$1,$8,$9*
0 Add four rect primitives between the rounded corners*
20,1,$1+$1,$2,$3,$4,$5,0*
20,1,$1+$1,$4,$5,$6,$7,0*
20,1,$1+$1,$6,$7,$8,$9,0*
20,1,$1+$1,$8,$9,$2,$3,0*%
G04 Aperture macros list end*
%TA.AperFunction,ComponentPad*%
%ADD10C,2.200000*%
%TD*%
%TA.AperFunction,HeatsinkPad*%
%ADD11C,0.600000*%
%TD*%
%TA.AperFunction,ComponentPad*%
%ADD12O,1.000000X2.100000*%
%TD*%
%TA.AperFunction,ComponentPad*%
%ADD13O,1.000000X1.600000*%
%TD*%
%TA.AperFunction,ComponentPad*%
%ADD14R,1.700000X1.700000*%
%TD*%
%TA.AperFunction,ComponentPad*%
%ADD15C,1.700000*%
%TD*%
%TA.AperFunction,ComponentPad*%
%ADD16RoundRect,0.250000X0.350000X0.625000X-0.350000X0.625000X-0.350000X-0.625000X0.350000X-0.625000X0*%
%TD*%
%TA.AperFunction,ComponentPad*%
%ADD17O,1.200000X1.750000*%
%TD*%
%TA.AperFunction,ComponentPad*%
%ADD18O,3.500000X2.200000*%
%TD*%
%TA.AperFunction,ComponentPad*%
%ADD19R,2.500000X1.500000*%
%TD*%
%TA.AperFunction,ComponentPad*%
%ADD20O,2.500000X1.500000*%
%TD*%
%TA.AperFunction,ViaPad*%
%ADD21C,0.600000*%
%TD*%
%TA.AperFunction,Conductor*%
%ADD22C,0.250000*%
%TD*%
%TA.AperFunction,Conductor*%
%ADD23C,0.500000*%
%TD*%
%TA.AperFunction,Conductor*%
%ADD24C,0.400000*%
%TD*%
%TA.AperFunction,Conductor*%
%ADD25C,0.300000*%
%TD*%
G04 APERTURE END LIST*
D10*
%TO.P,SW1,1*%
%TO.N,GND*%
X173320000Y-123000000D03*
%TO.P,SW1,2*%
%TO.N,SW1_NET*%
X178320000Y-125100000D03*
%TD*%
D11*
%TO.P,U1,19*%
%TO.N,GND*%
X173310000Y-96650000D03*
X173310000Y-97750000D03*
X173860000Y-96100000D03*
X173860000Y-97200000D03*
X173860000Y-98300000D03*
X174410000Y-96650000D03*
X174410000Y-97750000D03*
X174960000Y-96100000D03*
X174960000Y-97200000D03*
X174960000Y-98300000D03*
X175510000Y-96650000D03*
X175510000Y-97750000D03*
%TD*%
D12*
%TO.P,J1,SH*%
%TO.N,GND*%
X169510000Y-147970000D03*
D13*
X169510000Y-152150000D03*
D12*
X178150000Y-147970000D03*
D13*
X178150000Y-152150000D03*
%TD*%
D10*
%TO.P,SW2,1*%
%TO.N,GND*%
X173350000Y-118300000D03*
%TO.P,SW2,2*%
%TO.N,SW2_NET*%
X168350000Y-116200000D03*
%TD*%
D14*
%TO.P,HDR1,1*%
%TO.N,GND*%
X183400000Y-111000000D03*
D15*
%TO.P,HDR1,2*%
%TO.N,UART_RX*%
X183400000Y-108460000D03*
%TO.P,HDR1,3*%
%TO.N,UART_TX*%
X183400000Y-105920000D03*
%TD*%
D16*
%TO.P,J_BAT,1*%
%TO.N,BAT_P*%
X174500000Y-139400000D03*
D17*
%TO.P,J_BAT,2*%
%TO.N,GND*%
X172500000Y-139400000D03*
%TD*%
D18*
%TO.P,SW_PWR,*%
%TO.N,*%
X162700000Y-113750000D03*
X162700000Y-105550000D03*
D19*
%TO.P,SW_PWR,1*%
%TO.N,VBAT_SYS*%
X162700000Y-111650000D03*
D20*
%TO.P,SW_PWR,2*%
%TO.N,BAT_P*%
X162700000Y-109650000D03*
%TO.P,SW_PWR,3*%
%TO.N,N/C*%
X162700000Y-107650000D03*
%TD*%
D21*
%TO.N,EN_NET*%
X166000000Y-92500000D03*
X182600000Y-150900000D03*
%TO.N,3v3*%
X180950000Y-151700000D03*
X165950000Y-90950000D03*
%TO.N,GND*%
X167950000Y-138800000D03*
X165350000Y-153500000D03*
X173025000Y-142575000D03*
%TO.N,SW1_NET*%
X166000000Y-95400000D03*
%TO.N,VSYS*%
X168000000Y-140300000D03*
X166800000Y-135900000D03*
%TO.N,VBUS*%
X174450000Y-144600000D03*
X179500000Y-140650000D03*
%TO.N,VSENSE*%
X166000000Y-94100000D03*
X180050000Y-143400000D03*
%TO.N,STAT_A*%
X168300000Y-149300000D03*
X161850000Y-99150000D03*
%TO.N,SW2_NET*%
X165900000Y-97000000D03*
%TO.N,BOOT_NET*%
X167100000Y-153600000D03*
X172200000Y-120600000D03*
%TO.N,USB_DN*%
X180750000Y-98500000D03*
X173600000Y-148350000D03*
%TO.N,USB_DP*%
X174100000Y-145750000D03*
X180800000Y-97000000D03*
%TD*%
%TO.N,EN_NET*%
D22*
X177183884Y-92500000D02*
X181425000Y-96741116D01*
X181200000Y-98933884D02*
X181200000Y-149500000D01*
X181425000Y-98708884D02*
X181200000Y-98933884D01*
X181425000Y-96741116D02*
X181425000Y-98708884D01*
X181200000Y-149500000D02*
X182600000Y-150900000D01*
X166000000Y-92500000D02*
X177183884Y-92500000D01*
%TO.N,3v3*%
X181875000Y-96554720D02*
X181875000Y-98895280D01*
X183225000Y-150641116D02*
X183225000Y-151158884D01*
X167050000Y-92050000D02*
X177370280Y-92050000D01*
X182683884Y-151700000D02*
X180950000Y-151700000D01*
X183225000Y-151158884D02*
X182683884Y-151700000D01*
X177370280Y-92050000D02*
X181875000Y-96554720D01*
X165950000Y-90950000D02*
X167050000Y-92050000D01*
X181875000Y-98895280D02*
X181650000Y-99120280D01*
X181650000Y-99120280D02*
X181650000Y-149066116D01*
X181650000Y-149066116D02*
X183225000Y-150641116D01*
%TO.N,GND*%
D23*
X173025000Y-142575000D02*
X169510000Y-146090000D01*
D22*
X167950000Y-138800000D02*
X171725000Y-142575000D01*
D23*
X174500000Y-141100000D02*
X173025000Y-142575000D01*
X169510000Y-147970000D02*
X169510000Y-149340000D01*
X169510000Y-149340000D02*
X165350000Y-153500000D01*
D22*
X171725000Y-142575000D02*
X173025000Y-142575000D01*
D23*
X169510000Y-146090000D02*
X169510000Y-147970000D01*
%TO.N,SW1_NET*%
D22*
X165675000Y-97861396D02*
X165675000Y-112888604D01*
X166000000Y-96216116D02*
X166525000Y-96741116D01*
X165911396Y-97625000D02*
X165675000Y-97861396D01*
X166000000Y-95400000D02*
X166000000Y-96216116D01*
X167561396Y-114775000D02*
X168940255Y-114775000D01*
X171925000Y-117759745D02*
X171925000Y-118890255D01*
X166525000Y-97258884D02*
X166158884Y-97625000D01*
X166525000Y-96741116D02*
X166525000Y-97258884D01*
X166158884Y-97625000D02*
X165911396Y-97625000D01*
X178134745Y-125100000D02*
X178320000Y-125100000D01*
X168940255Y-114775000D02*
X171925000Y-117759745D01*
X165675000Y-112888604D02*
X167561396Y-114775000D01*
X171925000Y-118890255D02*
X178134745Y-125100000D01*
%TO.N,VSYS*%
D23*
X166800000Y-135900000D02*
X166800000Y-139100000D01*
X166800000Y-139100000D02*
X168000000Y-140300000D01*
%TO.N,VBUS*%
D24*
X175550000Y-144600000D02*
X174450000Y-144600000D01*
X179500000Y-140650000D02*
X175550000Y-144600000D01*
%TO.N,VSENSE*%
D22*
X179745000Y-124509745D02*
X179745000Y-126242588D01*
X172975000Y-144565000D02*
X172975000Y-148608884D01*
X173940255Y-116875000D02*
X174775000Y-117709745D01*
X166125000Y-98295280D02*
X166125000Y-112702208D01*
X167747792Y-114325000D02*
X169126651Y-114325000D01*
X177595000Y-128392588D02*
X177595000Y-139945000D01*
X179745000Y-126242588D02*
X177595000Y-128392588D01*
X166000000Y-94100000D02*
X166000000Y-94516116D01*
X172975000Y-148608884D02*
X173341116Y-148975000D01*
X166975000Y-96554720D02*
X166975000Y-97445280D01*
X166625000Y-95141116D02*
X166625000Y-96204720D01*
X177346141Y-123675000D02*
X178910255Y-123675000D01*
X174775000Y-121103859D02*
X177346141Y-123675000D01*
X171676651Y-116875000D02*
X173940255Y-116875000D01*
X177595000Y-139945000D02*
X172975000Y-144565000D01*
X178910255Y-123675000D02*
X179745000Y-124509745D01*
X166625000Y-96204720D02*
X166975000Y-96554720D01*
X174775000Y-117709745D02*
X174775000Y-121103859D01*
X174475000Y-148975000D02*
X180050000Y-143400000D01*
X166125000Y-112702208D02*
X167747792Y-114325000D01*
X169126651Y-114325000D02*
X171676651Y-116875000D01*
X166000000Y-94516116D02*
X166625000Y-95141116D01*
X173341116Y-148975000D02*
X174475000Y-148975000D01*
X166975000Y-97445280D02*
X166125000Y-98295280D01*
%TO.N,STAT_A*%
X164775000Y-102075000D02*
X164775000Y-145775000D01*
X161850000Y-99150000D02*
X164775000Y-102075000D01*
X164775000Y-145775000D02*
X168300000Y-149300000D01*
%TO.N,SW2_NET*%
X165900000Y-97000000D02*
X165225000Y-97675000D01*
X165225000Y-97675000D02*
X165225000Y-113075000D01*
X165225000Y-113075000D02*
X168350000Y-116200000D01*
%TO.N,BOOT_NET*%
D25*
X175450000Y-141069239D02*
X175450000Y-128060152D01*
X167100000Y-153600000D02*
X167100000Y-152764695D01*
X171015305Y-149450000D02*
X171665000Y-148800305D01*
X170414695Y-149450000D02*
X171015305Y-149450000D01*
X171870000Y-120930000D02*
X172200000Y-120600000D01*
X171665000Y-144854239D02*
X175450000Y-141069239D01*
X167100000Y-152764695D02*
X170414695Y-149450000D01*
X171870000Y-124480152D02*
X171870000Y-120930000D01*
X175450000Y-128060152D02*
X171870000Y-124480152D01*
X171665000Y-148800305D02*
X171665000Y-144854239D01*
%TO.N,USB_DN*%
D22*
X180750000Y-141200000D02*
X173600000Y-148350000D01*
X180750000Y-98500000D02*
X180750000Y-141200000D01*
%TO.N,USB_DP*%
X180800000Y-97566116D02*
X180125000Y-98241116D01*
X180125000Y-98758884D02*
X180300000Y-98933884D01*
X180300000Y-98933884D02*
X180300000Y-141013604D01*
X180800000Y-97000000D02*
X180800000Y-97566116D01*
X175563604Y-145750000D02*
X174100000Y-145750000D01*
X180125000Y-98241116D02*
X180125000Y-98758884D01*
X180300000Y-141013604D02*
X175563604Y-145750000D01*
%TD*%
%TA.AperFunction,Conductor*%
%TO.N,GND*%
G36*
X165385097Y-90170186D02*
G01*
X165430852Y-90222990D01*
X165440796Y-90292148D01*
X165411771Y-90355704D01*
X165405739Y-90362182D01*
X165328213Y-90439707D01*
X165328210Y-90439711D01*
X165240609Y-90570814D01*
X165240602Y-90570827D01*
X165180264Y-90716498D01*
X165180261Y-90716510D01*
X165149500Y-90871153D01*
X165149500Y-91028846D01*
X165180261Y-91183489D01*
X165180264Y-91183501D01*
X165240602Y-91329172D01*
X165240609Y-91329185D01*
X165328210Y-91460288D01*
X165328213Y-91460292D01*
X165439707Y-91571786D01*
X165439711Y-91571789D01*
X165539703Y-91638602D01*
X165584508Y-91692214D01*
X165593215Y-91761539D01*
X165563061Y-91824567D01*
X165539704Y-91844805D01*
X165489713Y-91878208D01*
X165489707Y-91878213D01*
X165378213Y-91989707D01*
X165378210Y-91989711D01*
X165290609Y-92120814D01*
X165290602Y-92120827D01*
X165230264Y-92266498D01*
X165230261Y-92266510D01*
X165199500Y-92421153D01*
X165199500Y-92578846D01*
X165230261Y-92733489D01*
X165230264Y-92733501D01*
X165290602Y-92879172D01*
X165290609Y-92879185D01*
X165378210Y-93010288D01*
X165378213Y-93010292D01*
X165489707Y-93121786D01*
X165489711Y-93121789D01*
X165602118Y-93196898D01*
X165646923Y-93250510D01*
X165655630Y-93319835D01*
X165625475Y-93382863D01*
X165602118Y-93403102D01*
X165489711Y-93478210D01*
X165489707Y-93478213D01*
X165378213Y-93589707D01*
X165378210Y-93589711D01*
X165290609Y-93720814D01*
X165290602Y-93720827D01*
X165230264Y-93866498D01*
X165230261Y-93866510D01*
X165199500Y-94021153D01*
X165199500Y-94178846D01*
X165230261Y-94333489D01*
X165230264Y-94333501D01*
X165290602Y-94479172D01*
X165290609Y-94479185D01*
X165368446Y-94595676D01*
X165369062Y-94596994D01*
X165369635Y-94597490D01*
X165371794Y-94602834D01*
X165384308Y-94629589D01*
X165385879Y-94634932D01*
X165398537Y-94698567D01*
X165419394Y-94748922D01*
X165421264Y-94755281D01*
X165421274Y-94783861D01*
X165424329Y-94812278D01*
X165421287Y-94818353D01*
X165421290Y-94825151D01*
X165405842Y-94849206D01*
X165393053Y-94874756D01*
X165389984Y-94877938D01*
X165378208Y-94889714D01*
X165290609Y-95020814D01*
X165290602Y-95020827D01*
X165230264Y-95166498D01*
X165230261Y-95166510D01*
X165199500Y-95321153D01*
X165199500Y-95478846D01*
X165230261Y-95633489D01*
X165230264Y-95633501D01*
X165290602Y-95779172D01*
X165290609Y-95779184D01*
X165353602Y-95873459D01*
X165374480Y-95940136D01*
X165374500Y-95942350D01*
X165374500Y-96277722D01*
X165380765Y-96309223D01*
X165374536Y-96378815D01*
X165346828Y-96421093D01*
X165278213Y-96489707D01*
X165278210Y-96489711D01*
X165190609Y-96620814D01*
X165190602Y-96620827D01*
X165130264Y-96766498D01*
X165130261Y-96766508D01*
X165108141Y-96877714D01*
X165075756Y-96939625D01*
X165074205Y-96941203D01*
X164826270Y-97189139D01*
X164739144Y-97276264D01*
X164739138Y-97276272D01*
X164670690Y-97378708D01*
X164670688Y-97378713D01*
X164623540Y-97492538D01*
X164623535Y-97492554D01*
X164609445Y-97563394D01*
X164599500Y-97613389D01*
X164599500Y-100715547D01*
X164579815Y-100782586D01*
X164527011Y-100828341D01*
X164457853Y-100838285D01*
X164394297Y-100809260D01*
X164387819Y-100803228D01*
X162675793Y-99091203D01*
X162642308Y-99029880D01*
X162641887Y-99027864D01*
X162619737Y-98916503D01*
X162579968Y-98820491D01*
X162559397Y-98770827D01*
X162559390Y-98770814D01*
X162471789Y-98639711D01*
X162471786Y-98639707D01*
X162360292Y-98528213D01*
X162360288Y-98528210D01*
X162229185Y-98440609D01*
X162229172Y-98440602D01*
X162083501Y-98380264D01*
X162083489Y-98380261D01*
X161928845Y-98349500D01*
X161928842Y-98349500D01*
X161771158Y-98349500D01*
X161771155Y-98349500D01*
X161616510Y-98380261D01*
X161616498Y-98380264D01*
X161470827Y-98440602D01*
X161470814Y-98440609D01*
X161339711Y-98528210D01*
X161339707Y-98528213D01*
X161228213Y-98639707D01*
X161228210Y-98639711D01*
X161140609Y-98770814D01*
X161140602Y-98770827D01*
X161080264Y-98916498D01*
X161080261Y-98916510D01*
X161049501Y-99071148D01*
X161049500Y-99071155D01*
X161049500Y-99228846D01*
X161080261Y-99383489D01*
X161080264Y-99383501D01*
X161140602Y-99529172D01*
X161140609Y-99529185D01*
X161228210Y-99660288D01*
X161228213Y-99660292D01*
X161339707Y-99771786D01*
X161339711Y-99771789D01*
X161470814Y-99859390D01*
X161470827Y-99859397D01*
X161558230Y-99895599D01*
X161616503Y-99919737D01*
X161727716Y-99941858D01*
X161789623Y-99974241D01*
X161791203Y-99975793D01*
X164113181Y-102297771D01*
X164146666Y-102359094D01*
X164149500Y-102385452D01*
X164149500Y-103958732D01*
X164129815Y-104025771D01*
X164077011Y-104071526D01*
X164007853Y-104081470D01*
X163969213Y-104069221D01*
X163964385Y-104066761D01*
X163724785Y-103988910D01*
X163475962Y-103949500D01*
X161924038Y-103949500D01*
X161865750Y-103958732D01*
X161675214Y-103988910D01*
X161435616Y-104066760D01*
X161211151Y-104181132D01*
X161007350Y-104329201D01*
X161007345Y-104329205D01*
X160829205Y-104507345D01*
X160829201Y-104507350D01*
X160681132Y-104711151D01*
X160566760Y-104935616D01*
X160488910Y-105175214D01*
X160449500Y-105424038D01*
X160449500Y-105675961D01*
X160488910Y-105924785D01*
X160566760Y-106164383D01*
X160681132Y-106388848D01*
X160829201Y-106592649D01*
X160829205Y-106592654D01*
X161007349Y-106770798D01*
X161094752Y-106834299D01*
X161137418Y-106889628D01*
X161143397Y-106959242D01*
X161132352Y-106990911D01*
X161041118Y-107169967D01*
X160980290Y-107357173D01*
X160949500Y-107551577D01*
X160949500Y-107748422D01*
X160980290Y-107942826D01*
X161041117Y-108130029D01*
X161119451Y-108283767D01*
X161130476Y-108305405D01*
X161246172Y-108464646D01*
X161246174Y-108464648D01*
X161343845Y-108562319D01*
X161377330Y-108623642D01*
X161372346Y-108693334D01*
X161343845Y-108737681D01*
X161246174Y-108835351D01*
X161246174Y-108835352D01*
X161246172Y-108835354D01*
X161227811Y-108860626D01*
X161130476Y-108994594D01*
X161041117Y-109169970D01*
X160980290Y-109357173D01*
X160949500Y-109551577D01*
X160949500Y-109748422D01*
X160980290Y-109942826D01*
X161041117Y-110130029D01*
X161130476Y-110305405D01*
X161156783Y-110341613D01*
X161180263Y-110407419D01*
X161164438Y-110475473D01*
X161130777Y-110513765D01*
X161092452Y-110542455D01*
X161006206Y-110657664D01*
X161006202Y-110657671D01*
X160955908Y-110792517D01*
X160949501Y-110852116D01*
X160949500Y-110852135D01*
X160949500Y-112447870D01*
X160949501Y-112447876D01*
X160956669Y-112514555D01*
X160944262Y-112583314D01*
X160921061Y-112615488D01*
X160829205Y-112707345D01*
X160829201Y-112707350D01*
X160681132Y-112911151D01*
X160566760Y-113135616D01*
X160488910Y-113375214D01*
X160470049Y-113494297D01*
X160449500Y-113624038D01*
X160449500Y-113875962D01*
X160488910Y-114124785D01*
X160566760Y-114364383D01*
X160681132Y-114588848D01*
X160829201Y-114792649D01*
X160829205Y-114792654D01*
X161007345Y-114970794D01*
X161007350Y-114970798D01*
X161185117Y-115099952D01*
X161211155Y-115118870D01*
X161354184Y-115191747D01*
X161435616Y-115233239D01*
X161435618Y-115233239D01*
X161435621Y-115233241D01*
X161675215Y-115311090D01*
X161924038Y-115350500D01*
X161924039Y-115350500D01*
X163475961Y-115350500D01*
X163475962Y-115350500D01*
X163724785Y-115311090D01*
X163964379Y-115233241D01*
X163969203Y-115230782D01*
X164037872Y-115217886D01*
X164102613Y-115244161D01*
X164142871Y-115301267D01*
X164149500Y-115341267D01*
X164149500Y-145836611D01*
X164173535Y-145957444D01*
X164173540Y-145957461D01*
X164220685Y-146071280D01*
X164220687Y-146071283D01*
X164220688Y-146071286D01*
X164254915Y-146122509D01*
X164289142Y-146173733D01*
X164376267Y-146260858D01*
X164376270Y-146260860D01*
X164383554Y-146268144D01*
X167474205Y-149358795D01*
X167507690Y-149420118D01*
X167508141Y-149422285D01*
X167530261Y-149533489D01*
X167530264Y-149533501D01*
X167590602Y-149679172D01*
X167590609Y-149679185D01*
X167678210Y-149810288D01*
X167678213Y-149810292D01*
X167789707Y-149921786D01*
X167789711Y-149921789D01*
X167920814Y-150009390D01*
X167920827Y-150009397D01*
X168059439Y-150066811D01*
X168066503Y-150069737D01*
X168221153Y-150100499D01*
X168221156Y-150100500D01*
X168221158Y-150100500D01*
X168378844Y-150100500D01*
X168378845Y-150100499D01*
X168533497Y-150069737D01*
X168540561Y-150066810D01*
X168610028Y-150059341D01*
X168672508Y-150090614D01*
X168708162Y-150150702D01*
X168705670Y-150220527D01*
X168675696Y-150269052D01*
X166594727Y-152350020D01*
X166594726Y-152350021D01*
X166523534Y-152456569D01*
X166474499Y-152574950D01*
X166474497Y-152574956D01*
X166449500Y-152700623D01*
X166449500Y-153095064D01*
X166429815Y-153162103D01*
X166428603Y-153163954D01*
X166390608Y-153220817D01*
X166390602Y-153220828D01*
X166330264Y-153366498D01*
X166330261Y-153366510D01*
X166299500Y-153521153D01*
X166299500Y-153678846D01*
X166330261Y-153833489D01*
X166330264Y-153833501D01*
X166390602Y-153979172D01*
X166390609Y-153979185D01*
X166478210Y-154110288D01*
X166478213Y-154110292D01*
X166589707Y-154221786D01*
X166589711Y-154221789D01*
X166720814Y-154309390D01*
X166720827Y-154309397D01*
X166866498Y-154369735D01*
X166866503Y-154369737D01*
X167021153Y-154400499D01*
X167021156Y-154400500D01*
X167021158Y-154400500D01*
X167178844Y-154400500D01*
X167178845Y-154400499D01*
X167333497Y-154369737D01*
X167479179Y-154309394D01*
X167610289Y-154221789D01*
X167721789Y-154110289D01*
X167809394Y-153979179D01*
X167869737Y-153833497D01*
X167900500Y-153678842D01*
X167900500Y-153521158D01*
X167900500Y-153521155D01*
X167900499Y-153521153D01*
X167869738Y-153366510D01*
X167869737Y-153366503D01*
X167809394Y-153220821D01*
X167771396Y-153163953D01*
X167765746Y-153145907D01*
X167755523Y-153129999D01*
X167751071Y-153099036D01*
X167750520Y-153097276D01*
X167750500Y-153095064D01*
X167750500Y-153085503D01*
X167770185Y-153018464D01*
X167786819Y-152997822D01*
X168042960Y-152741681D01*
X168300527Y-152484113D01*
X168361848Y-152450630D01*
X168431539Y-152455614D01*
X168487473Y-152497485D01*
X168509823Y-152547605D01*
X168548427Y-152741681D01*
X168548430Y-152741693D01*
X168623807Y-152923671D01*
X168623814Y-152923684D01*
X168733248Y-153087462D01*
X168733251Y-153087466D01*
X168872533Y-153226748D01*
X168872537Y-153226751D01*
X169036315Y-153336185D01*
X169036328Y-153336192D01*
X169218308Y-153411569D01*
X169260000Y-153419862D01*
X169260000Y-152616988D01*
X169269940Y-152634205D01*
X169325795Y-152690060D01*
X169394204Y-152729556D01*
X169470504Y-152750000D01*
X169549496Y-152750000D01*
X169625796Y-152729556D01*
X169694205Y-152690060D01*
X169750060Y-152634205D01*
X169760000Y-152616988D01*
X169760000Y-153419862D01*
X169801690Y-153411569D01*
X169801692Y-153411569D01*
X169983671Y-153336192D01*
X169983684Y-153336185D01*
X170147462Y-153226751D01*
X170147466Y-153226748D01*
X170286748Y-153087466D01*
X170286751Y-153087462D01*
X170396185Y-152923684D01*
X170396192Y-152923671D01*
X170471569Y-152741693D01*
X170471572Y-152741681D01*
X170509999Y-152548495D01*
X170510000Y-152548492D01*
X170510000Y-152400000D01*
X169810000Y-152400000D01*
X169810000Y-151900000D01*
X170510000Y-151900000D01*
X170510000Y-151751508D01*
X170509999Y-151751504D01*
X177150000Y-151751504D01*
X177150000Y-151900000D01*
X177850000Y-151900000D01*
X177850000Y-152400000D01*
X177150000Y-152400000D01*
X177150000Y-152548495D01*
X177188427Y-152741681D01*
X177188430Y-152741693D01*
X177263807Y-152923671D01*
X177263814Y-152923684D01*
X177373248Y-153087462D01*
X177373251Y-153087466D01*
X177512533Y-153226748D01*
X177512537Y-153226751D01*
X177676315Y-153336185D01*
X177676328Y-153336192D01*
X177858308Y-153411569D01*
X177900000Y-153419862D01*
X177900000Y-152616988D01*
X177909940Y-152634205D01*
X177965795Y-152690060D01*
X178034204Y-152729556D01*
X178110504Y-152750000D01*
X178189496Y-152750000D01*
X178265796Y-152729556D01*
X178334205Y-152690060D01*
X178390060Y-152634205D01*
X178400000Y-152616988D01*
X178400000Y-153419862D01*
X178441690Y-153411569D01*
X178441692Y-153411569D01*
X178623671Y-153336192D01*
X178623684Y-153336185D01*
X178787462Y-153226751D01*
X178787466Y-153226748D01*
X178926748Y-153087466D01*
X178926751Y-153087462D01*
X179036185Y-152923684D01*
X179036192Y-152923671D01*
X179111569Y-152741693D01*
X179111572Y-152741681D01*
X179149999Y-152548495D01*
X179150000Y-152548492D01*
X179150000Y-152400000D01*
X178450000Y-152400000D01*
X178450000Y-151900000D01*
X179150000Y-151900000D01*
X179150000Y-151751508D01*
X179149999Y-151751504D01*
X179111572Y-151558318D01*
X179111569Y-151558306D01*
X179036192Y-151376328D01*
X179036185Y-151376315D01*
X178926751Y-151212537D01*
X178926748Y-151212533D01*
X178787466Y-151073251D01*
X178787462Y-151073248D01*
X178623684Y-150963814D01*
X178623671Y-150963807D01*
X178441691Y-150888429D01*
X178441683Y-150888427D01*
X178400000Y-150880135D01*
X178400000Y-151683011D01*
X178390060Y-151665795D01*
X178334205Y-151609940D01*
X178265796Y-151570444D01*
X178189496Y-151550000D01*
X178110504Y-151550000D01*
X178034204Y-151570444D01*
X177965795Y-151609940D01*
X177909940Y-151665795D01*
X177900000Y-151683011D01*
X177900000Y-150880136D01*
X177899999Y-150880135D01*
X177858316Y-150888427D01*
X177858308Y-150888429D01*
X177676328Y-150963807D01*
X177676315Y-150963814D01*
X177512537Y-151073248D01*
X177512533Y-151073251D01*
X177373251Y-151212533D01*
X177373248Y-151212537D01*
X177263814Y-151376315D01*
X177263807Y-151376328D01*
X177188430Y-151558306D01*
X177188427Y-151558318D01*
X177150000Y-151751504D01*
X170509999Y-151751504D01*
X170471572Y-151558318D01*
X170471569Y-151558306D01*
X170396192Y-151376328D01*
X170396185Y-151376315D01*
X170286751Y-151212537D01*
X170286748Y-151212533D01*
X170147466Y-151073251D01*
X170147462Y-151073248D01*
X170011687Y-150982525D01*
X169966882Y-150928912D01*
X169958175Y-150859587D01*
X169988330Y-150796560D01*
X169992860Y-150791780D01*
X170647822Y-150136819D01*
X170709145Y-150103334D01*
X170735503Y-150100500D01*
X171079376Y-150100500D01*
X171163920Y-150083682D01*
X171205049Y-150075501D01*
X171323432Y-150026465D01*
X171348981Y-150009394D01*
X171429974Y-149955277D01*
X172170276Y-149214975D01*
X172241465Y-149108432D01*
X172273247Y-149031702D01*
X172317087Y-148977299D01*
X172383381Y-148955234D01*
X172451081Y-148972513D01*
X172476509Y-148992506D01*
X172484534Y-149000721D01*
X172489142Y-149007617D01*
X172576267Y-149094742D01*
X172576270Y-149094744D01*
X172581121Y-149099595D01*
X172852132Y-149370606D01*
X172852161Y-149370637D01*
X172942379Y-149460855D01*
X172942383Y-149460858D01*
X173044823Y-149529307D01*
X173044832Y-149529312D01*
X173054916Y-149533489D01*
X173158664Y-149576463D01*
X173219087Y-149588481D01*
X173279509Y-149600500D01*
X174536607Y-149600500D01*
X174597029Y-149588481D01*
X174657452Y-149576463D01*
X174693320Y-149561606D01*
X174771286Y-149529312D01*
X174800689Y-149509664D01*
X174830501Y-149489745D01*
X174830503Y-149489743D01*
X174873733Y-149460858D01*
X174960858Y-149373733D01*
X174960858Y-149373731D01*
X174971066Y-149363524D01*
X174971067Y-149363521D01*
X175932819Y-148401769D01*
X175994142Y-148368285D01*
X176063834Y-148373269D01*
X176119767Y-148415141D01*
X176144184Y-148480605D01*
X176144500Y-148489451D01*
X176144500Y-148575766D01*
X176155948Y-148618492D01*
X176183719Y-148722136D01*
X176184527Y-148723535D01*
X176259485Y-148853365D01*
X176366635Y-148960515D01*
X176497865Y-149036281D01*
X176644234Y-149075500D01*
X176644236Y-149075500D01*
X176795764Y-149075500D01*
X176795766Y-149075500D01*
X176942135Y-149036281D01*
X177073365Y-148960515D01*
X177073372Y-148960507D01*
X177079811Y-148955568D01*
X177082044Y-148958478D01*
X177128258Y-148932865D01*
X177197980Y-148937411D01*
X177254176Y-148978930D01*
X177260394Y-148988634D01*
X177260426Y-148988613D01*
X177373248Y-149157462D01*
X177373251Y-149157466D01*
X177512533Y-149296748D01*
X177512537Y-149296751D01*
X177676315Y-149406185D01*
X177676328Y-149406192D01*
X177858308Y-149481569D01*
X177900000Y-149489862D01*
X177900000Y-148686988D01*
X177909940Y-148704205D01*
X177965795Y-148760060D01*
X178034204Y-148799556D01*
X178110504Y-148820000D01*
X178189496Y-148820000D01*
X178265796Y-148799556D01*
X178334205Y-148760060D01*
X178390060Y-148704205D01*
X178400000Y-148686988D01*
X178400000Y-149489862D01*
X178441690Y-149481569D01*
X178441692Y-149481569D01*
X178623671Y-149406192D01*
X178623684Y-149406185D01*
X178787462Y-149296751D01*
X178787466Y-149296748D01*
X178926748Y-149157466D01*
X178926751Y-149157462D01*
X179036185Y-148993684D01*
X179036192Y-148993671D01*
X179111569Y-148811693D01*
X179111572Y-148811681D01*
X179149999Y-148618495D01*
X179150000Y-148618492D01*
X179150000Y-148220000D01*
X178450000Y-148220000D01*
X178450000Y-147720000D01*
X179150000Y-147720000D01*
X179150000Y-147321508D01*
X179149999Y-147321504D01*
X179111572Y-147128318D01*
X179111569Y-147128306D01*
X179036192Y-146946328D01*
X179036185Y-146946315D01*
X178926751Y-146782537D01*
X178926748Y-146782533D01*
X178787466Y-146643251D01*
X178787462Y-146643248D01*
X178623684Y-146533814D01*
X178623671Y-146533807D01*
X178441691Y-146458429D01*
X178441683Y-146458427D01*
X178400000Y-146450135D01*
X178400000Y-147253011D01*
X178390060Y-147235795D01*
X178334205Y-147179940D01*
X178265796Y-147140444D01*
X178189496Y-147120000D01*
X178110504Y-147120000D01*
X178034204Y-147140444D01*
X177965795Y-147179940D01*
X177909940Y-147235795D01*
X177900000Y-147253011D01*
X177900000Y-146485950D01*
X177908644Y-146456509D01*
X177915168Y-146426523D01*
X177918922Y-146421507D01*
X177919685Y-146418911D01*
X177936312Y-146398277D01*
X180108798Y-144225791D01*
X180170119Y-144192308D01*
X180172114Y-144191892D01*
X180283497Y-144169737D01*
X180371806Y-144133158D01*
X180403048Y-144120218D01*
X180472517Y-144112749D01*
X180534996Y-144144025D01*
X180570648Y-144204114D01*
X180574500Y-144234779D01*
X180574500Y-149561611D01*
X180598535Y-149682444D01*
X180598540Y-149682461D01*
X180645685Y-149796280D01*
X180645687Y-149796283D01*
X180645688Y-149796286D01*
X180679915Y-149847509D01*
X180714142Y-149898733D01*
X180801267Y-149985858D01*
X180801270Y-149985860D01*
X180808554Y-149993144D01*
X181678229Y-150862819D01*
X181711714Y-150924142D01*
X181706730Y-150993834D01*
X181664858Y-151049767D01*
X181599394Y-151074184D01*
X181590548Y-151074500D01*
X181492350Y-151074500D01*
X181425311Y-151054815D01*
X181423459Y-151053602D01*
X181329184Y-150990609D01*
X181329172Y-150990602D01*
X181183501Y-150930264D01*
X181183489Y-150930261D01*
X181028845Y-150899500D01*
X181028842Y-150899500D01*
X180871158Y-150899500D01*
X180871155Y-150899500D01*
X180716510Y-150930261D01*
X180716498Y-150930264D01*
X180570827Y-150990602D01*
X180570814Y-150990609D01*
X180439711Y-151078210D01*
X180439707Y-151078213D01*
X180328213Y-151189707D01*
X180328210Y-151189711D01*
X180240609Y-151320814D01*
X180240602Y-151320827D01*
X180180264Y-151466498D01*
X180180261Y-151466510D01*
X180149500Y-151621153D01*
X180149500Y-151778846D01*
X180180261Y-151933489D01*
X180180264Y-151933501D01*
X180240602Y-152079172D01*
X180240609Y-152079185D01*
X180328210Y-152210288D01*
X180328213Y-152210292D01*
X180439707Y-152321786D01*
X180439711Y-152321789D01*
X180570814Y-152409390D01*
X180570827Y-152409397D01*
X180684710Y-152456568D01*
X180716503Y-152469737D01*
X180815838Y-152489496D01*
X180871153Y-152500499D01*
X180871156Y-152500500D01*
X180871158Y-152500500D01*
X181028844Y-152500500D01*
X181028845Y-152500499D01*
X181183497Y-152469737D01*
X181329179Y-152409394D01*
X181423459Y-152346398D01*
X181490136Y-152325520D01*
X181492350Y-152325500D01*
X182745491Y-152325500D01*
X182805913Y-152313481D01*
X182866336Y-152301463D01*
X182899676Y-152287652D01*
X182980170Y-152254312D01*
X183046053Y-152210289D01*
X183082617Y-152185858D01*
X183169742Y-152098733D01*
X183169743Y-152098730D01*
X183710858Y-151557617D01*
X183779312Y-151455169D01*
X183826463Y-151341335D01*
X183850501Y-151220490D01*
X183850501Y-151097277D01*
X183850501Y-151092167D01*
X183850500Y-151092141D01*
X183850500Y-150579509D01*
X183850499Y-150579505D01*
X183826464Y-150458671D01*
X183826463Y-150458664D01*
X183779311Y-150344830D01*
X183779310Y-150344829D01*
X183779307Y-150344823D01*
X183710859Y-150242384D01*
X183689002Y-150220527D01*
X183623733Y-150155258D01*
X183623732Y-150155257D01*
X182311819Y-148843344D01*
X182278334Y-148782021D01*
X182275500Y-148755663D01*
X182275500Y-112459858D01*
X182295185Y-112392819D01*
X182347989Y-112347064D01*
X182417147Y-112337120D01*
X182441283Y-112343281D01*
X182442627Y-112343598D01*
X182502155Y-112349999D01*
X182502172Y-112350000D01*
X183150000Y-112350000D01*
X183150000Y-111433012D01*
X183207007Y-111465925D01*
X183334174Y-111500000D01*
X183465826Y-111500000D01*
X183592993Y-111465925D01*
X183650000Y-111433012D01*
X183650000Y-112350000D01*
X184297828Y-112350000D01*
X184297844Y-112349999D01*
X184357372Y-112343598D01*
X184357379Y-112343596D01*
X184492086Y-112293354D01*
X184492093Y-112293350D01*
X184607187Y-112207190D01*
X184607190Y-112207187D01*
X184693350Y-112092093D01*
X184693354Y-112092086D01*
X184743596Y-111957379D01*
X184743598Y-111957372D01*
X184749999Y-111897844D01*
X184750000Y-111897827D01*
X184750000Y-111250000D01*
X183833012Y-111250000D01*
X183865925Y-111192993D01*
X183900000Y-111065826D01*
X183900000Y-110934174D01*
X183865925Y-110807007D01*
X183833012Y-110750000D01*
X184750000Y-110750000D01*
X184750000Y-110102172D01*
X184749999Y-110102155D01*
X184743598Y-110042627D01*
X184743596Y-110042620D01*
X184693354Y-109907913D01*
X184693350Y-109907906D01*
X184607190Y-109792812D01*
X184607187Y-109792809D01*
X184492093Y-109706649D01*
X184492088Y-109706646D01*
X184360528Y-109657577D01*
X184304595Y-109615705D01*
X184280178Y-109550241D01*
X184295030Y-109481968D01*
X184316175Y-109453720D01*
X184430104Y-109339792D01*
X184555051Y-109167816D01*
X184651557Y-108978412D01*
X184717246Y-108776243D01*
X184750500Y-108566287D01*
X184750500Y-108353713D01*
X184717246Y-108143757D01*
X184651557Y-107941588D01*
X184555051Y-107752184D01*
X184555049Y-107752181D01*
X184555048Y-107752179D01*
X184430109Y-107580213D01*
X184279786Y-107429890D01*
X184107820Y-107304951D01*
X184107115Y-107304591D01*
X184099054Y-107300485D01*
X184048259Y-107252512D01*
X184031463Y-107184692D01*
X184053999Y-107118556D01*
X184099054Y-107079515D01*
X184107816Y-107075051D01*
X184233810Y-106983512D01*
X184279786Y-106950109D01*
X184279788Y-106950106D01*
X184279792Y-106950104D01*
X184430104Y-106799792D01*
X184430106Y-106799788D01*
X184430109Y-106799786D01*
X184555048Y-106627820D01*
X184555047Y-106627820D01*
X184555051Y-106627816D01*
X184651557Y-106438412D01*
X184717246Y-106236243D01*
X184750500Y-106026287D01*
X184750500Y-105813713D01*
X184717246Y-105603757D01*
X184651557Y-105401588D01*
X184555051Y-105212184D01*
X184555049Y-105212181D01*
X184555048Y-105212179D01*
X184430109Y-105040213D01*
X184279786Y-104889890D01*
X184107820Y-104764951D01*
X183918414Y-104668444D01*
X183918413Y-104668443D01*
X183918412Y-104668443D01*
X183716243Y-104602754D01*
X183716241Y-104602753D01*
X183716240Y-104602753D01*
X183554957Y-104577208D01*
X183506287Y-104569500D01*
X183293713Y-104569500D01*
X183245042Y-104577208D01*
X183083760Y-104602753D01*
X182881585Y-104668444D01*
X182692179Y-104764951D01*
X182520213Y-104889890D01*
X182520209Y-104889894D01*
X182487181Y-104922923D01*
X182425858Y-104956408D01*
X182356166Y-104951424D01*
X182300233Y-104909552D01*
X182275816Y-104844088D01*
X182275500Y-104835242D01*
X182275500Y-99430733D01*
X182282421Y-99407162D01*
X182285160Y-99382750D01*
X182293031Y-99371029D01*
X182295185Y-99363694D01*
X182303310Y-99352481D01*
X182307323Y-99347547D01*
X182360858Y-99294013D01*
X182403517Y-99230170D01*
X182429312Y-99191566D01*
X182449346Y-99143198D01*
X182476462Y-99077735D01*
X182477773Y-99071148D01*
X182492821Y-98995491D01*
X182500500Y-98956887D01*
X182500500Y-98833673D01*
X182500500Y-96493114D01*
X182476463Y-96372268D01*
X182462652Y-96338927D01*
X182429312Y-96258434D01*
X182390601Y-96200500D01*
X182360858Y-96155987D01*
X182360856Y-96155984D01*
X182270637Y-96065765D01*
X182270606Y-96065736D01*
X177863430Y-91658560D01*
X177856140Y-91651270D01*
X177856138Y-91651267D01*
X177769013Y-91564142D01*
X177717789Y-91529915D01*
X177666566Y-91495688D01*
X177666563Y-91495686D01*
X177666560Y-91495685D01*
X177592883Y-91465168D01*
X177592881Y-91465167D01*
X177586072Y-91462347D01*
X177552732Y-91448537D01*
X177492309Y-91436518D01*
X177487586Y-91435578D01*
X177487584Y-91435578D01*
X177431890Y-91424500D01*
X177431887Y-91424500D01*
X177431886Y-91424500D01*
X167360452Y-91424500D01*
X167293413Y-91404815D01*
X167272771Y-91388181D01*
X166775793Y-90891203D01*
X166742308Y-90829880D01*
X166741887Y-90827864D01*
X166719737Y-90716503D01*
X166695599Y-90658230D01*
X166659397Y-90570827D01*
X166659390Y-90570814D01*
X166571789Y-90439711D01*
X166571786Y-90439707D01*
X166494261Y-90362182D01*
X166460776Y-90300859D01*
X166465760Y-90231167D01*
X166507632Y-90175234D01*
X166573096Y-90150817D01*
X166581942Y-90150501D01*
X184184107Y-90150501D01*
X184246518Y-90150501D01*
X184253470Y-90150696D01*
X184291131Y-90152810D01*
X184562098Y-90168028D01*
X184575897Y-90169582D01*
X184877214Y-90220778D01*
X184890753Y-90223868D01*
X185184443Y-90308479D01*
X185197562Y-90313069D01*
X185479923Y-90430027D01*
X185492437Y-90436053D01*
X185736281Y-90570821D01*
X185759935Y-90583894D01*
X185771696Y-90591284D01*
X186020964Y-90768150D01*
X186031813Y-90776801D01*
X186130067Y-90864606D01*
X186259707Y-90980459D01*
X186269540Y-90990292D01*
X186473193Y-91218180D01*
X186481851Y-91229037D01*
X186658712Y-91478299D01*
X186666105Y-91490064D01*
X186813942Y-91757555D01*
X186819975Y-91770083D01*
X186936929Y-92052436D01*
X186941522Y-92065561D01*
X187026128Y-92359235D01*
X187029222Y-92372792D01*
X187080415Y-92674091D01*
X187081972Y-92687909D01*
X187099304Y-92996528D01*
X187099499Y-93003481D01*
X187099499Y-152396518D01*
X187099304Y-152403471D01*
X187081972Y-152712090D01*
X187080415Y-152725908D01*
X187029222Y-153027207D01*
X187026128Y-153040764D01*
X186941522Y-153334438D01*
X186936929Y-153347563D01*
X186819975Y-153629916D01*
X186813942Y-153642444D01*
X186666105Y-153909935D01*
X186658707Y-153921708D01*
X186481858Y-154170953D01*
X186473193Y-154181819D01*
X186269540Y-154409707D01*
X186259707Y-154419540D01*
X186031819Y-154623193D01*
X186020953Y-154631858D01*
X185929841Y-154696506D01*
X185771709Y-154808707D01*
X185759935Y-154816105D01*
X185492444Y-154963942D01*
X185479916Y-154969975D01*
X185197563Y-155086929D01*
X185184438Y-155091522D01*
X184890764Y-155176128D01*
X184877207Y-155179222D01*
X184575908Y-155230415D01*
X184562090Y-155231972D01*
X184253471Y-155249304D01*
X184246518Y-155249499D01*
X163053480Y-155249499D01*
X163046527Y-155249304D01*
X162737907Y-155231972D01*
X162724089Y-155230415D01*
X162422790Y-155179222D01*
X162409233Y-155176128D01*
X162115559Y-155091522D01*
X162102434Y-155086929D01*
X161820081Y-154969975D01*
X161807553Y-154963942D01*
X161540062Y-154816105D01*
X161528297Y-154808712D01*
X161279035Y-154631851D01*
X161268178Y-154623193D01*
X161040290Y-154419540D01*
X161030457Y-154409707D01*
X161022229Y-154400500D01*
X160826799Y-154181813D01*
X160818148Y-154170964D01*
X160641282Y-153921696D01*
X160633892Y-153909935D01*
X160486051Y-153642437D01*
X160480025Y-153629923D01*
X160363067Y-153347562D01*
X160358475Y-153334438D01*
X160327451Y-153226751D01*
X160273866Y-153040753D01*
X160270775Y-153027207D01*
X160219580Y-152725897D01*
X160218026Y-152712098D01*
X160200694Y-152403470D01*
X160200499Y-152396518D01*
X160200499Y-93003481D01*
X160200694Y-92996529D01*
X160207284Y-92879179D01*
X160218026Y-92687899D01*
X160219580Y-92674104D01*
X160270777Y-92372781D01*
X160273865Y-92359250D01*
X160358478Y-92065550D01*
X160363068Y-92052436D01*
X160480028Y-91770068D01*
X160486048Y-91757569D01*
X160633898Y-91490054D01*
X160641276Y-91478311D01*
X160818154Y-91229026D01*
X160826792Y-91218194D01*
X161030467Y-90990281D01*
X161040279Y-90980469D01*
X161268192Y-90776794D01*
X161279024Y-90768156D01*
X161528309Y-90591278D01*
X161540052Y-90583900D01*
X161807567Y-90436050D01*
X161820066Y-90430030D01*
X162102441Y-90313067D01*
X162115548Y-90308480D01*
X162409248Y-90223867D01*
X162422779Y-90220779D01*
X162724102Y-90169582D01*
X162737897Y-90168028D01*
X163012074Y-90152630D01*
X163046528Y-90150696D01*
X163053480Y-90150501D01*
X163115891Y-90150501D01*
X165318058Y-90150501D01*
X165385097Y-90170186D01*
G37*
%TD.AperFunction*%
%TA.AperFunction,Conductor*%
G36*
X165605703Y-114340739D02*
G01*
X165612181Y-114346771D01*
X166809169Y-115543760D01*
X166842654Y-115605083D01*
X166839419Y-115669758D01*
X166788910Y-115825211D01*
X166749500Y-116074038D01*
X166749500Y-116325962D01*
X166788910Y-116574785D01*
X166866760Y-116814383D01*
X166981132Y-117038848D01*
X167129201Y-117242649D01*
X167129205Y-117242654D01*
X167307345Y-117420794D01*
X167307350Y-117420798D01*
X167453929Y-117527293D01*
X167511155Y-117568870D01*
X167654184Y-117641747D01*
X167735616Y-117683239D01*
X167735618Y-117683239D01*
X167735621Y-117683241D01*
X167975215Y-117761090D01*
X168224038Y-117800500D01*
X168224039Y-117800500D01*
X168475961Y-117800500D01*
X168475962Y-117800500D01*
X168724785Y-117761090D01*
X168964379Y-117683241D01*
X169188845Y-117568870D01*
X169392656Y-117420793D01*
X169570793Y-117242656D01*
X169718870Y-117038845D01*
X169833241Y-116814379D01*
X169834912Y-116809233D01*
X169874344Y-116751557D01*
X169938700Y-116724353D01*
X170007547Y-116736261D01*
X170040527Y-116759862D01*
X171263181Y-117982516D01*
X171296666Y-118043839D01*
X171299500Y-118070197D01*
X171299500Y-118951866D01*
X171323535Y-119072699D01*
X171323540Y-119072716D01*
X171370685Y-119186535D01*
X171370687Y-119186538D01*
X171370688Y-119186541D01*
X171404915Y-119237764D01*
X171439142Y-119288988D01*
X171526267Y-119376113D01*
X171526269Y-119376114D01*
X171536232Y-119386077D01*
X171845925Y-119695770D01*
X171879410Y-119757093D01*
X171874426Y-119826785D01*
X171832554Y-119882718D01*
X171825764Y-119887039D01*
X171825886Y-119887221D01*
X171689711Y-119978210D01*
X171689707Y-119978213D01*
X171578213Y-120089707D01*
X171578210Y-120089711D01*
X171490609Y-120220814D01*
X171490602Y-120220827D01*
X171430264Y-120366498D01*
X171430261Y-120366508D01*
X171416920Y-120433579D01*
X171384535Y-120495490D01*
X171382986Y-120497066D01*
X171364728Y-120515323D01*
X171364726Y-120515326D01*
X171293534Y-120621874D01*
X171244499Y-120740255D01*
X171244497Y-120740261D01*
X171219500Y-120865928D01*
X171219500Y-124544222D01*
X171233409Y-124614142D01*
X171233409Y-124614144D01*
X171244497Y-124669888D01*
X171244499Y-124669896D01*
X171277827Y-124750358D01*
X171293535Y-124788279D01*
X171364723Y-124894821D01*
X171364726Y-124894825D01*
X171364727Y-124894826D01*
X173215165Y-126745263D01*
X173248650Y-126806586D01*
X173243666Y-126876278D01*
X173201794Y-126932211D01*
X173143670Y-126955883D01*
X172979591Y-126977485D01*
X172938660Y-126982874D01*
X172691687Y-127049050D01*
X172691677Y-127049053D01*
X172455468Y-127146894D01*
X172455457Y-127146899D01*
X172234042Y-127274734D01*
X172234026Y-127274745D01*
X172031188Y-127430388D01*
X172031181Y-127430394D01*
X171850394Y-127611181D01*
X171850388Y-127611188D01*
X171694745Y-127814026D01*
X171694734Y-127814042D01*
X171566899Y-128035457D01*
X171566897Y-128035463D01*
X171469053Y-128271677D01*
X171469050Y-128271687D01*
X171402874Y-128518661D01*
X171369500Y-128772149D01*
X171369500Y-129027850D01*
X171386596Y-129157697D01*
X171402874Y-129281340D01*
X171413889Y-129322447D01*
X171469050Y-129528312D01*
X171469053Y-129528322D01*
X171566894Y-129764531D01*
X171566899Y-129764542D01*
X171694734Y-129985957D01*
X171694745Y-129985973D01*
X171850388Y-130188811D01*
X171850394Y-130188818D01*
X172031181Y-130369605D01*
X172031187Y-130369610D01*
X172234035Y-130525261D01*
X172234042Y-130525265D01*
X172455457Y-130653100D01*
X172455462Y-130653102D01*
X172455465Y-130653104D01*
X172691687Y-130750950D01*
X172938660Y-130817126D01*
X173192157Y-130850500D01*
X173192164Y-130850500D01*
X173447836Y-130850500D01*
X173447843Y-130850500D01*
X173701340Y-130817126D01*
X173948313Y-130750950D01*
X174184535Y-130653104D01*
X174405965Y-130525261D01*
X174600014Y-130376362D01*
X174665183Y-130351168D01*
X174733628Y-130365206D01*
X174783617Y-130414020D01*
X174799500Y-130474738D01*
X174799500Y-137900500D01*
X174779815Y-137967539D01*
X174727011Y-138013294D01*
X174675500Y-138024500D01*
X174099998Y-138024500D01*
X174099980Y-138024501D01*
X173997203Y-138035000D01*
X173997200Y-138035001D01*
X173830668Y-138090185D01*
X173830663Y-138090187D01*
X173681342Y-138182289D01*
X173557289Y-138306342D01*
X173517420Y-138370981D01*
X173465472Y-138417705D01*
X173396509Y-138428928D01*
X173332427Y-138401084D01*
X173324200Y-138393565D01*
X173216602Y-138285967D01*
X173076524Y-138184195D01*
X172922257Y-138105591D01*
X172757589Y-138052087D01*
X172757581Y-138052085D01*
X172750000Y-138050884D01*
X172750000Y-139119670D01*
X172730255Y-139099925D01*
X172644745Y-139050556D01*
X172549370Y-139025000D01*
X172450630Y-139025000D01*
X172355255Y-139050556D01*
X172269745Y-139099925D01*
X172250000Y-139119670D01*
X172250000Y-138050884D01*
X172249999Y-138050884D01*
X172242418Y-138052085D01*
X172242410Y-138052087D01*
X172077742Y-138105591D01*
X171923475Y-138184195D01*
X171783397Y-138285967D01*
X171660967Y-138408397D01*
X171559195Y-138548475D01*
X171480591Y-138702742D01*
X171427085Y-138867415D01*
X171400000Y-139038428D01*
X171400000Y-139150000D01*
X172219670Y-139150000D01*
X172199925Y-139169745D01*
X172150556Y-139255255D01*
X172125000Y-139350630D01*
X172125000Y-139449370D01*
X172150556Y-139544745D01*
X172199925Y-139630255D01*
X172219670Y-139650000D01*
X171400000Y-139650000D01*
X171400000Y-139761571D01*
X171427085Y-139932584D01*
X171480591Y-140097257D01*
X171559195Y-140251524D01*
X171660967Y-140391602D01*
X171783397Y-140514032D01*
X171923475Y-140615804D01*
X172077744Y-140694408D01*
X172242415Y-140747914D01*
X172242414Y-140747914D01*
X172249999Y-140749115D01*
X172250000Y-140749114D01*
X172250000Y-139680330D01*
X172269745Y-139700075D01*
X172355255Y-139749444D01*
X172450630Y-139775000D01*
X172549370Y-139775000D01*
X172644745Y-139749444D01*
X172730255Y-139700075D01*
X172750000Y-139680330D01*
X172750000Y-140749115D01*
X172757584Y-140747914D01*
X172922255Y-140694408D01*
X173076524Y-140615804D01*
X173216598Y-140514035D01*
X173324199Y-140406434D01*
X173385522Y-140372949D01*
X173455214Y-140377933D01*
X173511148Y-140419804D01*
X173517418Y-140429016D01*
X173557288Y-140493656D01*
X173681344Y-140617712D01*
X173830666Y-140709814D01*
X173997203Y-140764999D01*
X174099991Y-140775500D01*
X174524432Y-140775499D01*
X174591470Y-140795183D01*
X174637225Y-140847987D01*
X174647169Y-140917146D01*
X174618144Y-140980702D01*
X174612112Y-140987180D01*
X171159727Y-144439564D01*
X171159726Y-144439565D01*
X171159723Y-144439570D01*
X171098628Y-144531006D01*
X171098627Y-144531008D01*
X171088537Y-144546107D01*
X171088534Y-144546112D01*
X171039499Y-144664494D01*
X171039497Y-144664500D01*
X171014500Y-144790167D01*
X171014500Y-147800500D01*
X170994815Y-147867539D01*
X170942011Y-147913294D01*
X170890500Y-147924500D01*
X170864234Y-147924500D01*
X170717863Y-147963719D01*
X170586635Y-148039485D01*
X170586632Y-148039487D01*
X170479486Y-148146633D01*
X170479482Y-148146638D01*
X170472923Y-148158000D01*
X170422356Y-148206216D01*
X170365536Y-148220000D01*
X169810000Y-148220000D01*
X169810000Y-147720000D01*
X170510000Y-147720000D01*
X170510000Y-147321508D01*
X170509999Y-147321504D01*
X170471572Y-147128318D01*
X170471569Y-147128306D01*
X170396192Y-146946328D01*
X170396185Y-146946315D01*
X170286751Y-146782537D01*
X170286748Y-146782533D01*
X170147466Y-146643251D01*
X170147462Y-146643248D01*
X169983684Y-146533814D01*
X169983671Y-146533807D01*
X169801691Y-146458429D01*
X169801683Y-146458427D01*
X169760000Y-146450135D01*
X169760000Y-147253011D01*
X169750060Y-147235795D01*
X169694205Y-147179940D01*
X169625796Y-147140444D01*
X169549496Y-147120000D01*
X169470504Y-147120000D01*
X169394204Y-147140444D01*
X169325795Y-147179940D01*
X169269940Y-147235795D01*
X169260000Y-147253011D01*
X169260000Y-146450136D01*
X169259999Y-146450135D01*
X169218316Y-146458427D01*
X169218308Y-146458429D01*
X169036328Y-146533807D01*
X169036315Y-146533814D01*
X168872537Y-146643248D01*
X168872533Y-146643251D01*
X168733251Y-146782533D01*
X168733248Y-146782537D01*
X168623814Y-146946315D01*
X168623807Y-146946328D01*
X168548430Y-147128306D01*
X168548427Y-147128318D01*
X168510000Y-147321504D01*
X168510000Y-147720000D01*
X169210000Y-147720000D01*
X169210000Y-148220000D01*
X168510000Y-148220000D01*
X168510000Y-148326048D01*
X168490315Y-148393087D01*
X168437511Y-148438842D01*
X168368353Y-148448786D01*
X168304797Y-148419761D01*
X168298319Y-148413729D01*
X165436819Y-145552229D01*
X165403334Y-145490906D01*
X165400500Y-145464548D01*
X165400500Y-135821153D01*
X165999500Y-135821153D01*
X165999500Y-135978846D01*
X166030261Y-136133489D01*
X166030263Y-136133497D01*
X166040061Y-136157151D01*
X166049500Y-136204604D01*
X166049500Y-139173918D01*
X166049500Y-139173920D01*
X166049499Y-139173920D01*
X166078340Y-139318907D01*
X166078343Y-139318917D01*
X166134913Y-139455491D01*
X166137349Y-139459136D01*
X166137351Y-139459142D01*
X166137352Y-139459142D01*
X166217046Y-139578414D01*
X166217052Y-139578421D01*
X167253927Y-140615295D01*
X167280806Y-140655521D01*
X167290606Y-140679179D01*
X167290607Y-140679181D01*
X167378207Y-140810284D01*
X167378213Y-140810292D01*
X167489707Y-140921786D01*
X167489711Y-140921789D01*
X167620814Y-141009390D01*
X167620827Y-141009397D01*
X167766498Y-141069735D01*
X167766503Y-141069737D01*
X167921153Y-141100499D01*
X167921156Y-141100500D01*
X167921158Y-141100500D01*
X168078844Y-141100500D01*
X168078845Y-141100499D01*
X168233497Y-141069737D01*
X168379179Y-141009394D01*
X168510289Y-140921789D01*
X168621789Y-140810289D01*
X168709394Y-140679179D01*
X168769737Y-140533497D01*
X168800500Y-140378842D01*
X168800500Y-140221158D01*
X168800500Y-140221155D01*
X168800499Y-140221153D01*
X168791875Y-140177797D01*
X168769737Y-140066503D01*
X168744927Y-140006606D01*
X168709397Y-139920827D01*
X168709390Y-139920814D01*
X168621789Y-139789711D01*
X168621786Y-139789707D01*
X168527537Y-139695458D01*
X168527534Y-139695456D01*
X168510289Y-139678211D01*
X168379179Y-139590606D01*
X168344899Y-139576406D01*
X168335263Y-139570125D01*
X168329564Y-139563461D01*
X168315295Y-139553927D01*
X167586819Y-138825451D01*
X167553334Y-138764128D01*
X167550500Y-138737770D01*
X167550500Y-136204604D01*
X167559939Y-136157151D01*
X167569737Y-136133497D01*
X167600500Y-135978842D01*
X167600500Y-135821158D01*
X167600500Y-135821155D01*
X167600499Y-135821153D01*
X167569738Y-135666510D01*
X167569737Y-135666503D01*
X167569735Y-135666498D01*
X167509397Y-135520827D01*
X167509390Y-135520814D01*
X167421789Y-135389711D01*
X167421786Y-135389707D01*
X167310292Y-135278213D01*
X167310288Y-135278210D01*
X167179185Y-135190609D01*
X167179172Y-135190602D01*
X167033501Y-135130264D01*
X167033489Y-135130261D01*
X166878845Y-135099500D01*
X166878842Y-135099500D01*
X166721158Y-135099500D01*
X166721155Y-135099500D01*
X166566510Y-135130261D01*
X166566498Y-135130264D01*
X166420827Y-135190602D01*
X166420814Y-135190609D01*
X166289711Y-135278210D01*
X166289707Y-135278213D01*
X166178213Y-135389707D01*
X166178210Y-135389711D01*
X166090609Y-135520814D01*
X166090602Y-135520827D01*
X166030264Y-135666498D01*
X166030261Y-135666510D01*
X165999500Y-135821153D01*
X165400500Y-135821153D01*
X165400500Y-133016228D01*
X167249500Y-133016228D01*
X167249500Y-133183771D01*
X167282182Y-133348074D01*
X167282184Y-133348082D01*
X167346295Y-133502860D01*
X167439373Y-133642162D01*
X167557837Y-133760626D01*
X167650494Y-133822537D01*
X167697137Y-133853703D01*
X167851918Y-133917816D01*
X168016228Y-133950499D01*
X168016232Y-133950500D01*
X168016233Y-133950500D01*
X168183768Y-133950500D01*
X168183769Y-133950499D01*
X168348082Y-133917816D01*
X168502863Y-133853703D01*
X168642162Y-133760626D01*
X168760626Y-133642162D01*
X168853703Y-133502863D01*
X168917816Y-133348082D01*
X168950500Y-133183767D01*
X168950500Y-133016233D01*
X168917816Y-132851918D01*
X168853703Y-132697137D01*
X168822537Y-132650494D01*
X168760626Y-132557837D01*
X168642162Y-132439373D01*
X168502860Y-132346295D01*
X168348082Y-132282184D01*
X168348074Y-132282182D01*
X168183771Y-132249500D01*
X168183767Y-132249500D01*
X168016233Y-132249500D01*
X168016228Y-132249500D01*
X167851925Y-132282182D01*
X167851917Y-132282184D01*
X167697139Y-132346295D01*
X167557837Y-132439373D01*
X167439373Y-132557837D01*
X167346295Y-132697139D01*
X167282184Y-132851917D01*
X167282182Y-132851925D01*
X167249500Y-133016228D01*
X165400500Y-133016228D01*
X165400500Y-128813389D01*
X166719500Y-128813389D01*
X166719500Y-128986611D01*
X166746598Y-129157701D01*
X166800127Y-129322445D01*
X166878768Y-129476788D01*
X166980586Y-129616928D01*
X167103072Y-129739414D01*
X167243212Y-129841232D01*
X167397555Y-129919873D01*
X167562299Y-129973402D01*
X167733389Y-130000500D01*
X167733390Y-130000500D01*
X167906610Y-130000500D01*
X167906611Y-130000500D01*
X168077701Y-129973402D01*
X168242445Y-129919873D01*
X168396788Y-129841232D01*
X168536928Y-129739414D01*
X168659414Y-129616928D01*
X168761232Y-129476788D01*
X168839873Y-129322445D01*
X168893402Y-129157701D01*
X168920500Y-128986611D01*
X168920500Y-128813389D01*
X168893402Y-128642299D01*
X168839873Y-128477555D01*
X168761232Y-128323212D01*
X168659414Y-128183072D01*
X168536928Y-128060586D01*
X168396788Y-127958768D01*
X168242445Y-127880127D01*
X168077701Y-127826598D01*
X168077699Y-127826597D01*
X168077698Y-127826597D01*
X167946271Y-127805781D01*
X167906611Y-127799500D01*
X167733389Y-127799500D01*
X167693728Y-127805781D01*
X167562302Y-127826597D01*
X167562299Y-127826598D01*
X167427455Y-127870412D01*
X167397552Y-127880128D01*
X167243211Y-127958768D01*
X167191852Y-127996083D01*
X167103072Y-128060586D01*
X167103070Y-128060588D01*
X167103069Y-128060588D01*
X166980588Y-128183069D01*
X166980588Y-128183070D01*
X166980586Y-128183072D01*
X166965500Y-128203836D01*
X166878768Y-128323211D01*
X166800128Y-128477552D01*
X166746597Y-128642302D01*
X166719500Y-128813389D01*
X165400500Y-128813389D01*
X165400500Y-114434452D01*
X165420185Y-114367413D01*
X165472989Y-114321658D01*
X165542147Y-114311714D01*
X165605703Y-114340739D01*
G37*
%TD.AperFunction*%
%TA.AperFunction,Conductor*%
G36*
X177069334Y-147367769D02*
G01*
X177125267Y-147409641D01*
X177149684Y-147475105D01*
X177150000Y-147483951D01*
X177150000Y-147720000D01*
X177850000Y-147720000D01*
X177850000Y-148220000D01*
X177294464Y-148220000D01*
X177227425Y-148200315D01*
X177187077Y-148158000D01*
X177180517Y-148146638D01*
X177180513Y-148146633D01*
X177073367Y-148039487D01*
X177073365Y-148039485D01*
X177007750Y-148001602D01*
X176942136Y-147963719D01*
X176868950Y-147944109D01*
X176795766Y-147924500D01*
X176709451Y-147924500D01*
X176642412Y-147904815D01*
X176596657Y-147852011D01*
X176586713Y-147782853D01*
X176615738Y-147719297D01*
X176621770Y-147712819D01*
X176938319Y-147396270D01*
X176999642Y-147362785D01*
X177069334Y-147367769D01*
G37*
%TD.AperFunction*%
%TA.AperFunction,Conductor*%
G36*
X175125203Y-122975495D02*
G01*
X175131681Y-122981527D01*
X176733738Y-124583584D01*
X176767223Y-124644907D01*
X176763989Y-124709580D01*
X176758911Y-124725209D01*
X176758910Y-124725213D01*
X176719500Y-124974038D01*
X176719500Y-125225961D01*
X176758910Y-125474785D01*
X176836760Y-125714383D01*
X176951132Y-125938848D01*
X177099201Y-126142649D01*
X177099205Y-126142654D01*
X177277345Y-126320794D01*
X177277350Y-126320798D01*
X177455117Y-126449952D01*
X177481155Y-126468870D01*
X177624184Y-126541747D01*
X177705616Y-126583239D01*
X177705618Y-126583239D01*
X177705621Y-126583241D01*
X177834049Y-126624970D01*
X177945214Y-126661090D01*
X177977612Y-126666221D01*
X178133629Y-126690932D01*
X178196762Y-126720860D01*
X178233694Y-126780171D01*
X178232696Y-126850034D01*
X178201911Y-126901085D01*
X177693639Y-127409358D01*
X177196270Y-127906727D01*
X177196267Y-127906730D01*
X177152704Y-127950292D01*
X177109142Y-127993854D01*
X177107655Y-127996080D01*
X177081339Y-128035465D01*
X177040690Y-128096298D01*
X177040685Y-128096307D01*
X177029124Y-128124220D01*
X176993538Y-128210132D01*
X176993535Y-128210144D01*
X176969500Y-128330977D01*
X176969500Y-139634547D01*
X176949815Y-139701586D01*
X176933181Y-139722228D01*
X176312181Y-140343228D01*
X176250858Y-140376713D01*
X176181166Y-140371729D01*
X176125233Y-140329857D01*
X176100816Y-140264393D01*
X176100500Y-140255547D01*
X176100500Y-127996080D01*
X176075502Y-127870412D01*
X176075500Y-127870406D01*
X176063648Y-127841795D01*
X176055189Y-127821373D01*
X176052146Y-127814026D01*
X176026468Y-127752030D01*
X176026462Y-127752020D01*
X175955278Y-127645484D01*
X175955272Y-127645477D01*
X173121475Y-124811681D01*
X173087990Y-124750358D01*
X173092974Y-124680666D01*
X173134846Y-124624733D01*
X173200310Y-124600316D01*
X173209156Y-124600000D01*
X173445928Y-124600000D01*
X173694669Y-124560602D01*
X173934184Y-124482780D01*
X174158575Y-124368446D01*
X174158581Y-124368442D01*
X174260697Y-124294250D01*
X174260698Y-124294250D01*
X173605757Y-123639309D01*
X173651574Y-123620332D01*
X173766224Y-123543726D01*
X173863726Y-123446224D01*
X173940332Y-123331574D01*
X173959309Y-123285757D01*
X174614250Y-123940698D01*
X174614250Y-123940697D01*
X174688442Y-123838581D01*
X174688446Y-123838575D01*
X174802780Y-123614184D01*
X174880602Y-123374669D01*
X174920000Y-123125928D01*
X174920000Y-123069208D01*
X174939685Y-123002169D01*
X174992489Y-122956414D01*
X175061647Y-122946470D01*
X175125203Y-122975495D01*
G37*
%TD.AperFunction*%
%TA.AperFunction,Conductor*%
G36*
X176940471Y-93145185D02*
G01*
X176961113Y-93161819D01*
X180150630Y-96351336D01*
X180184115Y-96412659D01*
X180179131Y-96482351D01*
X180166051Y-96507907D01*
X180090612Y-96620809D01*
X180090602Y-96620827D01*
X180030264Y-96766498D01*
X180030261Y-96766510D01*
X179999500Y-96921153D01*
X179999500Y-97078846D01*
X180030261Y-97233489D01*
X180030263Y-97233496D01*
X180062338Y-97310935D01*
X180069806Y-97380404D01*
X180038530Y-97442883D01*
X180035457Y-97446067D01*
X179868136Y-97613389D01*
X179726270Y-97755255D01*
X179726267Y-97755258D01*
X179682703Y-97798821D01*
X179639140Y-97842384D01*
X179614047Y-97879939D01*
X179614042Y-97879947D01*
X179611078Y-97884384D01*
X179570688Y-97944830D01*
X179550022Y-97994724D01*
X179547403Y-98001046D01*
X179547399Y-98001054D01*
X179523537Y-98058663D01*
X179523535Y-98058669D01*
X179513154Y-98110856D01*
X179513155Y-98110857D01*
X179499540Y-98179311D01*
X179499500Y-98179509D01*
X179499500Y-98820491D01*
X179506107Y-98853713D01*
X179523535Y-98941328D01*
X179523538Y-98941340D01*
X179529922Y-98956753D01*
X179529928Y-98956766D01*
X179531374Y-98960256D01*
X179570688Y-99055170D01*
X179592888Y-99088393D01*
X179597548Y-99095367D01*
X179597549Y-99095369D01*
X179639141Y-99157616D01*
X179643007Y-99162327D01*
X179641809Y-99163309D01*
X179671662Y-99217961D01*
X179674500Y-99244337D01*
X179674500Y-111395377D01*
X179654815Y-111462416D01*
X179602011Y-111508171D01*
X179532853Y-111518115D01*
X179477615Y-111495695D01*
X179426792Y-111458770D01*
X179272447Y-111380128D01*
X179272446Y-111380127D01*
X179272445Y-111380127D01*
X179107701Y-111326598D01*
X179107699Y-111326597D01*
X179107698Y-111326597D01*
X178976271Y-111305781D01*
X178936611Y-111299500D01*
X178763389Y-111299500D01*
X178723728Y-111305781D01*
X178592302Y-111326597D01*
X178427552Y-111380128D01*
X178273211Y-111458768D01*
X178216461Y-111500000D01*
X178133072Y-111560586D01*
X178133070Y-111560588D01*
X178133069Y-111560588D01*
X178010588Y-111683069D01*
X178010588Y-111683070D01*
X178010586Y-111683072D01*
X177966859Y-111743256D01*
X177908768Y-111823211D01*
X177830128Y-111977552D01*
X177776597Y-112142302D01*
X177753601Y-112287495D01*
X177749500Y-112313389D01*
X177749500Y-112486611D01*
X177776598Y-112657701D01*
X177830127Y-112822445D01*
X177908768Y-112976788D01*
X178010586Y-113116928D01*
X178133072Y-113239414D01*
X178273212Y-113341232D01*
X178427555Y-113419873D01*
X178592299Y-113473402D01*
X178763389Y-113500500D01*
X178763390Y-113500500D01*
X178936610Y-113500500D01*
X178936611Y-113500500D01*
X179107701Y-113473402D01*
X179272445Y-113419873D01*
X179426788Y-113341232D01*
X179437066Y-113333764D01*
X179477614Y-113304305D01*
X179543420Y-113280824D01*
X179611474Y-113296649D01*
X179660169Y-113346754D01*
X179674500Y-113404622D01*
X179674500Y-123255292D01*
X179668261Y-123276537D01*
X179666682Y-123298625D01*
X179658609Y-123309408D01*
X179654815Y-123322331D01*
X179638081Y-123336830D01*
X179624811Y-123354558D01*
X179612190Y-123359265D01*
X179602011Y-123368086D01*
X179580094Y-123371237D01*
X179559347Y-123378976D01*
X179546185Y-123376113D01*
X179532853Y-123378030D01*
X179512711Y-123368831D01*
X179491074Y-123364125D01*
X179473345Y-123350853D01*
X179469297Y-123349005D01*
X179462819Y-123342974D01*
X179442176Y-123322331D01*
X179396114Y-123276269D01*
X179396113Y-123276267D01*
X179308988Y-123189142D01*
X179308987Y-123189141D01*
X179308986Y-123189140D01*
X179263580Y-123158801D01*
X179263579Y-123158800D01*
X179257764Y-123154915D01*
X179206541Y-123120688D01*
X179126047Y-123087347D01*
X179110712Y-123080995D01*
X179092708Y-123073537D01*
X179082682Y-123071543D01*
X179032284Y-123061518D01*
X178971865Y-123049500D01*
X178971862Y-123049500D01*
X178971861Y-123049500D01*
X177656594Y-123049500D01*
X177589555Y-123029815D01*
X177568913Y-123013181D01*
X175436819Y-120881087D01*
X175403334Y-120819764D01*
X175400500Y-120793406D01*
X175400500Y-117777486D01*
X175400501Y-117777465D01*
X175400501Y-117648136D01*
X175376464Y-117527300D01*
X175376463Y-117527294D01*
X175329312Y-117413460D01*
X175260858Y-117311012D01*
X175260855Y-117311008D01*
X174436077Y-116486232D01*
X174426114Y-116476269D01*
X174426113Y-116476267D01*
X174338988Y-116389142D01*
X174287764Y-116354915D01*
X174236541Y-116320688D01*
X174236538Y-116320686D01*
X174236535Y-116320685D01*
X174162858Y-116290168D01*
X174162856Y-116290167D01*
X174156047Y-116287347D01*
X174122707Y-116273537D01*
X174062284Y-116261518D01*
X174057561Y-116260578D01*
X174057559Y-116260578D01*
X174001865Y-116249500D01*
X174001862Y-116249500D01*
X174001861Y-116249500D01*
X171987104Y-116249500D01*
X171920065Y-116229815D01*
X171899423Y-116213181D01*
X169622473Y-113936232D01*
X169612510Y-113926269D01*
X169612509Y-113926267D01*
X169525384Y-113839142D01*
X169474160Y-113804915D01*
X169422937Y-113770688D01*
X169422934Y-113770686D01*
X169422931Y-113770685D01*
X169349254Y-113740168D01*
X169349252Y-113740167D01*
X169342443Y-113737347D01*
X169309103Y-113723537D01*
X169248680Y-113711518D01*
X169243957Y-113710578D01*
X169243955Y-113710578D01*
X169188261Y-113699500D01*
X169188258Y-113699500D01*
X169188257Y-113699500D01*
X168194747Y-113699500D01*
X168127708Y-113679815D01*
X168081953Y-113627011D01*
X168072009Y-113557853D01*
X168101034Y-113494297D01*
X168156428Y-113457569D01*
X168272445Y-113419873D01*
X168426788Y-113341232D01*
X168566928Y-113239414D01*
X168689414Y-113116928D01*
X168791232Y-112976788D01*
X168869873Y-112822445D01*
X168923402Y-112657701D01*
X168950500Y-112486611D01*
X168950500Y-112313389D01*
X168943970Y-112272163D01*
X168943968Y-112272149D01*
X171399500Y-112272149D01*
X171399500Y-112527850D01*
X171416596Y-112657697D01*
X171432874Y-112781340D01*
X171443889Y-112822447D01*
X171499050Y-113028312D01*
X171499053Y-113028322D01*
X171596894Y-113264531D01*
X171596899Y-113264542D01*
X171724734Y-113485957D01*
X171724745Y-113485973D01*
X171880388Y-113688811D01*
X171880394Y-113688818D01*
X172061181Y-113869605D01*
X172061188Y-113869611D01*
X172069465Y-113875962D01*
X172264035Y-114025261D01*
X172264042Y-114025265D01*
X172485457Y-114153100D01*
X172485462Y-114153102D01*
X172485465Y-114153104D01*
X172721687Y-114250950D01*
X172968660Y-114317126D01*
X173222157Y-114350500D01*
X173222164Y-114350500D01*
X173477836Y-114350500D01*
X173477843Y-114350500D01*
X173731340Y-114317126D01*
X173978313Y-114250950D01*
X174214535Y-114153104D01*
X174435965Y-114025261D01*
X174638813Y-113869610D01*
X174819610Y-113688813D01*
X174975261Y-113485965D01*
X175103104Y-113264535D01*
X175200950Y-113028313D01*
X175267126Y-112781340D01*
X175300500Y-112527843D01*
X175300500Y-112272157D01*
X175267126Y-112018660D01*
X175200950Y-111771687D01*
X175103104Y-111535465D01*
X175103102Y-111535462D01*
X175103100Y-111535457D01*
X174975265Y-111314042D01*
X174975261Y-111314035D01*
X174819610Y-111111187D01*
X174819605Y-111111181D01*
X174638818Y-110930394D01*
X174638811Y-110930388D01*
X174435973Y-110774745D01*
X174435971Y-110774743D01*
X174435965Y-110774739D01*
X174435960Y-110774736D01*
X174435957Y-110774734D01*
X174214542Y-110646899D01*
X174214531Y-110646894D01*
X173978322Y-110549053D01*
X173978315Y-110549051D01*
X173978313Y-110549050D01*
X173731340Y-110482874D01*
X173675007Y-110475457D01*
X173477850Y-110449500D01*
X173477843Y-110449500D01*
X173222157Y-110449500D01*
X173222149Y-110449500D01*
X172996826Y-110479165D01*
X172968660Y-110482874D01*
X172904745Y-110500000D01*
X172721687Y-110549050D01*
X172721677Y-110549053D01*
X172485468Y-110646894D01*
X172485457Y-110646899D01*
X172264042Y-110774734D01*
X172264026Y-110774745D01*
X172061188Y-110930388D01*
X172061181Y-110930394D01*
X171880394Y-111111181D01*
X171880388Y-111111188D01*
X171724745Y-111314026D01*
X171724734Y-111314042D01*
X171596899Y-111535457D01*
X171596894Y-111535468D01*
X171499053Y-111771677D01*
X171499050Y-111771687D01*
X171465247Y-111897844D01*
X171432874Y-112018661D01*
X171399500Y-112272149D01*
X168943968Y-112272149D01*
X168923402Y-112142302D01*
X168923402Y-112142299D01*
X168869873Y-111977555D01*
X168791232Y-111823212D01*
X168689414Y-111683072D01*
X168566928Y-111560586D01*
X168426788Y-111458768D01*
X168272445Y-111380127D01*
X168107701Y-111326598D01*
X168107699Y-111326597D01*
X168107698Y-111326597D01*
X167976271Y-111305781D01*
X167936611Y-111299500D01*
X167763389Y-111299500D01*
X167723728Y-111305781D01*
X167592302Y-111326597D01*
X167427552Y-111380128D01*
X167273211Y-111458768D01*
X167216461Y-111500000D01*
X167133072Y-111560586D01*
X167133070Y-111560588D01*
X167133069Y-111560588D01*
X167010585Y-111683072D01*
X166974817Y-111732303D01*
X166919487Y-111774968D01*
X166849873Y-111780946D01*
X166788079Y-111748339D01*
X166753722Y-111687500D01*
X166750500Y-111659416D01*
X166750500Y-108116228D01*
X177719500Y-108116228D01*
X177719500Y-108283771D01*
X177752182Y-108448074D01*
X177752184Y-108448082D01*
X177816295Y-108602860D01*
X177909373Y-108742162D01*
X178027837Y-108860626D01*
X178120494Y-108922537D01*
X178167137Y-108953703D01*
X178321918Y-109017816D01*
X178486228Y-109050499D01*
X178486232Y-109050500D01*
X178486233Y-109050500D01*
X178653768Y-109050500D01*
X178653769Y-109050499D01*
X178818082Y-109017816D01*
X178972863Y-108953703D01*
X179112162Y-108860626D01*
X179230626Y-108742162D01*
X179323703Y-108602863D01*
X179387816Y-108448082D01*
X179420500Y-108283767D01*
X179420500Y-108116233D01*
X179387816Y-107951918D01*
X179323703Y-107797137D01*
X179265569Y-107710133D01*
X179230626Y-107657837D01*
X179112162Y-107539373D01*
X178972860Y-107446295D01*
X178818082Y-107382184D01*
X178818074Y-107382182D01*
X178653771Y-107349500D01*
X178653767Y-107349500D01*
X178486233Y-107349500D01*
X178486228Y-107349500D01*
X178321925Y-107382182D01*
X178321917Y-107382184D01*
X178167139Y-107446295D01*
X178027837Y-107539373D01*
X177909373Y-107657837D01*
X177816295Y-107797139D01*
X177752184Y-107951917D01*
X177752182Y-107951925D01*
X177719500Y-108116228D01*
X166750500Y-108116228D01*
X166750500Y-98605732D01*
X166770185Y-98538693D01*
X166786819Y-98518051D01*
X167460855Y-97844016D01*
X167460855Y-97844015D01*
X167460858Y-97844013D01*
X167529312Y-97741565D01*
X167576463Y-97627731D01*
X167600501Y-97506886D01*
X167600501Y-97383673D01*
X167600501Y-97378563D01*
X167600500Y-97378537D01*
X167600500Y-96493113D01*
X167600499Y-96493109D01*
X167588804Y-96434314D01*
X167576463Y-96372268D01*
X167537301Y-96277723D01*
X167529312Y-96258435D01*
X167510488Y-96230263D01*
X167460858Y-96155987D01*
X167460855Y-96155983D01*
X167370637Y-96065765D01*
X167370606Y-96065736D01*
X167286819Y-95981949D01*
X167253334Y-95920626D01*
X167250500Y-95894268D01*
X167250500Y-95079510D01*
X167248692Y-95070420D01*
X167248692Y-95070419D01*
X167226464Y-94958671D01*
X167226463Y-94958664D01*
X167179311Y-94844830D01*
X167148379Y-94798537D01*
X167110858Y-94742383D01*
X167023733Y-94655258D01*
X167023732Y-94655257D01*
X166805360Y-94436885D01*
X166771875Y-94375562D01*
X166771424Y-94325015D01*
X166790702Y-94228095D01*
X166800500Y-94178844D01*
X166800500Y-94021155D01*
X166800499Y-94021153D01*
X166769738Y-93866510D01*
X166769737Y-93866503D01*
X166769735Y-93866498D01*
X166709397Y-93720827D01*
X166709390Y-93720814D01*
X166621789Y-93589711D01*
X166621786Y-93589707D01*
X166510292Y-93478213D01*
X166510288Y-93478210D01*
X166397881Y-93403101D01*
X166376839Y-93377923D01*
X166354915Y-93353515D01*
X166354547Y-93351249D01*
X166353076Y-93349488D01*
X166348987Y-93316932D01*
X166343739Y-93284545D01*
X166344655Y-93282440D01*
X166344369Y-93280163D01*
X166358528Y-93250567D01*
X166371625Y-93220481D01*
X166373902Y-93218435D01*
X166374524Y-93217136D01*
X166397876Y-93196900D01*
X166473460Y-93146396D01*
X166540137Y-93125520D01*
X166542350Y-93125500D01*
X176873432Y-93125500D01*
X176940471Y-93145185D01*
G37*
%TD.AperFunction*%
%TD*%
M02*
