M48
; DRILL file KiCad 10.0.4 date 2026-09-26T11:42:47
; FORMAT={-:-/ absolute / metric / decimal}
; #@! TF.CreationDate,2026-09-26T11:42:47-04:00
; #@! TF.GenerationSoftware,Kicad,Pcbnew,10.0.4
; #@! TF.FileFunction,Plated,1,2,PTH
FMAT,2
METRIC
; #@! TA.AperFunction,Plated,PTH,ComponentDrill
T1C0.200
; #@! TA.AperFunction,Plated,PTH,ViaDrill
T2C0.300
; #@! TA.AperFunction,Plated,PTH,ComponentDrill
T3C0.600
; #@! TA.AperFunction,Plated,PTH,ComponentDrill
T4C0.750
; #@! TA.AperFunction,Plated,PTH,ComponentDrill
T5C0.800
; #@! TA.AperFunction,Plated,PTH,ComponentDrill
T6C1.000
; #@! TA.AperFunction,Plated,PTH,ComponentDrill
T7C1.400
; #@! TA.AperFunction,Plated,PTH,ComponentDrill
T8C1.500
%
G90
G05
T1
X173.31Y-96.65
X173.31Y-97.75
X173.86Y-96.1
X173.86Y-97.2
X173.86Y-98.3
X174.41Y-96.65
X174.41Y-97.75
X174.96Y-96.1
X174.96Y-97.2
X174.96Y-98.3
X175.51Y-96.65
X175.51Y-97.75
T2
X161.85Y-99.15
X165.35Y-153.5
X165.9Y-97.0
X165.95Y-90.95
X166.0Y-92.5
X166.0Y-94.1
X166.0Y-95.4
X166.8Y-135.9
X167.1Y-153.6
X167.95Y-138.8
X168.0Y-140.3
X168.3Y-149.3
X172.2Y-120.6
X173.025Y-142.575
X173.6Y-148.35
X174.1Y-145.75
X174.45Y-144.6
X179.5Y-140.65
X180.05Y-143.4
X180.75Y-98.5
X180.8Y-97.0
X180.95Y-151.7
X182.6Y-150.9
T4
X172.5Y-139.4
X174.5Y-139.4
T5
X162.7Y-107.65
X162.7Y-109.65
X162.7Y-111.65
T6
X183.4Y-105.92
X183.4Y-108.46
X183.4Y-111.0
T7
X168.35Y-116.2
X173.32Y-123.0
X173.35Y-118.3
X178.32Y-125.1
T8
X162.7Y-105.55
X162.7Y-113.75
T3
X169.51Y-147.42G85X169.51Y-148.52
G05
X169.51Y-151.85G85X169.51Y-152.45
G05
X178.15Y-147.42G85X178.15Y-148.52
G05
X178.15Y-151.85G85X178.15Y-152.45
G05
M30
