%TF.GenerationSoftware,KiCad,Pcbnew,10.0.4*%
%TF.CreationDate,2026-09-26T11:42:44-04:00*%
%TF.ProjectId,remote,72656d6f-7465-42e6-9b69-6361645f7063,rev?*%
%TF.SameCoordinates,Original*%
%TF.FileFunction,Other,Comment*%
%FSLAX46Y46*%
G04 Gerber Fmt 4.6, Leading zero omitted, Abs format (unit mm)*
G04 Created by KiCad (PCBNEW 10.0.4) date 2026-09-26 11:42:44*
%MOMM*%
%LPD*%
G01*
G04 APERTURE LIST*
%ADD10C,0.150000*%
%ADD11C,0.100000*%
G04 APERTURE END LIST*
D10*
X167378571Y-81454819D02*
X167378571Y-80454819D01*
X167949999Y-81454819D02*
X167521428Y-80883390D01*
X167949999Y-80454819D02*
X167378571Y-81026247D01*
X168378571Y-80931009D02*
X168711904Y-80931009D01*
X168854761Y-81454819D02*
X168378571Y-81454819D01*
X168378571Y-81454819D02*
X168378571Y-80454819D01*
X168378571Y-80454819D02*
X168854761Y-80454819D01*
X169283333Y-80931009D02*
X169616666Y-80931009D01*
X169759523Y-81454819D02*
X169283333Y-81454819D01*
X169283333Y-81454819D02*
X169283333Y-80454819D01*
X169283333Y-80454819D02*
X169759523Y-80454819D01*
X170188095Y-81454819D02*
X170188095Y-80454819D01*
X170188095Y-80454819D02*
X170569047Y-80454819D01*
X170569047Y-80454819D02*
X170664285Y-80502438D01*
X170664285Y-80502438D02*
X170711904Y-80550057D01*
X170711904Y-80550057D02*
X170759523Y-80645295D01*
X170759523Y-80645295D02*
X170759523Y-80788152D01*
X170759523Y-80788152D02*
X170711904Y-80883390D01*
X170711904Y-80883390D02*
X170664285Y-80931009D01*
X170664285Y-80931009D02*
X170569047Y-80978628D01*
X170569047Y-80978628D02*
X170188095Y-80978628D01*
X171188095Y-81073866D02*
X171950000Y-81073866D01*
X172616666Y-80454819D02*
X172807142Y-80454819D01*
X172807142Y-80454819D02*
X172902380Y-80502438D01*
X172902380Y-80502438D02*
X172997618Y-80597676D01*
X172997618Y-80597676D02*
X173045237Y-80788152D01*
X173045237Y-80788152D02*
X173045237Y-81121485D01*
X173045237Y-81121485D02*
X172997618Y-81311961D01*
X172997618Y-81311961D02*
X172902380Y-81407200D01*
X172902380Y-81407200D02*
X172807142Y-81454819D01*
X172807142Y-81454819D02*
X172616666Y-81454819D01*
X172616666Y-81454819D02*
X172521428Y-81407200D01*
X172521428Y-81407200D02*
X172426190Y-81311961D01*
X172426190Y-81311961D02*
X172378571Y-81121485D01*
X172378571Y-81121485D02*
X172378571Y-80788152D01*
X172378571Y-80788152D02*
X172426190Y-80597676D01*
X172426190Y-80597676D02*
X172521428Y-80502438D01*
X172521428Y-80502438D02*
X172616666Y-80454819D01*
X173473809Y-80454819D02*
X173473809Y-81264342D01*
X173473809Y-81264342D02*
X173521428Y-81359580D01*
X173521428Y-81359580D02*
X173569047Y-81407200D01*
X173569047Y-81407200D02*
X173664285Y-81454819D01*
X173664285Y-81454819D02*
X173854761Y-81454819D01*
X173854761Y-81454819D02*
X173949999Y-81407200D01*
X173949999Y-81407200D02*
X173997618Y-81359580D01*
X173997618Y-81359580D02*
X174045237Y-81264342D01*
X174045237Y-81264342D02*
X174045237Y-80454819D01*
X174378571Y-80454819D02*
X174949999Y-80454819D01*
X174664285Y-81454819D02*
X174664285Y-80454819D01*
X175950000Y-80454819D02*
X176616666Y-80454819D01*
X176616666Y-80454819D02*
X175950000Y-81454819D01*
X175950000Y-81454819D02*
X176616666Y-81454819D01*
X177188095Y-80454819D02*
X177378571Y-80454819D01*
X177378571Y-80454819D02*
X177473809Y-80502438D01*
X177473809Y-80502438D02*
X177569047Y-80597676D01*
X177569047Y-80597676D02*
X177616666Y-80788152D01*
X177616666Y-80788152D02*
X177616666Y-81121485D01*
X177616666Y-81121485D02*
X177569047Y-81311961D01*
X177569047Y-81311961D02*
X177473809Y-81407200D01*
X177473809Y-81407200D02*
X177378571Y-81454819D01*
X177378571Y-81454819D02*
X177188095Y-81454819D01*
X177188095Y-81454819D02*
X177092857Y-81407200D01*
X177092857Y-81407200D02*
X176997619Y-81311961D01*
X176997619Y-81311961D02*
X176950000Y-81121485D01*
X176950000Y-81121485D02*
X176950000Y-80788152D01*
X176950000Y-80788152D02*
X176997619Y-80597676D01*
X176997619Y-80597676D02*
X177092857Y-80502438D01*
X177092857Y-80502438D02*
X177188095Y-80454819D01*
X178045238Y-81454819D02*
X178045238Y-80454819D01*
X178045238Y-80454819D02*
X178616666Y-81454819D01*
X178616666Y-81454819D02*
X178616666Y-80454819D01*
X179092857Y-80931009D02*
X179426190Y-80931009D01*
X179569047Y-81454819D02*
X179092857Y-81454819D01*
X179092857Y-81454819D02*
X179092857Y-80454819D01*
X179092857Y-80454819D02*
X179569047Y-80454819D01*
X170688095Y-87169104D02*
X171164285Y-87169104D01*
X170592857Y-87454819D02*
X170926190Y-86454819D01*
X170926190Y-86454819D02*
X171259523Y-87454819D01*
X171592857Y-86788152D02*
X171592857Y-87454819D01*
X171592857Y-86883390D02*
X171640476Y-86835771D01*
X171640476Y-86835771D02*
X171735714Y-86788152D01*
X171735714Y-86788152D02*
X171878571Y-86788152D01*
X171878571Y-86788152D02*
X171973809Y-86835771D01*
X171973809Y-86835771D02*
X172021428Y-86931009D01*
X172021428Y-86931009D02*
X172021428Y-87454819D01*
X172354762Y-86788152D02*
X172735714Y-86788152D01*
X172497619Y-86454819D02*
X172497619Y-87311961D01*
X172497619Y-87311961D02*
X172545238Y-87407200D01*
X172545238Y-87407200D02*
X172640476Y-87454819D01*
X172640476Y-87454819D02*
X172735714Y-87454819D01*
X173450000Y-87407200D02*
X173354762Y-87454819D01*
X173354762Y-87454819D02*
X173164286Y-87454819D01*
X173164286Y-87454819D02*
X173069048Y-87407200D01*
X173069048Y-87407200D02*
X173021429Y-87311961D01*
X173021429Y-87311961D02*
X173021429Y-86931009D01*
X173021429Y-86931009D02*
X173069048Y-86835771D01*
X173069048Y-86835771D02*
X173164286Y-86788152D01*
X173164286Y-86788152D02*
X173354762Y-86788152D01*
X173354762Y-86788152D02*
X173450000Y-86835771D01*
X173450000Y-86835771D02*
X173497619Y-86931009D01*
X173497619Y-86931009D02*
X173497619Y-87026247D01*
X173497619Y-87026247D02*
X173021429Y-87121485D01*
X173926191Y-86788152D02*
X173926191Y-87454819D01*
X173926191Y-86883390D02*
X173973810Y-86835771D01*
X173973810Y-86835771D02*
X174069048Y-86788152D01*
X174069048Y-86788152D02*
X174211905Y-86788152D01*
X174211905Y-86788152D02*
X174307143Y-86835771D01*
X174307143Y-86835771D02*
X174354762Y-86931009D01*
X174354762Y-86931009D02*
X174354762Y-87454819D01*
X174830953Y-86788152D02*
X174830953Y-87454819D01*
X174830953Y-86883390D02*
X174878572Y-86835771D01*
X174878572Y-86835771D02*
X174973810Y-86788152D01*
X174973810Y-86788152D02*
X175116667Y-86788152D01*
X175116667Y-86788152D02*
X175211905Y-86835771D01*
X175211905Y-86835771D02*
X175259524Y-86931009D01*
X175259524Y-86931009D02*
X175259524Y-87454819D01*
X176164286Y-87454819D02*
X176164286Y-86931009D01*
X176164286Y-86931009D02*
X176116667Y-86835771D01*
X176116667Y-86835771D02*
X176021429Y-86788152D01*
X176021429Y-86788152D02*
X175830953Y-86788152D01*
X175830953Y-86788152D02*
X175735715Y-86835771D01*
X176164286Y-87407200D02*
X176069048Y-87454819D01*
X176069048Y-87454819D02*
X175830953Y-87454819D01*
X175830953Y-87454819D02*
X175735715Y-87407200D01*
X175735715Y-87407200D02*
X175688096Y-87311961D01*
X175688096Y-87311961D02*
X175688096Y-87216723D01*
X175688096Y-87216723D02*
X175735715Y-87121485D01*
X175735715Y-87121485D02*
X175830953Y-87073866D01*
X175830953Y-87073866D02*
X176069048Y-87073866D01*
X176069048Y-87073866D02*
X176164286Y-87026247D01*
D11*
X180976109Y-81838095D02*
X180976109Y-82076190D01*
X180976109Y-82076190D02*
X181214204Y-82099999D01*
X181214204Y-82099999D02*
X181190395Y-82076190D01*
X181190395Y-82076190D02*
X181166585Y-82028571D01*
X181166585Y-82028571D02*
X181166585Y-81909523D01*
X181166585Y-81909523D02*
X181190395Y-81861904D01*
X181190395Y-81861904D02*
X181214204Y-81838095D01*
X181214204Y-81838095D02*
X181261823Y-81814285D01*
X181261823Y-81814285D02*
X181380871Y-81814285D01*
X181380871Y-81814285D02*
X181428490Y-81838095D01*
X181428490Y-81838095D02*
X181452300Y-81861904D01*
X181452300Y-81861904D02*
X181476109Y-81909523D01*
X181476109Y-81909523D02*
X181476109Y-82028571D01*
X181476109Y-82028571D02*
X181452300Y-82076190D01*
X181452300Y-82076190D02*
X181428490Y-82099999D01*
X181476109Y-81219048D02*
X181142776Y-81219048D01*
X181190395Y-81219048D02*
X181166585Y-81195238D01*
X181166585Y-81195238D02*
X181142776Y-81147619D01*
X181142776Y-81147619D02*
X181142776Y-81076191D01*
X181142776Y-81076191D02*
X181166585Y-81028572D01*
X181166585Y-81028572D02*
X181214204Y-81004762D01*
X181214204Y-81004762D02*
X181476109Y-81004762D01*
X181214204Y-81004762D02*
X181166585Y-80980953D01*
X181166585Y-80980953D02*
X181142776Y-80933334D01*
X181142776Y-80933334D02*
X181142776Y-80861905D01*
X181142776Y-80861905D02*
X181166585Y-80814286D01*
X181166585Y-80814286D02*
X181214204Y-80790476D01*
X181214204Y-80790476D02*
X181476109Y-80790476D01*
X181476109Y-80552381D02*
X181142776Y-80552381D01*
X181190395Y-80552381D02*
X181166585Y-80528571D01*
X181166585Y-80528571D02*
X181142776Y-80480952D01*
X181142776Y-80480952D02*
X181142776Y-80409524D01*
X181142776Y-80409524D02*
X181166585Y-80361905D01*
X181166585Y-80361905D02*
X181214204Y-80338095D01*
X181214204Y-80338095D02*
X181476109Y-80338095D01*
X181214204Y-80338095D02*
X181166585Y-80314286D01*
X181166585Y-80314286D02*
X181142776Y-80266667D01*
X181142776Y-80266667D02*
X181142776Y-80195238D01*
X181142776Y-80195238D02*
X181166585Y-80147619D01*
X181166585Y-80147619D02*
X181214204Y-80123809D01*
X181214204Y-80123809D02*
X181476109Y-80123809D01*
X184511904Y-85526109D02*
X184273809Y-85526109D01*
X184273809Y-85526109D02*
X184250000Y-85764204D01*
X184250000Y-85764204D02*
X184273809Y-85740395D01*
X184273809Y-85740395D02*
X184321428Y-85716585D01*
X184321428Y-85716585D02*
X184440476Y-85716585D01*
X184440476Y-85716585D02*
X184488095Y-85740395D01*
X184488095Y-85740395D02*
X184511904Y-85764204D01*
X184511904Y-85764204D02*
X184535714Y-85811823D01*
X184535714Y-85811823D02*
X184535714Y-85930871D01*
X184535714Y-85930871D02*
X184511904Y-85978490D01*
X184511904Y-85978490D02*
X184488095Y-86002300D01*
X184488095Y-86002300D02*
X184440476Y-86026109D01*
X184440476Y-86026109D02*
X184321428Y-86026109D01*
X184321428Y-86026109D02*
X184273809Y-86002300D01*
X184273809Y-86002300D02*
X184250000Y-85978490D01*
X185130951Y-86026109D02*
X185130951Y-85692776D01*
X185130951Y-85740395D02*
X185154761Y-85716585D01*
X185154761Y-85716585D02*
X185202380Y-85692776D01*
X185202380Y-85692776D02*
X185273808Y-85692776D01*
X185273808Y-85692776D02*
X185321427Y-85716585D01*
X185321427Y-85716585D02*
X185345237Y-85764204D01*
X185345237Y-85764204D02*
X185345237Y-86026109D01*
X185345237Y-85764204D02*
X185369046Y-85716585D01*
X185369046Y-85716585D02*
X185416665Y-85692776D01*
X185416665Y-85692776D02*
X185488094Y-85692776D01*
X185488094Y-85692776D02*
X185535713Y-85716585D01*
X185535713Y-85716585D02*
X185559523Y-85764204D01*
X185559523Y-85764204D02*
X185559523Y-86026109D01*
X185797618Y-86026109D02*
X185797618Y-85692776D01*
X185797618Y-85740395D02*
X185821428Y-85716585D01*
X185821428Y-85716585D02*
X185869047Y-85692776D01*
X185869047Y-85692776D02*
X185940475Y-85692776D01*
X185940475Y-85692776D02*
X185988094Y-85716585D01*
X185988094Y-85716585D02*
X186011904Y-85764204D01*
X186011904Y-85764204D02*
X186011904Y-86026109D01*
X186011904Y-85764204D02*
X186035713Y-85716585D01*
X186035713Y-85716585D02*
X186083332Y-85692776D01*
X186083332Y-85692776D02*
X186154761Y-85692776D01*
X186154761Y-85692776D02*
X186202380Y-85716585D01*
X186202380Y-85716585D02*
X186226190Y-85764204D01*
X186226190Y-85764204D02*
X186226190Y-86026109D01*
%TO.C,U1*%
X159650000Y-86300000D02*
X159850000Y-86100000D01*
X159650000Y-86300000D02*
X159850000Y-86500000D01*
X159650000Y-86300000D02*
X164250000Y-86300000D01*
X164250000Y-86300000D02*
X164050000Y-86100000D01*
X164250000Y-86300000D02*
X164050000Y-86500000D01*
X181750000Y-79100000D02*
X181550000Y-79300000D01*
X181750000Y-79100000D02*
X181950000Y-79300000D01*
X181750000Y-83700000D02*
X181550000Y-83500000D01*
X181750000Y-83700000D02*
X181750000Y-79100000D01*
X181750000Y-83700000D02*
X181950000Y-83500000D01*
X182650000Y-86300000D02*
X182850000Y-86100000D01*
X182650000Y-86300000D02*
X182850000Y-86500000D01*
X182650000Y-86300000D02*
X187250000Y-86300000D01*
X187250000Y-86300000D02*
X187050000Y-86100000D01*
X187250000Y-86300000D02*
X187050000Y-86500000D01*
%TD*%
M02*
