%TF.GenerationSoftware,KiCad,Pcbnew,10.0.4*%
%TF.CreationDate,2026-09-26T11:42:44-04:00*%
%TF.ProjectId,remote,72656d6f-7465-42e6-9b69-6361645f7063,rev?*%
%TF.SameCoordinates,Original*%
%TF.FileFunction,AssemblyDrawing,Top*%
%FSLAX46Y46*%
G04 Gerber Fmt 4.6, Leading zero omitted, Abs format (unit mm)*
G04 Created by KiCad (PCBNEW 10.0.4) date 2026-09-26 11:42:44*
%MOMM*%
%LPD*%
G01*
G04 APERTURE LIST*
%ADD10C,0.150000*%
%ADD11C,0.060000*%
%ADD12C,0.110000*%
%ADD13C,0.100000*%
G04 APERTURE END LIST*
D10*
X181854761Y-150224819D02*
X181283333Y-150224819D01*
X181569047Y-150224819D02*
X181569047Y-149224819D01*
X181569047Y-149224819D02*
X181473809Y-149367676D01*
X181473809Y-149367676D02*
X181378571Y-149462914D01*
X181378571Y-149462914D02*
X181283333Y-149510533D01*
X182473809Y-149224819D02*
X182569047Y-149224819D01*
X182569047Y-149224819D02*
X182664285Y-149272438D01*
X182664285Y-149272438D02*
X182711904Y-149320057D01*
X182711904Y-149320057D02*
X182759523Y-149415295D01*
X182759523Y-149415295D02*
X182807142Y-149605771D01*
X182807142Y-149605771D02*
X182807142Y-149843866D01*
X182807142Y-149843866D02*
X182759523Y-150034342D01*
X182759523Y-150034342D02*
X182711904Y-150129580D01*
X182711904Y-150129580D02*
X182664285Y-150177200D01*
X182664285Y-150177200D02*
X182569047Y-150224819D01*
X182569047Y-150224819D02*
X182473809Y-150224819D01*
X182473809Y-150224819D02*
X182378571Y-150177200D01*
X182378571Y-150177200D02*
X182330952Y-150129580D01*
X182330952Y-150129580D02*
X182283333Y-150034342D01*
X182283333Y-150034342D02*
X182235714Y-149843866D01*
X182235714Y-149843866D02*
X182235714Y-149605771D01*
X182235714Y-149605771D02*
X182283333Y-149415295D01*
X182283333Y-149415295D02*
X182330952Y-149320057D01*
X182330952Y-149320057D02*
X182378571Y-149272438D01*
X182378571Y-149272438D02*
X182473809Y-149224819D01*
X183235714Y-150224819D02*
X183235714Y-149224819D01*
X183330952Y-149843866D02*
X183616666Y-150224819D01*
X183616666Y-149558152D02*
X183235714Y-149939104D01*
D11*
X182030952Y-151381927D02*
X181897619Y-151191451D01*
X181802381Y-151381927D02*
X181802381Y-150981927D01*
X181802381Y-150981927D02*
X181954762Y-150981927D01*
X181954762Y-150981927D02*
X181992857Y-151000975D01*
X181992857Y-151000975D02*
X182011904Y-151020022D01*
X182011904Y-151020022D02*
X182030952Y-151058118D01*
X182030952Y-151058118D02*
X182030952Y-151115260D01*
X182030952Y-151115260D02*
X182011904Y-151153356D01*
X182011904Y-151153356D02*
X181992857Y-151172403D01*
X181992857Y-151172403D02*
X181954762Y-151191451D01*
X181954762Y-151191451D02*
X181802381Y-151191451D01*
X182107143Y-151420022D02*
X182411904Y-151420022D01*
X182507143Y-151172403D02*
X182640476Y-151172403D01*
X182697619Y-151381927D02*
X182507143Y-151381927D01*
X182507143Y-151381927D02*
X182507143Y-150981927D01*
X182507143Y-150981927D02*
X182697619Y-150981927D01*
X182869048Y-151381927D02*
X182869048Y-150981927D01*
X182869048Y-150981927D02*
X183097619Y-151381927D01*
X183097619Y-151381927D02*
X183097619Y-150981927D01*
D10*
X177735714Y-136829580D02*
X177688095Y-136877200D01*
X177688095Y-136877200D02*
X177545238Y-136924819D01*
X177545238Y-136924819D02*
X177450000Y-136924819D01*
X177450000Y-136924819D02*
X177307143Y-136877200D01*
X177307143Y-136877200D02*
X177211905Y-136781961D01*
X177211905Y-136781961D02*
X177164286Y-136686723D01*
X177164286Y-136686723D02*
X177116667Y-136496247D01*
X177116667Y-136496247D02*
X177116667Y-136353390D01*
X177116667Y-136353390D02*
X177164286Y-136162914D01*
X177164286Y-136162914D02*
X177211905Y-136067676D01*
X177211905Y-136067676D02*
X177307143Y-135972438D01*
X177307143Y-135972438D02*
X177450000Y-135924819D01*
X177450000Y-135924819D02*
X177545238Y-135924819D01*
X177545238Y-135924819D02*
X177688095Y-135972438D01*
X177688095Y-135972438D02*
X177735714Y-136020057D01*
X178164286Y-136924819D02*
X178164286Y-135924819D01*
X178164286Y-136401009D02*
X178735714Y-136401009D01*
X178735714Y-136924819D02*
X178735714Y-135924819D01*
X179735714Y-135972438D02*
X179640476Y-135924819D01*
X179640476Y-135924819D02*
X179497619Y-135924819D01*
X179497619Y-135924819D02*
X179354762Y-135972438D01*
X179354762Y-135972438D02*
X179259524Y-136067676D01*
X179259524Y-136067676D02*
X179211905Y-136162914D01*
X179211905Y-136162914D02*
X179164286Y-136353390D01*
X179164286Y-136353390D02*
X179164286Y-136496247D01*
X179164286Y-136496247D02*
X179211905Y-136686723D01*
X179211905Y-136686723D02*
X179259524Y-136781961D01*
X179259524Y-136781961D02*
X179354762Y-136877200D01*
X179354762Y-136877200D02*
X179497619Y-136924819D01*
X179497619Y-136924819D02*
X179592857Y-136924819D01*
X179592857Y-136924819D02*
X179735714Y-136877200D01*
X179735714Y-136877200D02*
X179783333Y-136829580D01*
X179783333Y-136829580D02*
X179783333Y-136496247D01*
X179783333Y-136496247D02*
X179592857Y-136496247D01*
D11*
X177583333Y-138081927D02*
X177583333Y-137681927D01*
X177583333Y-137681927D02*
X177678571Y-137681927D01*
X177678571Y-137681927D02*
X177735714Y-137700975D01*
X177735714Y-137700975D02*
X177773809Y-137739070D01*
X177773809Y-137739070D02*
X177792856Y-137777165D01*
X177792856Y-137777165D02*
X177811904Y-137853356D01*
X177811904Y-137853356D02*
X177811904Y-137910499D01*
X177811904Y-137910499D02*
X177792856Y-137986689D01*
X177792856Y-137986689D02*
X177773809Y-138024784D01*
X177773809Y-138024784D02*
X177735714Y-138062880D01*
X177735714Y-138062880D02*
X177678571Y-138081927D01*
X177678571Y-138081927D02*
X177583333Y-138081927D01*
X177888095Y-138120022D02*
X178192856Y-138120022D01*
X178516666Y-138043832D02*
X178497618Y-138062880D01*
X178497618Y-138062880D02*
X178440476Y-138081927D01*
X178440476Y-138081927D02*
X178402380Y-138081927D01*
X178402380Y-138081927D02*
X178345237Y-138062880D01*
X178345237Y-138062880D02*
X178307142Y-138024784D01*
X178307142Y-138024784D02*
X178288095Y-137986689D01*
X178288095Y-137986689D02*
X178269047Y-137910499D01*
X178269047Y-137910499D02*
X178269047Y-137853356D01*
X178269047Y-137853356D02*
X178288095Y-137777165D01*
X178288095Y-137777165D02*
X178307142Y-137739070D01*
X178307142Y-137739070D02*
X178345237Y-137700975D01*
X178345237Y-137700975D02*
X178402380Y-137681927D01*
X178402380Y-137681927D02*
X178440476Y-137681927D01*
X178440476Y-137681927D02*
X178497618Y-137700975D01*
X178497618Y-137700975D02*
X178516666Y-137720022D01*
X178688095Y-138081927D02*
X178688095Y-137681927D01*
X178688095Y-137872403D02*
X178916666Y-137872403D01*
X178916666Y-138081927D02*
X178916666Y-137681927D01*
X179316666Y-137700975D02*
X179278571Y-137681927D01*
X179278571Y-137681927D02*
X179221428Y-137681927D01*
X179221428Y-137681927D02*
X179164285Y-137700975D01*
X179164285Y-137700975D02*
X179126190Y-137739070D01*
X179126190Y-137739070D02*
X179107143Y-137777165D01*
X179107143Y-137777165D02*
X179088095Y-137853356D01*
X179088095Y-137853356D02*
X179088095Y-137910499D01*
X179088095Y-137910499D02*
X179107143Y-137986689D01*
X179107143Y-137986689D02*
X179126190Y-138024784D01*
X179126190Y-138024784D02*
X179164285Y-138062880D01*
X179164285Y-138062880D02*
X179221428Y-138081927D01*
X179221428Y-138081927D02*
X179259524Y-138081927D01*
X179259524Y-138081927D02*
X179316666Y-138062880D01*
X179316666Y-138062880D02*
X179335714Y-138043832D01*
X179335714Y-138043832D02*
X179335714Y-137910499D01*
X179335714Y-137910499D02*
X179259524Y-137910499D01*
D10*
X180097618Y-156554819D02*
X179764285Y-156078628D01*
X179526190Y-156554819D02*
X179526190Y-155554819D01*
X179526190Y-155554819D02*
X179907142Y-155554819D01*
X179907142Y-155554819D02*
X180002380Y-155602438D01*
X180002380Y-155602438D02*
X180049999Y-155650057D01*
X180049999Y-155650057D02*
X180097618Y-155745295D01*
X180097618Y-155745295D02*
X180097618Y-155888152D01*
X180097618Y-155888152D02*
X180049999Y-155983390D01*
X180049999Y-155983390D02*
X180002380Y-156031009D01*
X180002380Y-156031009D02*
X179907142Y-156078628D01*
X179907142Y-156078628D02*
X179526190Y-156078628D01*
X180526190Y-156031009D02*
X180859523Y-156031009D01*
X181002380Y-156554819D02*
X180526190Y-156554819D01*
X180526190Y-156554819D02*
X180526190Y-155554819D01*
X180526190Y-155554819D02*
X181002380Y-155554819D01*
X181383333Y-156507200D02*
X181526190Y-156554819D01*
X181526190Y-156554819D02*
X181764285Y-156554819D01*
X181764285Y-156554819D02*
X181859523Y-156507200D01*
X181859523Y-156507200D02*
X181907142Y-156459580D01*
X181907142Y-156459580D02*
X181954761Y-156364342D01*
X181954761Y-156364342D02*
X181954761Y-156269104D01*
X181954761Y-156269104D02*
X181907142Y-156173866D01*
X181907142Y-156173866D02*
X181859523Y-156126247D01*
X181859523Y-156126247D02*
X181764285Y-156078628D01*
X181764285Y-156078628D02*
X181573809Y-156031009D01*
X181573809Y-156031009D02*
X181478571Y-155983390D01*
X181478571Y-155983390D02*
X181430952Y-155935771D01*
X181430952Y-155935771D02*
X181383333Y-155840533D01*
X181383333Y-155840533D02*
X181383333Y-155745295D01*
X181383333Y-155745295D02*
X181430952Y-155650057D01*
X181430952Y-155650057D02*
X181478571Y-155602438D01*
X181478571Y-155602438D02*
X181573809Y-155554819D01*
X181573809Y-155554819D02*
X181811904Y-155554819D01*
X181811904Y-155554819D02*
X181954761Y-155602438D01*
X182383333Y-156031009D02*
X182716666Y-156031009D01*
X182859523Y-156554819D02*
X182383333Y-156554819D01*
X182383333Y-156554819D02*
X182383333Y-155554819D01*
X182383333Y-155554819D02*
X182859523Y-155554819D01*
X183145238Y-155554819D02*
X183716666Y-155554819D01*
X183430952Y-156554819D02*
X183430952Y-155554819D01*
X178954762Y-151507200D02*
X179097619Y-151554819D01*
X179097619Y-151554819D02*
X179335714Y-151554819D01*
X179335714Y-151554819D02*
X179430952Y-151507200D01*
X179430952Y-151507200D02*
X179478571Y-151459580D01*
X179478571Y-151459580D02*
X179526190Y-151364342D01*
X179526190Y-151364342D02*
X179526190Y-151269104D01*
X179526190Y-151269104D02*
X179478571Y-151173866D01*
X179478571Y-151173866D02*
X179430952Y-151126247D01*
X179430952Y-151126247D02*
X179335714Y-151078628D01*
X179335714Y-151078628D02*
X179145238Y-151031009D01*
X179145238Y-151031009D02*
X179050000Y-150983390D01*
X179050000Y-150983390D02*
X179002381Y-150935771D01*
X179002381Y-150935771D02*
X178954762Y-150840533D01*
X178954762Y-150840533D02*
X178954762Y-150745295D01*
X178954762Y-150745295D02*
X179002381Y-150650057D01*
X179002381Y-150650057D02*
X179050000Y-150602438D01*
X179050000Y-150602438D02*
X179145238Y-150554819D01*
X179145238Y-150554819D02*
X179383333Y-150554819D01*
X179383333Y-150554819D02*
X179526190Y-150602438D01*
X179859524Y-150554819D02*
X180097619Y-151554819D01*
X180097619Y-151554819D02*
X180288095Y-150840533D01*
X180288095Y-150840533D02*
X180478571Y-151554819D01*
X180478571Y-151554819D02*
X180716667Y-150554819D01*
X180859524Y-151650057D02*
X181621428Y-151650057D01*
X182430952Y-151554819D02*
X182097619Y-151078628D01*
X181859524Y-151554819D02*
X181859524Y-150554819D01*
X181859524Y-150554819D02*
X182240476Y-150554819D01*
X182240476Y-150554819D02*
X182335714Y-150602438D01*
X182335714Y-150602438D02*
X182383333Y-150650057D01*
X182383333Y-150650057D02*
X182430952Y-150745295D01*
X182430952Y-150745295D02*
X182430952Y-150888152D01*
X182430952Y-150888152D02*
X182383333Y-150983390D01*
X182383333Y-150983390D02*
X182335714Y-151031009D01*
X182335714Y-151031009D02*
X182240476Y-151078628D01*
X182240476Y-151078628D02*
X181859524Y-151078628D01*
X182811905Y-151507200D02*
X182954762Y-151554819D01*
X182954762Y-151554819D02*
X183192857Y-151554819D01*
X183192857Y-151554819D02*
X183288095Y-151507200D01*
X183288095Y-151507200D02*
X183335714Y-151459580D01*
X183335714Y-151459580D02*
X183383333Y-151364342D01*
X183383333Y-151364342D02*
X183383333Y-151269104D01*
X183383333Y-151269104D02*
X183335714Y-151173866D01*
X183335714Y-151173866D02*
X183288095Y-151126247D01*
X183288095Y-151126247D02*
X183192857Y-151078628D01*
X183192857Y-151078628D02*
X183002381Y-151031009D01*
X183002381Y-151031009D02*
X182907143Y-150983390D01*
X182907143Y-150983390D02*
X182859524Y-150935771D01*
X182859524Y-150935771D02*
X182811905Y-150840533D01*
X182811905Y-150840533D02*
X182811905Y-150745295D01*
X182811905Y-150745295D02*
X182859524Y-150650057D01*
X182859524Y-150650057D02*
X182907143Y-150602438D01*
X182907143Y-150602438D02*
X183002381Y-150554819D01*
X183002381Y-150554819D02*
X183240476Y-150554819D01*
X183240476Y-150554819D02*
X183383333Y-150602438D01*
X183669048Y-150554819D02*
X184240476Y-150554819D01*
X183954762Y-151554819D02*
X183954762Y-150554819D01*
X171819999Y-127989580D02*
X171772380Y-128037200D01*
X171772380Y-128037200D02*
X171629523Y-128084819D01*
X171629523Y-128084819D02*
X171534285Y-128084819D01*
X171534285Y-128084819D02*
X171391428Y-128037200D01*
X171391428Y-128037200D02*
X171296190Y-127941961D01*
X171296190Y-127941961D02*
X171248571Y-127846723D01*
X171248571Y-127846723D02*
X171200952Y-127656247D01*
X171200952Y-127656247D02*
X171200952Y-127513390D01*
X171200952Y-127513390D02*
X171248571Y-127322914D01*
X171248571Y-127322914D02*
X171296190Y-127227676D01*
X171296190Y-127227676D02*
X171391428Y-127132438D01*
X171391428Y-127132438D02*
X171534285Y-127084819D01*
X171534285Y-127084819D02*
X171629523Y-127084819D01*
X171629523Y-127084819D02*
X171772380Y-127132438D01*
X171772380Y-127132438D02*
X171819999Y-127180057D01*
X172248571Y-128084819D02*
X172248571Y-127084819D01*
X172677142Y-128084819D02*
X172677142Y-127561009D01*
X172677142Y-127561009D02*
X172629523Y-127465771D01*
X172629523Y-127465771D02*
X172534285Y-127418152D01*
X172534285Y-127418152D02*
X172391428Y-127418152D01*
X172391428Y-127418152D02*
X172296190Y-127465771D01*
X172296190Y-127465771D02*
X172248571Y-127513390D01*
X173296190Y-128084819D02*
X173200952Y-128037200D01*
X173200952Y-128037200D02*
X173153333Y-127989580D01*
X173153333Y-127989580D02*
X173105714Y-127894342D01*
X173105714Y-127894342D02*
X173105714Y-127608628D01*
X173105714Y-127608628D02*
X173153333Y-127513390D01*
X173153333Y-127513390D02*
X173200952Y-127465771D01*
X173200952Y-127465771D02*
X173296190Y-127418152D01*
X173296190Y-127418152D02*
X173439047Y-127418152D01*
X173439047Y-127418152D02*
X173534285Y-127465771D01*
X173534285Y-127465771D02*
X173581904Y-127513390D01*
X173581904Y-127513390D02*
X173629523Y-127608628D01*
X173629523Y-127608628D02*
X173629523Y-127894342D01*
X173629523Y-127894342D02*
X173581904Y-127989580D01*
X173581904Y-127989580D02*
X173534285Y-128037200D01*
X173534285Y-128037200D02*
X173439047Y-128084819D01*
X173439047Y-128084819D02*
X173296190Y-128084819D01*
X174486666Y-128037200D02*
X174391428Y-128084819D01*
X174391428Y-128084819D02*
X174200952Y-128084819D01*
X174200952Y-128084819D02*
X174105714Y-128037200D01*
X174105714Y-128037200D02*
X174058095Y-127989580D01*
X174058095Y-127989580D02*
X174010476Y-127894342D01*
X174010476Y-127894342D02*
X174010476Y-127608628D01*
X174010476Y-127608628D02*
X174058095Y-127513390D01*
X174058095Y-127513390D02*
X174105714Y-127465771D01*
X174105714Y-127465771D02*
X174200952Y-127418152D01*
X174200952Y-127418152D02*
X174391428Y-127418152D01*
X174391428Y-127418152D02*
X174486666Y-127465771D01*
X175439047Y-128084819D02*
X174867619Y-128084819D01*
X175153333Y-128084819D02*
X175153333Y-127084819D01*
X175153333Y-127084819D02*
X175058095Y-127227676D01*
X175058095Y-127227676D02*
X174962857Y-127322914D01*
X174962857Y-127322914D02*
X174867619Y-127370533D01*
X166307200Y-120314285D02*
X166354819Y-120171428D01*
X166354819Y-120171428D02*
X166354819Y-119933333D01*
X166354819Y-119933333D02*
X166307200Y-119838095D01*
X166307200Y-119838095D02*
X166259580Y-119790476D01*
X166259580Y-119790476D02*
X166164342Y-119742857D01*
X166164342Y-119742857D02*
X166069104Y-119742857D01*
X166069104Y-119742857D02*
X165973866Y-119790476D01*
X165973866Y-119790476D02*
X165926247Y-119838095D01*
X165926247Y-119838095D02*
X165878628Y-119933333D01*
X165878628Y-119933333D02*
X165831009Y-120123809D01*
X165831009Y-120123809D02*
X165783390Y-120219047D01*
X165783390Y-120219047D02*
X165735771Y-120266666D01*
X165735771Y-120266666D02*
X165640533Y-120314285D01*
X165640533Y-120314285D02*
X165545295Y-120314285D01*
X165545295Y-120314285D02*
X165450057Y-120266666D01*
X165450057Y-120266666D02*
X165402438Y-120219047D01*
X165402438Y-120219047D02*
X165354819Y-120123809D01*
X165354819Y-120123809D02*
X165354819Y-119885714D01*
X165354819Y-119885714D02*
X165402438Y-119742857D01*
X166307200Y-119361904D02*
X166354819Y-119219047D01*
X166354819Y-119219047D02*
X166354819Y-118980952D01*
X166354819Y-118980952D02*
X166307200Y-118885714D01*
X166307200Y-118885714D02*
X166259580Y-118838095D01*
X166259580Y-118838095D02*
X166164342Y-118790476D01*
X166164342Y-118790476D02*
X166069104Y-118790476D01*
X166069104Y-118790476D02*
X165973866Y-118838095D01*
X165973866Y-118838095D02*
X165926247Y-118885714D01*
X165926247Y-118885714D02*
X165878628Y-118980952D01*
X165878628Y-118980952D02*
X165831009Y-119171428D01*
X165831009Y-119171428D02*
X165783390Y-119266666D01*
X165783390Y-119266666D02*
X165735771Y-119314285D01*
X165735771Y-119314285D02*
X165640533Y-119361904D01*
X165640533Y-119361904D02*
X165545295Y-119361904D01*
X165545295Y-119361904D02*
X165450057Y-119314285D01*
X165450057Y-119314285D02*
X165402438Y-119266666D01*
X165402438Y-119266666D02*
X165354819Y-119171428D01*
X165354819Y-119171428D02*
X165354819Y-118933333D01*
X165354819Y-118933333D02*
X165402438Y-118790476D01*
X166354819Y-117838095D02*
X166354819Y-118409523D01*
X166354819Y-118123809D02*
X165354819Y-118123809D01*
X165354819Y-118123809D02*
X165497676Y-118219047D01*
X165497676Y-118219047D02*
X165592914Y-118314285D01*
X165592914Y-118314285D02*
X165640533Y-118409523D01*
X165688152Y-116980952D02*
X166354819Y-116980952D01*
X165307200Y-117219047D02*
X166021485Y-117457142D01*
X166021485Y-117457142D02*
X166021485Y-116838095D01*
X161254819Y-120980952D02*
X160254819Y-120980952D01*
X160254819Y-120980952D02*
X160254819Y-120742857D01*
X160254819Y-120742857D02*
X160302438Y-120600000D01*
X160302438Y-120600000D02*
X160397676Y-120504762D01*
X160397676Y-120504762D02*
X160492914Y-120457143D01*
X160492914Y-120457143D02*
X160683390Y-120409524D01*
X160683390Y-120409524D02*
X160826247Y-120409524D01*
X160826247Y-120409524D02*
X161016723Y-120457143D01*
X161016723Y-120457143D02*
X161111961Y-120504762D01*
X161111961Y-120504762D02*
X161207200Y-120600000D01*
X161207200Y-120600000D02*
X161254819Y-120742857D01*
X161254819Y-120742857D02*
X161254819Y-120980952D01*
X161350057Y-120219048D02*
X161350057Y-119457143D01*
X160254819Y-119361904D02*
X161254819Y-119028571D01*
X161254819Y-119028571D02*
X160254819Y-118695238D01*
X160731009Y-118028571D02*
X160778628Y-117885714D01*
X160778628Y-117885714D02*
X160826247Y-117838095D01*
X160826247Y-117838095D02*
X160921485Y-117790476D01*
X160921485Y-117790476D02*
X161064342Y-117790476D01*
X161064342Y-117790476D02*
X161159580Y-117838095D01*
X161159580Y-117838095D02*
X161207200Y-117885714D01*
X161207200Y-117885714D02*
X161254819Y-117980952D01*
X161254819Y-117980952D02*
X161254819Y-118361904D01*
X161254819Y-118361904D02*
X160254819Y-118361904D01*
X160254819Y-118361904D02*
X160254819Y-118028571D01*
X160254819Y-118028571D02*
X160302438Y-117933333D01*
X160302438Y-117933333D02*
X160350057Y-117885714D01*
X160350057Y-117885714D02*
X160445295Y-117838095D01*
X160445295Y-117838095D02*
X160540533Y-117838095D01*
X160540533Y-117838095D02*
X160635771Y-117885714D01*
X160635771Y-117885714D02*
X160683390Y-117933333D01*
X160683390Y-117933333D02*
X160731009Y-118028571D01*
X160731009Y-118028571D02*
X160731009Y-118361904D01*
X160969104Y-117409523D02*
X160969104Y-116933333D01*
X161254819Y-117504761D02*
X160254819Y-117171428D01*
X160254819Y-117171428D02*
X161254819Y-116838095D01*
X160254819Y-116647618D02*
X160254819Y-116076190D01*
X161254819Y-116361904D02*
X160254819Y-116361904D01*
X181380952Y-136924819D02*
X180809524Y-136924819D01*
X181095238Y-136924819D02*
X181095238Y-135924819D01*
X181095238Y-135924819D02*
X181000000Y-136067676D01*
X181000000Y-136067676D02*
X180904762Y-136162914D01*
X180904762Y-136162914D02*
X180809524Y-136210533D01*
X181809524Y-136924819D02*
X181809524Y-135924819D01*
X181904762Y-136543866D02*
X182190476Y-136924819D01*
X182190476Y-136258152D02*
X181809524Y-136639104D01*
D11*
X180861904Y-138081927D02*
X180728571Y-137891451D01*
X180633333Y-138081927D02*
X180633333Y-137681927D01*
X180633333Y-137681927D02*
X180785714Y-137681927D01*
X180785714Y-137681927D02*
X180823809Y-137700975D01*
X180823809Y-137700975D02*
X180842856Y-137720022D01*
X180842856Y-137720022D02*
X180861904Y-137758118D01*
X180861904Y-137758118D02*
X180861904Y-137815260D01*
X180861904Y-137815260D02*
X180842856Y-137853356D01*
X180842856Y-137853356D02*
X180823809Y-137872403D01*
X180823809Y-137872403D02*
X180785714Y-137891451D01*
X180785714Y-137891451D02*
X180633333Y-137891451D01*
X180938095Y-138120022D02*
X181242856Y-138120022D01*
X181566666Y-138043832D02*
X181547618Y-138062880D01*
X181547618Y-138062880D02*
X181490476Y-138081927D01*
X181490476Y-138081927D02*
X181452380Y-138081927D01*
X181452380Y-138081927D02*
X181395237Y-138062880D01*
X181395237Y-138062880D02*
X181357142Y-138024784D01*
X181357142Y-138024784D02*
X181338095Y-137986689D01*
X181338095Y-137986689D02*
X181319047Y-137910499D01*
X181319047Y-137910499D02*
X181319047Y-137853356D01*
X181319047Y-137853356D02*
X181338095Y-137777165D01*
X181338095Y-137777165D02*
X181357142Y-137739070D01*
X181357142Y-137739070D02*
X181395237Y-137700975D01*
X181395237Y-137700975D02*
X181452380Y-137681927D01*
X181452380Y-137681927D02*
X181490476Y-137681927D01*
X181490476Y-137681927D02*
X181547618Y-137700975D01*
X181547618Y-137700975D02*
X181566666Y-137720022D01*
X181738095Y-138081927D02*
X181738095Y-137681927D01*
X181738095Y-137872403D02*
X181966666Y-137872403D01*
X181966666Y-138081927D02*
X181966666Y-137681927D01*
X182366666Y-137700975D02*
X182328571Y-137681927D01*
X182328571Y-137681927D02*
X182271428Y-137681927D01*
X182271428Y-137681927D02*
X182214285Y-137700975D01*
X182214285Y-137700975D02*
X182176190Y-137739070D01*
X182176190Y-137739070D02*
X182157143Y-137777165D01*
X182157143Y-137777165D02*
X182138095Y-137853356D01*
X182138095Y-137853356D02*
X182138095Y-137910499D01*
X182138095Y-137910499D02*
X182157143Y-137986689D01*
X182157143Y-137986689D02*
X182176190Y-138024784D01*
X182176190Y-138024784D02*
X182214285Y-138062880D01*
X182214285Y-138062880D02*
X182271428Y-138081927D01*
X182271428Y-138081927D02*
X182309524Y-138081927D01*
X182309524Y-138081927D02*
X182366666Y-138062880D01*
X182366666Y-138062880D02*
X182385714Y-138043832D01*
X182385714Y-138043832D02*
X182385714Y-137910499D01*
X182385714Y-137910499D02*
X182309524Y-137910499D01*
D10*
X179634819Y-144945238D02*
X179634819Y-145516666D01*
X179634819Y-145230952D02*
X178634819Y-145230952D01*
X178634819Y-145230952D02*
X178777676Y-145326190D01*
X178777676Y-145326190D02*
X178872914Y-145421428D01*
X178872914Y-145421428D02*
X178920533Y-145516666D01*
X178968152Y-144088095D02*
X179634819Y-144088095D01*
X178968152Y-144516666D02*
X179491961Y-144516666D01*
X179491961Y-144516666D02*
X179587200Y-144469047D01*
X179587200Y-144469047D02*
X179634819Y-144373809D01*
X179634819Y-144373809D02*
X179634819Y-144230952D01*
X179634819Y-144230952D02*
X179587200Y-144135714D01*
X179587200Y-144135714D02*
X179539580Y-144088095D01*
X179111009Y-143278571D02*
X179111009Y-143611904D01*
X179634819Y-143611904D02*
X178634819Y-143611904D01*
X178634819Y-143611904D02*
X178634819Y-143135714D01*
D11*
X177893832Y-144416666D02*
X177912880Y-144435714D01*
X177912880Y-144435714D02*
X177931927Y-144492856D01*
X177931927Y-144492856D02*
X177931927Y-144530952D01*
X177931927Y-144530952D02*
X177912880Y-144588095D01*
X177912880Y-144588095D02*
X177874784Y-144626190D01*
X177874784Y-144626190D02*
X177836689Y-144645237D01*
X177836689Y-144645237D02*
X177760499Y-144664285D01*
X177760499Y-144664285D02*
X177703356Y-144664285D01*
X177703356Y-144664285D02*
X177627165Y-144645237D01*
X177627165Y-144645237D02*
X177589070Y-144626190D01*
X177589070Y-144626190D02*
X177550975Y-144588095D01*
X177550975Y-144588095D02*
X177531927Y-144530952D01*
X177531927Y-144530952D02*
X177531927Y-144492856D01*
X177531927Y-144492856D02*
X177550975Y-144435714D01*
X177550975Y-144435714D02*
X177570022Y-144416666D01*
X177531927Y-144283333D02*
X177531927Y-144035714D01*
X177531927Y-144035714D02*
X177684308Y-144169047D01*
X177684308Y-144169047D02*
X177684308Y-144111904D01*
X177684308Y-144111904D02*
X177703356Y-144073809D01*
X177703356Y-144073809D02*
X177722403Y-144054761D01*
X177722403Y-144054761D02*
X177760499Y-144035714D01*
X177760499Y-144035714D02*
X177855737Y-144035714D01*
X177855737Y-144035714D02*
X177893832Y-144054761D01*
X177893832Y-144054761D02*
X177912880Y-144073809D01*
X177912880Y-144073809D02*
X177931927Y-144111904D01*
X177931927Y-144111904D02*
X177931927Y-144226190D01*
X177931927Y-144226190D02*
X177912880Y-144264285D01*
X177912880Y-144264285D02*
X177893832Y-144283333D01*
D10*
X172984819Y-145205952D02*
X172984819Y-145682142D01*
X172984819Y-145682142D02*
X173461009Y-145729761D01*
X173461009Y-145729761D02*
X173413390Y-145682142D01*
X173413390Y-145682142D02*
X173365771Y-145586904D01*
X173365771Y-145586904D02*
X173365771Y-145348809D01*
X173365771Y-145348809D02*
X173413390Y-145253571D01*
X173413390Y-145253571D02*
X173461009Y-145205952D01*
X173461009Y-145205952D02*
X173556247Y-145158333D01*
X173556247Y-145158333D02*
X173794342Y-145158333D01*
X173794342Y-145158333D02*
X173889580Y-145205952D01*
X173889580Y-145205952D02*
X173937200Y-145253571D01*
X173937200Y-145253571D02*
X173984819Y-145348809D01*
X173984819Y-145348809D02*
X173984819Y-145586904D01*
X173984819Y-145586904D02*
X173937200Y-145682142D01*
X173937200Y-145682142D02*
X173889580Y-145729761D01*
X173889580Y-144729761D02*
X173937200Y-144682142D01*
X173937200Y-144682142D02*
X173984819Y-144729761D01*
X173984819Y-144729761D02*
X173937200Y-144777380D01*
X173937200Y-144777380D02*
X173889580Y-144729761D01*
X173889580Y-144729761D02*
X173984819Y-144729761D01*
X173984819Y-143729762D02*
X173984819Y-144301190D01*
X173984819Y-144015476D02*
X172984819Y-144015476D01*
X172984819Y-144015476D02*
X173127676Y-144110714D01*
X173127676Y-144110714D02*
X173222914Y-144205952D01*
X173222914Y-144205952D02*
X173270533Y-144301190D01*
X173984819Y-143301190D02*
X172984819Y-143301190D01*
X173603866Y-143205952D02*
X173984819Y-142920238D01*
X173318152Y-142920238D02*
X173699104Y-143301190D01*
D11*
X172281927Y-144944047D02*
X172091451Y-145077380D01*
X172281927Y-145172618D02*
X171881927Y-145172618D01*
X171881927Y-145172618D02*
X171881927Y-145020237D01*
X171881927Y-145020237D02*
X171900975Y-144982142D01*
X171900975Y-144982142D02*
X171920022Y-144963095D01*
X171920022Y-144963095D02*
X171958118Y-144944047D01*
X171958118Y-144944047D02*
X172015260Y-144944047D01*
X172015260Y-144944047D02*
X172053356Y-144963095D01*
X172053356Y-144963095D02*
X172072403Y-144982142D01*
X172072403Y-144982142D02*
X172091451Y-145020237D01*
X172091451Y-145020237D02*
X172091451Y-145172618D01*
X172320022Y-144867857D02*
X172320022Y-144563095D01*
X172243832Y-144239285D02*
X172262880Y-144258333D01*
X172262880Y-144258333D02*
X172281927Y-144315475D01*
X172281927Y-144315475D02*
X172281927Y-144353571D01*
X172281927Y-144353571D02*
X172262880Y-144410714D01*
X172262880Y-144410714D02*
X172224784Y-144448809D01*
X172224784Y-144448809D02*
X172186689Y-144467856D01*
X172186689Y-144467856D02*
X172110499Y-144486904D01*
X172110499Y-144486904D02*
X172053356Y-144486904D01*
X172053356Y-144486904D02*
X171977165Y-144467856D01*
X171977165Y-144467856D02*
X171939070Y-144448809D01*
X171939070Y-144448809D02*
X171900975Y-144410714D01*
X171900975Y-144410714D02*
X171881927Y-144353571D01*
X171881927Y-144353571D02*
X171881927Y-144315475D01*
X171881927Y-144315475D02*
X171900975Y-144258333D01*
X171900975Y-144258333D02*
X171920022Y-144239285D01*
X172243832Y-143839285D02*
X172262880Y-143858333D01*
X172262880Y-143858333D02*
X172281927Y-143915475D01*
X172281927Y-143915475D02*
X172281927Y-143953571D01*
X172281927Y-143953571D02*
X172262880Y-144010714D01*
X172262880Y-144010714D02*
X172224784Y-144048809D01*
X172224784Y-144048809D02*
X172186689Y-144067856D01*
X172186689Y-144067856D02*
X172110499Y-144086904D01*
X172110499Y-144086904D02*
X172053356Y-144086904D01*
X172053356Y-144086904D02*
X171977165Y-144067856D01*
X171977165Y-144067856D02*
X171939070Y-144048809D01*
X171939070Y-144048809D02*
X171900975Y-144010714D01*
X171900975Y-144010714D02*
X171881927Y-143953571D01*
X171881927Y-143953571D02*
X171881927Y-143915475D01*
X171881927Y-143915475D02*
X171900975Y-143858333D01*
X171900975Y-143858333D02*
X171920022Y-143839285D01*
X172281927Y-143458333D02*
X172281927Y-143686904D01*
X172281927Y-143572618D02*
X171881927Y-143572618D01*
X171881927Y-143572618D02*
X171939070Y-143610714D01*
X171939070Y-143610714D02*
X171977165Y-143648809D01*
X171977165Y-143648809D02*
X171996213Y-143686904D01*
D10*
X163047619Y-141419104D02*
X163523809Y-141419104D01*
X162952381Y-141704819D02*
X163285714Y-140704819D01*
X163285714Y-140704819D02*
X163619047Y-141704819D01*
X163952381Y-141704819D02*
X163952381Y-140704819D01*
X163952381Y-140704819D02*
X164333333Y-140704819D01*
X164333333Y-140704819D02*
X164428571Y-140752438D01*
X164428571Y-140752438D02*
X164476190Y-140800057D01*
X164476190Y-140800057D02*
X164523809Y-140895295D01*
X164523809Y-140895295D02*
X164523809Y-141038152D01*
X164523809Y-141038152D02*
X164476190Y-141133390D01*
X164476190Y-141133390D02*
X164428571Y-141181009D01*
X164428571Y-141181009D02*
X164333333Y-141228628D01*
X164333333Y-141228628D02*
X163952381Y-141228628D01*
X164904762Y-140800057D02*
X164952381Y-140752438D01*
X164952381Y-140752438D02*
X165047619Y-140704819D01*
X165047619Y-140704819D02*
X165285714Y-140704819D01*
X165285714Y-140704819D02*
X165380952Y-140752438D01*
X165380952Y-140752438D02*
X165428571Y-140800057D01*
X165428571Y-140800057D02*
X165476190Y-140895295D01*
X165476190Y-140895295D02*
X165476190Y-140990533D01*
X165476190Y-140990533D02*
X165428571Y-141133390D01*
X165428571Y-141133390D02*
X164857143Y-141704819D01*
X164857143Y-141704819D02*
X165476190Y-141704819D01*
X166428571Y-141704819D02*
X165857143Y-141704819D01*
X166142857Y-141704819D02*
X166142857Y-140704819D01*
X166142857Y-140704819D02*
X166047619Y-140847676D01*
X166047619Y-140847676D02*
X165952381Y-140942914D01*
X165952381Y-140942914D02*
X165857143Y-140990533D01*
X167380952Y-141704819D02*
X166809524Y-141704819D01*
X167095238Y-141704819D02*
X167095238Y-140704819D01*
X167095238Y-140704819D02*
X167000000Y-140847676D01*
X167000000Y-140847676D02*
X166904762Y-140942914D01*
X166904762Y-140942914D02*
X166809524Y-140990533D01*
X167761905Y-140800057D02*
X167809524Y-140752438D01*
X167809524Y-140752438D02*
X167904762Y-140704819D01*
X167904762Y-140704819D02*
X168142857Y-140704819D01*
X168142857Y-140704819D02*
X168238095Y-140752438D01*
X168238095Y-140752438D02*
X168285714Y-140800057D01*
X168285714Y-140800057D02*
X168333333Y-140895295D01*
X168333333Y-140895295D02*
X168333333Y-140990533D01*
X168333333Y-140990533D02*
X168285714Y-141133390D01*
X168285714Y-141133390D02*
X167714286Y-141704819D01*
X167714286Y-141704819D02*
X168333333Y-141704819D01*
X168761905Y-141704819D02*
X168761905Y-140704819D01*
X169333333Y-141704819D02*
X168904762Y-141133390D01*
X169333333Y-140704819D02*
X168761905Y-141276247D01*
X169761905Y-141323866D02*
X170523810Y-141323866D01*
X170904762Y-140704819D02*
X171523809Y-140704819D01*
X171523809Y-140704819D02*
X171190476Y-141085771D01*
X171190476Y-141085771D02*
X171333333Y-141085771D01*
X171333333Y-141085771D02*
X171428571Y-141133390D01*
X171428571Y-141133390D02*
X171476190Y-141181009D01*
X171476190Y-141181009D02*
X171523809Y-141276247D01*
X171523809Y-141276247D02*
X171523809Y-141514342D01*
X171523809Y-141514342D02*
X171476190Y-141609580D01*
X171476190Y-141609580D02*
X171428571Y-141657200D01*
X171428571Y-141657200D02*
X171333333Y-141704819D01*
X171333333Y-141704819D02*
X171047619Y-141704819D01*
X171047619Y-141704819D02*
X170952381Y-141657200D01*
X170952381Y-141657200D02*
X170904762Y-141609580D01*
X171952381Y-141609580D02*
X172000000Y-141657200D01*
X172000000Y-141657200D02*
X171952381Y-141704819D01*
X171952381Y-141704819D02*
X171904762Y-141657200D01*
X171904762Y-141657200D02*
X171952381Y-141609580D01*
X171952381Y-141609580D02*
X171952381Y-141704819D01*
X172333333Y-140704819D02*
X172952380Y-140704819D01*
X172952380Y-140704819D02*
X172619047Y-141085771D01*
X172619047Y-141085771D02*
X172761904Y-141085771D01*
X172761904Y-141085771D02*
X172857142Y-141133390D01*
X172857142Y-141133390D02*
X172904761Y-141181009D01*
X172904761Y-141181009D02*
X172952380Y-141276247D01*
X172952380Y-141276247D02*
X172952380Y-141514342D01*
X172952380Y-141514342D02*
X172904761Y-141609580D01*
X172904761Y-141609580D02*
X172857142Y-141657200D01*
X172857142Y-141657200D02*
X172761904Y-141704819D01*
X172761904Y-141704819D02*
X172476190Y-141704819D01*
X172476190Y-141704819D02*
X172380952Y-141657200D01*
X172380952Y-141657200D02*
X172333333Y-141609580D01*
D12*
X167607365Y-139398571D02*
X168190222Y-139398571D01*
X168190222Y-139398571D02*
X168258794Y-139364285D01*
X168258794Y-139364285D02*
X168293080Y-139330000D01*
X168293080Y-139330000D02*
X168327365Y-139261428D01*
X168327365Y-139261428D02*
X168327365Y-139124285D01*
X168327365Y-139124285D02*
X168293080Y-139055714D01*
X168293080Y-139055714D02*
X168258794Y-139021428D01*
X168258794Y-139021428D02*
X168190222Y-138987142D01*
X168190222Y-138987142D02*
X167607365Y-138987142D01*
X167607365Y-138712856D02*
X167607365Y-138267142D01*
X167607365Y-138267142D02*
X167881651Y-138507142D01*
X167881651Y-138507142D02*
X167881651Y-138404285D01*
X167881651Y-138404285D02*
X167915937Y-138335714D01*
X167915937Y-138335714D02*
X167950222Y-138301428D01*
X167950222Y-138301428D02*
X168018794Y-138267142D01*
X168018794Y-138267142D02*
X168190222Y-138267142D01*
X168190222Y-138267142D02*
X168258794Y-138301428D01*
X168258794Y-138301428D02*
X168293080Y-138335714D01*
X168293080Y-138335714D02*
X168327365Y-138404285D01*
X168327365Y-138404285D02*
X168327365Y-138609999D01*
X168327365Y-138609999D02*
X168293080Y-138678571D01*
X168293080Y-138678571D02*
X168258794Y-138712856D01*
D10*
X177134819Y-145030952D02*
X177134819Y-145507142D01*
X177134819Y-145507142D02*
X177611009Y-145554761D01*
X177611009Y-145554761D02*
X177563390Y-145507142D01*
X177563390Y-145507142D02*
X177515771Y-145411904D01*
X177515771Y-145411904D02*
X177515771Y-145173809D01*
X177515771Y-145173809D02*
X177563390Y-145078571D01*
X177563390Y-145078571D02*
X177611009Y-145030952D01*
X177611009Y-145030952D02*
X177706247Y-144983333D01*
X177706247Y-144983333D02*
X177944342Y-144983333D01*
X177944342Y-144983333D02*
X178039580Y-145030952D01*
X178039580Y-145030952D02*
X178087200Y-145078571D01*
X178087200Y-145078571D02*
X178134819Y-145173809D01*
X178134819Y-145173809D02*
X178134819Y-145411904D01*
X178134819Y-145411904D02*
X178087200Y-145507142D01*
X178087200Y-145507142D02*
X178039580Y-145554761D01*
X178039580Y-144554761D02*
X178087200Y-144507142D01*
X178087200Y-144507142D02*
X178134819Y-144554761D01*
X178134819Y-144554761D02*
X178087200Y-144602380D01*
X178087200Y-144602380D02*
X178039580Y-144554761D01*
X178039580Y-144554761D02*
X178134819Y-144554761D01*
X178134819Y-143554762D02*
X178134819Y-144126190D01*
X178134819Y-143840476D02*
X177134819Y-143840476D01*
X177134819Y-143840476D02*
X177277676Y-143935714D01*
X177277676Y-143935714D02*
X177372914Y-144030952D01*
X177372914Y-144030952D02*
X177420533Y-144126190D01*
X178134819Y-143126190D02*
X177134819Y-143126190D01*
X177753866Y-143030952D02*
X178134819Y-142745238D01*
X177468152Y-142745238D02*
X177849104Y-143126190D01*
D11*
X176431927Y-144769047D02*
X176241451Y-144902380D01*
X176431927Y-144997618D02*
X176031927Y-144997618D01*
X176031927Y-144997618D02*
X176031927Y-144845237D01*
X176031927Y-144845237D02*
X176050975Y-144807142D01*
X176050975Y-144807142D02*
X176070022Y-144788095D01*
X176070022Y-144788095D02*
X176108118Y-144769047D01*
X176108118Y-144769047D02*
X176165260Y-144769047D01*
X176165260Y-144769047D02*
X176203356Y-144788095D01*
X176203356Y-144788095D02*
X176222403Y-144807142D01*
X176222403Y-144807142D02*
X176241451Y-144845237D01*
X176241451Y-144845237D02*
X176241451Y-144997618D01*
X176470022Y-144692857D02*
X176470022Y-144388095D01*
X176393832Y-144064285D02*
X176412880Y-144083333D01*
X176412880Y-144083333D02*
X176431927Y-144140475D01*
X176431927Y-144140475D02*
X176431927Y-144178571D01*
X176431927Y-144178571D02*
X176412880Y-144235714D01*
X176412880Y-144235714D02*
X176374784Y-144273809D01*
X176374784Y-144273809D02*
X176336689Y-144292856D01*
X176336689Y-144292856D02*
X176260499Y-144311904D01*
X176260499Y-144311904D02*
X176203356Y-144311904D01*
X176203356Y-144311904D02*
X176127165Y-144292856D01*
X176127165Y-144292856D02*
X176089070Y-144273809D01*
X176089070Y-144273809D02*
X176050975Y-144235714D01*
X176050975Y-144235714D02*
X176031927Y-144178571D01*
X176031927Y-144178571D02*
X176031927Y-144140475D01*
X176031927Y-144140475D02*
X176050975Y-144083333D01*
X176050975Y-144083333D02*
X176070022Y-144064285D01*
X176393832Y-143664285D02*
X176412880Y-143683333D01*
X176412880Y-143683333D02*
X176431927Y-143740475D01*
X176431927Y-143740475D02*
X176431927Y-143778571D01*
X176431927Y-143778571D02*
X176412880Y-143835714D01*
X176412880Y-143835714D02*
X176374784Y-143873809D01*
X176374784Y-143873809D02*
X176336689Y-143892856D01*
X176336689Y-143892856D02*
X176260499Y-143911904D01*
X176260499Y-143911904D02*
X176203356Y-143911904D01*
X176203356Y-143911904D02*
X176127165Y-143892856D01*
X176127165Y-143892856D02*
X176089070Y-143873809D01*
X176089070Y-143873809D02*
X176050975Y-143835714D01*
X176050975Y-143835714D02*
X176031927Y-143778571D01*
X176031927Y-143778571D02*
X176031927Y-143740475D01*
X176031927Y-143740475D02*
X176050975Y-143683333D01*
X176050975Y-143683333D02*
X176070022Y-143664285D01*
X176070022Y-143511904D02*
X176050975Y-143492856D01*
X176050975Y-143492856D02*
X176031927Y-143454761D01*
X176031927Y-143454761D02*
X176031927Y-143359523D01*
X176031927Y-143359523D02*
X176050975Y-143321428D01*
X176050975Y-143321428D02*
X176070022Y-143302380D01*
X176070022Y-143302380D02*
X176108118Y-143283333D01*
X176108118Y-143283333D02*
X176146213Y-143283333D01*
X176146213Y-143283333D02*
X176203356Y-143302380D01*
X176203356Y-143302380D02*
X176431927Y-143530952D01*
X176431927Y-143530952D02*
X176431927Y-143283333D01*
D10*
X178928571Y-143324819D02*
X178357143Y-143324819D01*
X178642857Y-143324819D02*
X178642857Y-142324819D01*
X178642857Y-142324819D02*
X178547619Y-142467676D01*
X178547619Y-142467676D02*
X178452381Y-142562914D01*
X178452381Y-142562914D02*
X178357143Y-142610533D01*
X179547619Y-142324819D02*
X179642857Y-142324819D01*
X179642857Y-142324819D02*
X179738095Y-142372438D01*
X179738095Y-142372438D02*
X179785714Y-142420057D01*
X179785714Y-142420057D02*
X179833333Y-142515295D01*
X179833333Y-142515295D02*
X179880952Y-142705771D01*
X179880952Y-142705771D02*
X179880952Y-142943866D01*
X179880952Y-142943866D02*
X179833333Y-143134342D01*
X179833333Y-143134342D02*
X179785714Y-143229580D01*
X179785714Y-143229580D02*
X179738095Y-143277200D01*
X179738095Y-143277200D02*
X179642857Y-143324819D01*
X179642857Y-143324819D02*
X179547619Y-143324819D01*
X179547619Y-143324819D02*
X179452381Y-143277200D01*
X179452381Y-143277200D02*
X179404762Y-143229580D01*
X179404762Y-143229580D02*
X179357143Y-143134342D01*
X179357143Y-143134342D02*
X179309524Y-142943866D01*
X179309524Y-142943866D02*
X179309524Y-142705771D01*
X179309524Y-142705771D02*
X179357143Y-142515295D01*
X179357143Y-142515295D02*
X179404762Y-142420057D01*
X179404762Y-142420057D02*
X179452381Y-142372438D01*
X179452381Y-142372438D02*
X179547619Y-142324819D01*
X180500000Y-142324819D02*
X180595238Y-142324819D01*
X180595238Y-142324819D02*
X180690476Y-142372438D01*
X180690476Y-142372438D02*
X180738095Y-142420057D01*
X180738095Y-142420057D02*
X180785714Y-142515295D01*
X180785714Y-142515295D02*
X180833333Y-142705771D01*
X180833333Y-142705771D02*
X180833333Y-142943866D01*
X180833333Y-142943866D02*
X180785714Y-143134342D01*
X180785714Y-143134342D02*
X180738095Y-143229580D01*
X180738095Y-143229580D02*
X180690476Y-143277200D01*
X180690476Y-143277200D02*
X180595238Y-143324819D01*
X180595238Y-143324819D02*
X180500000Y-143324819D01*
X180500000Y-143324819D02*
X180404762Y-143277200D01*
X180404762Y-143277200D02*
X180357143Y-143229580D01*
X180357143Y-143229580D02*
X180309524Y-143134342D01*
X180309524Y-143134342D02*
X180261905Y-142943866D01*
X180261905Y-142943866D02*
X180261905Y-142705771D01*
X180261905Y-142705771D02*
X180309524Y-142515295D01*
X180309524Y-142515295D02*
X180357143Y-142420057D01*
X180357143Y-142420057D02*
X180404762Y-142372438D01*
X180404762Y-142372438D02*
X180500000Y-142324819D01*
X181261905Y-143324819D02*
X181261905Y-142324819D01*
X181357143Y-142943866D02*
X181642857Y-143324819D01*
X181642857Y-142658152D02*
X181261905Y-143039104D01*
D11*
X179561904Y-144481927D02*
X179428571Y-144291451D01*
X179333333Y-144481927D02*
X179333333Y-144081927D01*
X179333333Y-144081927D02*
X179485714Y-144081927D01*
X179485714Y-144081927D02*
X179523809Y-144100975D01*
X179523809Y-144100975D02*
X179542856Y-144120022D01*
X179542856Y-144120022D02*
X179561904Y-144158118D01*
X179561904Y-144158118D02*
X179561904Y-144215260D01*
X179561904Y-144215260D02*
X179542856Y-144253356D01*
X179542856Y-144253356D02*
X179523809Y-144272403D01*
X179523809Y-144272403D02*
X179485714Y-144291451D01*
X179485714Y-144291451D02*
X179333333Y-144291451D01*
X179638095Y-144520022D02*
X179942856Y-144520022D01*
X180038095Y-144481927D02*
X180038095Y-144081927D01*
X180038095Y-144081927D02*
X180133333Y-144081927D01*
X180133333Y-144081927D02*
X180190476Y-144100975D01*
X180190476Y-144100975D02*
X180228571Y-144139070D01*
X180228571Y-144139070D02*
X180247618Y-144177165D01*
X180247618Y-144177165D02*
X180266666Y-144253356D01*
X180266666Y-144253356D02*
X180266666Y-144310499D01*
X180266666Y-144310499D02*
X180247618Y-144386689D01*
X180247618Y-144386689D02*
X180228571Y-144424784D01*
X180228571Y-144424784D02*
X180190476Y-144462880D01*
X180190476Y-144462880D02*
X180133333Y-144481927D01*
X180133333Y-144481927D02*
X180038095Y-144481927D01*
X180438095Y-144481927D02*
X180438095Y-144081927D01*
X180438095Y-144081927D02*
X180666666Y-144481927D01*
X180666666Y-144481927D02*
X180666666Y-144081927D01*
D10*
X178928571Y-144684819D02*
X178357143Y-144684819D01*
X178642857Y-144684819D02*
X178642857Y-143684819D01*
X178642857Y-143684819D02*
X178547619Y-143827676D01*
X178547619Y-143827676D02*
X178452381Y-143922914D01*
X178452381Y-143922914D02*
X178357143Y-143970533D01*
X179547619Y-143684819D02*
X179642857Y-143684819D01*
X179642857Y-143684819D02*
X179738095Y-143732438D01*
X179738095Y-143732438D02*
X179785714Y-143780057D01*
X179785714Y-143780057D02*
X179833333Y-143875295D01*
X179833333Y-143875295D02*
X179880952Y-144065771D01*
X179880952Y-144065771D02*
X179880952Y-144303866D01*
X179880952Y-144303866D02*
X179833333Y-144494342D01*
X179833333Y-144494342D02*
X179785714Y-144589580D01*
X179785714Y-144589580D02*
X179738095Y-144637200D01*
X179738095Y-144637200D02*
X179642857Y-144684819D01*
X179642857Y-144684819D02*
X179547619Y-144684819D01*
X179547619Y-144684819D02*
X179452381Y-144637200D01*
X179452381Y-144637200D02*
X179404762Y-144589580D01*
X179404762Y-144589580D02*
X179357143Y-144494342D01*
X179357143Y-144494342D02*
X179309524Y-144303866D01*
X179309524Y-144303866D02*
X179309524Y-144065771D01*
X179309524Y-144065771D02*
X179357143Y-143875295D01*
X179357143Y-143875295D02*
X179404762Y-143780057D01*
X179404762Y-143780057D02*
X179452381Y-143732438D01*
X179452381Y-143732438D02*
X179547619Y-143684819D01*
X180500000Y-143684819D02*
X180595238Y-143684819D01*
X180595238Y-143684819D02*
X180690476Y-143732438D01*
X180690476Y-143732438D02*
X180738095Y-143780057D01*
X180738095Y-143780057D02*
X180785714Y-143875295D01*
X180785714Y-143875295D02*
X180833333Y-144065771D01*
X180833333Y-144065771D02*
X180833333Y-144303866D01*
X180833333Y-144303866D02*
X180785714Y-144494342D01*
X180785714Y-144494342D02*
X180738095Y-144589580D01*
X180738095Y-144589580D02*
X180690476Y-144637200D01*
X180690476Y-144637200D02*
X180595238Y-144684819D01*
X180595238Y-144684819D02*
X180500000Y-144684819D01*
X180500000Y-144684819D02*
X180404762Y-144637200D01*
X180404762Y-144637200D02*
X180357143Y-144589580D01*
X180357143Y-144589580D02*
X180309524Y-144494342D01*
X180309524Y-144494342D02*
X180261905Y-144303866D01*
X180261905Y-144303866D02*
X180261905Y-144065771D01*
X180261905Y-144065771D02*
X180309524Y-143875295D01*
X180309524Y-143875295D02*
X180357143Y-143780057D01*
X180357143Y-143780057D02*
X180404762Y-143732438D01*
X180404762Y-143732438D02*
X180500000Y-143684819D01*
X181261905Y-144684819D02*
X181261905Y-143684819D01*
X181357143Y-144303866D02*
X181642857Y-144684819D01*
X181642857Y-144018152D02*
X181261905Y-144399104D01*
D11*
X179561904Y-142981927D02*
X179428571Y-142791451D01*
X179333333Y-142981927D02*
X179333333Y-142581927D01*
X179333333Y-142581927D02*
X179485714Y-142581927D01*
X179485714Y-142581927D02*
X179523809Y-142600975D01*
X179523809Y-142600975D02*
X179542856Y-142620022D01*
X179542856Y-142620022D02*
X179561904Y-142658118D01*
X179561904Y-142658118D02*
X179561904Y-142715260D01*
X179561904Y-142715260D02*
X179542856Y-142753356D01*
X179542856Y-142753356D02*
X179523809Y-142772403D01*
X179523809Y-142772403D02*
X179485714Y-142791451D01*
X179485714Y-142791451D02*
X179333333Y-142791451D01*
X179638095Y-143020022D02*
X179942856Y-143020022D01*
X180038095Y-142581927D02*
X180038095Y-142905737D01*
X180038095Y-142905737D02*
X180057142Y-142943832D01*
X180057142Y-142943832D02*
X180076190Y-142962880D01*
X180076190Y-142962880D02*
X180114285Y-142981927D01*
X180114285Y-142981927D02*
X180190476Y-142981927D01*
X180190476Y-142981927D02*
X180228571Y-142962880D01*
X180228571Y-142962880D02*
X180247618Y-142943832D01*
X180247618Y-142943832D02*
X180266666Y-142905737D01*
X180266666Y-142905737D02*
X180266666Y-142581927D01*
X180457143Y-142981927D02*
X180457143Y-142581927D01*
X180457143Y-142581927D02*
X180609524Y-142581927D01*
X180609524Y-142581927D02*
X180647619Y-142600975D01*
X180647619Y-142600975D02*
X180666666Y-142620022D01*
X180666666Y-142620022D02*
X180685714Y-142658118D01*
X180685714Y-142658118D02*
X180685714Y-142715260D01*
X180685714Y-142715260D02*
X180666666Y-142753356D01*
X180666666Y-142753356D02*
X180647619Y-142772403D01*
X180647619Y-142772403D02*
X180609524Y-142791451D01*
X180609524Y-142791451D02*
X180457143Y-142791451D01*
D10*
X169587200Y-152876190D02*
X169634819Y-152733333D01*
X169634819Y-152733333D02*
X169634819Y-152495238D01*
X169634819Y-152495238D02*
X169587200Y-152400000D01*
X169587200Y-152400000D02*
X169539580Y-152352381D01*
X169539580Y-152352381D02*
X169444342Y-152304762D01*
X169444342Y-152304762D02*
X169349104Y-152304762D01*
X169349104Y-152304762D02*
X169253866Y-152352381D01*
X169253866Y-152352381D02*
X169206247Y-152400000D01*
X169206247Y-152400000D02*
X169158628Y-152495238D01*
X169158628Y-152495238D02*
X169111009Y-152685714D01*
X169111009Y-152685714D02*
X169063390Y-152780952D01*
X169063390Y-152780952D02*
X169015771Y-152828571D01*
X169015771Y-152828571D02*
X168920533Y-152876190D01*
X168920533Y-152876190D02*
X168825295Y-152876190D01*
X168825295Y-152876190D02*
X168730057Y-152828571D01*
X168730057Y-152828571D02*
X168682438Y-152780952D01*
X168682438Y-152780952D02*
X168634819Y-152685714D01*
X168634819Y-152685714D02*
X168634819Y-152447619D01*
X168634819Y-152447619D02*
X168682438Y-152304762D01*
X168634819Y-152019047D02*
X168634819Y-151447619D01*
X169634819Y-151733333D02*
X168634819Y-151733333D01*
X169349104Y-151161904D02*
X169349104Y-150685714D01*
X169634819Y-151257142D02*
X168634819Y-150923809D01*
X168634819Y-150923809D02*
X169634819Y-150590476D01*
X168634819Y-150399999D02*
X168634819Y-149828571D01*
X169634819Y-150114285D02*
X168634819Y-150114285D01*
X168634819Y-149495237D02*
X169444342Y-149495237D01*
X169444342Y-149495237D02*
X169539580Y-149447618D01*
X169539580Y-149447618D02*
X169587200Y-149399999D01*
X169587200Y-149399999D02*
X169634819Y-149304761D01*
X169634819Y-149304761D02*
X169634819Y-149114285D01*
X169634819Y-149114285D02*
X169587200Y-149019047D01*
X169587200Y-149019047D02*
X169539580Y-148971428D01*
X169539580Y-148971428D02*
X169444342Y-148923809D01*
X169444342Y-148923809D02*
X168634819Y-148923809D01*
X169587200Y-148495237D02*
X169634819Y-148352380D01*
X169634819Y-148352380D02*
X169634819Y-148114285D01*
X169634819Y-148114285D02*
X169587200Y-148019047D01*
X169587200Y-148019047D02*
X169539580Y-147971428D01*
X169539580Y-147971428D02*
X169444342Y-147923809D01*
X169444342Y-147923809D02*
X169349104Y-147923809D01*
X169349104Y-147923809D02*
X169253866Y-147971428D01*
X169253866Y-147971428D02*
X169206247Y-148019047D01*
X169206247Y-148019047D02*
X169158628Y-148114285D01*
X169158628Y-148114285D02*
X169111009Y-148304761D01*
X169111009Y-148304761D02*
X169063390Y-148399999D01*
X169063390Y-148399999D02*
X169015771Y-148447618D01*
X169015771Y-148447618D02*
X168920533Y-148495237D01*
X168920533Y-148495237D02*
X168825295Y-148495237D01*
X168825295Y-148495237D02*
X168730057Y-148447618D01*
X168730057Y-148447618D02*
X168682438Y-148399999D01*
X168682438Y-148399999D02*
X168634819Y-148304761D01*
X168634819Y-148304761D02*
X168634819Y-148066666D01*
X168634819Y-148066666D02*
X168682438Y-147923809D01*
D11*
X167931927Y-151323808D02*
X167531927Y-151323808D01*
X167531927Y-151323808D02*
X167531927Y-151228570D01*
X167531927Y-151228570D02*
X167550975Y-151171427D01*
X167550975Y-151171427D02*
X167589070Y-151133332D01*
X167589070Y-151133332D02*
X167627165Y-151114285D01*
X167627165Y-151114285D02*
X167703356Y-151095237D01*
X167703356Y-151095237D02*
X167760499Y-151095237D01*
X167760499Y-151095237D02*
X167836689Y-151114285D01*
X167836689Y-151114285D02*
X167874784Y-151133332D01*
X167874784Y-151133332D02*
X167912880Y-151171427D01*
X167912880Y-151171427D02*
X167931927Y-151228570D01*
X167931927Y-151228570D02*
X167931927Y-151323808D01*
X167970022Y-151019047D02*
X167970022Y-150714285D01*
X167912880Y-150638094D02*
X167931927Y-150580951D01*
X167931927Y-150580951D02*
X167931927Y-150485713D01*
X167931927Y-150485713D02*
X167912880Y-150447618D01*
X167912880Y-150447618D02*
X167893832Y-150428570D01*
X167893832Y-150428570D02*
X167855737Y-150409523D01*
X167855737Y-150409523D02*
X167817641Y-150409523D01*
X167817641Y-150409523D02*
X167779546Y-150428570D01*
X167779546Y-150428570D02*
X167760499Y-150447618D01*
X167760499Y-150447618D02*
X167741451Y-150485713D01*
X167741451Y-150485713D02*
X167722403Y-150561904D01*
X167722403Y-150561904D02*
X167703356Y-150599999D01*
X167703356Y-150599999D02*
X167684308Y-150619046D01*
X167684308Y-150619046D02*
X167646213Y-150638094D01*
X167646213Y-150638094D02*
X167608118Y-150638094D01*
X167608118Y-150638094D02*
X167570022Y-150619046D01*
X167570022Y-150619046D02*
X167550975Y-150599999D01*
X167550975Y-150599999D02*
X167531927Y-150561904D01*
X167531927Y-150561904D02*
X167531927Y-150466665D01*
X167531927Y-150466665D02*
X167550975Y-150409523D01*
X167531927Y-150295237D02*
X167531927Y-150066666D01*
X167931927Y-150180952D02*
X167531927Y-150180952D01*
X167817641Y-149952380D02*
X167817641Y-149761904D01*
X167931927Y-149990475D02*
X167531927Y-149857142D01*
X167531927Y-149857142D02*
X167931927Y-149723809D01*
X167531927Y-149647618D02*
X167531927Y-149419047D01*
X167931927Y-149533333D02*
X167531927Y-149533333D01*
D10*
X164830953Y-104931009D02*
X165164286Y-104931009D01*
X165307143Y-105454819D02*
X164830953Y-105454819D01*
X164830953Y-105454819D02*
X164830953Y-104454819D01*
X164830953Y-104454819D02*
X165307143Y-104454819D01*
X165688096Y-105407200D02*
X165830953Y-105454819D01*
X165830953Y-105454819D02*
X166069048Y-105454819D01*
X166069048Y-105454819D02*
X166164286Y-105407200D01*
X166164286Y-105407200D02*
X166211905Y-105359580D01*
X166211905Y-105359580D02*
X166259524Y-105264342D01*
X166259524Y-105264342D02*
X166259524Y-105169104D01*
X166259524Y-105169104D02*
X166211905Y-105073866D01*
X166211905Y-105073866D02*
X166164286Y-105026247D01*
X166164286Y-105026247D02*
X166069048Y-104978628D01*
X166069048Y-104978628D02*
X165878572Y-104931009D01*
X165878572Y-104931009D02*
X165783334Y-104883390D01*
X165783334Y-104883390D02*
X165735715Y-104835771D01*
X165735715Y-104835771D02*
X165688096Y-104740533D01*
X165688096Y-104740533D02*
X165688096Y-104645295D01*
X165688096Y-104645295D02*
X165735715Y-104550057D01*
X165735715Y-104550057D02*
X165783334Y-104502438D01*
X165783334Y-104502438D02*
X165878572Y-104454819D01*
X165878572Y-104454819D02*
X166116667Y-104454819D01*
X166116667Y-104454819D02*
X166259524Y-104502438D01*
X166688096Y-105454819D02*
X166688096Y-104454819D01*
X166688096Y-104454819D02*
X167069048Y-104454819D01*
X167069048Y-104454819D02*
X167164286Y-104502438D01*
X167164286Y-104502438D02*
X167211905Y-104550057D01*
X167211905Y-104550057D02*
X167259524Y-104645295D01*
X167259524Y-104645295D02*
X167259524Y-104788152D01*
X167259524Y-104788152D02*
X167211905Y-104883390D01*
X167211905Y-104883390D02*
X167164286Y-104931009D01*
X167164286Y-104931009D02*
X167069048Y-104978628D01*
X167069048Y-104978628D02*
X166688096Y-104978628D01*
X167592858Y-104454819D02*
X168211905Y-104454819D01*
X168211905Y-104454819D02*
X167878572Y-104835771D01*
X167878572Y-104835771D02*
X168021429Y-104835771D01*
X168021429Y-104835771D02*
X168116667Y-104883390D01*
X168116667Y-104883390D02*
X168164286Y-104931009D01*
X168164286Y-104931009D02*
X168211905Y-105026247D01*
X168211905Y-105026247D02*
X168211905Y-105264342D01*
X168211905Y-105264342D02*
X168164286Y-105359580D01*
X168164286Y-105359580D02*
X168116667Y-105407200D01*
X168116667Y-105407200D02*
X168021429Y-105454819D01*
X168021429Y-105454819D02*
X167735715Y-105454819D01*
X167735715Y-105454819D02*
X167640477Y-105407200D01*
X167640477Y-105407200D02*
X167592858Y-105359580D01*
X168592858Y-104550057D02*
X168640477Y-104502438D01*
X168640477Y-104502438D02*
X168735715Y-104454819D01*
X168735715Y-104454819D02*
X168973810Y-104454819D01*
X168973810Y-104454819D02*
X169069048Y-104502438D01*
X169069048Y-104502438D02*
X169116667Y-104550057D01*
X169116667Y-104550057D02*
X169164286Y-104645295D01*
X169164286Y-104645295D02*
X169164286Y-104740533D01*
X169164286Y-104740533D02*
X169116667Y-104883390D01*
X169116667Y-104883390D02*
X168545239Y-105454819D01*
X168545239Y-105454819D02*
X169164286Y-105454819D01*
X169592858Y-105073866D02*
X170354763Y-105073866D01*
X171402381Y-105359580D02*
X171354762Y-105407200D01*
X171354762Y-105407200D02*
X171211905Y-105454819D01*
X171211905Y-105454819D02*
X171116667Y-105454819D01*
X171116667Y-105454819D02*
X170973810Y-105407200D01*
X170973810Y-105407200D02*
X170878572Y-105311961D01*
X170878572Y-105311961D02*
X170830953Y-105216723D01*
X170830953Y-105216723D02*
X170783334Y-105026247D01*
X170783334Y-105026247D02*
X170783334Y-104883390D01*
X170783334Y-104883390D02*
X170830953Y-104692914D01*
X170830953Y-104692914D02*
X170878572Y-104597676D01*
X170878572Y-104597676D02*
X170973810Y-104502438D01*
X170973810Y-104502438D02*
X171116667Y-104454819D01*
X171116667Y-104454819D02*
X171211905Y-104454819D01*
X171211905Y-104454819D02*
X171354762Y-104502438D01*
X171354762Y-104502438D02*
X171402381Y-104550057D01*
X171735715Y-104454819D02*
X172354762Y-104454819D01*
X172354762Y-104454819D02*
X172021429Y-104835771D01*
X172021429Y-104835771D02*
X172164286Y-104835771D01*
X172164286Y-104835771D02*
X172259524Y-104883390D01*
X172259524Y-104883390D02*
X172307143Y-104931009D01*
X172307143Y-104931009D02*
X172354762Y-105026247D01*
X172354762Y-105026247D02*
X172354762Y-105264342D01*
X172354762Y-105264342D02*
X172307143Y-105359580D01*
X172307143Y-105359580D02*
X172259524Y-105407200D01*
X172259524Y-105407200D02*
X172164286Y-105454819D01*
X172164286Y-105454819D02*
X171878572Y-105454819D01*
X171878572Y-105454819D02*
X171783334Y-105407200D01*
X171783334Y-105407200D02*
X171735715Y-105359580D01*
X172783334Y-105073866D02*
X173545239Y-105073866D01*
X173926191Y-104454819D02*
X174164286Y-105454819D01*
X174164286Y-105454819D02*
X174354762Y-104740533D01*
X174354762Y-104740533D02*
X174545238Y-105454819D01*
X174545238Y-105454819D02*
X174783334Y-104454819D01*
X175735714Y-105454819D02*
X175402381Y-104978628D01*
X175164286Y-105454819D02*
X175164286Y-104454819D01*
X175164286Y-104454819D02*
X175545238Y-104454819D01*
X175545238Y-104454819D02*
X175640476Y-104502438D01*
X175640476Y-104502438D02*
X175688095Y-104550057D01*
X175688095Y-104550057D02*
X175735714Y-104645295D01*
X175735714Y-104645295D02*
X175735714Y-104788152D01*
X175735714Y-104788152D02*
X175688095Y-104883390D01*
X175688095Y-104883390D02*
X175640476Y-104931009D01*
X175640476Y-104931009D02*
X175545238Y-104978628D01*
X175545238Y-104978628D02*
X175164286Y-104978628D01*
X176354762Y-104454819D02*
X176545238Y-104454819D01*
X176545238Y-104454819D02*
X176640476Y-104502438D01*
X176640476Y-104502438D02*
X176735714Y-104597676D01*
X176735714Y-104597676D02*
X176783333Y-104788152D01*
X176783333Y-104788152D02*
X176783333Y-105121485D01*
X176783333Y-105121485D02*
X176735714Y-105311961D01*
X176735714Y-105311961D02*
X176640476Y-105407200D01*
X176640476Y-105407200D02*
X176545238Y-105454819D01*
X176545238Y-105454819D02*
X176354762Y-105454819D01*
X176354762Y-105454819D02*
X176259524Y-105407200D01*
X176259524Y-105407200D02*
X176164286Y-105311961D01*
X176164286Y-105311961D02*
X176116667Y-105121485D01*
X176116667Y-105121485D02*
X176116667Y-104788152D01*
X176116667Y-104788152D02*
X176164286Y-104597676D01*
X176164286Y-104597676D02*
X176259524Y-104502438D01*
X176259524Y-104502438D02*
X176354762Y-104454819D01*
X177402381Y-104454819D02*
X177592857Y-104454819D01*
X177592857Y-104454819D02*
X177688095Y-104502438D01*
X177688095Y-104502438D02*
X177783333Y-104597676D01*
X177783333Y-104597676D02*
X177830952Y-104788152D01*
X177830952Y-104788152D02*
X177830952Y-105121485D01*
X177830952Y-105121485D02*
X177783333Y-105311961D01*
X177783333Y-105311961D02*
X177688095Y-105407200D01*
X177688095Y-105407200D02*
X177592857Y-105454819D01*
X177592857Y-105454819D02*
X177402381Y-105454819D01*
X177402381Y-105454819D02*
X177307143Y-105407200D01*
X177307143Y-105407200D02*
X177211905Y-105311961D01*
X177211905Y-105311961D02*
X177164286Y-105121485D01*
X177164286Y-105121485D02*
X177164286Y-104788152D01*
X177164286Y-104788152D02*
X177211905Y-104597676D01*
X177211905Y-104597676D02*
X177307143Y-104502438D01*
X177307143Y-104502438D02*
X177402381Y-104454819D01*
X178259524Y-105454819D02*
X178259524Y-104454819D01*
X178259524Y-104454819D02*
X178592857Y-105169104D01*
X178592857Y-105169104D02*
X178926190Y-104454819D01*
X178926190Y-104454819D02*
X178926190Y-105454819D01*
X179402381Y-105073866D02*
X180164286Y-105073866D01*
X180830952Y-104454819D02*
X180926190Y-104454819D01*
X180926190Y-104454819D02*
X181021428Y-104502438D01*
X181021428Y-104502438D02*
X181069047Y-104550057D01*
X181069047Y-104550057D02*
X181116666Y-104645295D01*
X181116666Y-104645295D02*
X181164285Y-104835771D01*
X181164285Y-104835771D02*
X181164285Y-105073866D01*
X181164285Y-105073866D02*
X181116666Y-105264342D01*
X181116666Y-105264342D02*
X181069047Y-105359580D01*
X181069047Y-105359580D02*
X181021428Y-105407200D01*
X181021428Y-105407200D02*
X180926190Y-105454819D01*
X180926190Y-105454819D02*
X180830952Y-105454819D01*
X180830952Y-105454819D02*
X180735714Y-105407200D01*
X180735714Y-105407200D02*
X180688095Y-105359580D01*
X180688095Y-105359580D02*
X180640476Y-105264342D01*
X180640476Y-105264342D02*
X180592857Y-105073866D01*
X180592857Y-105073866D02*
X180592857Y-104835771D01*
X180592857Y-104835771D02*
X180640476Y-104645295D01*
X180640476Y-104645295D02*
X180688095Y-104550057D01*
X180688095Y-104550057D02*
X180735714Y-104502438D01*
X180735714Y-104502438D02*
X180830952Y-104454819D01*
X181545238Y-104550057D02*
X181592857Y-104502438D01*
X181592857Y-104502438D02*
X181688095Y-104454819D01*
X181688095Y-104454819D02*
X181926190Y-104454819D01*
X181926190Y-104454819D02*
X182021428Y-104502438D01*
X182021428Y-104502438D02*
X182069047Y-104550057D01*
X182069047Y-104550057D02*
X182116666Y-104645295D01*
X182116666Y-104645295D02*
X182116666Y-104740533D01*
X182116666Y-104740533D02*
X182069047Y-104883390D01*
X182069047Y-104883390D02*
X181497619Y-105454819D01*
X181497619Y-105454819D02*
X182116666Y-105454819D01*
X172688095Y-96454819D02*
X172688095Y-97264342D01*
X172688095Y-97264342D02*
X172735714Y-97359580D01*
X172735714Y-97359580D02*
X172783333Y-97407200D01*
X172783333Y-97407200D02*
X172878571Y-97454819D01*
X172878571Y-97454819D02*
X173069047Y-97454819D01*
X173069047Y-97454819D02*
X173164285Y-97407200D01*
X173164285Y-97407200D02*
X173211904Y-97359580D01*
X173211904Y-97359580D02*
X173259523Y-97264342D01*
X173259523Y-97264342D02*
X173259523Y-96454819D01*
X174259523Y-97454819D02*
X173688095Y-97454819D01*
X173973809Y-97454819D02*
X173973809Y-96454819D01*
X173973809Y-96454819D02*
X173878571Y-96597676D01*
X173878571Y-96597676D02*
X173783333Y-96692914D01*
X173783333Y-96692914D02*
X173688095Y-96740533D01*
X164742857Y-156031009D02*
X164885714Y-156078628D01*
X164885714Y-156078628D02*
X164933333Y-156126247D01*
X164933333Y-156126247D02*
X164980952Y-156221485D01*
X164980952Y-156221485D02*
X164980952Y-156364342D01*
X164980952Y-156364342D02*
X164933333Y-156459580D01*
X164933333Y-156459580D02*
X164885714Y-156507200D01*
X164885714Y-156507200D02*
X164790476Y-156554819D01*
X164790476Y-156554819D02*
X164409524Y-156554819D01*
X164409524Y-156554819D02*
X164409524Y-155554819D01*
X164409524Y-155554819D02*
X164742857Y-155554819D01*
X164742857Y-155554819D02*
X164838095Y-155602438D01*
X164838095Y-155602438D02*
X164885714Y-155650057D01*
X164885714Y-155650057D02*
X164933333Y-155745295D01*
X164933333Y-155745295D02*
X164933333Y-155840533D01*
X164933333Y-155840533D02*
X164885714Y-155935771D01*
X164885714Y-155935771D02*
X164838095Y-155983390D01*
X164838095Y-155983390D02*
X164742857Y-156031009D01*
X164742857Y-156031009D02*
X164409524Y-156031009D01*
X165600000Y-155554819D02*
X165790476Y-155554819D01*
X165790476Y-155554819D02*
X165885714Y-155602438D01*
X165885714Y-155602438D02*
X165980952Y-155697676D01*
X165980952Y-155697676D02*
X166028571Y-155888152D01*
X166028571Y-155888152D02*
X166028571Y-156221485D01*
X166028571Y-156221485D02*
X165980952Y-156411961D01*
X165980952Y-156411961D02*
X165885714Y-156507200D01*
X165885714Y-156507200D02*
X165790476Y-156554819D01*
X165790476Y-156554819D02*
X165600000Y-156554819D01*
X165600000Y-156554819D02*
X165504762Y-156507200D01*
X165504762Y-156507200D02*
X165409524Y-156411961D01*
X165409524Y-156411961D02*
X165361905Y-156221485D01*
X165361905Y-156221485D02*
X165361905Y-155888152D01*
X165361905Y-155888152D02*
X165409524Y-155697676D01*
X165409524Y-155697676D02*
X165504762Y-155602438D01*
X165504762Y-155602438D02*
X165600000Y-155554819D01*
X166647619Y-155554819D02*
X166838095Y-155554819D01*
X166838095Y-155554819D02*
X166933333Y-155602438D01*
X166933333Y-155602438D02*
X167028571Y-155697676D01*
X167028571Y-155697676D02*
X167076190Y-155888152D01*
X167076190Y-155888152D02*
X167076190Y-156221485D01*
X167076190Y-156221485D02*
X167028571Y-156411961D01*
X167028571Y-156411961D02*
X166933333Y-156507200D01*
X166933333Y-156507200D02*
X166838095Y-156554819D01*
X166838095Y-156554819D02*
X166647619Y-156554819D01*
X166647619Y-156554819D02*
X166552381Y-156507200D01*
X166552381Y-156507200D02*
X166457143Y-156411961D01*
X166457143Y-156411961D02*
X166409524Y-156221485D01*
X166409524Y-156221485D02*
X166409524Y-155888152D01*
X166409524Y-155888152D02*
X166457143Y-155697676D01*
X166457143Y-155697676D02*
X166552381Y-155602438D01*
X166552381Y-155602438D02*
X166647619Y-155554819D01*
X167361905Y-155554819D02*
X167933333Y-155554819D01*
X167647619Y-156554819D02*
X167647619Y-155554819D01*
X162933333Y-151507200D02*
X163076190Y-151554819D01*
X163076190Y-151554819D02*
X163314285Y-151554819D01*
X163314285Y-151554819D02*
X163409523Y-151507200D01*
X163409523Y-151507200D02*
X163457142Y-151459580D01*
X163457142Y-151459580D02*
X163504761Y-151364342D01*
X163504761Y-151364342D02*
X163504761Y-151269104D01*
X163504761Y-151269104D02*
X163457142Y-151173866D01*
X163457142Y-151173866D02*
X163409523Y-151126247D01*
X163409523Y-151126247D02*
X163314285Y-151078628D01*
X163314285Y-151078628D02*
X163123809Y-151031009D01*
X163123809Y-151031009D02*
X163028571Y-150983390D01*
X163028571Y-150983390D02*
X162980952Y-150935771D01*
X162980952Y-150935771D02*
X162933333Y-150840533D01*
X162933333Y-150840533D02*
X162933333Y-150745295D01*
X162933333Y-150745295D02*
X162980952Y-150650057D01*
X162980952Y-150650057D02*
X163028571Y-150602438D01*
X163028571Y-150602438D02*
X163123809Y-150554819D01*
X163123809Y-150554819D02*
X163361904Y-150554819D01*
X163361904Y-150554819D02*
X163504761Y-150602438D01*
X163838095Y-150554819D02*
X164076190Y-151554819D01*
X164076190Y-151554819D02*
X164266666Y-150840533D01*
X164266666Y-150840533D02*
X164457142Y-151554819D01*
X164457142Y-151554819D02*
X164695238Y-150554819D01*
X164838095Y-151650057D02*
X165599999Y-151650057D01*
X166171428Y-151031009D02*
X166314285Y-151078628D01*
X166314285Y-151078628D02*
X166361904Y-151126247D01*
X166361904Y-151126247D02*
X166409523Y-151221485D01*
X166409523Y-151221485D02*
X166409523Y-151364342D01*
X166409523Y-151364342D02*
X166361904Y-151459580D01*
X166361904Y-151459580D02*
X166314285Y-151507200D01*
X166314285Y-151507200D02*
X166219047Y-151554819D01*
X166219047Y-151554819D02*
X165838095Y-151554819D01*
X165838095Y-151554819D02*
X165838095Y-150554819D01*
X165838095Y-150554819D02*
X166171428Y-150554819D01*
X166171428Y-150554819D02*
X166266666Y-150602438D01*
X166266666Y-150602438D02*
X166314285Y-150650057D01*
X166314285Y-150650057D02*
X166361904Y-150745295D01*
X166361904Y-150745295D02*
X166361904Y-150840533D01*
X166361904Y-150840533D02*
X166314285Y-150935771D01*
X166314285Y-150935771D02*
X166266666Y-150983390D01*
X166266666Y-150983390D02*
X166171428Y-151031009D01*
X166171428Y-151031009D02*
X165838095Y-151031009D01*
X167028571Y-150554819D02*
X167219047Y-150554819D01*
X167219047Y-150554819D02*
X167314285Y-150602438D01*
X167314285Y-150602438D02*
X167409523Y-150697676D01*
X167409523Y-150697676D02*
X167457142Y-150888152D01*
X167457142Y-150888152D02*
X167457142Y-151221485D01*
X167457142Y-151221485D02*
X167409523Y-151411961D01*
X167409523Y-151411961D02*
X167314285Y-151507200D01*
X167314285Y-151507200D02*
X167219047Y-151554819D01*
X167219047Y-151554819D02*
X167028571Y-151554819D01*
X167028571Y-151554819D02*
X166933333Y-151507200D01*
X166933333Y-151507200D02*
X166838095Y-151411961D01*
X166838095Y-151411961D02*
X166790476Y-151221485D01*
X166790476Y-151221485D02*
X166790476Y-150888152D01*
X166790476Y-150888152D02*
X166838095Y-150697676D01*
X166838095Y-150697676D02*
X166933333Y-150602438D01*
X166933333Y-150602438D02*
X167028571Y-150554819D01*
X168076190Y-150554819D02*
X168266666Y-150554819D01*
X168266666Y-150554819D02*
X168361904Y-150602438D01*
X168361904Y-150602438D02*
X168457142Y-150697676D01*
X168457142Y-150697676D02*
X168504761Y-150888152D01*
X168504761Y-150888152D02*
X168504761Y-151221485D01*
X168504761Y-151221485D02*
X168457142Y-151411961D01*
X168457142Y-151411961D02*
X168361904Y-151507200D01*
X168361904Y-151507200D02*
X168266666Y-151554819D01*
X168266666Y-151554819D02*
X168076190Y-151554819D01*
X168076190Y-151554819D02*
X167980952Y-151507200D01*
X167980952Y-151507200D02*
X167885714Y-151411961D01*
X167885714Y-151411961D02*
X167838095Y-151221485D01*
X167838095Y-151221485D02*
X167838095Y-150888152D01*
X167838095Y-150888152D02*
X167885714Y-150697676D01*
X167885714Y-150697676D02*
X167980952Y-150602438D01*
X167980952Y-150602438D02*
X168076190Y-150554819D01*
X168790476Y-150554819D02*
X169361904Y-150554819D01*
X169076190Y-151554819D02*
X169076190Y-150554819D01*
X161107200Y-127364285D02*
X161154819Y-127221428D01*
X161154819Y-127221428D02*
X161154819Y-126983333D01*
X161154819Y-126983333D02*
X161107200Y-126888095D01*
X161107200Y-126888095D02*
X161059580Y-126840476D01*
X161059580Y-126840476D02*
X160964342Y-126792857D01*
X160964342Y-126792857D02*
X160869104Y-126792857D01*
X160869104Y-126792857D02*
X160773866Y-126840476D01*
X160773866Y-126840476D02*
X160726247Y-126888095D01*
X160726247Y-126888095D02*
X160678628Y-126983333D01*
X160678628Y-126983333D02*
X160631009Y-127173809D01*
X160631009Y-127173809D02*
X160583390Y-127269047D01*
X160583390Y-127269047D02*
X160535771Y-127316666D01*
X160535771Y-127316666D02*
X160440533Y-127364285D01*
X160440533Y-127364285D02*
X160345295Y-127364285D01*
X160345295Y-127364285D02*
X160250057Y-127316666D01*
X160250057Y-127316666D02*
X160202438Y-127269047D01*
X160202438Y-127269047D02*
X160154819Y-127173809D01*
X160154819Y-127173809D02*
X160154819Y-126935714D01*
X160154819Y-126935714D02*
X160202438Y-126792857D01*
X161107200Y-126411904D02*
X161154819Y-126269047D01*
X161154819Y-126269047D02*
X161154819Y-126030952D01*
X161154819Y-126030952D02*
X161107200Y-125935714D01*
X161107200Y-125935714D02*
X161059580Y-125888095D01*
X161059580Y-125888095D02*
X160964342Y-125840476D01*
X160964342Y-125840476D02*
X160869104Y-125840476D01*
X160869104Y-125840476D02*
X160773866Y-125888095D01*
X160773866Y-125888095D02*
X160726247Y-125935714D01*
X160726247Y-125935714D02*
X160678628Y-126030952D01*
X160678628Y-126030952D02*
X160631009Y-126221428D01*
X160631009Y-126221428D02*
X160583390Y-126316666D01*
X160583390Y-126316666D02*
X160535771Y-126364285D01*
X160535771Y-126364285D02*
X160440533Y-126411904D01*
X160440533Y-126411904D02*
X160345295Y-126411904D01*
X160345295Y-126411904D02*
X160250057Y-126364285D01*
X160250057Y-126364285D02*
X160202438Y-126316666D01*
X160202438Y-126316666D02*
X160154819Y-126221428D01*
X160154819Y-126221428D02*
X160154819Y-125983333D01*
X160154819Y-125983333D02*
X160202438Y-125840476D01*
X161154819Y-124888095D02*
X161154819Y-125459523D01*
X161154819Y-125173809D02*
X160154819Y-125173809D01*
X160154819Y-125173809D02*
X160297676Y-125269047D01*
X160297676Y-125269047D02*
X160392914Y-125364285D01*
X160392914Y-125364285D02*
X160440533Y-125459523D01*
X160488152Y-124030952D02*
X161154819Y-124030952D01*
X160107200Y-124269047D02*
X160821485Y-124507142D01*
X160821485Y-124507142D02*
X160821485Y-123888095D01*
X166254819Y-128221428D02*
X165254819Y-128221428D01*
X165254819Y-128221428D02*
X165254819Y-127983333D01*
X165254819Y-127983333D02*
X165302438Y-127840476D01*
X165302438Y-127840476D02*
X165397676Y-127745238D01*
X165397676Y-127745238D02*
X165492914Y-127697619D01*
X165492914Y-127697619D02*
X165683390Y-127650000D01*
X165683390Y-127650000D02*
X165826247Y-127650000D01*
X165826247Y-127650000D02*
X166016723Y-127697619D01*
X166016723Y-127697619D02*
X166111961Y-127745238D01*
X166111961Y-127745238D02*
X166207200Y-127840476D01*
X166207200Y-127840476D02*
X166254819Y-127983333D01*
X166254819Y-127983333D02*
X166254819Y-128221428D01*
X166350057Y-127459524D02*
X166350057Y-126697619D01*
X165254819Y-126602380D02*
X166254819Y-126269047D01*
X166254819Y-126269047D02*
X165254819Y-125935714D01*
X165731009Y-125269047D02*
X165778628Y-125126190D01*
X165778628Y-125126190D02*
X165826247Y-125078571D01*
X165826247Y-125078571D02*
X165921485Y-125030952D01*
X165921485Y-125030952D02*
X166064342Y-125030952D01*
X166064342Y-125030952D02*
X166159580Y-125078571D01*
X166159580Y-125078571D02*
X166207200Y-125126190D01*
X166207200Y-125126190D02*
X166254819Y-125221428D01*
X166254819Y-125221428D02*
X166254819Y-125602380D01*
X166254819Y-125602380D02*
X165254819Y-125602380D01*
X165254819Y-125602380D02*
X165254819Y-125269047D01*
X165254819Y-125269047D02*
X165302438Y-125173809D01*
X165302438Y-125173809D02*
X165350057Y-125126190D01*
X165350057Y-125126190D02*
X165445295Y-125078571D01*
X165445295Y-125078571D02*
X165540533Y-125078571D01*
X165540533Y-125078571D02*
X165635771Y-125126190D01*
X165635771Y-125126190D02*
X165683390Y-125173809D01*
X165683390Y-125173809D02*
X165731009Y-125269047D01*
X165731009Y-125269047D02*
X165731009Y-125602380D01*
X165254819Y-124602380D02*
X166064342Y-124602380D01*
X166064342Y-124602380D02*
X166159580Y-124554761D01*
X166159580Y-124554761D02*
X166207200Y-124507142D01*
X166207200Y-124507142D02*
X166254819Y-124411904D01*
X166254819Y-124411904D02*
X166254819Y-124221428D01*
X166254819Y-124221428D02*
X166207200Y-124126190D01*
X166207200Y-124126190D02*
X166159580Y-124078571D01*
X166159580Y-124078571D02*
X166064342Y-124030952D01*
X166064342Y-124030952D02*
X165254819Y-124030952D01*
X166207200Y-123602380D02*
X166254819Y-123459523D01*
X166254819Y-123459523D02*
X166254819Y-123221428D01*
X166254819Y-123221428D02*
X166207200Y-123126190D01*
X166207200Y-123126190D02*
X166159580Y-123078571D01*
X166159580Y-123078571D02*
X166064342Y-123030952D01*
X166064342Y-123030952D02*
X165969104Y-123030952D01*
X165969104Y-123030952D02*
X165873866Y-123078571D01*
X165873866Y-123078571D02*
X165826247Y-123126190D01*
X165826247Y-123126190D02*
X165778628Y-123221428D01*
X165778628Y-123221428D02*
X165731009Y-123411904D01*
X165731009Y-123411904D02*
X165683390Y-123507142D01*
X165683390Y-123507142D02*
X165635771Y-123554761D01*
X165635771Y-123554761D02*
X165540533Y-123602380D01*
X165540533Y-123602380D02*
X165445295Y-123602380D01*
X165445295Y-123602380D02*
X165350057Y-123554761D01*
X165350057Y-123554761D02*
X165302438Y-123507142D01*
X165302438Y-123507142D02*
X165254819Y-123411904D01*
X165254819Y-123411904D02*
X165254819Y-123173809D01*
X165254819Y-123173809D02*
X165302438Y-123030952D01*
X171449048Y-155654819D02*
X171449048Y-156464342D01*
X171449048Y-156464342D02*
X171496667Y-156559580D01*
X171496667Y-156559580D02*
X171544286Y-156607200D01*
X171544286Y-156607200D02*
X171639524Y-156654819D01*
X171639524Y-156654819D02*
X171830000Y-156654819D01*
X171830000Y-156654819D02*
X171925238Y-156607200D01*
X171925238Y-156607200D02*
X171972857Y-156559580D01*
X171972857Y-156559580D02*
X172020476Y-156464342D01*
X172020476Y-156464342D02*
X172020476Y-155654819D01*
X172449048Y-156607200D02*
X172591905Y-156654819D01*
X172591905Y-156654819D02*
X172830000Y-156654819D01*
X172830000Y-156654819D02*
X172925238Y-156607200D01*
X172925238Y-156607200D02*
X172972857Y-156559580D01*
X172972857Y-156559580D02*
X173020476Y-156464342D01*
X173020476Y-156464342D02*
X173020476Y-156369104D01*
X173020476Y-156369104D02*
X172972857Y-156273866D01*
X172972857Y-156273866D02*
X172925238Y-156226247D01*
X172925238Y-156226247D02*
X172830000Y-156178628D01*
X172830000Y-156178628D02*
X172639524Y-156131009D01*
X172639524Y-156131009D02*
X172544286Y-156083390D01*
X172544286Y-156083390D02*
X172496667Y-156035771D01*
X172496667Y-156035771D02*
X172449048Y-155940533D01*
X172449048Y-155940533D02*
X172449048Y-155845295D01*
X172449048Y-155845295D02*
X172496667Y-155750057D01*
X172496667Y-155750057D02*
X172544286Y-155702438D01*
X172544286Y-155702438D02*
X172639524Y-155654819D01*
X172639524Y-155654819D02*
X172877619Y-155654819D01*
X172877619Y-155654819D02*
X173020476Y-155702438D01*
X173782381Y-156131009D02*
X173925238Y-156178628D01*
X173925238Y-156178628D02*
X173972857Y-156226247D01*
X173972857Y-156226247D02*
X174020476Y-156321485D01*
X174020476Y-156321485D02*
X174020476Y-156464342D01*
X174020476Y-156464342D02*
X173972857Y-156559580D01*
X173972857Y-156559580D02*
X173925238Y-156607200D01*
X173925238Y-156607200D02*
X173830000Y-156654819D01*
X173830000Y-156654819D02*
X173449048Y-156654819D01*
X173449048Y-156654819D02*
X173449048Y-155654819D01*
X173449048Y-155654819D02*
X173782381Y-155654819D01*
X173782381Y-155654819D02*
X173877619Y-155702438D01*
X173877619Y-155702438D02*
X173925238Y-155750057D01*
X173925238Y-155750057D02*
X173972857Y-155845295D01*
X173972857Y-155845295D02*
X173972857Y-155940533D01*
X173972857Y-155940533D02*
X173925238Y-156035771D01*
X173925238Y-156035771D02*
X173877619Y-156083390D01*
X173877619Y-156083390D02*
X173782381Y-156131009D01*
X173782381Y-156131009D02*
X173449048Y-156131009D01*
X174449048Y-156273866D02*
X175210953Y-156273866D01*
X176258571Y-156559580D02*
X176210952Y-156607200D01*
X176210952Y-156607200D02*
X176068095Y-156654819D01*
X176068095Y-156654819D02*
X175972857Y-156654819D01*
X175972857Y-156654819D02*
X175830000Y-156607200D01*
X175830000Y-156607200D02*
X175734762Y-156511961D01*
X175734762Y-156511961D02*
X175687143Y-156416723D01*
X175687143Y-156416723D02*
X175639524Y-156226247D01*
X175639524Y-156226247D02*
X175639524Y-156083390D01*
X175639524Y-156083390D02*
X175687143Y-155892914D01*
X175687143Y-155892914D02*
X175734762Y-155797676D01*
X175734762Y-155797676D02*
X175830000Y-155702438D01*
X175830000Y-155702438D02*
X175972857Y-155654819D01*
X175972857Y-155654819D02*
X176068095Y-155654819D01*
X176068095Y-155654819D02*
X176210952Y-155702438D01*
X176210952Y-155702438D02*
X176258571Y-155750057D01*
X173496666Y-150554819D02*
X173496666Y-151269104D01*
X173496666Y-151269104D02*
X173449047Y-151411961D01*
X173449047Y-151411961D02*
X173353809Y-151507200D01*
X173353809Y-151507200D02*
X173210952Y-151554819D01*
X173210952Y-151554819D02*
X173115714Y-151554819D01*
X174496666Y-151554819D02*
X173925238Y-151554819D01*
X174210952Y-151554819D02*
X174210952Y-150554819D01*
X174210952Y-150554819D02*
X174115714Y-150697676D01*
X174115714Y-150697676D02*
X174020476Y-150792914D01*
X174020476Y-150792914D02*
X173925238Y-150840533D01*
X169634819Y-148471428D02*
X169634819Y-149042856D01*
X169634819Y-148757142D02*
X168634819Y-148757142D01*
X168634819Y-148757142D02*
X168777676Y-148852380D01*
X168777676Y-148852380D02*
X168872914Y-148947618D01*
X168872914Y-148947618D02*
X168920533Y-149042856D01*
X168634819Y-147852380D02*
X168634819Y-147757142D01*
X168634819Y-147757142D02*
X168682438Y-147661904D01*
X168682438Y-147661904D02*
X168730057Y-147614285D01*
X168730057Y-147614285D02*
X168825295Y-147566666D01*
X168825295Y-147566666D02*
X169015771Y-147519047D01*
X169015771Y-147519047D02*
X169253866Y-147519047D01*
X169253866Y-147519047D02*
X169444342Y-147566666D01*
X169444342Y-147566666D02*
X169539580Y-147614285D01*
X169539580Y-147614285D02*
X169587200Y-147661904D01*
X169587200Y-147661904D02*
X169634819Y-147757142D01*
X169634819Y-147757142D02*
X169634819Y-147852380D01*
X169634819Y-147852380D02*
X169587200Y-147947618D01*
X169587200Y-147947618D02*
X169539580Y-147995237D01*
X169539580Y-147995237D02*
X169444342Y-148042856D01*
X169444342Y-148042856D02*
X169253866Y-148090475D01*
X169253866Y-148090475D02*
X169015771Y-148090475D01*
X169015771Y-148090475D02*
X168825295Y-148042856D01*
X168825295Y-148042856D02*
X168730057Y-147995237D01*
X168730057Y-147995237D02*
X168682438Y-147947618D01*
X168682438Y-147947618D02*
X168634819Y-147852380D01*
X168968152Y-146661904D02*
X169634819Y-146661904D01*
X168968152Y-147090475D02*
X169491961Y-147090475D01*
X169491961Y-147090475D02*
X169587200Y-147042856D01*
X169587200Y-147042856D02*
X169634819Y-146947618D01*
X169634819Y-146947618D02*
X169634819Y-146804761D01*
X169634819Y-146804761D02*
X169587200Y-146709523D01*
X169587200Y-146709523D02*
X169539580Y-146661904D01*
X169111009Y-145852380D02*
X169111009Y-146185713D01*
X169634819Y-146185713D02*
X168634819Y-146185713D01*
X168634819Y-146185713D02*
X168634819Y-145709523D01*
D11*
X167893832Y-147466666D02*
X167912880Y-147485714D01*
X167912880Y-147485714D02*
X167931927Y-147542856D01*
X167931927Y-147542856D02*
X167931927Y-147580952D01*
X167931927Y-147580952D02*
X167912880Y-147638095D01*
X167912880Y-147638095D02*
X167874784Y-147676190D01*
X167874784Y-147676190D02*
X167836689Y-147695237D01*
X167836689Y-147695237D02*
X167760499Y-147714285D01*
X167760499Y-147714285D02*
X167703356Y-147714285D01*
X167703356Y-147714285D02*
X167627165Y-147695237D01*
X167627165Y-147695237D02*
X167589070Y-147676190D01*
X167589070Y-147676190D02*
X167550975Y-147638095D01*
X167550975Y-147638095D02*
X167531927Y-147580952D01*
X167531927Y-147580952D02*
X167531927Y-147542856D01*
X167531927Y-147542856D02*
X167550975Y-147485714D01*
X167550975Y-147485714D02*
X167570022Y-147466666D01*
X167570022Y-147314285D02*
X167550975Y-147295237D01*
X167550975Y-147295237D02*
X167531927Y-147257142D01*
X167531927Y-147257142D02*
X167531927Y-147161904D01*
X167531927Y-147161904D02*
X167550975Y-147123809D01*
X167550975Y-147123809D02*
X167570022Y-147104761D01*
X167570022Y-147104761D02*
X167608118Y-147085714D01*
X167608118Y-147085714D02*
X167646213Y-147085714D01*
X167646213Y-147085714D02*
X167703356Y-147104761D01*
X167703356Y-147104761D02*
X167931927Y-147333333D01*
X167931927Y-147333333D02*
X167931927Y-147085714D01*
D10*
X171849999Y-114029580D02*
X171802380Y-114077200D01*
X171802380Y-114077200D02*
X171659523Y-114124819D01*
X171659523Y-114124819D02*
X171564285Y-114124819D01*
X171564285Y-114124819D02*
X171421428Y-114077200D01*
X171421428Y-114077200D02*
X171326190Y-113981961D01*
X171326190Y-113981961D02*
X171278571Y-113886723D01*
X171278571Y-113886723D02*
X171230952Y-113696247D01*
X171230952Y-113696247D02*
X171230952Y-113553390D01*
X171230952Y-113553390D02*
X171278571Y-113362914D01*
X171278571Y-113362914D02*
X171326190Y-113267676D01*
X171326190Y-113267676D02*
X171421428Y-113172438D01*
X171421428Y-113172438D02*
X171564285Y-113124819D01*
X171564285Y-113124819D02*
X171659523Y-113124819D01*
X171659523Y-113124819D02*
X171802380Y-113172438D01*
X171802380Y-113172438D02*
X171849999Y-113220057D01*
X172278571Y-114124819D02*
X172278571Y-113124819D01*
X172707142Y-114124819D02*
X172707142Y-113601009D01*
X172707142Y-113601009D02*
X172659523Y-113505771D01*
X172659523Y-113505771D02*
X172564285Y-113458152D01*
X172564285Y-113458152D02*
X172421428Y-113458152D01*
X172421428Y-113458152D02*
X172326190Y-113505771D01*
X172326190Y-113505771D02*
X172278571Y-113553390D01*
X173326190Y-114124819D02*
X173230952Y-114077200D01*
X173230952Y-114077200D02*
X173183333Y-114029580D01*
X173183333Y-114029580D02*
X173135714Y-113934342D01*
X173135714Y-113934342D02*
X173135714Y-113648628D01*
X173135714Y-113648628D02*
X173183333Y-113553390D01*
X173183333Y-113553390D02*
X173230952Y-113505771D01*
X173230952Y-113505771D02*
X173326190Y-113458152D01*
X173326190Y-113458152D02*
X173469047Y-113458152D01*
X173469047Y-113458152D02*
X173564285Y-113505771D01*
X173564285Y-113505771D02*
X173611904Y-113553390D01*
X173611904Y-113553390D02*
X173659523Y-113648628D01*
X173659523Y-113648628D02*
X173659523Y-113934342D01*
X173659523Y-113934342D02*
X173611904Y-114029580D01*
X173611904Y-114029580D02*
X173564285Y-114077200D01*
X173564285Y-114077200D02*
X173469047Y-114124819D01*
X173469047Y-114124819D02*
X173326190Y-114124819D01*
X174516666Y-114077200D02*
X174421428Y-114124819D01*
X174421428Y-114124819D02*
X174230952Y-114124819D01*
X174230952Y-114124819D02*
X174135714Y-114077200D01*
X174135714Y-114077200D02*
X174088095Y-114029580D01*
X174088095Y-114029580D02*
X174040476Y-113934342D01*
X174040476Y-113934342D02*
X174040476Y-113648628D01*
X174040476Y-113648628D02*
X174088095Y-113553390D01*
X174088095Y-113553390D02*
X174135714Y-113505771D01*
X174135714Y-113505771D02*
X174230952Y-113458152D01*
X174230952Y-113458152D02*
X174421428Y-113458152D01*
X174421428Y-113458152D02*
X174516666Y-113505771D01*
X174897619Y-113220057D02*
X174945238Y-113172438D01*
X174945238Y-113172438D02*
X175040476Y-113124819D01*
X175040476Y-113124819D02*
X175278571Y-113124819D01*
X175278571Y-113124819D02*
X175373809Y-113172438D01*
X175373809Y-113172438D02*
X175421428Y-113220057D01*
X175421428Y-113220057D02*
X175469047Y-113315295D01*
X175469047Y-113315295D02*
X175469047Y-113410533D01*
X175469047Y-113410533D02*
X175421428Y-113553390D01*
X175421428Y-113553390D02*
X174850000Y-114124819D01*
X174850000Y-114124819D02*
X175469047Y-114124819D01*
X182084819Y-152022619D02*
X182084819Y-152594047D01*
X182084819Y-152308333D02*
X181084819Y-152308333D01*
X181084819Y-152308333D02*
X181227676Y-152403571D01*
X181227676Y-152403571D02*
X181322914Y-152498809D01*
X181322914Y-152498809D02*
X181370533Y-152594047D01*
X181084819Y-151403571D02*
X181084819Y-151308333D01*
X181084819Y-151308333D02*
X181132438Y-151213095D01*
X181132438Y-151213095D02*
X181180057Y-151165476D01*
X181180057Y-151165476D02*
X181275295Y-151117857D01*
X181275295Y-151117857D02*
X181465771Y-151070238D01*
X181465771Y-151070238D02*
X181703866Y-151070238D01*
X181703866Y-151070238D02*
X181894342Y-151117857D01*
X181894342Y-151117857D02*
X181989580Y-151165476D01*
X181989580Y-151165476D02*
X182037200Y-151213095D01*
X182037200Y-151213095D02*
X182084819Y-151308333D01*
X182084819Y-151308333D02*
X182084819Y-151403571D01*
X182084819Y-151403571D02*
X182037200Y-151498809D01*
X182037200Y-151498809D02*
X181989580Y-151546428D01*
X181989580Y-151546428D02*
X181894342Y-151594047D01*
X181894342Y-151594047D02*
X181703866Y-151641666D01*
X181703866Y-151641666D02*
X181465771Y-151641666D01*
X181465771Y-151641666D02*
X181275295Y-151594047D01*
X181275295Y-151594047D02*
X181180057Y-151546428D01*
X181180057Y-151546428D02*
X181132438Y-151498809D01*
X181132438Y-151498809D02*
X181084819Y-151403571D01*
X181084819Y-150451190D02*
X181084819Y-150355952D01*
X181084819Y-150355952D02*
X181132438Y-150260714D01*
X181132438Y-150260714D02*
X181180057Y-150213095D01*
X181180057Y-150213095D02*
X181275295Y-150165476D01*
X181275295Y-150165476D02*
X181465771Y-150117857D01*
X181465771Y-150117857D02*
X181703866Y-150117857D01*
X181703866Y-150117857D02*
X181894342Y-150165476D01*
X181894342Y-150165476D02*
X181989580Y-150213095D01*
X181989580Y-150213095D02*
X182037200Y-150260714D01*
X182037200Y-150260714D02*
X182084819Y-150355952D01*
X182084819Y-150355952D02*
X182084819Y-150451190D01*
X182084819Y-150451190D02*
X182037200Y-150546428D01*
X182037200Y-150546428D02*
X181989580Y-150594047D01*
X181989580Y-150594047D02*
X181894342Y-150641666D01*
X181894342Y-150641666D02*
X181703866Y-150689285D01*
X181703866Y-150689285D02*
X181465771Y-150689285D01*
X181465771Y-150689285D02*
X181275295Y-150641666D01*
X181275295Y-150641666D02*
X181180057Y-150594047D01*
X181180057Y-150594047D02*
X181132438Y-150546428D01*
X181132438Y-150546428D02*
X181084819Y-150451190D01*
X181418152Y-149689285D02*
X182084819Y-149689285D01*
X181513390Y-149689285D02*
X181465771Y-149641666D01*
X181465771Y-149641666D02*
X181418152Y-149546428D01*
X181418152Y-149546428D02*
X181418152Y-149403571D01*
X181418152Y-149403571D02*
X181465771Y-149308333D01*
X181465771Y-149308333D02*
X181561009Y-149260714D01*
X181561009Y-149260714D02*
X182084819Y-149260714D01*
X181561009Y-148451190D02*
X181561009Y-148784523D01*
X182084819Y-148784523D02*
X181084819Y-148784523D01*
X181084819Y-148784523D02*
X181084819Y-148308333D01*
D11*
X180343832Y-150541666D02*
X180362880Y-150560714D01*
X180362880Y-150560714D02*
X180381927Y-150617856D01*
X180381927Y-150617856D02*
X180381927Y-150655952D01*
X180381927Y-150655952D02*
X180362880Y-150713095D01*
X180362880Y-150713095D02*
X180324784Y-150751190D01*
X180324784Y-150751190D02*
X180286689Y-150770237D01*
X180286689Y-150770237D02*
X180210499Y-150789285D01*
X180210499Y-150789285D02*
X180153356Y-150789285D01*
X180153356Y-150789285D02*
X180077165Y-150770237D01*
X180077165Y-150770237D02*
X180039070Y-150751190D01*
X180039070Y-150751190D02*
X180000975Y-150713095D01*
X180000975Y-150713095D02*
X179981927Y-150655952D01*
X179981927Y-150655952D02*
X179981927Y-150617856D01*
X179981927Y-150617856D02*
X180000975Y-150560714D01*
X180000975Y-150560714D02*
X180020022Y-150541666D01*
X180381927Y-150160714D02*
X180381927Y-150389285D01*
X180381927Y-150274999D02*
X179981927Y-150274999D01*
X179981927Y-150274999D02*
X180039070Y-150313095D01*
X180039070Y-150313095D02*
X180077165Y-150351190D01*
X180077165Y-150351190D02*
X180096213Y-150389285D01*
D10*
X179970057Y-140840475D02*
X179922438Y-140792856D01*
X179922438Y-140792856D02*
X179874819Y-140697618D01*
X179874819Y-140697618D02*
X179874819Y-140459523D01*
X179874819Y-140459523D02*
X179922438Y-140364285D01*
X179922438Y-140364285D02*
X179970057Y-140316666D01*
X179970057Y-140316666D02*
X180065295Y-140269047D01*
X180065295Y-140269047D02*
X180160533Y-140269047D01*
X180160533Y-140269047D02*
X180303390Y-140316666D01*
X180303390Y-140316666D02*
X180874819Y-140888094D01*
X180874819Y-140888094D02*
X180874819Y-140269047D01*
X180874819Y-139840475D02*
X179874819Y-139840475D01*
X180493866Y-139745237D02*
X180874819Y-139459523D01*
X180208152Y-139459523D02*
X180589104Y-139840475D01*
D11*
X182031927Y-140988095D02*
X181841451Y-141121428D01*
X182031927Y-141216666D02*
X181631927Y-141216666D01*
X181631927Y-141216666D02*
X181631927Y-141064285D01*
X181631927Y-141064285D02*
X181650975Y-141026190D01*
X181650975Y-141026190D02*
X181670022Y-141007143D01*
X181670022Y-141007143D02*
X181708118Y-140988095D01*
X181708118Y-140988095D02*
X181765260Y-140988095D01*
X181765260Y-140988095D02*
X181803356Y-141007143D01*
X181803356Y-141007143D02*
X181822403Y-141026190D01*
X181822403Y-141026190D02*
X181841451Y-141064285D01*
X181841451Y-141064285D02*
X181841451Y-141216666D01*
X182070022Y-140911905D02*
X182070022Y-140607143D01*
X182031927Y-140511904D02*
X181631927Y-140511904D01*
X181631927Y-140511904D02*
X181631927Y-140359523D01*
X181631927Y-140359523D02*
X181650975Y-140321428D01*
X181650975Y-140321428D02*
X181670022Y-140302381D01*
X181670022Y-140302381D02*
X181708118Y-140283333D01*
X181708118Y-140283333D02*
X181765260Y-140283333D01*
X181765260Y-140283333D02*
X181803356Y-140302381D01*
X181803356Y-140302381D02*
X181822403Y-140321428D01*
X181822403Y-140321428D02*
X181841451Y-140359523D01*
X181841451Y-140359523D02*
X181841451Y-140511904D01*
X182031927Y-139883333D02*
X181841451Y-140016666D01*
X182031927Y-140111904D02*
X181631927Y-140111904D01*
X181631927Y-140111904D02*
X181631927Y-139959523D01*
X181631927Y-139959523D02*
X181650975Y-139921428D01*
X181650975Y-139921428D02*
X181670022Y-139902381D01*
X181670022Y-139902381D02*
X181708118Y-139883333D01*
X181708118Y-139883333D02*
X181765260Y-139883333D01*
X181765260Y-139883333D02*
X181803356Y-139902381D01*
X181803356Y-139902381D02*
X181822403Y-139921428D01*
X181822403Y-139921428D02*
X181841451Y-139959523D01*
X181841451Y-139959523D02*
X181841451Y-140111904D01*
X181631927Y-139635714D02*
X181631927Y-139559523D01*
X181631927Y-139559523D02*
X181650975Y-139521428D01*
X181650975Y-139521428D02*
X181689070Y-139483333D01*
X181689070Y-139483333D02*
X181765260Y-139464285D01*
X181765260Y-139464285D02*
X181898594Y-139464285D01*
X181898594Y-139464285D02*
X181974784Y-139483333D01*
X181974784Y-139483333D02*
X182012880Y-139521428D01*
X182012880Y-139521428D02*
X182031927Y-139559523D01*
X182031927Y-139559523D02*
X182031927Y-139635714D01*
X182031927Y-139635714D02*
X182012880Y-139673809D01*
X182012880Y-139673809D02*
X181974784Y-139711904D01*
X181974784Y-139711904D02*
X181898594Y-139730952D01*
X181898594Y-139730952D02*
X181765260Y-139730952D01*
X181765260Y-139730952D02*
X181689070Y-139711904D01*
X181689070Y-139711904D02*
X181650975Y-139673809D01*
X181650975Y-139673809D02*
X181631927Y-139635714D01*
X181650975Y-139083333D02*
X181631927Y-139121428D01*
X181631927Y-139121428D02*
X181631927Y-139178571D01*
X181631927Y-139178571D02*
X181650975Y-139235714D01*
X181650975Y-139235714D02*
X181689070Y-139273809D01*
X181689070Y-139273809D02*
X181727165Y-139292856D01*
X181727165Y-139292856D02*
X181803356Y-139311904D01*
X181803356Y-139311904D02*
X181860499Y-139311904D01*
X181860499Y-139311904D02*
X181936689Y-139292856D01*
X181936689Y-139292856D02*
X181974784Y-139273809D01*
X181974784Y-139273809D02*
X182012880Y-139235714D01*
X182012880Y-139235714D02*
X182031927Y-139178571D01*
X182031927Y-139178571D02*
X182031927Y-139140475D01*
X182031927Y-139140475D02*
X182012880Y-139083333D01*
X182012880Y-139083333D02*
X181993832Y-139064285D01*
X181993832Y-139064285D02*
X181860499Y-139064285D01*
X181860499Y-139064285D02*
X181860499Y-139140475D01*
D10*
X175323214Y-143204819D02*
X175323214Y-142204819D01*
X175323214Y-142204819D02*
X175656547Y-142919104D01*
X175656547Y-142919104D02*
X175989880Y-142204819D01*
X175989880Y-142204819D02*
X175989880Y-143204819D01*
X177037499Y-143109580D02*
X176989880Y-143157200D01*
X176989880Y-143157200D02*
X176847023Y-143204819D01*
X176847023Y-143204819D02*
X176751785Y-143204819D01*
X176751785Y-143204819D02*
X176608928Y-143157200D01*
X176608928Y-143157200D02*
X176513690Y-143061961D01*
X176513690Y-143061961D02*
X176466071Y-142966723D01*
X176466071Y-142966723D02*
X176418452Y-142776247D01*
X176418452Y-142776247D02*
X176418452Y-142633390D01*
X176418452Y-142633390D02*
X176466071Y-142442914D01*
X176466071Y-142442914D02*
X176513690Y-142347676D01*
X176513690Y-142347676D02*
X176608928Y-142252438D01*
X176608928Y-142252438D02*
X176751785Y-142204819D01*
X176751785Y-142204819D02*
X176847023Y-142204819D01*
X176847023Y-142204819D02*
X176989880Y-142252438D01*
X176989880Y-142252438D02*
X177037499Y-142300057D01*
X177466071Y-143204819D02*
X177466071Y-142204819D01*
X177466071Y-142204819D02*
X177847023Y-142204819D01*
X177847023Y-142204819D02*
X177942261Y-142252438D01*
X177942261Y-142252438D02*
X177989880Y-142300057D01*
X177989880Y-142300057D02*
X178037499Y-142395295D01*
X178037499Y-142395295D02*
X178037499Y-142538152D01*
X178037499Y-142538152D02*
X177989880Y-142633390D01*
X177989880Y-142633390D02*
X177942261Y-142681009D01*
X177942261Y-142681009D02*
X177847023Y-142728628D01*
X177847023Y-142728628D02*
X177466071Y-142728628D01*
X178370833Y-142204819D02*
X179037499Y-142204819D01*
X179037499Y-142204819D02*
X178608928Y-143204819D01*
X179323214Y-142204819D02*
X179942261Y-142204819D01*
X179942261Y-142204819D02*
X179608928Y-142585771D01*
X179608928Y-142585771D02*
X179751785Y-142585771D01*
X179751785Y-142585771D02*
X179847023Y-142633390D01*
X179847023Y-142633390D02*
X179894642Y-142681009D01*
X179894642Y-142681009D02*
X179942261Y-142776247D01*
X179942261Y-142776247D02*
X179942261Y-143014342D01*
X179942261Y-143014342D02*
X179894642Y-143109580D01*
X179894642Y-143109580D02*
X179847023Y-143157200D01*
X179847023Y-143157200D02*
X179751785Y-143204819D01*
X179751785Y-143204819D02*
X179466071Y-143204819D01*
X179466071Y-143204819D02*
X179370833Y-143157200D01*
X179370833Y-143157200D02*
X179323214Y-143109580D01*
X180513690Y-142633390D02*
X180418452Y-142585771D01*
X180418452Y-142585771D02*
X180370833Y-142538152D01*
X180370833Y-142538152D02*
X180323214Y-142442914D01*
X180323214Y-142442914D02*
X180323214Y-142395295D01*
X180323214Y-142395295D02*
X180370833Y-142300057D01*
X180370833Y-142300057D02*
X180418452Y-142252438D01*
X180418452Y-142252438D02*
X180513690Y-142204819D01*
X180513690Y-142204819D02*
X180704166Y-142204819D01*
X180704166Y-142204819D02*
X180799404Y-142252438D01*
X180799404Y-142252438D02*
X180847023Y-142300057D01*
X180847023Y-142300057D02*
X180894642Y-142395295D01*
X180894642Y-142395295D02*
X180894642Y-142442914D01*
X180894642Y-142442914D02*
X180847023Y-142538152D01*
X180847023Y-142538152D02*
X180799404Y-142585771D01*
X180799404Y-142585771D02*
X180704166Y-142633390D01*
X180704166Y-142633390D02*
X180513690Y-142633390D01*
X180513690Y-142633390D02*
X180418452Y-142681009D01*
X180418452Y-142681009D02*
X180370833Y-142728628D01*
X180370833Y-142728628D02*
X180323214Y-142823866D01*
X180323214Y-142823866D02*
X180323214Y-143014342D01*
X180323214Y-143014342D02*
X180370833Y-143109580D01*
X180370833Y-143109580D02*
X180418452Y-143157200D01*
X180418452Y-143157200D02*
X180513690Y-143204819D01*
X180513690Y-143204819D02*
X180704166Y-143204819D01*
X180704166Y-143204819D02*
X180799404Y-143157200D01*
X180799404Y-143157200D02*
X180847023Y-143109580D01*
X180847023Y-143109580D02*
X180894642Y-143014342D01*
X180894642Y-143014342D02*
X180894642Y-142823866D01*
X180894642Y-142823866D02*
X180847023Y-142728628D01*
X180847023Y-142728628D02*
X180799404Y-142681009D01*
X180799404Y-142681009D02*
X180704166Y-142633390D01*
X181227976Y-142204819D02*
X181847023Y-142204819D01*
X181847023Y-142204819D02*
X181513690Y-142585771D01*
X181513690Y-142585771D02*
X181656547Y-142585771D01*
X181656547Y-142585771D02*
X181751785Y-142633390D01*
X181751785Y-142633390D02*
X181799404Y-142681009D01*
X181799404Y-142681009D02*
X181847023Y-142776247D01*
X181847023Y-142776247D02*
X181847023Y-143014342D01*
X181847023Y-143014342D02*
X181799404Y-143109580D01*
X181799404Y-143109580D02*
X181751785Y-143157200D01*
X181751785Y-143157200D02*
X181656547Y-143204819D01*
X181656547Y-143204819D02*
X181370833Y-143204819D01*
X181370833Y-143204819D02*
X181275595Y-143157200D01*
X181275595Y-143157200D02*
X181227976Y-143109580D01*
X182799404Y-143204819D02*
X182227976Y-143204819D01*
X182513690Y-143204819D02*
X182513690Y-142204819D01*
X182513690Y-142204819D02*
X182418452Y-142347676D01*
X182418452Y-142347676D02*
X182323214Y-142442914D01*
X182323214Y-142442914D02*
X182227976Y-142490533D01*
D12*
X178644865Y-140898571D02*
X179227722Y-140898571D01*
X179227722Y-140898571D02*
X179296294Y-140864285D01*
X179296294Y-140864285D02*
X179330580Y-140830000D01*
X179330580Y-140830000D02*
X179364865Y-140761428D01*
X179364865Y-140761428D02*
X179364865Y-140624285D01*
X179364865Y-140624285D02*
X179330580Y-140555714D01*
X179330580Y-140555714D02*
X179296294Y-140521428D01*
X179296294Y-140521428D02*
X179227722Y-140487142D01*
X179227722Y-140487142D02*
X178644865Y-140487142D01*
X178713437Y-140178571D02*
X178679151Y-140144285D01*
X178679151Y-140144285D02*
X178644865Y-140075714D01*
X178644865Y-140075714D02*
X178644865Y-139904285D01*
X178644865Y-139904285D02*
X178679151Y-139835714D01*
X178679151Y-139835714D02*
X178713437Y-139801428D01*
X178713437Y-139801428D02*
X178782008Y-139767142D01*
X178782008Y-139767142D02*
X178850580Y-139767142D01*
X178850580Y-139767142D02*
X178953437Y-139801428D01*
X178953437Y-139801428D02*
X179364865Y-140212856D01*
X179364865Y-140212856D02*
X179364865Y-139767142D01*
D10*
X162080952Y-97574819D02*
X161509524Y-97574819D01*
X161795238Y-97574819D02*
X161795238Y-96574819D01*
X161795238Y-96574819D02*
X161700000Y-96717676D01*
X161700000Y-96717676D02*
X161604762Y-96812914D01*
X161604762Y-96812914D02*
X161509524Y-96860533D01*
X162509524Y-97574819D02*
X162509524Y-96574819D01*
X162604762Y-97193866D02*
X162890476Y-97574819D01*
X162890476Y-96908152D02*
X162509524Y-97289104D01*
D11*
X161504762Y-98731927D02*
X161371429Y-98541451D01*
X161276191Y-98731927D02*
X161276191Y-98331927D01*
X161276191Y-98331927D02*
X161428572Y-98331927D01*
X161428572Y-98331927D02*
X161466667Y-98350975D01*
X161466667Y-98350975D02*
X161485714Y-98370022D01*
X161485714Y-98370022D02*
X161504762Y-98408118D01*
X161504762Y-98408118D02*
X161504762Y-98465260D01*
X161504762Y-98465260D02*
X161485714Y-98503356D01*
X161485714Y-98503356D02*
X161466667Y-98522403D01*
X161466667Y-98522403D02*
X161428572Y-98541451D01*
X161428572Y-98541451D02*
X161276191Y-98541451D01*
X161580953Y-98770022D02*
X161885714Y-98770022D01*
X161961905Y-98712880D02*
X162019048Y-98731927D01*
X162019048Y-98731927D02*
X162114286Y-98731927D01*
X162114286Y-98731927D02*
X162152381Y-98712880D01*
X162152381Y-98712880D02*
X162171429Y-98693832D01*
X162171429Y-98693832D02*
X162190476Y-98655737D01*
X162190476Y-98655737D02*
X162190476Y-98617641D01*
X162190476Y-98617641D02*
X162171429Y-98579546D01*
X162171429Y-98579546D02*
X162152381Y-98560499D01*
X162152381Y-98560499D02*
X162114286Y-98541451D01*
X162114286Y-98541451D02*
X162038095Y-98522403D01*
X162038095Y-98522403D02*
X162000000Y-98503356D01*
X162000000Y-98503356D02*
X161980953Y-98484308D01*
X161980953Y-98484308D02*
X161961905Y-98446213D01*
X161961905Y-98446213D02*
X161961905Y-98408118D01*
X161961905Y-98408118D02*
X161980953Y-98370022D01*
X161980953Y-98370022D02*
X162000000Y-98350975D01*
X162000000Y-98350975D02*
X162038095Y-98331927D01*
X162038095Y-98331927D02*
X162133334Y-98331927D01*
X162133334Y-98331927D02*
X162190476Y-98350975D01*
X162304762Y-98331927D02*
X162533333Y-98331927D01*
X162419047Y-98731927D02*
X162419047Y-98331927D01*
X162647619Y-98617641D02*
X162838095Y-98617641D01*
X162609524Y-98731927D02*
X162742857Y-98331927D01*
X162742857Y-98331927D02*
X162876190Y-98731927D01*
X162952381Y-98331927D02*
X163180952Y-98331927D01*
X163066666Y-98731927D02*
X163066666Y-98331927D01*
%TO.C,R_EN*%
D13*
X181650000Y-150787500D02*
X183250000Y-150787500D01*
X183250000Y-151612500D01*
X181650000Y-151612500D01*
X181650000Y-150787500D01*
%TO.C,D_CHG*%
X177650000Y-137500000D02*
X177650000Y-138300000D01*
X177650000Y-138300000D02*
X178950000Y-138300000D01*
X178950000Y-138300000D02*
X179250000Y-138000000D01*
X179250000Y-137500000D02*
X177650000Y-137500000D01*
X179250000Y-138000000D02*
X179250000Y-137500000D01*
%TO.C,SW_RST*%
X180050000Y-152350000D02*
X183050000Y-152350000D01*
X180050000Y-154850000D02*
X180050000Y-152350000D01*
X183050000Y-152350000D02*
X183050000Y-154850000D01*
X183050000Y-154850000D02*
X180050000Y-154850000D01*
X182300000Y-153600000D02*
G75*
G02*
X180800000Y-153600000I-750000J0D01*
G01*
X180800000Y-153600000D02*
G75*
G02*
X182300000Y-153600000I750000J0D01*
G01*
%TO.C,SW1*%
X165820000Y-121400000D02*
X180820000Y-121400000D01*
X180820000Y-136400000D01*
X165820000Y-136400000D01*
X165820000Y-121400000D01*
%TO.C,D_VBAT*%
X161800000Y-116300000D02*
X161800000Y-120900000D01*
X161800000Y-116300000D02*
X164800000Y-116300000D01*
X162500920Y-119249440D02*
X164101120Y-119249440D01*
X163301020Y-118098820D02*
X163301020Y-117100600D01*
X163301020Y-119249440D02*
X162500920Y-118098820D01*
X163301020Y-119249440D02*
X163301020Y-120151140D01*
X163301020Y-119249440D02*
X164050320Y-118098820D01*
X164050320Y-118098820D02*
X162500920Y-118098820D01*
X164800000Y-116300000D02*
X164800000Y-120900000D01*
X164800000Y-120900000D02*
X161800000Y-120900000D01*
%TO.C,R_CHG*%
X180700000Y-137487500D02*
X182300000Y-137487500D01*
X182300000Y-138312500D01*
X180700000Y-138312500D01*
X180700000Y-137487500D01*
%TO.C,C3*%
X177350000Y-143550000D02*
X178150000Y-143550000D01*
X178150000Y-145150000D01*
X177350000Y-145150000D01*
X177350000Y-143550000D01*
%TO.C,R_CC1*%
X171687500Y-143525000D02*
X172512500Y-143525000D01*
X172512500Y-145125000D01*
X171687500Y-145125000D01*
X171687500Y-143525000D01*
%TO.C,U3*%
X167600000Y-137400000D02*
X168800000Y-137400000D01*
X168800000Y-140300000D01*
X167200000Y-140300000D01*
X167200000Y-137800000D01*
X167600000Y-137400000D01*
%TO.C,R_CC2*%
X175837500Y-143350000D02*
X176662500Y-143350000D01*
X176662500Y-144950000D01*
X175837500Y-144950000D01*
X175837500Y-143350000D01*
%TO.C,R_DN*%
X179200000Y-143887500D02*
X180800000Y-143887500D01*
X180800000Y-144712500D01*
X179200000Y-144712500D01*
X179200000Y-143887500D01*
%TO.C,R_UP*%
X179200000Y-142387500D02*
X180800000Y-142387500D01*
X180800000Y-143212500D01*
X179200000Y-143212500D01*
X179200000Y-142387500D01*
%TO.C,D_STAT*%
X167350000Y-149600000D02*
X167350000Y-150900000D01*
X167350000Y-150900000D02*
X167650000Y-151200000D01*
X167650000Y-151200000D02*
X168150000Y-151200000D01*
X168150000Y-149600000D02*
X167350000Y-149600000D01*
X168150000Y-151200000D02*
X168150000Y-149600000D01*
%TO.C,U1*%
X164450000Y-83900000D02*
X164450000Y-90500000D01*
X164450000Y-83900000D02*
X182450000Y-83900000D01*
X164450000Y-90500000D02*
X164950000Y-91000000D01*
X164450000Y-91500000D02*
X164450000Y-103900000D01*
X164450000Y-103900000D02*
X182450000Y-103900000D01*
X164950000Y-91000000D02*
X164450000Y-91500000D01*
X182450000Y-103900000D02*
X182450000Y-83900000D01*
%TO.C,SW_BOOT*%
X164600000Y-152350000D02*
X167600000Y-152350000D01*
X164600000Y-154850000D02*
X164600000Y-152350000D01*
X167600000Y-152350000D02*
X167600000Y-154850000D01*
X167600000Y-154850000D02*
X164600000Y-154850000D01*
X166850000Y-153600000D02*
G75*
G02*
X165350000Y-153600000I-750000J0D01*
G01*
X165350000Y-153600000D02*
G75*
G02*
X166850000Y-153600000I750000J0D01*
G01*
%TO.C,D_VBUS*%
X161800000Y-123350000D02*
X164800000Y-123350000D01*
X161800000Y-127950000D02*
X161800000Y-123350000D01*
X162549680Y-126151180D02*
X164099080Y-126151180D01*
X163298980Y-125000560D02*
X162549680Y-126151180D01*
X163298980Y-125000560D02*
X163298980Y-124098860D01*
X163298980Y-125000560D02*
X164099080Y-126151180D01*
X163298980Y-126151180D02*
X163298980Y-127149400D01*
X164099080Y-125000560D02*
X162498880Y-125000560D01*
X164800000Y-127950000D02*
X161800000Y-127950000D01*
X164800000Y-127950000D02*
X164800000Y-123350000D01*
%TO.C,J1*%
X169360000Y-147450000D02*
X169360000Y-154750000D01*
X169360000Y-147450000D02*
X178300000Y-147450000D01*
X169360000Y-154750000D02*
X178300000Y-154750000D01*
X178300000Y-147450000D02*
X178300000Y-154750000D01*
%TO.C,C2*%
X167350000Y-146600000D02*
X168150000Y-146600000D01*
X168150000Y-148200000D01*
X167350000Y-148200000D01*
X167350000Y-146600000D01*
%TO.C,SW2*%
X165850000Y-104900000D02*
X180850000Y-104900000D01*
X180850000Y-119900000D01*
X165850000Y-119900000D01*
X165850000Y-104900000D01*
%TO.C,C1*%
X179800000Y-149675000D02*
X180600000Y-149675000D01*
X180600000Y-151275000D01*
X179800000Y-151275000D01*
X179800000Y-149675000D01*
%TO.C,R_PROG*%
X181437500Y-139350000D02*
X182262500Y-139350000D01*
X182262500Y-140950000D01*
X181437500Y-140950000D01*
X181437500Y-139350000D01*
%TO.C,U2*%
X178637500Y-138900000D02*
X179837500Y-138900000D01*
X179837500Y-141800000D01*
X178237500Y-141800000D01*
X178237500Y-139300000D01*
X178637500Y-138900000D01*
%TO.C,R_STAT*%
X161400000Y-98137500D02*
X163000000Y-98137500D01*
X163000000Y-98962500D01*
X161400000Y-98962500D01*
X161400000Y-98137500D01*
%TD*%
M02*
