%TF.GenerationSoftware,KiCad,Pcbnew,10.0.4*%
%TF.CreationDate,2026-09-26T11:42:44-04:00*%
%TF.ProjectId,remote,72656d6f-7465-42e6-9b69-6361645f7063,rev?*%
%TF.SameCoordinates,Original*%
%TF.FileFunction,Legend,Bot*%
%TF.FilePolarity,Positive*%
%FSLAX46Y46*%
G04 Gerber Fmt 4.6, Leading zero omitted, Abs format (unit mm)*
G04 Created by KiCad (PCBNEW 10.0.4) date 2026-09-26 11:42:44*
%MOMM*%
%LPD*%
G01*
G04 APERTURE LIST*
%ADD10C,0.150000*%
%ADD11C,0.120000*%
G04 APERTURE END LIST*
D10*
X185161904Y-113834819D02*
X185161904Y-112834819D01*
X185161904Y-113311009D02*
X184590476Y-113311009D01*
X184590476Y-113834819D02*
X184590476Y-112834819D01*
X184114285Y-113834819D02*
X184114285Y-112834819D01*
X184114285Y-112834819D02*
X183876190Y-112834819D01*
X183876190Y-112834819D02*
X183733333Y-112882438D01*
X183733333Y-112882438D02*
X183638095Y-112977676D01*
X183638095Y-112977676D02*
X183590476Y-113072914D01*
X183590476Y-113072914D02*
X183542857Y-113263390D01*
X183542857Y-113263390D02*
X183542857Y-113406247D01*
X183542857Y-113406247D02*
X183590476Y-113596723D01*
X183590476Y-113596723D02*
X183638095Y-113691961D01*
X183638095Y-113691961D02*
X183733333Y-113787200D01*
X183733333Y-113787200D02*
X183876190Y-113834819D01*
X183876190Y-113834819D02*
X184114285Y-113834819D01*
X182542857Y-113834819D02*
X182876190Y-113358628D01*
X183114285Y-113834819D02*
X183114285Y-112834819D01*
X183114285Y-112834819D02*
X182733333Y-112834819D01*
X182733333Y-112834819D02*
X182638095Y-112882438D01*
X182638095Y-112882438D02*
X182590476Y-112930057D01*
X182590476Y-112930057D02*
X182542857Y-113025295D01*
X182542857Y-113025295D02*
X182542857Y-113168152D01*
X182542857Y-113168152D02*
X182590476Y-113263390D01*
X182590476Y-113263390D02*
X182638095Y-113311009D01*
X182638095Y-113311009D02*
X182733333Y-113358628D01*
X182733333Y-113358628D02*
X183114285Y-113358628D01*
X181590476Y-113834819D02*
X182161904Y-113834819D01*
X181876190Y-113834819D02*
X181876190Y-112834819D01*
X181876190Y-112834819D02*
X181971428Y-112977676D01*
X181971428Y-112977676D02*
X182066666Y-113072914D01*
X182066666Y-113072914D02*
X182161904Y-113120533D01*
X175047619Y-135954819D02*
X175047619Y-136669104D01*
X175047619Y-136669104D02*
X175095238Y-136811961D01*
X175095238Y-136811961D02*
X175190476Y-136907200D01*
X175190476Y-136907200D02*
X175333333Y-136954819D01*
X175333333Y-136954819D02*
X175428571Y-136954819D01*
X174809524Y-137050057D02*
X174047619Y-137050057D01*
X173476190Y-136431009D02*
X173333333Y-136478628D01*
X173333333Y-136478628D02*
X173285714Y-136526247D01*
X173285714Y-136526247D02*
X173238095Y-136621485D01*
X173238095Y-136621485D02*
X173238095Y-136764342D01*
X173238095Y-136764342D02*
X173285714Y-136859580D01*
X173285714Y-136859580D02*
X173333333Y-136907200D01*
X173333333Y-136907200D02*
X173428571Y-136954819D01*
X173428571Y-136954819D02*
X173809523Y-136954819D01*
X173809523Y-136954819D02*
X173809523Y-135954819D01*
X173809523Y-135954819D02*
X173476190Y-135954819D01*
X173476190Y-135954819D02*
X173380952Y-136002438D01*
X173380952Y-136002438D02*
X173333333Y-136050057D01*
X173333333Y-136050057D02*
X173285714Y-136145295D01*
X173285714Y-136145295D02*
X173285714Y-136240533D01*
X173285714Y-136240533D02*
X173333333Y-136335771D01*
X173333333Y-136335771D02*
X173380952Y-136383390D01*
X173380952Y-136383390D02*
X173476190Y-136431009D01*
X173476190Y-136431009D02*
X173809523Y-136431009D01*
X172857142Y-136669104D02*
X172380952Y-136669104D01*
X172952380Y-136954819D02*
X172619047Y-135954819D01*
X172619047Y-135954819D02*
X172285714Y-136954819D01*
X172095237Y-135954819D02*
X171523809Y-135954819D01*
X171809523Y-136954819D02*
X171809523Y-135954819D01*
X166097200Y-104850476D02*
X166144819Y-104993333D01*
X166144819Y-104993333D02*
X166144819Y-105231428D01*
X166144819Y-105231428D02*
X166097200Y-105326666D01*
X166097200Y-105326666D02*
X166049580Y-105374285D01*
X166049580Y-105374285D02*
X165954342Y-105421904D01*
X165954342Y-105421904D02*
X165859104Y-105421904D01*
X165859104Y-105421904D02*
X165763866Y-105374285D01*
X165763866Y-105374285D02*
X165716247Y-105326666D01*
X165716247Y-105326666D02*
X165668628Y-105231428D01*
X165668628Y-105231428D02*
X165621009Y-105040952D01*
X165621009Y-105040952D02*
X165573390Y-104945714D01*
X165573390Y-104945714D02*
X165525771Y-104898095D01*
X165525771Y-104898095D02*
X165430533Y-104850476D01*
X165430533Y-104850476D02*
X165335295Y-104850476D01*
X165335295Y-104850476D02*
X165240057Y-104898095D01*
X165240057Y-104898095D02*
X165192438Y-104945714D01*
X165192438Y-104945714D02*
X165144819Y-105040952D01*
X165144819Y-105040952D02*
X165144819Y-105279047D01*
X165144819Y-105279047D02*
X165192438Y-105421904D01*
X165144819Y-105755238D02*
X166144819Y-105993333D01*
X166144819Y-105993333D02*
X165430533Y-106183809D01*
X165430533Y-106183809D02*
X166144819Y-106374285D01*
X166144819Y-106374285D02*
X165144819Y-106612381D01*
X166240057Y-106755238D02*
X166240057Y-107517142D01*
X166144819Y-107755238D02*
X165144819Y-107755238D01*
X165144819Y-107755238D02*
X165144819Y-108136190D01*
X165144819Y-108136190D02*
X165192438Y-108231428D01*
X165192438Y-108231428D02*
X165240057Y-108279047D01*
X165240057Y-108279047D02*
X165335295Y-108326666D01*
X165335295Y-108326666D02*
X165478152Y-108326666D01*
X165478152Y-108326666D02*
X165573390Y-108279047D01*
X165573390Y-108279047D02*
X165621009Y-108231428D01*
X165621009Y-108231428D02*
X165668628Y-108136190D01*
X165668628Y-108136190D02*
X165668628Y-107755238D01*
X165144819Y-108660000D02*
X166144819Y-108898095D01*
X166144819Y-108898095D02*
X165430533Y-109088571D01*
X165430533Y-109088571D02*
X166144819Y-109279047D01*
X166144819Y-109279047D02*
X165144819Y-109517143D01*
X166144819Y-110469523D02*
X165668628Y-110136190D01*
X166144819Y-109898095D02*
X165144819Y-109898095D01*
X165144819Y-109898095D02*
X165144819Y-110279047D01*
X165144819Y-110279047D02*
X165192438Y-110374285D01*
X165192438Y-110374285D02*
X165240057Y-110421904D01*
X165240057Y-110421904D02*
X165335295Y-110469523D01*
X165335295Y-110469523D02*
X165478152Y-110469523D01*
X165478152Y-110469523D02*
X165573390Y-110421904D01*
X165573390Y-110421904D02*
X165621009Y-110374285D01*
X165621009Y-110374285D02*
X165668628Y-110279047D01*
X165668628Y-110279047D02*
X165668628Y-109898095D01*
%TO.C,HDR1*%
D11*
X182020000Y-104540000D02*
X184780000Y-104540000D01*
X182020000Y-109730000D02*
X182020000Y-104540000D01*
X182020000Y-109730000D02*
X184780000Y-109730000D01*
X182020000Y-111000000D02*
X182020000Y-112380000D01*
X182020000Y-112380000D02*
X183400000Y-112380000D01*
X184780000Y-109730000D02*
X184780000Y-104540000D01*
%TO.C,J_BAT*%
X170440000Y-138900000D02*
X171050000Y-138900000D01*
X170440000Y-140200000D02*
X171050000Y-140200000D01*
X171050000Y-138200000D02*
X173000000Y-138200000D01*
X171050000Y-141700000D02*
X171050000Y-138200000D01*
X173000000Y-138200000D02*
X173000000Y-137590000D01*
X173400000Y-141200000D02*
X173400000Y-141700000D01*
X173500000Y-141700000D02*
X173500000Y-141200000D01*
X173600000Y-141200000D02*
X173400000Y-141200000D01*
X173600000Y-141700000D02*
X173600000Y-141200000D01*
X174000000Y-137590000D02*
X174000000Y-138200000D01*
X174000000Y-138200000D02*
X175950000Y-138200000D01*
X174800000Y-137390000D02*
X175100000Y-137390000D01*
X174800000Y-137490000D02*
X175100000Y-137490000D01*
X174800000Y-137590000D02*
X174800000Y-137390000D01*
X175100000Y-137390000D02*
X175100000Y-137590000D01*
X175610000Y-137290000D02*
X176860000Y-137290000D01*
X175950000Y-138200000D02*
X175950000Y-141700000D01*
X175950000Y-141700000D02*
X171050000Y-141700000D01*
X176560000Y-138900000D02*
X175950000Y-138900000D01*
X176560000Y-140200000D02*
X175950000Y-140200000D01*
X176860000Y-137290000D02*
X176860000Y-138540000D01*
X170440000Y-137590000D02*
X176560000Y-137590000D01*
X176560000Y-142310000D01*
X170440000Y-142310000D01*
X170440000Y-137590000D01*
%TO.C,SW_PWR*%
X160440000Y-105240000D02*
X160440000Y-114060000D01*
X160440000Y-105240000D02*
X160750000Y-105240000D01*
X160440000Y-114060000D02*
X160750000Y-114060000D01*
X164650000Y-114060000D02*
X164960000Y-114060000D01*
X164960000Y-105240000D02*
X164650000Y-105240000D01*
X164960000Y-114060000D02*
X164960000Y-105240000D01*
X165160000Y-111650000D02*
X165660000Y-111150000D01*
X165660000Y-111150000D02*
X165660000Y-112150000D01*
X165660000Y-112150000D02*
X165160000Y-111650000D01*
%TD*%
M02*
