%TF.GenerationSoftware,KiCad,Pcbnew,10.0.4*%
%TF.CreationDate,2026-09-26T11:42:44-04:00*%
%TF.ProjectId,remote,72656d6f-7465-42e6-9b69-6361645f7063,rev?*%
%TF.SameCoordinates,Original*%
%TF.FileFunction,Legend,Top*%
%TF.FilePolarity,Positive*%
%FSLAX46Y46*%
G04 Gerber Fmt 4.6, Leading zero omitted, Abs format (unit mm)*
G04 Created by KiCad (PCBNEW 10.0.4) date 2026-09-26 11:42:44*
%MOMM*%
%LPD*%
G01*
G04 APERTURE LIST*
%ADD10C,0.150000*%
%ADD11C,0.120000*%
G04 APERTURE END LIST*
D10*
X181652380Y-150204819D02*
X181319047Y-149728628D01*
X181080952Y-150204819D02*
X181080952Y-149204819D01*
X181080952Y-149204819D02*
X181461904Y-149204819D01*
X181461904Y-149204819D02*
X181557142Y-149252438D01*
X181557142Y-149252438D02*
X181604761Y-149300057D01*
X181604761Y-149300057D02*
X181652380Y-149395295D01*
X181652380Y-149395295D02*
X181652380Y-149538152D01*
X181652380Y-149538152D02*
X181604761Y-149633390D01*
X181604761Y-149633390D02*
X181557142Y-149681009D01*
X181557142Y-149681009D02*
X181461904Y-149728628D01*
X181461904Y-149728628D02*
X181080952Y-149728628D01*
X181842857Y-150300057D02*
X182604761Y-150300057D01*
X182842857Y-149681009D02*
X183176190Y-149681009D01*
X183319047Y-150204819D02*
X182842857Y-150204819D01*
X182842857Y-150204819D02*
X182842857Y-149204819D01*
X182842857Y-149204819D02*
X183319047Y-149204819D01*
X183747619Y-150204819D02*
X183747619Y-149204819D01*
X183747619Y-149204819D02*
X184319047Y-150204819D01*
X184319047Y-150204819D02*
X184319047Y-149204819D01*
X174433333Y-136704819D02*
X174433333Y-135704819D01*
X174433333Y-135704819D02*
X174671428Y-135704819D01*
X174671428Y-135704819D02*
X174814285Y-135752438D01*
X174814285Y-135752438D02*
X174909523Y-135847676D01*
X174909523Y-135847676D02*
X174957142Y-135942914D01*
X174957142Y-135942914D02*
X175004761Y-136133390D01*
X175004761Y-136133390D02*
X175004761Y-136276247D01*
X175004761Y-136276247D02*
X174957142Y-136466723D01*
X174957142Y-136466723D02*
X174909523Y-136561961D01*
X174909523Y-136561961D02*
X174814285Y-136657200D01*
X174814285Y-136657200D02*
X174671428Y-136704819D01*
X174671428Y-136704819D02*
X174433333Y-136704819D01*
X175195238Y-136800057D02*
X175957142Y-136800057D01*
X176766666Y-136609580D02*
X176719047Y-136657200D01*
X176719047Y-136657200D02*
X176576190Y-136704819D01*
X176576190Y-136704819D02*
X176480952Y-136704819D01*
X176480952Y-136704819D02*
X176338095Y-136657200D01*
X176338095Y-136657200D02*
X176242857Y-136561961D01*
X176242857Y-136561961D02*
X176195238Y-136466723D01*
X176195238Y-136466723D02*
X176147619Y-136276247D01*
X176147619Y-136276247D02*
X176147619Y-136133390D01*
X176147619Y-136133390D02*
X176195238Y-135942914D01*
X176195238Y-135942914D02*
X176242857Y-135847676D01*
X176242857Y-135847676D02*
X176338095Y-135752438D01*
X176338095Y-135752438D02*
X176480952Y-135704819D01*
X176480952Y-135704819D02*
X176576190Y-135704819D01*
X176576190Y-135704819D02*
X176719047Y-135752438D01*
X176719047Y-135752438D02*
X176766666Y-135800057D01*
X177195238Y-136704819D02*
X177195238Y-135704819D01*
X177195238Y-136181009D02*
X177766666Y-136181009D01*
X177766666Y-136704819D02*
X177766666Y-135704819D01*
X178766666Y-135752438D02*
X178671428Y-135704819D01*
X178671428Y-135704819D02*
X178528571Y-135704819D01*
X178528571Y-135704819D02*
X178385714Y-135752438D01*
X178385714Y-135752438D02*
X178290476Y-135847676D01*
X178290476Y-135847676D02*
X178242857Y-135942914D01*
X178242857Y-135942914D02*
X178195238Y-136133390D01*
X178195238Y-136133390D02*
X178195238Y-136276247D01*
X178195238Y-136276247D02*
X178242857Y-136466723D01*
X178242857Y-136466723D02*
X178290476Y-136561961D01*
X178290476Y-136561961D02*
X178385714Y-136657200D01*
X178385714Y-136657200D02*
X178528571Y-136704819D01*
X178528571Y-136704819D02*
X178623809Y-136704819D01*
X178623809Y-136704819D02*
X178766666Y-136657200D01*
X178766666Y-136657200D02*
X178814285Y-136609580D01*
X178814285Y-136609580D02*
X178814285Y-136276247D01*
X178814285Y-136276247D02*
X178623809Y-136276247D01*
X185607200Y-154345237D02*
X185654819Y-154202380D01*
X185654819Y-154202380D02*
X185654819Y-153964285D01*
X185654819Y-153964285D02*
X185607200Y-153869047D01*
X185607200Y-153869047D02*
X185559580Y-153821428D01*
X185559580Y-153821428D02*
X185464342Y-153773809D01*
X185464342Y-153773809D02*
X185369104Y-153773809D01*
X185369104Y-153773809D02*
X185273866Y-153821428D01*
X185273866Y-153821428D02*
X185226247Y-153869047D01*
X185226247Y-153869047D02*
X185178628Y-153964285D01*
X185178628Y-153964285D02*
X185131009Y-154154761D01*
X185131009Y-154154761D02*
X185083390Y-154249999D01*
X185083390Y-154249999D02*
X185035771Y-154297618D01*
X185035771Y-154297618D02*
X184940533Y-154345237D01*
X184940533Y-154345237D02*
X184845295Y-154345237D01*
X184845295Y-154345237D02*
X184750057Y-154297618D01*
X184750057Y-154297618D02*
X184702438Y-154249999D01*
X184702438Y-154249999D02*
X184654819Y-154154761D01*
X184654819Y-154154761D02*
X184654819Y-153916666D01*
X184654819Y-153916666D02*
X184702438Y-153773809D01*
X184654819Y-153440475D02*
X185654819Y-153202380D01*
X185654819Y-153202380D02*
X184940533Y-153011904D01*
X184940533Y-153011904D02*
X185654819Y-152821428D01*
X185654819Y-152821428D02*
X184654819Y-152583333D01*
X185750057Y-152440476D02*
X185750057Y-151678571D01*
X185654819Y-150869047D02*
X185178628Y-151202380D01*
X185654819Y-151440475D02*
X184654819Y-151440475D01*
X184654819Y-151440475D02*
X184654819Y-151059523D01*
X184654819Y-151059523D02*
X184702438Y-150964285D01*
X184702438Y-150964285D02*
X184750057Y-150916666D01*
X184750057Y-150916666D02*
X184845295Y-150869047D01*
X184845295Y-150869047D02*
X184988152Y-150869047D01*
X184988152Y-150869047D02*
X185083390Y-150916666D01*
X185083390Y-150916666D02*
X185131009Y-150964285D01*
X185131009Y-150964285D02*
X185178628Y-151059523D01*
X185178628Y-151059523D02*
X185178628Y-151440475D01*
X185607200Y-150488094D02*
X185654819Y-150345237D01*
X185654819Y-150345237D02*
X185654819Y-150107142D01*
X185654819Y-150107142D02*
X185607200Y-150011904D01*
X185607200Y-150011904D02*
X185559580Y-149964285D01*
X185559580Y-149964285D02*
X185464342Y-149916666D01*
X185464342Y-149916666D02*
X185369104Y-149916666D01*
X185369104Y-149916666D02*
X185273866Y-149964285D01*
X185273866Y-149964285D02*
X185226247Y-150011904D01*
X185226247Y-150011904D02*
X185178628Y-150107142D01*
X185178628Y-150107142D02*
X185131009Y-150297618D01*
X185131009Y-150297618D02*
X185083390Y-150392856D01*
X185083390Y-150392856D02*
X185035771Y-150440475D01*
X185035771Y-150440475D02*
X184940533Y-150488094D01*
X184940533Y-150488094D02*
X184845295Y-150488094D01*
X184845295Y-150488094D02*
X184750057Y-150440475D01*
X184750057Y-150440475D02*
X184702438Y-150392856D01*
X184702438Y-150392856D02*
X184654819Y-150297618D01*
X184654819Y-150297618D02*
X184654819Y-150059523D01*
X184654819Y-150059523D02*
X184702438Y-149916666D01*
X184654819Y-149630951D02*
X184654819Y-149059523D01*
X185654819Y-149345237D02*
X184654819Y-149345237D01*
X172016667Y-121357200D02*
X172159524Y-121404819D01*
X172159524Y-121404819D02*
X172397619Y-121404819D01*
X172397619Y-121404819D02*
X172492857Y-121357200D01*
X172492857Y-121357200D02*
X172540476Y-121309580D01*
X172540476Y-121309580D02*
X172588095Y-121214342D01*
X172588095Y-121214342D02*
X172588095Y-121119104D01*
X172588095Y-121119104D02*
X172540476Y-121023866D01*
X172540476Y-121023866D02*
X172492857Y-120976247D01*
X172492857Y-120976247D02*
X172397619Y-120928628D01*
X172397619Y-120928628D02*
X172207143Y-120881009D01*
X172207143Y-120881009D02*
X172111905Y-120833390D01*
X172111905Y-120833390D02*
X172064286Y-120785771D01*
X172064286Y-120785771D02*
X172016667Y-120690533D01*
X172016667Y-120690533D02*
X172016667Y-120595295D01*
X172016667Y-120595295D02*
X172064286Y-120500057D01*
X172064286Y-120500057D02*
X172111905Y-120452438D01*
X172111905Y-120452438D02*
X172207143Y-120404819D01*
X172207143Y-120404819D02*
X172445238Y-120404819D01*
X172445238Y-120404819D02*
X172588095Y-120452438D01*
X172921429Y-120404819D02*
X173159524Y-121404819D01*
X173159524Y-121404819D02*
X173350000Y-120690533D01*
X173350000Y-120690533D02*
X173540476Y-121404819D01*
X173540476Y-121404819D02*
X173778572Y-120404819D01*
X174683333Y-121404819D02*
X174111905Y-121404819D01*
X174397619Y-121404819D02*
X174397619Y-120404819D01*
X174397619Y-120404819D02*
X174302381Y-120547676D01*
X174302381Y-120547676D02*
X174207143Y-120642914D01*
X174207143Y-120642914D02*
X174111905Y-120690533D01*
X161254819Y-120980952D02*
X160254819Y-120980952D01*
X160254819Y-120980952D02*
X160254819Y-120742857D01*
X160254819Y-120742857D02*
X160302438Y-120600000D01*
X160302438Y-120600000D02*
X160397676Y-120504762D01*
X160397676Y-120504762D02*
X160492914Y-120457143D01*
X160492914Y-120457143D02*
X160683390Y-120409524D01*
X160683390Y-120409524D02*
X160826247Y-120409524D01*
X160826247Y-120409524D02*
X161016723Y-120457143D01*
X161016723Y-120457143D02*
X161111961Y-120504762D01*
X161111961Y-120504762D02*
X161207200Y-120600000D01*
X161207200Y-120600000D02*
X161254819Y-120742857D01*
X161254819Y-120742857D02*
X161254819Y-120980952D01*
X161350057Y-120219048D02*
X161350057Y-119457143D01*
X160254819Y-119361904D02*
X161254819Y-119028571D01*
X161254819Y-119028571D02*
X160254819Y-118695238D01*
X160731009Y-118028571D02*
X160778628Y-117885714D01*
X160778628Y-117885714D02*
X160826247Y-117838095D01*
X160826247Y-117838095D02*
X160921485Y-117790476D01*
X160921485Y-117790476D02*
X161064342Y-117790476D01*
X161064342Y-117790476D02*
X161159580Y-117838095D01*
X161159580Y-117838095D02*
X161207200Y-117885714D01*
X161207200Y-117885714D02*
X161254819Y-117980952D01*
X161254819Y-117980952D02*
X161254819Y-118361904D01*
X161254819Y-118361904D02*
X160254819Y-118361904D01*
X160254819Y-118361904D02*
X160254819Y-118028571D01*
X160254819Y-118028571D02*
X160302438Y-117933333D01*
X160302438Y-117933333D02*
X160350057Y-117885714D01*
X160350057Y-117885714D02*
X160445295Y-117838095D01*
X160445295Y-117838095D02*
X160540533Y-117838095D01*
X160540533Y-117838095D02*
X160635771Y-117885714D01*
X160635771Y-117885714D02*
X160683390Y-117933333D01*
X160683390Y-117933333D02*
X160731009Y-118028571D01*
X160731009Y-118028571D02*
X160731009Y-118361904D01*
X160969104Y-117409523D02*
X160969104Y-116933333D01*
X161254819Y-117504761D02*
X160254819Y-117171428D01*
X160254819Y-117171428D02*
X161254819Y-116838095D01*
X160254819Y-116647618D02*
X160254819Y-116076190D01*
X161254819Y-116361904D02*
X160254819Y-116361904D01*
X179904761Y-136754819D02*
X179571428Y-136278628D01*
X179333333Y-136754819D02*
X179333333Y-135754819D01*
X179333333Y-135754819D02*
X179714285Y-135754819D01*
X179714285Y-135754819D02*
X179809523Y-135802438D01*
X179809523Y-135802438D02*
X179857142Y-135850057D01*
X179857142Y-135850057D02*
X179904761Y-135945295D01*
X179904761Y-135945295D02*
X179904761Y-136088152D01*
X179904761Y-136088152D02*
X179857142Y-136183390D01*
X179857142Y-136183390D02*
X179809523Y-136231009D01*
X179809523Y-136231009D02*
X179714285Y-136278628D01*
X179714285Y-136278628D02*
X179333333Y-136278628D01*
X180095238Y-136850057D02*
X180857142Y-136850057D01*
X181666666Y-136659580D02*
X181619047Y-136707200D01*
X181619047Y-136707200D02*
X181476190Y-136754819D01*
X181476190Y-136754819D02*
X181380952Y-136754819D01*
X181380952Y-136754819D02*
X181238095Y-136707200D01*
X181238095Y-136707200D02*
X181142857Y-136611961D01*
X181142857Y-136611961D02*
X181095238Y-136516723D01*
X181095238Y-136516723D02*
X181047619Y-136326247D01*
X181047619Y-136326247D02*
X181047619Y-136183390D01*
X181047619Y-136183390D02*
X181095238Y-135992914D01*
X181095238Y-135992914D02*
X181142857Y-135897676D01*
X181142857Y-135897676D02*
X181238095Y-135802438D01*
X181238095Y-135802438D02*
X181380952Y-135754819D01*
X181380952Y-135754819D02*
X181476190Y-135754819D01*
X181476190Y-135754819D02*
X181619047Y-135802438D01*
X181619047Y-135802438D02*
X181666666Y-135850057D01*
X182095238Y-136754819D02*
X182095238Y-135754819D01*
X182095238Y-136231009D02*
X182666666Y-136231009D01*
X182666666Y-136754819D02*
X182666666Y-135754819D01*
X183666666Y-135802438D02*
X183571428Y-135754819D01*
X183571428Y-135754819D02*
X183428571Y-135754819D01*
X183428571Y-135754819D02*
X183285714Y-135802438D01*
X183285714Y-135802438D02*
X183190476Y-135897676D01*
X183190476Y-135897676D02*
X183142857Y-135992914D01*
X183142857Y-135992914D02*
X183095238Y-136183390D01*
X183095238Y-136183390D02*
X183095238Y-136326247D01*
X183095238Y-136326247D02*
X183142857Y-136516723D01*
X183142857Y-136516723D02*
X183190476Y-136611961D01*
X183190476Y-136611961D02*
X183285714Y-136707200D01*
X183285714Y-136707200D02*
X183428571Y-136754819D01*
X183428571Y-136754819D02*
X183523809Y-136754819D01*
X183523809Y-136754819D02*
X183666666Y-136707200D01*
X183666666Y-136707200D02*
X183714285Y-136659580D01*
X183714285Y-136659580D02*
X183714285Y-136326247D01*
X183714285Y-136326247D02*
X183523809Y-136326247D01*
X179183333Y-146159580D02*
X179135714Y-146207200D01*
X179135714Y-146207200D02*
X178992857Y-146254819D01*
X178992857Y-146254819D02*
X178897619Y-146254819D01*
X178897619Y-146254819D02*
X178754762Y-146207200D01*
X178754762Y-146207200D02*
X178659524Y-146111961D01*
X178659524Y-146111961D02*
X178611905Y-146016723D01*
X178611905Y-146016723D02*
X178564286Y-145826247D01*
X178564286Y-145826247D02*
X178564286Y-145683390D01*
X178564286Y-145683390D02*
X178611905Y-145492914D01*
X178611905Y-145492914D02*
X178659524Y-145397676D01*
X178659524Y-145397676D02*
X178754762Y-145302438D01*
X178754762Y-145302438D02*
X178897619Y-145254819D01*
X178897619Y-145254819D02*
X178992857Y-145254819D01*
X178992857Y-145254819D02*
X179135714Y-145302438D01*
X179135714Y-145302438D02*
X179183333Y-145350057D01*
X179516667Y-145254819D02*
X180135714Y-145254819D01*
X180135714Y-145254819D02*
X179802381Y-145635771D01*
X179802381Y-145635771D02*
X179945238Y-145635771D01*
X179945238Y-145635771D02*
X180040476Y-145683390D01*
X180040476Y-145683390D02*
X180088095Y-145731009D01*
X180088095Y-145731009D02*
X180135714Y-145826247D01*
X180135714Y-145826247D02*
X180135714Y-146064342D01*
X180135714Y-146064342D02*
X180088095Y-146159580D01*
X180088095Y-146159580D02*
X180040476Y-146207200D01*
X180040476Y-146207200D02*
X179945238Y-146254819D01*
X179945238Y-146254819D02*
X179659524Y-146254819D01*
X179659524Y-146254819D02*
X179564286Y-146207200D01*
X179564286Y-146207200D02*
X179516667Y-146159580D01*
X171004819Y-145097619D02*
X170528628Y-145430952D01*
X171004819Y-145669047D02*
X170004819Y-145669047D01*
X170004819Y-145669047D02*
X170004819Y-145288095D01*
X170004819Y-145288095D02*
X170052438Y-145192857D01*
X170052438Y-145192857D02*
X170100057Y-145145238D01*
X170100057Y-145145238D02*
X170195295Y-145097619D01*
X170195295Y-145097619D02*
X170338152Y-145097619D01*
X170338152Y-145097619D02*
X170433390Y-145145238D01*
X170433390Y-145145238D02*
X170481009Y-145192857D01*
X170481009Y-145192857D02*
X170528628Y-145288095D01*
X170528628Y-145288095D02*
X170528628Y-145669047D01*
X171100057Y-144907143D02*
X171100057Y-144145238D01*
X170909580Y-143335714D02*
X170957200Y-143383333D01*
X170957200Y-143383333D02*
X171004819Y-143526190D01*
X171004819Y-143526190D02*
X171004819Y-143621428D01*
X171004819Y-143621428D02*
X170957200Y-143764285D01*
X170957200Y-143764285D02*
X170861961Y-143859523D01*
X170861961Y-143859523D02*
X170766723Y-143907142D01*
X170766723Y-143907142D02*
X170576247Y-143954761D01*
X170576247Y-143954761D02*
X170433390Y-143954761D01*
X170433390Y-143954761D02*
X170242914Y-143907142D01*
X170242914Y-143907142D02*
X170147676Y-143859523D01*
X170147676Y-143859523D02*
X170052438Y-143764285D01*
X170052438Y-143764285D02*
X170004819Y-143621428D01*
X170004819Y-143621428D02*
X170004819Y-143526190D01*
X170004819Y-143526190D02*
X170052438Y-143383333D01*
X170052438Y-143383333D02*
X170100057Y-143335714D01*
X170909580Y-142335714D02*
X170957200Y-142383333D01*
X170957200Y-142383333D02*
X171004819Y-142526190D01*
X171004819Y-142526190D02*
X171004819Y-142621428D01*
X171004819Y-142621428D02*
X170957200Y-142764285D01*
X170957200Y-142764285D02*
X170861961Y-142859523D01*
X170861961Y-142859523D02*
X170766723Y-142907142D01*
X170766723Y-142907142D02*
X170576247Y-142954761D01*
X170576247Y-142954761D02*
X170433390Y-142954761D01*
X170433390Y-142954761D02*
X170242914Y-142907142D01*
X170242914Y-142907142D02*
X170147676Y-142859523D01*
X170147676Y-142859523D02*
X170052438Y-142764285D01*
X170052438Y-142764285D02*
X170004819Y-142621428D01*
X170004819Y-142621428D02*
X170004819Y-142526190D01*
X170004819Y-142526190D02*
X170052438Y-142383333D01*
X170052438Y-142383333D02*
X170100057Y-142335714D01*
X171004819Y-141383333D02*
X171004819Y-141954761D01*
X171004819Y-141669047D02*
X170004819Y-141669047D01*
X170004819Y-141669047D02*
X170147676Y-141764285D01*
X170147676Y-141764285D02*
X170242914Y-141859523D01*
X170242914Y-141859523D02*
X170290533Y-141954761D01*
X167238095Y-135904819D02*
X167238095Y-136714342D01*
X167238095Y-136714342D02*
X167285714Y-136809580D01*
X167285714Y-136809580D02*
X167333333Y-136857200D01*
X167333333Y-136857200D02*
X167428571Y-136904819D01*
X167428571Y-136904819D02*
X167619047Y-136904819D01*
X167619047Y-136904819D02*
X167714285Y-136857200D01*
X167714285Y-136857200D02*
X167761904Y-136809580D01*
X167761904Y-136809580D02*
X167809523Y-136714342D01*
X167809523Y-136714342D02*
X167809523Y-135904819D01*
X168190476Y-135904819D02*
X168809523Y-135904819D01*
X168809523Y-135904819D02*
X168476190Y-136285771D01*
X168476190Y-136285771D02*
X168619047Y-136285771D01*
X168619047Y-136285771D02*
X168714285Y-136333390D01*
X168714285Y-136333390D02*
X168761904Y-136381009D01*
X168761904Y-136381009D02*
X168809523Y-136476247D01*
X168809523Y-136476247D02*
X168809523Y-136714342D01*
X168809523Y-136714342D02*
X168761904Y-136809580D01*
X168761904Y-136809580D02*
X168714285Y-136857200D01*
X168714285Y-136857200D02*
X168619047Y-136904819D01*
X168619047Y-136904819D02*
X168333333Y-136904819D01*
X168333333Y-136904819D02*
X168238095Y-136857200D01*
X168238095Y-136857200D02*
X168190476Y-136809580D01*
X175254819Y-144447619D02*
X174778628Y-144780952D01*
X175254819Y-145019047D02*
X174254819Y-145019047D01*
X174254819Y-145019047D02*
X174254819Y-144638095D01*
X174254819Y-144638095D02*
X174302438Y-144542857D01*
X174302438Y-144542857D02*
X174350057Y-144495238D01*
X174350057Y-144495238D02*
X174445295Y-144447619D01*
X174445295Y-144447619D02*
X174588152Y-144447619D01*
X174588152Y-144447619D02*
X174683390Y-144495238D01*
X174683390Y-144495238D02*
X174731009Y-144542857D01*
X174731009Y-144542857D02*
X174778628Y-144638095D01*
X174778628Y-144638095D02*
X174778628Y-145019047D01*
X175350057Y-144257143D02*
X175350057Y-143495238D01*
X175159580Y-142685714D02*
X175207200Y-142733333D01*
X175207200Y-142733333D02*
X175254819Y-142876190D01*
X175254819Y-142876190D02*
X175254819Y-142971428D01*
X175254819Y-142971428D02*
X175207200Y-143114285D01*
X175207200Y-143114285D02*
X175111961Y-143209523D01*
X175111961Y-143209523D02*
X175016723Y-143257142D01*
X175016723Y-143257142D02*
X174826247Y-143304761D01*
X174826247Y-143304761D02*
X174683390Y-143304761D01*
X174683390Y-143304761D02*
X174492914Y-143257142D01*
X174492914Y-143257142D02*
X174397676Y-143209523D01*
X174397676Y-143209523D02*
X174302438Y-143114285D01*
X174302438Y-143114285D02*
X174254819Y-142971428D01*
X174254819Y-142971428D02*
X174254819Y-142876190D01*
X174254819Y-142876190D02*
X174302438Y-142733333D01*
X174302438Y-142733333D02*
X174350057Y-142685714D01*
X175159580Y-141685714D02*
X175207200Y-141733333D01*
X175207200Y-141733333D02*
X175254819Y-141876190D01*
X175254819Y-141876190D02*
X175254819Y-141971428D01*
X175254819Y-141971428D02*
X175207200Y-142114285D01*
X175207200Y-142114285D02*
X175111961Y-142209523D01*
X175111961Y-142209523D02*
X175016723Y-142257142D01*
X175016723Y-142257142D02*
X174826247Y-142304761D01*
X174826247Y-142304761D02*
X174683390Y-142304761D01*
X174683390Y-142304761D02*
X174492914Y-142257142D01*
X174492914Y-142257142D02*
X174397676Y-142209523D01*
X174397676Y-142209523D02*
X174302438Y-142114285D01*
X174302438Y-142114285D02*
X174254819Y-141971428D01*
X174254819Y-141971428D02*
X174254819Y-141876190D01*
X174254819Y-141876190D02*
X174302438Y-141733333D01*
X174302438Y-141733333D02*
X174350057Y-141685714D01*
X174350057Y-141304761D02*
X174302438Y-141257142D01*
X174302438Y-141257142D02*
X174254819Y-141161904D01*
X174254819Y-141161904D02*
X174254819Y-140923809D01*
X174254819Y-140923809D02*
X174302438Y-140828571D01*
X174302438Y-140828571D02*
X174350057Y-140780952D01*
X174350057Y-140780952D02*
X174445295Y-140733333D01*
X174445295Y-140733333D02*
X174540533Y-140733333D01*
X174540533Y-140733333D02*
X174683390Y-140780952D01*
X174683390Y-140780952D02*
X175254819Y-141352380D01*
X175254819Y-141352380D02*
X175254819Y-140733333D01*
X182354761Y-144804819D02*
X182021428Y-144328628D01*
X181783333Y-144804819D02*
X181783333Y-143804819D01*
X181783333Y-143804819D02*
X182164285Y-143804819D01*
X182164285Y-143804819D02*
X182259523Y-143852438D01*
X182259523Y-143852438D02*
X182307142Y-143900057D01*
X182307142Y-143900057D02*
X182354761Y-143995295D01*
X182354761Y-143995295D02*
X182354761Y-144138152D01*
X182354761Y-144138152D02*
X182307142Y-144233390D01*
X182307142Y-144233390D02*
X182259523Y-144281009D01*
X182259523Y-144281009D02*
X182164285Y-144328628D01*
X182164285Y-144328628D02*
X181783333Y-144328628D01*
X182545238Y-144900057D02*
X183307142Y-144900057D01*
X183545238Y-144804819D02*
X183545238Y-143804819D01*
X183545238Y-143804819D02*
X183783333Y-143804819D01*
X183783333Y-143804819D02*
X183926190Y-143852438D01*
X183926190Y-143852438D02*
X184021428Y-143947676D01*
X184021428Y-143947676D02*
X184069047Y-144042914D01*
X184069047Y-144042914D02*
X184116666Y-144233390D01*
X184116666Y-144233390D02*
X184116666Y-144376247D01*
X184116666Y-144376247D02*
X184069047Y-144566723D01*
X184069047Y-144566723D02*
X184021428Y-144661961D01*
X184021428Y-144661961D02*
X183926190Y-144757200D01*
X183926190Y-144757200D02*
X183783333Y-144804819D01*
X183783333Y-144804819D02*
X183545238Y-144804819D01*
X184545238Y-144804819D02*
X184545238Y-143804819D01*
X184545238Y-143804819D02*
X185116666Y-144804819D01*
X185116666Y-144804819D02*
X185116666Y-143804819D01*
X182354761Y-143304819D02*
X182021428Y-142828628D01*
X181783333Y-143304819D02*
X181783333Y-142304819D01*
X181783333Y-142304819D02*
X182164285Y-142304819D01*
X182164285Y-142304819D02*
X182259523Y-142352438D01*
X182259523Y-142352438D02*
X182307142Y-142400057D01*
X182307142Y-142400057D02*
X182354761Y-142495295D01*
X182354761Y-142495295D02*
X182354761Y-142638152D01*
X182354761Y-142638152D02*
X182307142Y-142733390D01*
X182307142Y-142733390D02*
X182259523Y-142781009D01*
X182259523Y-142781009D02*
X182164285Y-142828628D01*
X182164285Y-142828628D02*
X181783333Y-142828628D01*
X182545238Y-143400057D02*
X183307142Y-143400057D01*
X183545238Y-142304819D02*
X183545238Y-143114342D01*
X183545238Y-143114342D02*
X183592857Y-143209580D01*
X183592857Y-143209580D02*
X183640476Y-143257200D01*
X183640476Y-143257200D02*
X183735714Y-143304819D01*
X183735714Y-143304819D02*
X183926190Y-143304819D01*
X183926190Y-143304819D02*
X184021428Y-143257200D01*
X184021428Y-143257200D02*
X184069047Y-143209580D01*
X184069047Y-143209580D02*
X184116666Y-143114342D01*
X184116666Y-143114342D02*
X184116666Y-142304819D01*
X184592857Y-143304819D02*
X184592857Y-142304819D01*
X184592857Y-142304819D02*
X184973809Y-142304819D01*
X184973809Y-142304819D02*
X185069047Y-142352438D01*
X185069047Y-142352438D02*
X185116666Y-142400057D01*
X185116666Y-142400057D02*
X185164285Y-142495295D01*
X185164285Y-142495295D02*
X185164285Y-142638152D01*
X185164285Y-142638152D02*
X185116666Y-142733390D01*
X185116666Y-142733390D02*
X185069047Y-142781009D01*
X185069047Y-142781009D02*
X184973809Y-142828628D01*
X184973809Y-142828628D02*
X184592857Y-142828628D01*
X162040476Y-150304819D02*
X162040476Y-149304819D01*
X162040476Y-149304819D02*
X162278571Y-149304819D01*
X162278571Y-149304819D02*
X162421428Y-149352438D01*
X162421428Y-149352438D02*
X162516666Y-149447676D01*
X162516666Y-149447676D02*
X162564285Y-149542914D01*
X162564285Y-149542914D02*
X162611904Y-149733390D01*
X162611904Y-149733390D02*
X162611904Y-149876247D01*
X162611904Y-149876247D02*
X162564285Y-150066723D01*
X162564285Y-150066723D02*
X162516666Y-150161961D01*
X162516666Y-150161961D02*
X162421428Y-150257200D01*
X162421428Y-150257200D02*
X162278571Y-150304819D01*
X162278571Y-150304819D02*
X162040476Y-150304819D01*
X162802381Y-150400057D02*
X163564285Y-150400057D01*
X163754762Y-150257200D02*
X163897619Y-150304819D01*
X163897619Y-150304819D02*
X164135714Y-150304819D01*
X164135714Y-150304819D02*
X164230952Y-150257200D01*
X164230952Y-150257200D02*
X164278571Y-150209580D01*
X164278571Y-150209580D02*
X164326190Y-150114342D01*
X164326190Y-150114342D02*
X164326190Y-150019104D01*
X164326190Y-150019104D02*
X164278571Y-149923866D01*
X164278571Y-149923866D02*
X164230952Y-149876247D01*
X164230952Y-149876247D02*
X164135714Y-149828628D01*
X164135714Y-149828628D02*
X163945238Y-149781009D01*
X163945238Y-149781009D02*
X163850000Y-149733390D01*
X163850000Y-149733390D02*
X163802381Y-149685771D01*
X163802381Y-149685771D02*
X163754762Y-149590533D01*
X163754762Y-149590533D02*
X163754762Y-149495295D01*
X163754762Y-149495295D02*
X163802381Y-149400057D01*
X163802381Y-149400057D02*
X163850000Y-149352438D01*
X163850000Y-149352438D02*
X163945238Y-149304819D01*
X163945238Y-149304819D02*
X164183333Y-149304819D01*
X164183333Y-149304819D02*
X164326190Y-149352438D01*
X164611905Y-149304819D02*
X165183333Y-149304819D01*
X164897619Y-150304819D02*
X164897619Y-149304819D01*
X165469048Y-150019104D02*
X165945238Y-150019104D01*
X165373810Y-150304819D02*
X165707143Y-149304819D01*
X165707143Y-149304819D02*
X166040476Y-150304819D01*
X166230953Y-149304819D02*
X166802381Y-149304819D01*
X166516667Y-150304819D02*
X166516667Y-149304819D01*
X161788095Y-100804819D02*
X161788095Y-101614342D01*
X161788095Y-101614342D02*
X161835714Y-101709580D01*
X161835714Y-101709580D02*
X161883333Y-101757200D01*
X161883333Y-101757200D02*
X161978571Y-101804819D01*
X161978571Y-101804819D02*
X162169047Y-101804819D01*
X162169047Y-101804819D02*
X162264285Y-101757200D01*
X162264285Y-101757200D02*
X162311904Y-101709580D01*
X162311904Y-101709580D02*
X162359523Y-101614342D01*
X162359523Y-101614342D02*
X162359523Y-100804819D01*
X163359523Y-101804819D02*
X162788095Y-101804819D01*
X163073809Y-101804819D02*
X163073809Y-100804819D01*
X163073809Y-100804819D02*
X162978571Y-100947676D01*
X162978571Y-100947676D02*
X162883333Y-101042914D01*
X162883333Y-101042914D02*
X162788095Y-101090533D01*
X160433333Y-151607200D02*
X160576190Y-151654819D01*
X160576190Y-151654819D02*
X160814285Y-151654819D01*
X160814285Y-151654819D02*
X160909523Y-151607200D01*
X160909523Y-151607200D02*
X160957142Y-151559580D01*
X160957142Y-151559580D02*
X161004761Y-151464342D01*
X161004761Y-151464342D02*
X161004761Y-151369104D01*
X161004761Y-151369104D02*
X160957142Y-151273866D01*
X160957142Y-151273866D02*
X160909523Y-151226247D01*
X160909523Y-151226247D02*
X160814285Y-151178628D01*
X160814285Y-151178628D02*
X160623809Y-151131009D01*
X160623809Y-151131009D02*
X160528571Y-151083390D01*
X160528571Y-151083390D02*
X160480952Y-151035771D01*
X160480952Y-151035771D02*
X160433333Y-150940533D01*
X160433333Y-150940533D02*
X160433333Y-150845295D01*
X160433333Y-150845295D02*
X160480952Y-150750057D01*
X160480952Y-150750057D02*
X160528571Y-150702438D01*
X160528571Y-150702438D02*
X160623809Y-150654819D01*
X160623809Y-150654819D02*
X160861904Y-150654819D01*
X160861904Y-150654819D02*
X161004761Y-150702438D01*
X161338095Y-150654819D02*
X161576190Y-151654819D01*
X161576190Y-151654819D02*
X161766666Y-150940533D01*
X161766666Y-150940533D02*
X161957142Y-151654819D01*
X161957142Y-151654819D02*
X162195238Y-150654819D01*
X162338095Y-151750057D02*
X163099999Y-151750057D01*
X163671428Y-151131009D02*
X163814285Y-151178628D01*
X163814285Y-151178628D02*
X163861904Y-151226247D01*
X163861904Y-151226247D02*
X163909523Y-151321485D01*
X163909523Y-151321485D02*
X163909523Y-151464342D01*
X163909523Y-151464342D02*
X163861904Y-151559580D01*
X163861904Y-151559580D02*
X163814285Y-151607200D01*
X163814285Y-151607200D02*
X163719047Y-151654819D01*
X163719047Y-151654819D02*
X163338095Y-151654819D01*
X163338095Y-151654819D02*
X163338095Y-150654819D01*
X163338095Y-150654819D02*
X163671428Y-150654819D01*
X163671428Y-150654819D02*
X163766666Y-150702438D01*
X163766666Y-150702438D02*
X163814285Y-150750057D01*
X163814285Y-150750057D02*
X163861904Y-150845295D01*
X163861904Y-150845295D02*
X163861904Y-150940533D01*
X163861904Y-150940533D02*
X163814285Y-151035771D01*
X163814285Y-151035771D02*
X163766666Y-151083390D01*
X163766666Y-151083390D02*
X163671428Y-151131009D01*
X163671428Y-151131009D02*
X163338095Y-151131009D01*
X164528571Y-150654819D02*
X164719047Y-150654819D01*
X164719047Y-150654819D02*
X164814285Y-150702438D01*
X164814285Y-150702438D02*
X164909523Y-150797676D01*
X164909523Y-150797676D02*
X164957142Y-150988152D01*
X164957142Y-150988152D02*
X164957142Y-151321485D01*
X164957142Y-151321485D02*
X164909523Y-151511961D01*
X164909523Y-151511961D02*
X164814285Y-151607200D01*
X164814285Y-151607200D02*
X164719047Y-151654819D01*
X164719047Y-151654819D02*
X164528571Y-151654819D01*
X164528571Y-151654819D02*
X164433333Y-151607200D01*
X164433333Y-151607200D02*
X164338095Y-151511961D01*
X164338095Y-151511961D02*
X164290476Y-151321485D01*
X164290476Y-151321485D02*
X164290476Y-150988152D01*
X164290476Y-150988152D02*
X164338095Y-150797676D01*
X164338095Y-150797676D02*
X164433333Y-150702438D01*
X164433333Y-150702438D02*
X164528571Y-150654819D01*
X165576190Y-150654819D02*
X165766666Y-150654819D01*
X165766666Y-150654819D02*
X165861904Y-150702438D01*
X165861904Y-150702438D02*
X165957142Y-150797676D01*
X165957142Y-150797676D02*
X166004761Y-150988152D01*
X166004761Y-150988152D02*
X166004761Y-151321485D01*
X166004761Y-151321485D02*
X165957142Y-151511961D01*
X165957142Y-151511961D02*
X165861904Y-151607200D01*
X165861904Y-151607200D02*
X165766666Y-151654819D01*
X165766666Y-151654819D02*
X165576190Y-151654819D01*
X165576190Y-151654819D02*
X165480952Y-151607200D01*
X165480952Y-151607200D02*
X165385714Y-151511961D01*
X165385714Y-151511961D02*
X165338095Y-151321485D01*
X165338095Y-151321485D02*
X165338095Y-150988152D01*
X165338095Y-150988152D02*
X165385714Y-150797676D01*
X165385714Y-150797676D02*
X165480952Y-150702438D01*
X165480952Y-150702438D02*
X165576190Y-150654819D01*
X166290476Y-150654819D02*
X166861904Y-150654819D01*
X166576190Y-151654819D02*
X166576190Y-150654819D01*
X166254819Y-128221428D02*
X165254819Y-128221428D01*
X165254819Y-128221428D02*
X165254819Y-127983333D01*
X165254819Y-127983333D02*
X165302438Y-127840476D01*
X165302438Y-127840476D02*
X165397676Y-127745238D01*
X165397676Y-127745238D02*
X165492914Y-127697619D01*
X165492914Y-127697619D02*
X165683390Y-127650000D01*
X165683390Y-127650000D02*
X165826247Y-127650000D01*
X165826247Y-127650000D02*
X166016723Y-127697619D01*
X166016723Y-127697619D02*
X166111961Y-127745238D01*
X166111961Y-127745238D02*
X166207200Y-127840476D01*
X166207200Y-127840476D02*
X166254819Y-127983333D01*
X166254819Y-127983333D02*
X166254819Y-128221428D01*
X166350057Y-127459524D02*
X166350057Y-126697619D01*
X165254819Y-126602380D02*
X166254819Y-126269047D01*
X166254819Y-126269047D02*
X165254819Y-125935714D01*
X165731009Y-125269047D02*
X165778628Y-125126190D01*
X165778628Y-125126190D02*
X165826247Y-125078571D01*
X165826247Y-125078571D02*
X165921485Y-125030952D01*
X165921485Y-125030952D02*
X166064342Y-125030952D01*
X166064342Y-125030952D02*
X166159580Y-125078571D01*
X166159580Y-125078571D02*
X166207200Y-125126190D01*
X166207200Y-125126190D02*
X166254819Y-125221428D01*
X166254819Y-125221428D02*
X166254819Y-125602380D01*
X166254819Y-125602380D02*
X165254819Y-125602380D01*
X165254819Y-125602380D02*
X165254819Y-125269047D01*
X165254819Y-125269047D02*
X165302438Y-125173809D01*
X165302438Y-125173809D02*
X165350057Y-125126190D01*
X165350057Y-125126190D02*
X165445295Y-125078571D01*
X165445295Y-125078571D02*
X165540533Y-125078571D01*
X165540533Y-125078571D02*
X165635771Y-125126190D01*
X165635771Y-125126190D02*
X165683390Y-125173809D01*
X165683390Y-125173809D02*
X165731009Y-125269047D01*
X165731009Y-125269047D02*
X165731009Y-125602380D01*
X165254819Y-124602380D02*
X166064342Y-124602380D01*
X166064342Y-124602380D02*
X166159580Y-124554761D01*
X166159580Y-124554761D02*
X166207200Y-124507142D01*
X166207200Y-124507142D02*
X166254819Y-124411904D01*
X166254819Y-124411904D02*
X166254819Y-124221428D01*
X166254819Y-124221428D02*
X166207200Y-124126190D01*
X166207200Y-124126190D02*
X166159580Y-124078571D01*
X166159580Y-124078571D02*
X166064342Y-124030952D01*
X166064342Y-124030952D02*
X165254819Y-124030952D01*
X166207200Y-123602380D02*
X166254819Y-123459523D01*
X166254819Y-123459523D02*
X166254819Y-123221428D01*
X166254819Y-123221428D02*
X166207200Y-123126190D01*
X166207200Y-123126190D02*
X166159580Y-123078571D01*
X166159580Y-123078571D02*
X166064342Y-123030952D01*
X166064342Y-123030952D02*
X165969104Y-123030952D01*
X165969104Y-123030952D02*
X165873866Y-123078571D01*
X165873866Y-123078571D02*
X165826247Y-123126190D01*
X165826247Y-123126190D02*
X165778628Y-123221428D01*
X165778628Y-123221428D02*
X165731009Y-123411904D01*
X165731009Y-123411904D02*
X165683390Y-123507142D01*
X165683390Y-123507142D02*
X165635771Y-123554761D01*
X165635771Y-123554761D02*
X165540533Y-123602380D01*
X165540533Y-123602380D02*
X165445295Y-123602380D01*
X165445295Y-123602380D02*
X165350057Y-123554761D01*
X165350057Y-123554761D02*
X165302438Y-123507142D01*
X165302438Y-123507142D02*
X165254819Y-123411904D01*
X165254819Y-123411904D02*
X165254819Y-123173809D01*
X165254819Y-123173809D02*
X165302438Y-123030952D01*
X173166666Y-145004819D02*
X173166666Y-145719104D01*
X173166666Y-145719104D02*
X173119047Y-145861961D01*
X173119047Y-145861961D02*
X173023809Y-145957200D01*
X173023809Y-145957200D02*
X172880952Y-146004819D01*
X172880952Y-146004819D02*
X172785714Y-146004819D01*
X174166666Y-146004819D02*
X173595238Y-146004819D01*
X173880952Y-146004819D02*
X173880952Y-145004819D01*
X173880952Y-145004819D02*
X173785714Y-145147676D01*
X173785714Y-145147676D02*
X173690476Y-145242914D01*
X173690476Y-145242914D02*
X173595238Y-145290533D01*
X167533333Y-145659580D02*
X167485714Y-145707200D01*
X167485714Y-145707200D02*
X167342857Y-145754819D01*
X167342857Y-145754819D02*
X167247619Y-145754819D01*
X167247619Y-145754819D02*
X167104762Y-145707200D01*
X167104762Y-145707200D02*
X167009524Y-145611961D01*
X167009524Y-145611961D02*
X166961905Y-145516723D01*
X166961905Y-145516723D02*
X166914286Y-145326247D01*
X166914286Y-145326247D02*
X166914286Y-145183390D01*
X166914286Y-145183390D02*
X166961905Y-144992914D01*
X166961905Y-144992914D02*
X167009524Y-144897676D01*
X167009524Y-144897676D02*
X167104762Y-144802438D01*
X167104762Y-144802438D02*
X167247619Y-144754819D01*
X167247619Y-144754819D02*
X167342857Y-144754819D01*
X167342857Y-144754819D02*
X167485714Y-144802438D01*
X167485714Y-144802438D02*
X167533333Y-144850057D01*
X167914286Y-144850057D02*
X167961905Y-144802438D01*
X167961905Y-144802438D02*
X168057143Y-144754819D01*
X168057143Y-144754819D02*
X168295238Y-144754819D01*
X168295238Y-144754819D02*
X168390476Y-144802438D01*
X168390476Y-144802438D02*
X168438095Y-144850057D01*
X168438095Y-144850057D02*
X168485714Y-144945295D01*
X168485714Y-144945295D02*
X168485714Y-145040533D01*
X168485714Y-145040533D02*
X168438095Y-145183390D01*
X168438095Y-145183390D02*
X167866667Y-145754819D01*
X167866667Y-145754819D02*
X168485714Y-145754819D01*
X172066667Y-105307200D02*
X172209524Y-105354819D01*
X172209524Y-105354819D02*
X172447619Y-105354819D01*
X172447619Y-105354819D02*
X172542857Y-105307200D01*
X172542857Y-105307200D02*
X172590476Y-105259580D01*
X172590476Y-105259580D02*
X172638095Y-105164342D01*
X172638095Y-105164342D02*
X172638095Y-105069104D01*
X172638095Y-105069104D02*
X172590476Y-104973866D01*
X172590476Y-104973866D02*
X172542857Y-104926247D01*
X172542857Y-104926247D02*
X172447619Y-104878628D01*
X172447619Y-104878628D02*
X172257143Y-104831009D01*
X172257143Y-104831009D02*
X172161905Y-104783390D01*
X172161905Y-104783390D02*
X172114286Y-104735771D01*
X172114286Y-104735771D02*
X172066667Y-104640533D01*
X172066667Y-104640533D02*
X172066667Y-104545295D01*
X172066667Y-104545295D02*
X172114286Y-104450057D01*
X172114286Y-104450057D02*
X172161905Y-104402438D01*
X172161905Y-104402438D02*
X172257143Y-104354819D01*
X172257143Y-104354819D02*
X172495238Y-104354819D01*
X172495238Y-104354819D02*
X172638095Y-104402438D01*
X172971429Y-104354819D02*
X173209524Y-105354819D01*
X173209524Y-105354819D02*
X173400000Y-104640533D01*
X173400000Y-104640533D02*
X173590476Y-105354819D01*
X173590476Y-105354819D02*
X173828572Y-104354819D01*
X174161905Y-104450057D02*
X174209524Y-104402438D01*
X174209524Y-104402438D02*
X174304762Y-104354819D01*
X174304762Y-104354819D02*
X174542857Y-104354819D01*
X174542857Y-104354819D02*
X174638095Y-104402438D01*
X174638095Y-104402438D02*
X174685714Y-104450057D01*
X174685714Y-104450057D02*
X174733333Y-104545295D01*
X174733333Y-104545295D02*
X174733333Y-104640533D01*
X174733333Y-104640533D02*
X174685714Y-104783390D01*
X174685714Y-104783390D02*
X174114286Y-105354819D01*
X174114286Y-105354819D02*
X174733333Y-105354819D01*
X179983333Y-148609580D02*
X179935714Y-148657200D01*
X179935714Y-148657200D02*
X179792857Y-148704819D01*
X179792857Y-148704819D02*
X179697619Y-148704819D01*
X179697619Y-148704819D02*
X179554762Y-148657200D01*
X179554762Y-148657200D02*
X179459524Y-148561961D01*
X179459524Y-148561961D02*
X179411905Y-148466723D01*
X179411905Y-148466723D02*
X179364286Y-148276247D01*
X179364286Y-148276247D02*
X179364286Y-148133390D01*
X179364286Y-148133390D02*
X179411905Y-147942914D01*
X179411905Y-147942914D02*
X179459524Y-147847676D01*
X179459524Y-147847676D02*
X179554762Y-147752438D01*
X179554762Y-147752438D02*
X179697619Y-147704819D01*
X179697619Y-147704819D02*
X179792857Y-147704819D01*
X179792857Y-147704819D02*
X179935714Y-147752438D01*
X179935714Y-147752438D02*
X179983333Y-147800057D01*
X180935714Y-148704819D02*
X180364286Y-148704819D01*
X180650000Y-148704819D02*
X180650000Y-147704819D01*
X180650000Y-147704819D02*
X180554762Y-147847676D01*
X180554762Y-147847676D02*
X180459524Y-147942914D01*
X180459524Y-147942914D02*
X180364286Y-147990533D01*
X185654819Y-141545238D02*
X185178628Y-141878571D01*
X185654819Y-142116666D02*
X184654819Y-142116666D01*
X184654819Y-142116666D02*
X184654819Y-141735714D01*
X184654819Y-141735714D02*
X184702438Y-141640476D01*
X184702438Y-141640476D02*
X184750057Y-141592857D01*
X184750057Y-141592857D02*
X184845295Y-141545238D01*
X184845295Y-141545238D02*
X184988152Y-141545238D01*
X184988152Y-141545238D02*
X185083390Y-141592857D01*
X185083390Y-141592857D02*
X185131009Y-141640476D01*
X185131009Y-141640476D02*
X185178628Y-141735714D01*
X185178628Y-141735714D02*
X185178628Y-142116666D01*
X185750057Y-141354762D02*
X185750057Y-140592857D01*
X185654819Y-140354761D02*
X184654819Y-140354761D01*
X184654819Y-140354761D02*
X184654819Y-139973809D01*
X184654819Y-139973809D02*
X184702438Y-139878571D01*
X184702438Y-139878571D02*
X184750057Y-139830952D01*
X184750057Y-139830952D02*
X184845295Y-139783333D01*
X184845295Y-139783333D02*
X184988152Y-139783333D01*
X184988152Y-139783333D02*
X185083390Y-139830952D01*
X185083390Y-139830952D02*
X185131009Y-139878571D01*
X185131009Y-139878571D02*
X185178628Y-139973809D01*
X185178628Y-139973809D02*
X185178628Y-140354761D01*
X185654819Y-138783333D02*
X185178628Y-139116666D01*
X185654819Y-139354761D02*
X184654819Y-139354761D01*
X184654819Y-139354761D02*
X184654819Y-138973809D01*
X184654819Y-138973809D02*
X184702438Y-138878571D01*
X184702438Y-138878571D02*
X184750057Y-138830952D01*
X184750057Y-138830952D02*
X184845295Y-138783333D01*
X184845295Y-138783333D02*
X184988152Y-138783333D01*
X184988152Y-138783333D02*
X185083390Y-138830952D01*
X185083390Y-138830952D02*
X185131009Y-138878571D01*
X185131009Y-138878571D02*
X185178628Y-138973809D01*
X185178628Y-138973809D02*
X185178628Y-139354761D01*
X184654819Y-138164285D02*
X184654819Y-137973809D01*
X184654819Y-137973809D02*
X184702438Y-137878571D01*
X184702438Y-137878571D02*
X184797676Y-137783333D01*
X184797676Y-137783333D02*
X184988152Y-137735714D01*
X184988152Y-137735714D02*
X185321485Y-137735714D01*
X185321485Y-137735714D02*
X185511961Y-137783333D01*
X185511961Y-137783333D02*
X185607200Y-137878571D01*
X185607200Y-137878571D02*
X185654819Y-137973809D01*
X185654819Y-137973809D02*
X185654819Y-138164285D01*
X185654819Y-138164285D02*
X185607200Y-138259523D01*
X185607200Y-138259523D02*
X185511961Y-138354761D01*
X185511961Y-138354761D02*
X185321485Y-138402380D01*
X185321485Y-138402380D02*
X184988152Y-138402380D01*
X184988152Y-138402380D02*
X184797676Y-138354761D01*
X184797676Y-138354761D02*
X184702438Y-138259523D01*
X184702438Y-138259523D02*
X184654819Y-138164285D01*
X184702438Y-136783333D02*
X184654819Y-136878571D01*
X184654819Y-136878571D02*
X184654819Y-137021428D01*
X184654819Y-137021428D02*
X184702438Y-137164285D01*
X184702438Y-137164285D02*
X184797676Y-137259523D01*
X184797676Y-137259523D02*
X184892914Y-137307142D01*
X184892914Y-137307142D02*
X185083390Y-137354761D01*
X185083390Y-137354761D02*
X185226247Y-137354761D01*
X185226247Y-137354761D02*
X185416723Y-137307142D01*
X185416723Y-137307142D02*
X185511961Y-137259523D01*
X185511961Y-137259523D02*
X185607200Y-137164285D01*
X185607200Y-137164285D02*
X185654819Y-137021428D01*
X185654819Y-137021428D02*
X185654819Y-136926190D01*
X185654819Y-136926190D02*
X185607200Y-136783333D01*
X185607200Y-136783333D02*
X185559580Y-136735714D01*
X185559580Y-136735714D02*
X185226247Y-136735714D01*
X185226247Y-136735714D02*
X185226247Y-136926190D01*
X182588095Y-139604819D02*
X182588095Y-140414342D01*
X182588095Y-140414342D02*
X182635714Y-140509580D01*
X182635714Y-140509580D02*
X182683333Y-140557200D01*
X182683333Y-140557200D02*
X182778571Y-140604819D01*
X182778571Y-140604819D02*
X182969047Y-140604819D01*
X182969047Y-140604819D02*
X183064285Y-140557200D01*
X183064285Y-140557200D02*
X183111904Y-140509580D01*
X183111904Y-140509580D02*
X183159523Y-140414342D01*
X183159523Y-140414342D02*
X183159523Y-139604819D01*
X183588095Y-139700057D02*
X183635714Y-139652438D01*
X183635714Y-139652438D02*
X183730952Y-139604819D01*
X183730952Y-139604819D02*
X183969047Y-139604819D01*
X183969047Y-139604819D02*
X184064285Y-139652438D01*
X184064285Y-139652438D02*
X184111904Y-139700057D01*
X184111904Y-139700057D02*
X184159523Y-139795295D01*
X184159523Y-139795295D02*
X184159523Y-139890533D01*
X184159523Y-139890533D02*
X184111904Y-140033390D01*
X184111904Y-140033390D02*
X183540476Y-140604819D01*
X183540476Y-140604819D02*
X184159523Y-140604819D01*
X162604819Y-96438095D02*
X162128628Y-96771428D01*
X162604819Y-97009523D02*
X161604819Y-97009523D01*
X161604819Y-97009523D02*
X161604819Y-96628571D01*
X161604819Y-96628571D02*
X161652438Y-96533333D01*
X161652438Y-96533333D02*
X161700057Y-96485714D01*
X161700057Y-96485714D02*
X161795295Y-96438095D01*
X161795295Y-96438095D02*
X161938152Y-96438095D01*
X161938152Y-96438095D02*
X162033390Y-96485714D01*
X162033390Y-96485714D02*
X162081009Y-96533333D01*
X162081009Y-96533333D02*
X162128628Y-96628571D01*
X162128628Y-96628571D02*
X162128628Y-97009523D01*
X162700057Y-96247619D02*
X162700057Y-95485714D01*
X162557200Y-95295237D02*
X162604819Y-95152380D01*
X162604819Y-95152380D02*
X162604819Y-94914285D01*
X162604819Y-94914285D02*
X162557200Y-94819047D01*
X162557200Y-94819047D02*
X162509580Y-94771428D01*
X162509580Y-94771428D02*
X162414342Y-94723809D01*
X162414342Y-94723809D02*
X162319104Y-94723809D01*
X162319104Y-94723809D02*
X162223866Y-94771428D01*
X162223866Y-94771428D02*
X162176247Y-94819047D01*
X162176247Y-94819047D02*
X162128628Y-94914285D01*
X162128628Y-94914285D02*
X162081009Y-95104761D01*
X162081009Y-95104761D02*
X162033390Y-95199999D01*
X162033390Y-95199999D02*
X161985771Y-95247618D01*
X161985771Y-95247618D02*
X161890533Y-95295237D01*
X161890533Y-95295237D02*
X161795295Y-95295237D01*
X161795295Y-95295237D02*
X161700057Y-95247618D01*
X161700057Y-95247618D02*
X161652438Y-95199999D01*
X161652438Y-95199999D02*
X161604819Y-95104761D01*
X161604819Y-95104761D02*
X161604819Y-94866666D01*
X161604819Y-94866666D02*
X161652438Y-94723809D01*
X161604819Y-94438094D02*
X161604819Y-93866666D01*
X162604819Y-94152380D02*
X161604819Y-94152380D01*
X162319104Y-93580951D02*
X162319104Y-93104761D01*
X162604819Y-93676189D02*
X161604819Y-93342856D01*
X161604819Y-93342856D02*
X162604819Y-93009523D01*
X161604819Y-92819046D02*
X161604819Y-92247618D01*
X162604819Y-92533332D02*
X161604819Y-92533332D01*
%TO.C,R_EN*%
D11*
X182687258Y-150677500D02*
X182212742Y-150677500D01*
X182687258Y-151722500D02*
X182212742Y-151722500D01*
%TO.C,D_CHG*%
X177650000Y-138635000D02*
X179935000Y-138635000D01*
X179935000Y-137165000D02*
X177650000Y-137165000D01*
X179935000Y-138635000D02*
X179935000Y-137165000D01*
%TO.C,SW_RST*%
X179900000Y-152200000D02*
X183200000Y-152200000D01*
X179900000Y-152500000D02*
X179900000Y-152200000D01*
X179900000Y-154700000D02*
X179900000Y-155000000D01*
X179900000Y-155000000D02*
X183200000Y-155000000D01*
X183200000Y-152200000D02*
X183200000Y-152500000D01*
X183200000Y-155000000D02*
X183200000Y-154700000D01*
%TO.C,SW1*%
X166820000Y-122400000D02*
X179820000Y-122400000D01*
X179820000Y-135400000D01*
X166820000Y-135400000D01*
X166820000Y-122400000D01*
%TO.C,D_VBAT*%
X161650000Y-122110000D02*
X161650000Y-116600000D01*
X161650000Y-122110000D02*
X164950000Y-122110000D01*
X164950000Y-122110000D02*
X164950000Y-116600000D01*
%TO.C,R_CHG*%
X181737258Y-137377500D02*
X181262742Y-137377500D01*
X181737258Y-138422500D02*
X181262742Y-138422500D01*
%TO.C,C3*%
X177240000Y-144490580D02*
X177240000Y-144209420D01*
X178260000Y-144490580D02*
X178260000Y-144209420D01*
%TO.C,R_CC1*%
X171577500Y-144562258D02*
X171577500Y-144087742D01*
X172622500Y-144562258D02*
X172622500Y-144087742D01*
%TO.C,U3*%
X167090000Y-137290000D02*
X168910000Y-137290000D01*
X167090000Y-137340000D02*
X167090000Y-137290000D01*
X167090000Y-140410000D02*
X167090000Y-140360000D01*
X168910000Y-137290000D02*
X168910000Y-137340000D01*
X168910000Y-138460000D02*
X168910000Y-139240000D01*
X168910000Y-140360000D02*
X168910000Y-140410000D01*
X168910000Y-140410000D02*
X167090000Y-140410000D01*
X166550000Y-137340000D02*
X166310000Y-137010000D01*
X166790000Y-137010000D01*
X166550000Y-137340000D01*
G36*
X166550000Y-137340000D02*
G01*
X166310000Y-137010000D01*
X166790000Y-137010000D01*
X166550000Y-137340000D01*
G37*
%TO.C,R_CC2*%
X175727500Y-144387258D02*
X175727500Y-143912742D01*
X176772500Y-144387258D02*
X176772500Y-143912742D01*
%TO.C,R_DN*%
X180237258Y-143777500D02*
X179762742Y-143777500D01*
X180237258Y-144822500D02*
X179762742Y-144822500D01*
%TO.C,R_UP*%
X179762742Y-142277500D02*
X180237258Y-142277500D01*
X179762742Y-143322500D02*
X180237258Y-143322500D01*
%TO.C,D_STAT*%
X167015000Y-149600000D02*
X167015000Y-151885000D01*
X167015000Y-151885000D02*
X168485000Y-151885000D01*
X168485000Y-151885000D02*
X168485000Y-149600000D01*
%TO.C,U1*%
X164340000Y-83790000D02*
X164340000Y-89600000D01*
X164340000Y-83790000D02*
X182560000Y-83790000D01*
X164340000Y-103710000D02*
X164340000Y-104010000D01*
X164340000Y-104010000D02*
X182560000Y-104010000D01*
X182560000Y-83790000D02*
X182560000Y-90290000D01*
X182560000Y-103710000D02*
X182560000Y-104010000D01*
X164350000Y-90300000D02*
X163850000Y-90300000D01*
X164350000Y-89800000D01*
X164350000Y-90300000D01*
G36*
X164350000Y-90300000D02*
G01*
X163850000Y-90300000D01*
X164350000Y-89800000D01*
X164350000Y-90300000D01*
G37*
%TO.C,SW_BOOT*%
X164450000Y-152200000D02*
X167750000Y-152200000D01*
X164450000Y-152500000D02*
X164450000Y-152200000D01*
X164450000Y-154700000D02*
X164450000Y-155000000D01*
X164450000Y-155000000D02*
X167750000Y-155000000D01*
X167750000Y-152200000D02*
X167750000Y-152500000D01*
X167750000Y-155000000D02*
X167750000Y-154700000D01*
%TO.C,D_VBUS*%
X161650000Y-122140000D02*
X161650000Y-127650000D01*
X164950000Y-122140000D02*
X161650000Y-122140000D01*
X164950000Y-122140000D02*
X164950000Y-127650000D01*
%TO.C,J1*%
X169130000Y-149200000D02*
X169130000Y-151200000D01*
X169130000Y-153100000D02*
X169130000Y-155000000D01*
X169130000Y-155000000D02*
X178530000Y-155000000D01*
X178530000Y-149200000D02*
X178530000Y-151200000D01*
X178530000Y-153100000D02*
X178530000Y-155000000D01*
%TO.C,C2*%
X167240000Y-147540580D02*
X167240000Y-147259420D01*
X168260000Y-147540580D02*
X168260000Y-147259420D01*
%TO.C,SW2*%
X166850000Y-105900000D02*
X179850000Y-105900000D01*
X179850000Y-118900000D01*
X166850000Y-118900000D01*
X166850000Y-105900000D01*
%TO.C,C1*%
X179690000Y-150615580D02*
X179690000Y-150334420D01*
X180710000Y-150615580D02*
X180710000Y-150334420D01*
%TO.C,R_PROG*%
X181327500Y-139912742D02*
X181327500Y-140387258D01*
X182372500Y-139912742D02*
X182372500Y-140387258D01*
%TO.C,U2*%
X178127500Y-138790000D02*
X179947500Y-138790000D01*
X178127500Y-138840000D02*
X178127500Y-138790000D01*
X178127500Y-141910000D02*
X178127500Y-141860000D01*
X179947500Y-138790000D02*
X179947500Y-138840000D01*
X179947500Y-139960000D02*
X179947500Y-140740000D01*
X179947500Y-141860000D02*
X179947500Y-141910000D01*
X179947500Y-141910000D02*
X178127500Y-141910000D01*
X177587500Y-138840000D02*
X177347500Y-138510000D01*
X177827500Y-138510000D01*
X177587500Y-138840000D01*
G36*
X177587500Y-138840000D02*
G01*
X177347500Y-138510000D01*
X177827500Y-138510000D01*
X177587500Y-138840000D01*
G37*
%TO.C,R_STAT*%
X162437258Y-98027500D02*
X161962742Y-98027500D01*
X162437258Y-99072500D02*
X161962742Y-99072500D01*
%TD*%
M02*
