%TF.GenerationSoftware,KiCad,Pcbnew,10.0.4*%
%TF.CreationDate,2026-09-26T11:42:44-04:00*%
%TF.ProjectId,remote,72656d6f-7465-42e6-9b69-6361645f7063,rev?*%
%TF.SameCoordinates,Original*%
%TF.FileFunction,Paste,Top*%
%TF.FilePolarity,Positive*%
%FSLAX46Y46*%
G04 Gerber Fmt 4.6, Leading zero omitted, Abs format (unit mm)*
G04 Created by KiCad (PCBNEW 10.0.4) date 2026-09-26 11:42:44*
%MOMM*%
%LPD*%
G01*
G04 APERTURE LIST*
G04 Aperture macros list*
%AMRoundRect*
0 Rectangle with rounded corners*
0 $1 Rounding radius*
0 $2 $3 $4 $5 $6 $7 $8 $9 X,Y pos of 4 corners*
0 Add a 4 corners polygon primitive as box body*
4,1,4,$2,$3,$4,$5,$6,$7,$8,$9,$2,$3,0*
0 Add four circle primitives for the rounded corners*
1,1,$1+$1,$2,$3*
1,1,$1+$1,$4,$5*
1,1,$1+$1,$6,$7*
1,1,$1+$1,$8,$9*
0 Add four rect primitives between the rounded corners*
20,1,$1+$1,$2,$3,$4,$5,0*
20,1,$1+$1,$4,$5,$6,$7,0*
20,1,$1+$1,$6,$7,$8,$9,0*
20,1,$1+$1,$8,$9,$2,$3,0*%
G04 Aperture macros list end*
%ADD10RoundRect,0.200000X0.200000X0.275000X-0.200000X0.275000X-0.200000X-0.275000X0.200000X-0.275000X0*%
%ADD11RoundRect,0.218750X0.218750X0.256250X-0.218750X0.256250X-0.218750X-0.256250X0.218750X-0.256250X0*%
%ADD12R,0.900000X1.700000*%
%ADD13RoundRect,0.250000X0.650000X-1.000000X0.650000X1.000000X-0.650000X1.000000X-0.650000X-1.000000X0*%
%ADD14RoundRect,0.225000X0.250000X-0.225000X0.250000X0.225000X-0.250000X0.225000X-0.250000X-0.225000X0*%
%ADD15RoundRect,0.200000X0.275000X-0.200000X0.275000X0.200000X-0.275000X0.200000X-0.275000X-0.200000X0*%
%ADD16RoundRect,0.150000X-0.512500X-0.150000X0.512500X-0.150000X0.512500X0.150000X-0.512500X0.150000X0*%
%ADD17RoundRect,0.200000X-0.200000X-0.275000X0.200000X-0.275000X0.200000X0.275000X-0.200000X0.275000X0*%
%ADD18RoundRect,0.218750X0.256250X-0.218750X0.256250X0.218750X-0.256250X0.218750X-0.256250X-0.218750X0*%
%ADD19R,0.700000X0.700000*%
%ADD20R,1.500000X0.900000*%
%ADD21RoundRect,0.250000X-0.650000X1.000000X-0.650000X-1.000000X0.650000X-1.000000X0.650000X1.000000X0*%
%ADD22RoundRect,0.150000X-0.150000X-0.575000X0.150000X-0.575000X0.150000X0.575000X-0.150000X0.575000X0*%
%ADD23RoundRect,0.075000X-0.075000X-0.650000X0.075000X-0.650000X0.075000X0.650000X-0.075000X0.650000X0*%
%ADD24RoundRect,0.200000X-0.275000X0.200000X-0.275000X-0.200000X0.275000X-0.200000X0.275000X0.200000X0*%
G04 APERTURE END LIST*
D10*
%TO.C,R_EN*%
X183275000Y-151200000D03*
X181625000Y-151200000D03*
%TD*%
D11*
%TO.C,D_CHG*%
X179237500Y-137900000D03*
X177662500Y-137900000D03*
%TD*%
D12*
%TO.C,SW_RST*%
X179850000Y-153600000D03*
X183250000Y-153600000D03*
%TD*%
D13*
%TO.C,D_VBAT*%
X163300000Y-120600000D03*
X163300000Y-116600000D03*
%TD*%
D10*
%TO.C,R_CHG*%
X182325000Y-137900000D03*
X180675000Y-137900000D03*
%TD*%
D14*
%TO.C,C3*%
X177750000Y-145125000D03*
X177750000Y-143575000D03*
%TD*%
D15*
%TO.C,R_CC1*%
X172100000Y-145150000D03*
X172100000Y-143500000D03*
%TD*%
D16*
%TO.C,U3*%
X166862500Y-137900000D03*
X166862500Y-138850000D03*
X166862500Y-139800000D03*
X169137500Y-139800000D03*
X169137500Y-137900000D03*
%TD*%
D15*
%TO.C,R_CC2*%
X176250000Y-144975000D03*
X176250000Y-143325000D03*
%TD*%
D10*
%TO.C,R_DN*%
X180825000Y-144300000D03*
X179175000Y-144300000D03*
%TD*%
D17*
%TO.C,R_UP*%
X179175000Y-142800000D03*
X180825000Y-142800000D03*
%TD*%
D18*
%TO.C,D_STAT*%
X167750000Y-151187500D03*
X167750000Y-149612500D03*
%TD*%
D19*
%TO.C,U1*%
X173310000Y-96100000D03*
X173310000Y-97200000D03*
X173310000Y-98300000D03*
X174410000Y-96100000D03*
X174410000Y-97200000D03*
X174410000Y-98300000D03*
X175510000Y-96100000D03*
X175510000Y-97200000D03*
X175510000Y-98300000D03*
D20*
X164700000Y-91000000D03*
X164700000Y-92500000D03*
X164700000Y-94000000D03*
X164700000Y-95500000D03*
X164700000Y-97000000D03*
X164700000Y-98500000D03*
X164700000Y-100000000D03*
X164700000Y-101500000D03*
X164700000Y-103000000D03*
X182200000Y-103000000D03*
X182200000Y-101500000D03*
X182200000Y-100000000D03*
X182200000Y-98500000D03*
X182200000Y-97000000D03*
X182200000Y-95500000D03*
X182200000Y-94000000D03*
X182200000Y-92500000D03*
X182200000Y-91000000D03*
%TD*%
D12*
%TO.C,SW_BOOT*%
X164400000Y-153600000D03*
X167800000Y-153600000D03*
%TD*%
D21*
%TO.C,D_VBUS*%
X163300000Y-123650000D03*
X163300000Y-127650000D03*
%TD*%
D22*
%TO.C,J1*%
X170580000Y-147055000D03*
X171380000Y-147055000D03*
D23*
X172580000Y-147055000D03*
X173580000Y-147055000D03*
X174080000Y-147055000D03*
X175080000Y-147055000D03*
D22*
X176280000Y-147055000D03*
X177080000Y-147055000D03*
X177080000Y-147055000D03*
X176280000Y-147055000D03*
D23*
X175580000Y-147055000D03*
X174580000Y-147055000D03*
X173080000Y-147055000D03*
X172080000Y-147055000D03*
D22*
X171380000Y-147055000D03*
X170580000Y-147055000D03*
%TD*%
D14*
%TO.C,C2*%
X167750000Y-148175000D03*
X167750000Y-146625000D03*
%TD*%
%TO.C,C1*%
X180200000Y-151250000D03*
X180200000Y-149700000D03*
%TD*%
D24*
%TO.C,R_PROG*%
X181850000Y-139325000D03*
X181850000Y-140975000D03*
%TD*%
D16*
%TO.C,U2*%
X177900000Y-139400000D03*
X177900000Y-140350000D03*
X177900000Y-141300000D03*
X180175000Y-141300000D03*
X180175000Y-139400000D03*
%TD*%
D10*
%TO.C,R_STAT*%
X163025000Y-98550000D03*
X161375000Y-98550000D03*
%TD*%
M02*
